<?xml version="1.0" encoding="utf-8" standalone="no"?>
<!DOCTYPE svg PUBLIC "-//W3C//DTD SVG 1.1//EN"
  "http://www.w3.org/Graphics/SVG/1.1/DTD/svg11.dtd">
<svg xmlns:xlink="http://www.w3.org/1999/xlink" width="720pt" height="342pt" viewBox="0 0 720 342" xmlns="http://www.w3.org/2000/svg" version="1.1">
 <metadata>
  <rdf:RDF xmlns:dc="http://purl.org/dc/elements/1.1/" xmlns:cc="http://creativecommons.org/ns#" xmlns:rdf="http://www.w3.org/1999/02/22-rdf-syntax-ns#">
   <cc:Work>
    <dc:type rdf:resource="http://purl.org/dc/dcmitype/StillImage"/>
    <dc:date>2025-02-25T18:57:38.998792</dc:date>
    <dc:format>image/svg+xml</dc:format>
    <dc:creator>
     <cc:Agent>
      <dc:title>Matplotlib v3.8.0, https://matplotlib.org/</dc:title>
     </cc:Agent>
    </dc:creator>
   </cc:Work>
  </rdf:RDF>
 </metadata>
 <defs>
  <style type="text/css">*{stroke-linejoin: round; stroke-linecap: butt}</style>
 </defs>
 <g id="figure_1">
  <g id="patch_1">
   <path d="M 0 342 
L 720 342 
L 720 0 
L 0 0 
z
" style="fill: #ffffff"/>
  </g>
  <g id="axes_1">
   <g id="patch_2">
    <path d="M 96.19 277.04 
L 715 277.04 
L 715 5 
L 96.19 5 
z
" style="fill: #ffffff"/>
   </g>
   <g id="PolyCollection_1">
    <defs>
     <path id="m6ce020704a" d="M 124.317727 -83.156019 
L 124.317727 -79.296708 
L 143.71616 -84.918249 
L 163.114592 -87.222762 
L 182.513025 -88.368296 
L 201.911458 -88.42384 
L 221.30989 -86.235661 
L 240.708323 -93.055508 
L 260.106755 -85.12456 
L 279.505188 -93.530868 
L 298.903621 -95.525176 
L 318.302053 -93.288884 
L 337.700486 -94.381882 
L 357.098918 -89.865428 
L 376.497351 -89.856701 
L 395.895784 -102.15416 
L 415.294216 -104.667402 
L 434.692649 -100.620825 
L 454.091082 -92.300191 
L 473.489514 -100.658266 
L 492.887947 -114.756457 
L 512.286379 -104.573946 
L 531.684812 -96.838638 
L 551.083245 -116.581718 
L 570.481677 -123.343605 
L 589.88011 -114.635701 
L 609.278542 -129.9253 
L 628.676975 -122.67968 
L 648.075408 -121.802546 
L 667.47384 -115.246971 
L 686.872273 -120.394212 
L 686.872273 -182.336522 
L 686.872273 -182.336522 
L 667.47384 -158.382829 
L 648.075408 -186.382687 
L 628.676975 -155.652249 
L 609.278542 -167.660552 
L 589.88011 -154.784961 
L 570.481677 -172.922889 
L 551.083245 -161.691778 
L 531.684812 -128.74822 
L 512.286379 -170.635652 
L 492.887947 -157.491602 
L 473.489514 -132.505996 
L 454.091082 -139.151784 
L 434.692649 -126.22118 
L 415.294216 -133.974236 
L 395.895784 -136.43677 
L 376.497351 -117.617582 
L 357.098918 -109.79377 
L 337.700486 -115.108231 
L 318.302053 -114.956106 
L 298.903621 -108.919997 
L 279.505188 -108.918405 
L 260.106755 -107.004581 
L 240.708323 -115.487776 
L 221.30989 -101.355269 
L 201.911458 -101.277792 
L 182.513025 -99.625174 
L 163.114592 -94.503582 
L 143.71616 -97.278679 
L 124.317727 -83.156019 
z
" style="stroke: #646464; stroke-opacity: 0.1"/>
    </defs>
    <g clip-path="url(#p670405414b)">
     <use xlink:href="#m6ce020704a" x="0" y="342" style="fill: #646464; fill-opacity: 0.1; stroke: #646464; stroke-opacity: 0.1"/>
    </g>
   </g>
   <g id="PolyCollection_2">
    <defs>
     <path id="meadb809395" d="M 124.317727 -79.429139 
L 124.317727 -77.325455 
L 143.71616 -77.325455 
L 163.114592 -77.325455 
L 182.513025 -77.325455 
L 201.911458 -77.325455 
L 221.30989 -79.854617 
L 240.708323 -81.725634 
L 260.106755 -78.350705 
L 279.505188 -81.222325 
L 298.903621 -82.41332 
L 318.302053 -81.208586 
L 337.700486 -80.892013 
L 357.098918 -81.170909 
L 376.497351 -84.991952 
L 395.895784 -80.989126 
L 415.294216 -85.850278 
L 434.692649 -80.913358 
L 454.091082 -85.319198 
L 473.489514 -83.225124 
L 492.887947 -87.226476 
L 512.286379 -81.208645 
L 531.684812 -89.933295 
L 551.083245 -90.463255 
L 570.481677 -92.340168 
L 589.88011 -92.328611 
L 609.278542 -97.241828 
L 628.676975 -93.428862 
L 648.075408 -103.341794 
L 667.47384 -96.368761 
L 686.872273 -99.90631 
L 686.872273 -131.778274 
L 686.872273 -131.778274 
L 667.47384 -134.348828 
L 648.075408 -119.96903 
L 628.676975 -125.40631 
L 609.278542 -103.861613 
L 589.88011 -101.030972 
L 570.481677 -111.427225 
L 551.083245 -108.510026 
L 531.684812 -108.454306 
L 512.286379 -143.967476 
L 492.887947 -139.990416 
L 473.489514 -99.071865 
L 454.091082 -105.083387 
L 434.692649 -106.819967 
L 415.294216 -96.481086 
L 395.895784 -92.374602 
L 376.497351 -92.901614 
L 357.098918 -92.421772 
L 337.700486 -93.657698 
L 318.302053 -92.254317 
L 298.903621 -87.170874 
L 279.505188 -85.15929 
L 260.106755 -82.389558 
L 240.708323 -84.807103 
L 221.30989 -84.635049 
L 201.911458 -82.283778 
L 182.513025 -81.604405 
L 163.114592 -81.457175 
L 143.71616 -79.25225 
L 124.317727 -79.429139 
z
" style="stroke: #ee0000; stroke-opacity: 0.1"/>
    </defs>
    <g clip-path="url(#p670405414b)">
     <use xlink:href="#meadb809395" x="0" y="342" style="fill: #ee0000; fill-opacity: 0.1; stroke: #ee0000; stroke-opacity: 0.1"/>
    </g>
   </g>
   <g id="PolyCollection_3">
    <defs>
     <path id="mcaeb441af6" d="M 124.317727 -80.065056 
L 124.317727 -77.325455 
L 143.71616 -77.325455 
L 163.114592 -77.325455 
L 182.513025 -77.325455 
L 201.911458 -77.325455 
L 221.30989 -77.325455 
L 240.708323 -77.325455 
L 260.106755 -77.325455 
L 279.505188 -77.325455 
L 298.903621 -77.325455 
L 318.302053 -77.325455 
L 337.700486 -77.325455 
L 357.098918 -77.325455 
L 376.497351 -77.325455 
L 395.895784 -77.325455 
L 415.294216 -77.325455 
L 434.692649 -77.325455 
L 454.091082 -77.325455 
L 473.489514 -77.325455 
L 492.887947 -77.325455 
L 512.286379 -77.325455 
L 531.684812 -77.325455 
L 551.083245 -77.325455 
L 570.481677 -77.325455 
L 589.88011 -77.325455 
L 609.278542 -77.325455 
L 628.676975 -77.325455 
L 648.075408 -77.325455 
L 667.47384 -77.325455 
L 686.872273 -77.325455 
L 686.872273 -81.040247 
L 686.872273 -81.040247 
L 667.47384 -77.325455 
L 648.075408 -81.20552 
L 628.676975 -79.615581 
L 609.278542 -79.777139 
L 589.88011 -79.694827 
L 570.481677 -81.056579 
L 551.083245 -80.802802 
L 531.684812 -78.068566 
L 512.286379 -80.196603 
L 492.887947 -78.576887 
L 473.489514 -81.191841 
L 454.091082 -79.80727 
L 434.692649 -77.325455 
L 415.294216 -79.807211 
L 395.895784 -78.443748 
L 376.497351 -80.046778 
L 357.098918 -81.451278 
L 337.700486 -81.037063 
L 318.302053 -79.455555 
L 298.903621 -78.070217 
L 279.505188 -80.682871 
L 260.106755 -81.386832 
L 240.708323 -81.036473 
L 221.30989 -77.980593 
L 201.911458 -78.072988 
L 182.513025 -77.590199 
L 163.114592 -77.814671 
L 143.71616 -78.566509 
L 124.317727 -80.065056 
z
" style="stroke: #6e8ee6; stroke-opacity: 0.1"/>
    </defs>
    <g clip-path="url(#p670405414b)">
     <use xlink:href="#mcaeb441af6" x="0" y="342" style="fill: #6e8ee6; fill-opacity: 0.1; stroke: #6e8ee6; stroke-opacity: 0.1"/>
    </g>
   </g>
   <g id="PolyCollection_4">
    <defs>
     <path id="mf125b4238d" d="M 124.317727 -79.460803 
L 124.317727 -77.325455 
L 143.71616 -77.325455 
L 163.114592 -77.325455 
L 182.513025 -77.325455 
L 201.911458 -79.790111 
L 221.30989 -77.325455 
L 240.708323 -79.57637 
L 260.106755 -80.05745 
L 279.505188 -81.386183 
L 298.903621 -81.189718 
L 318.302053 -82.215086 
L 337.700486 -81.552813 
L 357.098918 -82.271632 
L 376.497351 -82.29162 
L 395.895784 -82.066735 
L 415.294216 -84.804037 
L 434.692649 -85.318608 
L 454.091082 -82.271691 
L 473.489514 -87.171346 
L 492.887947 -84.647726 
L 512.286379 -85.154808 
L 531.684812 -87.12789 
L 551.083245 -86.605477 
L 570.481677 -84.823554 
L 589.88011 -86.705773 
L 609.278542 -87.218163 
L 628.676975 -84.566475 
L 648.075408 -87.495112 
L 667.47384 -87.383849 
L 686.872273 -86.641975 
L 686.872273 -96.731207 
L 686.872273 -96.731207 
L 667.47384 -97.647494 
L 648.075408 -93.015295 
L 628.676975 -90.728589 
L 609.278542 -97.093241 
L 589.88011 -93.523203 
L 570.481677 -103.078819 
L 551.083245 -97.117297 
L 531.684812 -98.706647 
L 512.286379 -89.391542 
L 492.887947 -96.821244 
L 473.489514 -94.86367 
L 454.091082 -93.607815 
L 434.692649 -92.300426 
L 415.294216 -91.996354 
L 395.895784 -92.388458 
L 376.497351 -89.779401 
L 357.098918 -88.8446 
L 337.700486 -84.56901 
L 318.302053 -89.068011 
L 298.903621 -84.47007 
L 279.505188 -85.700748 
L 260.106755 -85.242133 
L 240.708323 -85.057519 
L 221.30989 -83.587098 
L 201.911458 -83.040923 
L 182.513025 -84.733635 
L 163.114592 -79.951493 
L 143.71616 -80.044065 
L 124.317727 -79.460803 
z
" style="stroke: #21cd7d; stroke-opacity: 0.1"/>
    </defs>
    <g clip-path="url(#p670405414b)">
     <use xlink:href="#mf125b4238d" x="0" y="342" style="fill: #21cd7d; fill-opacity: 0.1; stroke: #21cd7d; stroke-opacity: 0.1"/>
    </g>
   </g>
   <g id="PolyCollection_5">
    <defs>
     <path id="m1abf539ed8" d="M 124.317727 -79.8226 
L 124.317727 -77.325455 
L 143.71616 -78.562323 
L 163.114592 -77.325455 
L 182.513025 -79.551429 
L 201.911458 -79.818767 
L 221.30989 -79.796067 
L 240.708323 -80.765066 
L 260.106755 -80.973147 
L 279.505188 -79.799899 
L 298.903621 -82.391622 
L 318.302053 -82.047041 
L 337.700486 -82.21261 
L 357.098918 -82.072926 
L 376.497351 -83.481141 
L 395.895784 -82.70277 
L 415.294216 -82.271926 
L 434.692649 -82.189909 
L 454.091082 -83.645884 
L 473.489514 -82.289262 
L 492.887947 -81.78041 
L 512.286379 -79.431675 
L 531.684812 -82.482955 
L 551.083245 -85.846799 
L 570.481677 -84.276082 
L 589.88011 -82.347281 
L 609.278542 -83.566402 
L 628.676975 -82.271042 
L 648.075408 -82.828302 
L 667.47384 -84.721017 
L 686.872273 -87.263446 
L 686.872273 -90.399516 
L 686.872273 -90.399516 
L 667.47384 -92.585631 
L 648.075408 -89.899155 
L 628.676975 -89.721499 
L 609.278542 -92.293174 
L 589.88011 -89.053447 
L 570.481677 -91.206543 
L 551.083245 -102.225033 
L 531.684812 -92.205614 
L 512.286379 -94.63106 
L 492.887947 -89.45587 
L 473.489514 -87.227243 
L 454.091082 -89.442604 
L 434.692649 -89.16247 
L 415.294216 -92.171533 
L 395.895784 -89.011171 
L 376.497351 -89.085287 
L 357.098918 -88.14294 
L 337.700486 -85.057519 
L 318.302053 -89.584882 
L 298.903621 -85.219432 
L 279.505188 -86.708014 
L 260.106755 -85.693731 
L 240.708323 -86.136839 
L 221.30989 -82.69363 
L 201.911458 -82.275759 
L 182.513025 -80.112993 
L 163.114592 -82.296396 
L 143.71616 -81.069728 
L 124.317727 -79.8226 
z
" style="stroke: #00ff00; stroke-opacity: 0.1"/>
    </defs>
    <g clip-path="url(#p670405414b)">
     <use xlink:href="#m1abf539ed8" x="0" y="342" style="fill: #00ff00; fill-opacity: 0.1; stroke: #00ff00; stroke-opacity: 0.1"/>
    </g>
   </g>
   <g id="PolyCollection_6">
    <defs>
     <path id="m4626076040" d="M 124.317727 -79.486393 
L 124.317727 -77.325455 
L 143.71616 -78.083248 
L 163.114592 -77.940616 
L 182.513025 -79.453078 
L 201.911458 -79.797718 
L 221.30989 -79.797895 
L 240.708323 -81.583061 
L 260.106755 -82.094153 
L 279.505188 -81.960483 
L 298.903621 -84.863059 
L 318.302053 -82.14038 
L 337.700486 -84.747609 
L 357.098918 -84.849733 
L 376.497351 -84.774497 
L 395.895784 -87.210497 
L 415.294216 -83.464278 
L 434.692649 -86.303645 
L 454.091082 -86.959138 
L 473.489514 -85.324799 
L 492.887947 -87.517046 
L 512.286379 -85.496971 
L 531.684812 -87.362622 
L 551.083245 -89.056749 
L 570.481677 -89.927988 
L 589.88011 -92.270532 
L 609.278542 -96.691348 
L 628.676975 -89.85393 
L 648.075408 -93.226206 
L 667.47384 -95.539092 
L 686.872273 -95.528066 
L 686.872273 -185.587864 
L 686.872273 -185.587864 
L 667.47384 -131.804158 
L 648.075408 -166.461597 
L 628.676975 -112.651357 
L 609.278542 -124.875053 
L 589.88011 -98.654111 
L 570.481677 -95.251116 
L 551.083245 -92.913996 
L 531.684812 -98.08441 
L 512.286379 -97.507633 
L 492.887947 -96.209856 
L 473.489514 -95.87412 
L 454.091082 -94.785779 
L 434.692649 -89.692843 
L 415.294216 -93.120662 
L 395.895784 -97.068712 
L 376.497351 -90.545331 
L 357.098918 -91.197109 
L 337.700486 -89.870853 
L 318.302053 -87.797534 
L 298.903621 -87.39116 
L 279.505188 -86.000103 
L 260.106755 -82.347753 
L 240.708323 -83.293344 
L 221.30989 -82.892395 
L 201.911458 -83.251185 
L 182.513025 -82.011958 
L 163.114592 -83.515989 
L 143.71616 -81.151274 
L 124.317727 -79.486393 
z
" style="stroke: #eeee00; stroke-opacity: 0.1"/>
    </defs>
    <g clip-path="url(#p670405414b)">
     <use xlink:href="#m4626076040" x="0" y="342" style="fill: #eeee00; fill-opacity: 0.1; stroke: #eeee00; stroke-opacity: 0.1"/>
    </g>
   </g>
   <g id="PolyCollection_7">
    <defs>
     <path id="m3b0abba381" d="M 124.317727 -79.685275 
L 124.317727 -77.325455 
L 143.71616 -77.325455 
L 163.114592 -77.325455 
L 182.513025 -77.325455 
L 201.911458 -77.325455 
L 221.30989 -78.208132 
L 240.708323 -77.325455 
L 260.106755 -77.325455 
L 279.505188 -77.325455 
L 298.903621 -77.325455 
L 318.302053 -77.325455 
L 337.700486 -77.325455 
L 357.098918 -77.325455 
L 376.497351 -77.325455 
L 395.895784 -77.325455 
L 415.294216 -77.325455 
L 434.692649 -77.325455 
L 454.091082 -77.325455 
L 473.489514 -77.325455 
L 492.887947 -77.325455 
L 512.286379 -77.325455 
L 531.684812 -77.325455 
L 551.083245 -77.325455 
L 570.481677 -77.325455 
L 589.88011 -77.325455 
L 609.278542 -77.325455 
L 628.676975 -77.325455 
L 648.075408 -77.325455 
L 667.47384 -77.325455 
L 686.872273 -77.325455 
L 686.872273 -79.800784 
L 686.872273 -79.800784 
L 667.47384 -79.817883 
L 648.075408 -81.606764 
L 628.676975 -79.786986 
L 609.278542 -80.624734 
L 589.88011 -79.818591 
L 570.481677 -80.45834 
L 551.083245 -80.489649 
L 531.684812 -81.842911 
L 512.286379 -81.360947 
L 492.887947 -79.999489 
L 473.489514 -83.209439 
L 454.091082 -79.986989 
L 434.692649 -81.426691 
L 415.294216 -77.325455 
L 395.895784 -78.915335 
L 376.497351 -81.425393 
L 357.098918 -81.062476 
L 337.700486 -79.798071 
L 318.302053 -81.174506 
L 298.903621 -79.570356 
L 279.505188 -79.059618 
L 260.106755 -79.825371 
L 240.708323 -80.73865 
L 221.30989 -80.047485 
L 201.911458 -81.191605 
L 182.513025 -78.68532 
L 163.114592 -79.803732 
L 143.71616 -80.905752 
L 124.317727 -79.685275 
z
" style="stroke: #00eeee; stroke-opacity: 0.1"/>
    </defs>
    <g clip-path="url(#p670405414b)">
     <use xlink:href="#m3b0abba381" x="0" y="342" style="fill: #00eeee; fill-opacity: 0.1; stroke: #00eeee; stroke-opacity: 0.1"/>
    </g>
   </g>
   <g id="PolyCollection_8">
    <defs>
     <path id="m7f77cc2dd2" d="M 124.317727 -225.710909 
L 124.317727 -225.710909 
L 143.71616 -102.056364 
L 163.114592 -126.787273 
L 182.513025 -126.787273 
L 201.911458 -126.787273 
L 221.30989 -102.056364 
L 240.708323 -225.710909 
L 260.106755 -126.787273 
L 279.505188 -126.787273 
L 298.903621 -126.787273 
L 318.302053 -225.710909 
L 337.700486 -102.056364 
L 357.098918 -102.056364 
L 376.497351 -102.056364 
L 395.895784 -126.787273 
L 415.294216 -225.710909 
L 434.692649 -126.787273 
L 454.091082 -126.787273 
L 473.489514 -225.710909 
L 492.887947 -126.787273 
L 512.286379 -126.787273 
L 531.684812 -126.787273 
L 551.083245 -225.710909 
L 570.481677 -225.710909 
L 589.88011 -102.056364 
L 609.278542 -126.787273 
L 628.676975 -102.056364 
L 648.075408 -225.710909 
L 667.47384 -225.710909 
L 686.872273 -225.710909 
L 686.872273 -225.710909 
L 686.872273 -225.710909 
L 667.47384 -324.634545 
L 648.075408 -324.634545 
L 628.676975 -225.710909 
L 609.278542 -225.710909 
L 589.88011 -225.710909 
L 570.481677 -225.710909 
L 551.083245 -225.710909 
L 531.684812 -324.634545 
L 512.286379 -225.710909 
L 492.887947 -225.710909 
L 473.489514 -324.634545 
L 454.091082 -225.710909 
L 434.692649 -225.710909 
L 415.294216 -324.634545 
L 395.895784 -225.710909 
L 376.497351 -225.710909 
L 357.098918 -324.634545 
L 337.700486 -225.710909 
L 318.302053 -225.710909 
L 298.903621 -225.710909 
L 279.505188 -324.634545 
L 260.106755 -324.634545 
L 240.708323 -225.710909 
L 221.30989 -324.634545 
L 201.911458 -324.634545 
L 182.513025 -324.634545 
L 163.114592 -225.710909 
L 143.71616 -324.634545 
L 124.317727 -225.710909 
z
" style="stroke: #000000; stroke-opacity: 0.1"/>
    </defs>
    <g clip-path="url(#p670405414b)">
     <use xlink:href="#m7f77cc2dd2" x="0" y="342" style="fill-opacity: 0.1; stroke: #000000; stroke-opacity: 0.1"/>
    </g>
   </g>
   <g id="matplotlib.axis_1">
    <g id="xtick_1">
     <g id="line2d_1">
      <path d="M 124.317727 277.04 
L 124.317727 5 
" clip-path="url(#p670405414b)" style="fill: none; stroke: #b0b0b0; stroke-width: 0.8; stroke-linecap: square"/>
     </g>
     <g id="line2d_2">
      <defs>
       <path id="m1156de9307" d="M 0 0 
L 0 3.5 
" style="stroke: #000000; stroke-width: 0.8"/>
      </defs>
      <g>
       <use xlink:href="#m1156de9307" x="124.317727" y="277.04" style="stroke: #000000; stroke-width: 0.8"/>
      </g>
     </g>
     <g id="text_1">
      <!-- 0 -->
      <g transform="translate(116.364602 303.036094) scale(0.25 -0.25)">
       <defs>
        <path id="DejaVuSerif-30" d="M 2034 219 
Q 2513 219 2750 744 
Q 2988 1269 2988 2328 
Q 2988 3391 2750 3916 
Q 2513 4441 2034 4441 
Q 1556 4441 1318 3916 
Q 1081 3391 1081 2328 
Q 1081 1269 1318 744 
Q 1556 219 2034 219 
z
M 2034 -91 
Q 1275 -91 848 546 
Q 422 1184 422 2328 
Q 422 3475 848 4112 
Q 1275 4750 2034 4750 
Q 2797 4750 3222 4112 
Q 3647 3475 3647 2328 
Q 3647 1184 3222 546 
Q 2797 -91 2034 -91 
z
" transform="scale(0.015625)"/>
       </defs>
       <use xlink:href="#DejaVuSerif-30"/>
      </g>
     </g>
    </g>
    <g id="xtick_2">
     <g id="line2d_3">
      <path d="M 318.302053 277.04 
L 318.302053 5 
" clip-path="url(#p670405414b)" style="fill: none; stroke: #b0b0b0; stroke-width: 0.8; stroke-linecap: square"/>
     </g>
     <g id="line2d_4">
      <g>
       <use xlink:href="#m1156de9307" x="318.302053" y="277.04" style="stroke: #000000; stroke-width: 0.8"/>
      </g>
     </g>
     <g id="text_2">
      <!-- 10 -->
      <g transform="translate(302.395803 303.036094) scale(0.25 -0.25)">
       <defs>
        <path id="DejaVuSerif-31" d="M 909 0 
L 909 331 
L 1722 331 
L 1722 4213 
L 781 3603 
L 781 4013 
L 1919 4750 
L 2350 4750 
L 2350 331 
L 3163 331 
L 3163 0 
L 909 0 
z
" transform="scale(0.015625)"/>
       </defs>
       <use xlink:href="#DejaVuSerif-31"/>
       <use xlink:href="#DejaVuSerif-30" x="63.623047"/>
      </g>
     </g>
    </g>
    <g id="xtick_3">
     <g id="line2d_5">
      <path d="M 512.286379 277.04 
L 512.286379 5 
" clip-path="url(#p670405414b)" style="fill: none; stroke: #b0b0b0; stroke-width: 0.8; stroke-linecap: square"/>
     </g>
     <g id="line2d_6">
      <g>
       <use xlink:href="#m1156de9307" x="512.286379" y="277.04" style="stroke: #000000; stroke-width: 0.8"/>
      </g>
     </g>
     <g id="text_3">
      <!-- 20 -->
      <g transform="translate(496.380129 303.036094) scale(0.25 -0.25)">
       <defs>
        <path id="DejaVuSerif-32" d="M 819 3553 
L 469 3553 
L 469 4384 
Q 803 4563 1142 4656 
Q 1481 4750 1806 4750 
Q 2534 4750 2956 4397 
Q 3378 4044 3378 3438 
Q 3378 2753 2422 1800 
Q 2347 1728 2309 1691 
L 1131 513 
L 3078 513 
L 3078 1088 
L 3444 1088 
L 3444 0 
L 434 0 
L 434 341 
L 1850 1753 
Q 2319 2222 2519 2614 
Q 2719 3006 2719 3438 
Q 2719 3909 2473 4175 
Q 2228 4441 1797 4441 
Q 1350 4441 1106 4219 
Q 863 3997 819 3553 
z
" transform="scale(0.015625)"/>
       </defs>
       <use xlink:href="#DejaVuSerif-32"/>
       <use xlink:href="#DejaVuSerif-30" x="63.623047"/>
      </g>
     </g>
    </g>
    <g id="text_4">
     <!-- $\it{t}$ -->
     <g transform="translate(400.595 331.231406) scale(0.25 -0.25)">
      <defs>
       <path id="DejaVuSans-Oblique-74" d="M 2706 3500 
L 2619 3053 
L 1472 3053 
L 1100 1153 
Q 1081 1047 1072 975 
Q 1063 903 1063 863 
Q 1063 663 1183 572 
Q 1303 481 1569 481 
L 2150 481 
L 2053 0 
L 1503 0 
Q 991 0 739 200 
Q 488 400 488 806 
Q 488 878 497 964 
Q 506 1050 525 1153 
L 897 3053 
L 409 3053 
L 500 3500 
L 978 3500 
L 1172 4494 
L 1747 4494 
L 1556 3500 
L 2706 3500 
z
" transform="scale(0.015625)"/>
      </defs>
      <use xlink:href="#DejaVuSans-Oblique-74" transform="translate(0 0.78125)"/>
     </g>
    </g>
   </g>
   <g id="matplotlib.axis_2">
    <g id="ytick_1">
     <g id="line2d_7">
      <path d="M 96.19 264.674545 
L 715 264.674545 
" clip-path="url(#p670405414b)" style="fill: none; stroke: #b0b0b0; stroke-width: 0.8; stroke-linecap: square"/>
     </g>
     <g id="line2d_8">
      <defs>
       <path id="m9255f131ba" d="M 0 0 
L -3.5 0 
" style="stroke: #000000; stroke-width: 0.8"/>
      </defs>
      <g>
       <use xlink:href="#m9255f131ba" x="96.19" y="264.674545" style="stroke: #000000; stroke-width: 0.8"/>
      </g>
     </g>
     <g id="text_5">
      <!-- 0.00 -->
      <g transform="translate(33.525938 274.172592) scale(0.25 -0.25)">
       <defs>
        <path id="DejaVuSerif-2e" d="M 603 325 
Q 603 500 722 622 
Q 841 744 1019 744 
Q 1191 744 1312 622 
Q 1434 500 1434 325 
Q 1434 153 1312 31 
Q 1191 -91 1019 -91 
Q 841 -91 722 29 
Q 603 150 603 325 
z
" transform="scale(0.015625)"/>
       </defs>
       <use xlink:href="#DejaVuSerif-30"/>
       <use xlink:href="#DejaVuSerif-2e" x="63.623047"/>
       <use xlink:href="#DejaVuSerif-30" x="95.410156"/>
       <use xlink:href="#DejaVuSerif-30" x="159.033203"/>
      </g>
     </g>
    </g>
    <g id="ytick_2">
     <g id="line2d_9">
      <path d="M 96.19 202.847273 
L 715 202.847273 
" clip-path="url(#p670405414b)" style="fill: none; stroke: #b0b0b0; stroke-width: 0.8; stroke-linecap: square"/>
     </g>
     <g id="line2d_10">
      <g>
       <use xlink:href="#m9255f131ba" x="96.19" y="202.847273" style="stroke: #000000; stroke-width: 0.8"/>
      </g>
     </g>
     <g id="text_6">
      <!-- 0.25 -->
      <g transform="translate(33.525938 212.34532) scale(0.25 -0.25)">
       <defs>
        <path id="DejaVuSerif-35" d="M 3219 4666 
L 3219 4153 
L 1081 4153 
L 1081 2816 
Q 1244 2928 1461 2984 
Q 1678 3041 1947 3041 
Q 2703 3041 3140 2622 
Q 3578 2203 3578 1478 
Q 3578 738 3136 323 
Q 2694 -91 1894 -91 
Q 1572 -91 1234 -12 
Q 897 66 544 225 
L 544 1131 
L 897 1131 
Q 925 688 1179 453 
Q 1434 219 1894 219 
Q 2388 219 2653 544 
Q 2919 869 2919 1478 
Q 2919 2084 2655 2407 
Q 2391 2731 1894 2731 
Q 1613 2731 1398 2631 
Q 1184 2531 1019 2322 
L 750 2322 
L 750 4666 
L 3219 4666 
z
" transform="scale(0.015625)"/>
       </defs>
       <use xlink:href="#DejaVuSerif-30"/>
       <use xlink:href="#DejaVuSerif-2e" x="63.623047"/>
       <use xlink:href="#DejaVuSerif-32" x="95.410156"/>
       <use xlink:href="#DejaVuSerif-35" x="159.033203"/>
      </g>
     </g>
    </g>
    <g id="ytick_3">
     <g id="line2d_11">
      <path d="M 96.19 141.02 
L 715 141.02 
" clip-path="url(#p670405414b)" style="fill: none; stroke: #b0b0b0; stroke-width: 0.8; stroke-linecap: square"/>
     </g>
     <g id="line2d_12">
      <g>
       <use xlink:href="#m9255f131ba" x="96.19" y="141.02" style="stroke: #000000; stroke-width: 0.8"/>
      </g>
     </g>
     <g id="text_7">
      <!-- 0.50 -->
      <g transform="translate(33.525938 150.518047) scale(0.25 -0.25)">
       <use xlink:href="#DejaVuSerif-30"/>
       <use xlink:href="#DejaVuSerif-2e" x="63.623047"/>
       <use xlink:href="#DejaVuSerif-35" x="95.410156"/>
       <use xlink:href="#DejaVuSerif-30" x="159.033203"/>
      </g>
     </g>
    </g>
    <g id="ytick_4">
     <g id="line2d_13">
      <path d="M 96.19 79.192727 
L 715 79.192727 
" clip-path="url(#p670405414b)" style="fill: none; stroke: #b0b0b0; stroke-width: 0.8; stroke-linecap: square"/>
     </g>
     <g id="line2d_14">
      <g>
       <use xlink:href="#m9255f131ba" x="96.19" y="79.192727" style="stroke: #000000; stroke-width: 0.8"/>
      </g>
     </g>
     <g id="text_8">
      <!-- 0.75 -->
      <g transform="translate(33.525938 88.690774) scale(0.25 -0.25)">
       <defs>
        <path id="DejaVuSerif-37" d="M 3609 4347 
L 1784 0 
L 1319 0 
L 3059 4153 
L 903 4153 
L 903 3578 
L 538 3578 
L 538 4666 
L 3609 4666 
L 3609 4347 
z
" transform="scale(0.015625)"/>
       </defs>
       <use xlink:href="#DejaVuSerif-30"/>
       <use xlink:href="#DejaVuSerif-2e" x="63.623047"/>
       <use xlink:href="#DejaVuSerif-37" x="95.410156"/>
       <use xlink:href="#DejaVuSerif-35" x="159.033203"/>
      </g>
     </g>
    </g>
    <g id="ytick_5">
     <g id="line2d_15">
      <path d="M 96.19 17.365455 
L 715 17.365455 
" clip-path="url(#p670405414b)" style="fill: none; stroke: #b0b0b0; stroke-width: 0.8; stroke-linecap: square"/>
     </g>
     <g id="line2d_16">
      <g>
       <use xlink:href="#m9255f131ba" x="96.19" y="17.365455" style="stroke: #000000; stroke-width: 0.8"/>
      </g>
     </g>
     <g id="text_9">
      <!-- 1.00 -->
      <g transform="translate(33.525938 26.863501) scale(0.25 -0.25)">
       <use xlink:href="#DejaVuSerif-31"/>
       <use xlink:href="#DejaVuSerif-2e" x="63.623047"/>
       <use xlink:href="#DejaVuSerif-30" x="95.410156"/>
       <use xlink:href="#DejaVuSerif-30" x="159.033203"/>
      </g>
     </g>
    </g>
    <g id="text_10">
     <!-- Allocation Time (sec.) -->
     <g transform="translate(24.326719 278.691875) rotate(-90) scale(0.25 -0.25)">
      <defs>
       <path id="DejaVuSerif-41" d="M 1281 1691 
L 2994 1691 
L 2138 3909 
L 1281 1691 
z
M -38 0 
L -38 331 
L 372 331 
L 2034 4666 
L 2559 4666 
L 4225 331 
L 4684 331 
L 4684 0 
L 2988 0 
L 2988 331 
L 3506 331 
L 3116 1356 
L 1153 1356 
L 763 331 
L 1275 331 
L 1275 0 
L -38 0 
z
" transform="scale(0.015625)"/>
       <path id="DejaVuSerif-6c" d="M 1313 331 
L 1856 331 
L 1856 0 
L 184 0 
L 184 331 
L 738 331 
L 738 4531 
L 184 4531 
L 184 4863 
L 1313 4863 
L 1313 331 
z
" transform="scale(0.015625)"/>
       <path id="DejaVuSerif-6f" d="M 1925 219 
Q 2388 219 2623 584 
Q 2859 950 2859 1663 
Q 2859 2375 2623 2739 
Q 2388 3103 1925 3103 
Q 1463 3103 1227 2739 
Q 991 2375 991 1663 
Q 991 950 1228 584 
Q 1466 219 1925 219 
z
M 1925 -91 
Q 1200 -91 759 389 
Q 319 869 319 1663 
Q 319 2456 758 2934 
Q 1197 3413 1925 3413 
Q 2653 3413 3092 2934 
Q 3531 2456 3531 1663 
Q 3531 869 3092 389 
Q 2653 -91 1925 -91 
z
" transform="scale(0.015625)"/>
       <path id="DejaVuSerif-63" d="M 3291 997 
Q 3169 466 2822 187 
Q 2475 -91 1925 -91 
Q 1200 -91 759 389 
Q 319 869 319 1663 
Q 319 2459 759 2936 
Q 1200 3413 1925 3413 
Q 2241 3413 2553 3339 
Q 2866 3266 3181 3116 
L 3181 2266 
L 2847 2266 
Q 2781 2703 2561 2903 
Q 2341 3103 1931 3103 
Q 1466 3103 1228 2742 
Q 991 2381 991 1663 
Q 991 944 1227 581 
Q 1463 219 1931 219 
Q 2303 219 2525 412 
Q 2747 606 2828 997 
L 3291 997 
z
" transform="scale(0.015625)"/>
       <path id="DejaVuSerif-61" d="M 2547 1044 
L 2547 1747 
L 1806 1747 
Q 1378 1747 1168 1562 
Q 959 1378 959 997 
Q 959 650 1171 447 
Q 1384 244 1747 244 
Q 2106 244 2326 466 
Q 2547 688 2547 1044 
z
M 3122 2075 
L 3122 331 
L 3634 331 
L 3634 0 
L 2547 0 
L 2547 359 
Q 2356 128 2106 18 
Q 1856 -91 1522 -91 
Q 969 -91 644 203 
Q 319 497 319 997 
Q 319 1513 691 1797 
Q 1063 2081 1741 2081 
L 2547 2081 
L 2547 2309 
Q 2547 2688 2317 2895 
Q 2088 3103 1672 3103 
Q 1328 3103 1125 2947 
Q 922 2791 872 2484 
L 575 2484 
L 575 3156 
Q 875 3284 1158 3348 
Q 1441 3413 1709 3413 
Q 2400 3413 2761 3070 
Q 3122 2728 3122 2075 
z
" transform="scale(0.015625)"/>
       <path id="DejaVuSerif-74" d="M 691 2988 
L 184 2988 
L 184 3322 
L 691 3322 
L 691 4353 
L 1269 4353 
L 1269 3322 
L 2350 3322 
L 2350 2988 
L 1269 2988 
L 1269 878 
Q 1269 456 1350 337 
Q 1431 219 1650 219 
Q 1875 219 1978 351 
Q 2081 484 2088 781 
L 2522 781 
Q 2497 328 2275 118 
Q 2053 -91 1600 -91 
Q 1103 -91 897 129 
Q 691 350 691 878 
L 691 2988 
z
" transform="scale(0.015625)"/>
       <path id="DejaVuSerif-69" d="M 622 4353 
Q 622 4497 726 4603 
Q 831 4709 978 4709 
Q 1122 4709 1226 4603 
Q 1331 4497 1331 4353 
Q 1331 4206 1228 4103 
Q 1125 4000 978 4000 
Q 831 4000 726 4103 
Q 622 4206 622 4353 
z
M 1356 331 
L 1900 331 
L 1900 0 
L 231 0 
L 231 331 
L 781 331 
L 781 2988 
L 231 2988 
L 231 3322 
L 1356 3322 
L 1356 331 
z
" transform="scale(0.015625)"/>
       <path id="DejaVuSerif-6e" d="M 263 0 
L 263 331 
L 781 331 
L 781 2988 
L 231 2988 
L 231 3322 
L 1356 3322 
L 1356 2731 
Q 1516 3069 1770 3241 
Q 2025 3413 2363 3413 
Q 2913 3413 3172 3097 
Q 3431 2781 3431 2113 
L 3431 331 
L 3944 331 
L 3944 0 
L 2356 0 
L 2356 331 
L 2853 331 
L 2853 1931 
Q 2853 2541 2703 2767 
Q 2553 2994 2175 2994 
Q 1775 2994 1565 2701 
Q 1356 2409 1356 1850 
L 1356 331 
L 1856 331 
L 1856 0 
L 263 0 
z
" transform="scale(0.015625)"/>
       <path id="DejaVuSerif-20" transform="scale(0.015625)"/>
       <path id="DejaVuSerif-54" d="M 1222 0 
L 1222 331 
L 1819 331 
L 1819 4294 
L 447 4294 
L 447 3566 
L 63 3566 
L 63 4666 
L 4206 4666 
L 4206 3566 
L 3822 3566 
L 3822 4294 
L 2450 4294 
L 2450 331 
L 3047 331 
L 3047 0 
L 1222 0 
z
" transform="scale(0.015625)"/>
       <path id="DejaVuSerif-6d" d="M 3316 2675 
Q 3481 3041 3739 3227 
Q 3997 3413 4341 3413 
Q 4863 3413 5119 3089 
Q 5375 2766 5375 2113 
L 5375 331 
L 5894 331 
L 5894 0 
L 4300 0 
L 4300 331 
L 4800 331 
L 4800 2047 
Q 4800 2556 4650 2772 
Q 4500 2988 4153 2988 
Q 3769 2988 3567 2697 
Q 3366 2406 3366 1850 
L 3366 331 
L 3866 331 
L 3866 0 
L 2291 0 
L 2291 331 
L 2791 331 
L 2791 2069 
Q 2791 2566 2641 2777 
Q 2491 2988 2144 2988 
Q 1759 2988 1557 2697 
Q 1356 2406 1356 1850 
L 1356 331 
L 1856 331 
L 1856 0 
L 263 0 
L 263 331 
L 781 331 
L 781 2994 
L 231 2994 
L 231 3322 
L 1356 3322 
L 1356 2731 
Q 1516 3063 1762 3238 
Q 2009 3413 2322 3413 
Q 2709 3413 2968 3220 
Q 3228 3028 3316 2675 
z
" transform="scale(0.015625)"/>
       <path id="DejaVuSerif-65" d="M 3469 1600 
L 991 1600 
L 991 1575 
Q 991 903 1244 561 
Q 1497 219 1991 219 
Q 2369 219 2611 417 
Q 2853 616 2950 1006 
L 3413 1006 
Q 3275 459 2904 184 
Q 2534 -91 1931 -91 
Q 1203 -91 761 389 
Q 319 869 319 1663 
Q 319 2450 753 2931 
Q 1188 3413 1894 3413 
Q 2647 3413 3050 2948 
Q 3453 2484 3469 1600 
z
M 2791 1931 
Q 2772 2513 2545 2808 
Q 2319 3103 1894 3103 
Q 1497 3103 1269 2806 
Q 1041 2509 991 1931 
L 2791 1931 
z
" transform="scale(0.015625)"/>
       <path id="DejaVuSerif-28" d="M 2041 -997 
Q 1281 -656 893 83 
Q 506 822 506 1931 
Q 506 3044 893 3783 
Q 1281 4522 2041 4863 
L 2041 4556 
Q 1559 4225 1350 3623 
Q 1141 3022 1141 1931 
Q 1141 844 1350 242 
Q 1559 -359 2041 -691 
L 2041 -997 
z
" transform="scale(0.015625)"/>
       <path id="DejaVuSerif-73" d="M 359 184 
L 359 959 
L 691 959 
Q 703 588 923 403 
Q 1144 219 1575 219 
Q 1963 219 2166 364 
Q 2369 509 2369 788 
Q 2369 1006 2220 1140 
Q 2072 1275 1594 1428 
L 1178 1569 
Q 750 1706 558 1912 
Q 366 2119 366 2438 
Q 366 2894 700 3153 
Q 1034 3413 1625 3413 
Q 1888 3413 2178 3344 
Q 2469 3275 2778 3144 
L 2778 2419 
L 2447 2419 
Q 2434 2741 2221 2922 
Q 2009 3103 1644 3103 
Q 1281 3103 1095 2975 
Q 909 2847 909 2591 
Q 909 2381 1050 2254 
Q 1191 2128 1613 1997 
L 2069 1856 
Q 2541 1709 2748 1489 
Q 2956 1269 2956 922 
Q 2956 450 2595 179 
Q 2234 -91 1600 -91 
Q 1278 -91 972 -22 
Q 666 47 359 184 
z
" transform="scale(0.015625)"/>
       <path id="DejaVuSerif-29" d="M 453 -997 
L 453 -691 
Q 934 -359 1145 242 
Q 1356 844 1356 1931 
Q 1356 3022 1145 3623 
Q 934 4225 453 4556 
L 453 4863 
Q 1216 4522 1603 3783 
Q 1991 3044 1991 1931 
Q 1991 822 1603 83 
Q 1216 -656 453 -997 
z
" transform="scale(0.015625)"/>
      </defs>
      <use xlink:href="#DejaVuSerif-41"/>
      <use xlink:href="#DejaVuSerif-6c" x="72.216797"/>
      <use xlink:href="#DejaVuSerif-6c" x="104.199219"/>
      <use xlink:href="#DejaVuSerif-6f" x="136.181641"/>
      <use xlink:href="#DejaVuSerif-63" x="196.386719"/>
      <use xlink:href="#DejaVuSerif-61" x="252.392578"/>
      <use xlink:href="#DejaVuSerif-74" x="312.011719"/>
      <use xlink:href="#DejaVuSerif-69" x="352.197266"/>
      <use xlink:href="#DejaVuSerif-6f" x="384.179688"/>
      <use xlink:href="#DejaVuSerif-6e" x="444.384766"/>
      <use xlink:href="#DejaVuSerif-20" x="508.789062"/>
      <use xlink:href="#DejaVuSerif-54" x="540.576172"/>
      <use xlink:href="#DejaVuSerif-69" x="607.275391"/>
      <use xlink:href="#DejaVuSerif-6d" x="639.257812"/>
      <use xlink:href="#DejaVuSerif-65" x="734.082031"/>
      <use xlink:href="#DejaVuSerif-20" x="793.261719"/>
      <use xlink:href="#DejaVuSerif-28" x="825.048828"/>
      <use xlink:href="#DejaVuSerif-73" x="864.0625"/>
      <use xlink:href="#DejaVuSerif-65" x="915.380859"/>
      <use xlink:href="#DejaVuSerif-63" x="974.560547"/>
      <use xlink:href="#DejaVuSerif-2e" x="1030.566406"/>
      <use xlink:href="#DejaVuSerif-29" x="1062.353516"/>
     </g>
    </g>
   </g>
   <g id="line2d_17">
    <path d="M 124.317727 261.512627 
L 143.71616 251.21568 
L 163.114592 250.232859 
L 182.513025 250.035097 
L 201.911458 248.534557 
L 221.30989 248.561716 
L 240.708323 241.856175 
L 260.106755 245.052445 
L 279.505188 240.239112 
L 298.903621 240.786301 
L 318.302053 237.91132 
L 337.700486 241.049536 
L 357.098918 239.214015 
L 376.497351 237.376018 
L 395.895784 231.128467 
L 415.294216 223.346413 
L 434.692649 230.431016 
L 454.091082 220.990461 
L 473.489514 222.550211 
L 492.887947 206.034499 
L 512.286379 213.948122 
L 531.684812 227.875981 
L 551.083245 207.231909 
L 570.481677 208.398659 
L 589.88011 208.301947 
L 609.278542 195.764262 
L 628.676975 206.918638 
L 648.075408 186.250274 
L 667.47384 203.011556 
L 686.872273 190.04252 
" clip-path="url(#p670405414b)" style="fill: none; stroke: #646464; stroke-width: 5; stroke-linecap: square"/>
    <defs>
     <path id="mdfd4b5b38d" d="M 0 8.5 
C 2.254226 8.5 4.416429 7.604386 6.010408 6.010408 
C 7.604386 4.416429 8.5 2.254226 8.5 0 
C 8.5 -2.254226 7.604386 -4.416429 6.010408 -6.010408 
C 4.416429 -7.604386 2.254226 -8.5 0 -8.5 
C -2.254226 -8.5 -4.416429 -7.604386 -6.010408 -6.010408 
C -7.604386 -4.416429 -8.5 -2.254226 -8.5 0 
C -8.5 2.254226 -7.604386 4.416429 -6.010408 6.010408 
C -4.416429 7.604386 -2.254226 8.5 0 8.5 
z
" style="stroke: #646464; stroke-width: 4"/>
    </defs>
    <g clip-path="url(#p670405414b)">
     <use xlink:href="#mdfd4b5b38d" x="124.317727" y="261.512627" style="fill-opacity: 0; stroke: #646464; stroke-width: 4"/>
     <use xlink:href="#mdfd4b5b38d" x="318.302053" y="237.91132" style="fill-opacity: 0; stroke: #646464; stroke-width: 4"/>
     <use xlink:href="#mdfd4b5b38d" x="512.286379" y="213.948122" style="fill-opacity: 0; stroke: #646464; stroke-width: 4"/>
    </g>
   </g>
   <g id="line2d_18">
    <path d="M 124.317727 263.733978 
L 143.71616 263.621064 
L 163.114592 262.85031 
L 182.513025 262.509739 
L 201.911458 261.64172 
L 221.30989 259.287053 
L 240.708323 258.765655 
L 260.106755 261.064495 
L 279.505188 259.091921 
L 298.903621 257.104983 
L 318.302053 256.410704 
L 337.700486 256.243615 
L 357.098918 254.934965 
L 376.497351 254.009126 
L 395.895784 254.111097 
L 415.294216 252.599932 
L 434.692649 250.794046 
L 454.091082 249.996535 
L 473.489514 251.429704 
L 492.887947 242.38071 
L 512.286379 240.619011 
L 531.684812 243.99999 
L 551.083245 243.91263 
L 570.481677 240.141139 
L 589.88011 245.176787 
L 609.278542 242.577293 
L 628.676975 233.208684 
L 648.075408 231.626976 
L 667.47384 226.216972 
L 686.872273 231.038702 
" clip-path="url(#p670405414b)" style="fill: none; stroke: #ee0000; stroke-width: 5; stroke-linecap: square"/>
    <defs>
     <path id="m6e2a42595a" d="M -0 8.5 
L 8.5 -8.5 
L -8.5 -8.5 
z
" style="stroke: #ee0000; stroke-width: 4; stroke-linejoin: miter"/>
    </defs>
    <g clip-path="url(#p670405414b)">
     <use xlink:href="#m6e2a42595a" x="124.317727" y="263.733978" style="fill-opacity: 0; stroke: #ee0000; stroke-width: 4; stroke-linejoin: miter"/>
     <use xlink:href="#m6e2a42595a" x="318.302053" y="256.410704" style="fill-opacity: 0; stroke: #ee0000; stroke-width: 4; stroke-linejoin: miter"/>
     <use xlink:href="#m6e2a42595a" x="512.286379" y="240.619011" style="fill-opacity: 0; stroke: #ee0000; stroke-width: 4; stroke-linejoin: miter"/>
    </g>
   </g>
   <g id="line2d_19">
    <path d="M 124.317727 264.02772 
L 143.71616 264.426334 
L 163.114592 264.576702 
L 182.513025 264.621597 
L 201.911458 264.500097 
L 221.30989 264.447054 
L 240.708323 263.189265 
L 260.106755 263.86227 
L 279.505188 263.873744 
L 298.903621 264.397808 
L 318.302053 264.145611 
L 337.700486 263.374775 
L 357.098918 263.667409 
L 376.497351 263.811845 
L 395.895784 264.38624 
L 415.294216 264.178194 
L 434.692649 264.674545 
L 454.091082 263.585863 
L 473.489514 263.901268 
L 492.887947 264.424259 
L 512.286379 264.100316 
L 531.684812 264.525923 
L 551.083245 263.545402 
L 570.481677 263.348018 
L 589.88011 264.0068 
L 609.278542 264.184208 
L 628.676975 264.015633 
L 648.075408 263.506157 
L 667.47384 264.674545 
L 686.872273 263.643564 
" clip-path="url(#p670405414b)" style="fill: none; stroke: #6e8ee6; stroke-width: 5; stroke-linecap: square"/>
    <defs>
     <path id="m78e05d36ec" d="M 0 -8.5 
L -7.361216 -4.25 
L -7.361216 4.25 
L -0 8.5 
L 7.361216 4.25 
L 7.361216 -4.25 
z
" style="stroke: #6e8ee6; stroke-width: 4; stroke-linejoin: miter"/>
    </defs>
    <g clip-path="url(#p670405414b)">
     <use xlink:href="#m78e05d36ec" x="124.317727" y="264.02772" style="fill-opacity: 0; stroke: #6e8ee6; stroke-width: 4; stroke-linejoin: miter"/>
     <use xlink:href="#m78e05d36ec" x="318.302053" y="264.145611" style="fill-opacity: 0; stroke: #6e8ee6; stroke-width: 4; stroke-linejoin: miter"/>
     <use xlink:href="#m78e05d36ec" x="512.286379" y="264.100316" style="fill-opacity: 0; stroke: #6e8ee6; stroke-width: 4; stroke-linejoin: miter"/>
    </g>
   </g>
   <g id="line2d_20">
    <path d="M 124.317727 263.515697 
L 143.71616 263.387546 
L 163.114592 263.426922 
L 182.513025 261.340219 
L 201.911458 260.675881 
L 221.30989 260.829681 
L 240.708323 259.649429 
L 260.106755 259.989763 
L 279.505188 258.584791 
L 298.903621 259.304766 
L 318.302053 256.318203 
L 337.700486 259.237937 
L 357.098918 257.170326 
L 376.497351 255.284569 
L 395.895784 255.60791 
L 415.294216 254.055283 
L 434.692649 253.989786 
L 454.091082 255.283012 
L 473.489514 250.354429 
L 492.887947 252.45789 
L 512.286379 254.875306 
L 531.684812 250.506507 
L 551.083245 251.05793 
L 570.481677 250.408074 
L 589.88011 251.427168 
L 609.278542 251.673021 
L 628.676975 253.245413 
L 648.075408 251.500448 
L 667.47384 249.897123 
L 686.872273 250.940346 
" clip-path="url(#p670405414b)" style="fill: none; stroke: #21cd7d; stroke-width: 5; stroke-linecap: square"/>
    <defs>
     <path id="ma9f01616c0" d="M 0 -8.5 
L -8.5 8.5 
L 8.5 8.5 
z
" style="stroke: #21cd7d; stroke-width: 4; stroke-linejoin: miter"/>
    </defs>
    <g clip-path="url(#p670405414b)">
     <use xlink:href="#ma9f01616c0" x="124.317727" y="263.515697" style="fill-opacity: 0; stroke: #21cd7d; stroke-width: 4; stroke-linejoin: miter"/>
     <use xlink:href="#ma9f01616c0" x="318.302053" y="256.318203" style="fill-opacity: 0; stroke: #21cd7d; stroke-width: 4; stroke-linejoin: miter"/>
     <use xlink:href="#ma9f01616c0" x="512.286379" y="254.875306" style="fill-opacity: 0; stroke: #21cd7d; stroke-width: 4; stroke-linejoin: miter"/>
    </g>
   </g>
   <g id="line2d_21">
    <path d="M 124.317727 263.535449 
L 143.71616 262.275915 
L 163.114592 262.585 
L 182.513025 262.144003 
L 201.911458 261.491011 
L 221.30989 260.839351 
L 240.708323 258.648082 
L 260.106755 258.158488 
L 279.505188 258.3873 
L 298.903621 257.471698 
L 318.302053 254.991097 
L 337.700486 258.235718 
L 357.098918 256.89419 
L 376.497351 256.006253 
L 395.895784 257.574364 
L 415.294216 256.312613 
L 434.692649 256.758009 
L 454.091082 255.311291 
L 473.489514 257.324007 
L 492.887947 256.054119 
L 512.286379 256.372626 
L 531.684812 254.586528 
L 551.083245 249.804893 
L 570.481677 254.818713 
L 589.88011 255.049848 
L 609.278542 253.967251 
L 628.676975 255.714857 
L 648.075408 255.366563 
L 667.47384 254.446821 
L 686.872273 252.712658 
" clip-path="url(#p670405414b)" style="fill: none; stroke: #00ff00; stroke-width: 5; stroke-linecap: square"/>
    <defs>
     <path id="m169a0fd03d" d="M 0 12.020815 
L 12.020815 0 
L 0 -12.020815 
L -12.020815 0 
z
" style="stroke: #00ff00; stroke-width: 4; stroke-linejoin: miter"/>
    </defs>
    <g clip-path="url(#p670405414b)">
     <use xlink:href="#m169a0fd03d" x="124.317727" y="263.535449" style="fill-opacity: 0; stroke: #00ff00; stroke-width: 4; stroke-linejoin: miter"/>
     <use xlink:href="#m169a0fd03d" x="318.302053" y="254.991097" style="fill-opacity: 0; stroke: #00ff00; stroke-width: 4; stroke-linejoin: miter"/>
     <use xlink:href="#m169a0fd03d" x="512.286379" y="256.372626" style="fill-opacity: 0; stroke: #00ff00; stroke-width: 4; stroke-linejoin: miter"/>
    </g>
   </g>
   <g id="line2d_22">
    <path d="M 124.317727 263.567172 
L 143.71616 262.268191 
L 163.114592 261.874094 
L 182.513025 261.551967 
L 201.911458 261.171325 
L 221.30989 260.933869 
L 240.708323 259.557541 
L 260.106755 259.742861 
L 279.505188 258.41881 
L 298.903621 255.839635 
L 318.302053 256.59803 
L 337.700486 255.021534 
L 357.098918 254.60259 
L 376.497351 253.431536 
L 395.895784 251.144959 
L 415.294216 255.211702 
L 434.692649 253.891554 
L 454.091082 252.071906 
L 473.489514 253.693296 
L 492.887947 251.877092 
L 512.286379 250.332472 
L 531.684812 248.764997 
L 551.083245 251.213663 
L 570.481677 249.865272 
L 589.88011 246.813826 
L 609.278542 237.947394 
L 628.676975 243.06684 
L 648.075408 231.053147 
L 667.47384 236.907898 
L 686.872273 223.755122 
" clip-path="url(#p670405414b)" style="fill: none; stroke-dasharray: 18.5,8; stroke-dashoffset: 0; stroke: #eeee00; stroke-width: 5"/>
    <defs>
     <path id="m801f50c328" d="M 8.5 0 
L -8.5 -8.5 
L -8.5 8.5 
z
" style="stroke: #eeee00; stroke-width: 4; stroke-linejoin: miter"/>
    </defs>
    <g clip-path="url(#p670405414b)">
     <use xlink:href="#m801f50c328" x="124.317727" y="263.567172" style="fill-opacity: 0; stroke: #eeee00; stroke-width: 4; stroke-linejoin: miter"/>
     <use xlink:href="#m801f50c328" x="318.302053" y="256.59803" style="fill-opacity: 0; stroke: #eeee00; stroke-width: 4; stroke-linejoin: miter"/>
     <use xlink:href="#m801f50c328" x="512.286379" y="250.332472" style="fill-opacity: 0; stroke: #eeee00; stroke-width: 4; stroke-linejoin: miter"/>
    </g>
   </g>
   <g id="line2d_23">
    <path d="M 124.317727 264.055504 
L 143.71616 262.807126 
L 163.114592 263.733259 
L 182.513025 264.141531 
L 201.911458 262.14451 
L 221.30989 263.082601 
L 240.708323 263.782599 
L 260.106755 263.236672 
L 279.505188 263.902389 
L 298.903621 263.409375 
L 318.302053 263.429988 
L 337.700486 263.923639 
L 357.098918 263.273512 
L 376.497351 261.74401 
L 395.895784 263.896032 
L 415.294216 264.674545 
L 434.692649 262.622406 
L 454.091082 263.604519 
L 473.489514 261.637345 
L 492.887947 263.14831 
L 512.286379 263.09805 
L 531.684812 263.01832 
L 551.083245 262.960618 
L 570.481677 263.181105 
L 589.88011 264.073995 
L 609.278542 262.986491 
L 628.676975 263.544435 
L 648.075408 263.277698 
L 667.47384 263.682562 
L 686.872273 263.719638 
" clip-path="url(#p670405414b)" style="fill: none; stroke-dasharray: 18.5,8; stroke-dashoffset: 0; stroke: #00eeee; stroke-width: 5"/>
    <defs>
     <path id="mddabcb612a" d="M -8.5 -0 
L 8.5 8.5 
L 8.5 -8.5 
z
" style="stroke: #00eeee; stroke-width: 4; stroke-linejoin: miter"/>
    </defs>
    <g clip-path="url(#p670405414b)">
     <use xlink:href="#mddabcb612a" x="124.317727" y="264.055504" style="fill-opacity: 0; stroke: #00eeee; stroke-width: 4; stroke-linejoin: miter"/>
     <use xlink:href="#mddabcb612a" x="318.302053" y="263.429988" style="fill-opacity: 0; stroke: #00eeee; stroke-width: 4; stroke-linejoin: miter"/>
     <use xlink:href="#mddabcb612a" x="512.286379" y="263.09805" style="fill-opacity: 0; stroke: #00eeee; stroke-width: 4; stroke-linejoin: miter"/>
    </g>
   </g>
   <g id="line2d_24">
    <path d="M 124.317727 116.289091 
L 143.71616 239.943636 
L 163.114592 215.212727 
L 182.513025 116.289091 
L 201.911458 116.289091 
L 221.30989 116.289091 
L 240.708323 116.289091 
L 260.106755 17.365455 
L 279.505188 116.289091 
L 298.903621 215.212727 
L 318.302053 116.289091 
L 337.700486 239.943636 
L 357.098918 215.212727 
L 376.497351 116.289091 
L 395.895784 116.289091 
L 415.294216 116.289091 
L 434.692649 116.289091 
L 454.091082 116.289091 
L 473.489514 116.289091 
L 492.887947 116.289091 
L 512.286379 116.289091 
L 531.684812 116.289091 
L 551.083245 116.289091 
L 570.481677 116.289091 
L 589.88011 116.289091 
L 609.278542 215.212727 
L 628.676975 116.289091 
L 648.075408 116.289091 
L 667.47384 116.289091 
L 686.872273 116.289091 
" clip-path="url(#p670405414b)" style="fill: none; stroke-dasharray: 5,8.25; stroke-dashoffset: 0; stroke: #000000; stroke-width: 5"/>
   </g>
   <g id="patch_3">
    <path d="M 96.19 277.04 
L 96.19 5 
" style="fill: none; stroke: #000000; stroke-width: 0.8; stroke-linejoin: miter; stroke-linecap: square"/>
   </g>
   <g id="patch_4">
    <path d="M 715 277.04 
L 715 5 
" style="fill: none; stroke: #000000; stroke-width: 0.8; stroke-linejoin: miter; stroke-linecap: square"/>
   </g>
   <g id="patch_5">
    <path d="M 96.19 277.04 
L 715 277.04 
" style="fill: none; stroke: #000000; stroke-width: 0.8; stroke-linejoin: miter; stroke-linecap: square"/>
   </g>
   <g id="patch_6">
    <path d="M 96.19 5 
L 715 5 
" style="fill: none; stroke: #000000; stroke-width: 0.8; stroke-linejoin: miter; stroke-linecap: square"/>
   </g>
   <g id="legend_1">
    <g id="patch_7">
     <path d="M 108.79 204.344375 
L 244.220313 204.344375 
Q 247.820312 204.344375 247.820312 200.744375 
L 247.820312 17.6 
Q 247.820312 14 244.220313 14 
L 108.79 14 
Q 105.19 14 105.19 17.6 
L 105.19 200.744375 
Q 105.19 204.344375 108.79 204.344375 
z
" style="fill: #ffffff; opacity: 0.8; stroke: #cccccc; stroke-linejoin: miter"/>
    </g>
    <g id="line2d_25">
     <path d="M 112.39 28.577187 
L 148.39 28.577187 
" style="fill: none; stroke: #646464; stroke-width: 5; stroke-linecap: square"/>
    </g>
    <g id="line2d_26">
     <g>
      <use xlink:href="#mdfd4b5b38d" x="130.39" y="28.577187" style="fill-opacity: 0; stroke: #646464; stroke-width: 4"/>
     </g>
    </g>
    <g id="text_11">
     <!-- 5Guard -->
     <g transform="translate(162.79 34.877187) scale(0.18 -0.18)">
      <defs>
       <path id="DejaVuSerif-47" d="M 4097 3272 
Q 3988 3856 3641 4136 
Q 3294 4416 2675 4416 
Q 1869 4416 1472 3897 
Q 1075 3378 1075 2328 
Q 1075 1300 1484 772 
Q 1894 244 2688 244 
Q 3041 244 3362 331 
Q 3684 419 3975 594 
L 3975 1797 
L 3097 1797 
L 3097 2131 
L 4609 2131 
L 4609 391 
Q 4194 150 3714 29 
Q 3234 -91 2688 -91 
Q 1631 -91 995 570 
Q 359 1231 359 2328 
Q 359 3434 996 4092 
Q 1634 4750 2713 4750 
Q 3113 4750 3539 4658 
Q 3966 4566 4447 4378 
L 4447 3272 
L 4097 3272 
z
" transform="scale(0.015625)"/>
       <path id="DejaVuSerif-75" d="M 2266 3322 
L 3341 3322 
L 3341 331 
L 3884 331 
L 3884 0 
L 2766 0 
L 2766 588 
Q 2606 256 2353 82 
Q 2100 -91 1766 -91 
Q 1213 -91 952 223 
Q 691 538 691 1209 
L 691 2988 
L 172 2988 
L 172 3322 
L 1269 3322 
L 1269 1388 
Q 1269 781 1417 556 
Q 1566 331 1947 331 
Q 2347 331 2556 625 
Q 2766 919 2766 1478 
L 2766 2988 
L 2266 2988 
L 2266 3322 
z
" transform="scale(0.015625)"/>
       <path id="DejaVuSerif-72" d="M 3059 3328 
L 3059 2497 
L 2728 2497 
Q 2713 2744 2591 2866 
Q 2469 2988 2234 2988 
Q 1809 2988 1582 2694 
Q 1356 2400 1356 1850 
L 1356 331 
L 2022 331 
L 2022 0 
L 263 0 
L 263 331 
L 781 331 
L 781 2994 
L 231 2994 
L 231 3322 
L 1356 3322 
L 1356 2731 
Q 1525 3078 1790 3245 
Q 2056 3413 2438 3413 
Q 2578 3413 2733 3391 
Q 2888 3369 3059 3328 
z
" transform="scale(0.015625)"/>
       <path id="DejaVuSerif-64" d="M 3359 331 
L 3909 331 
L 3909 0 
L 2784 0 
L 2784 519 
Q 2616 206 2355 57 
Q 2094 -91 1709 -91 
Q 1097 -91 708 395 
Q 319 881 319 1663 
Q 319 2444 706 2928 
Q 1094 3413 1709 3413 
Q 2094 3413 2355 3264 
Q 2616 3116 2784 2803 
L 2784 4531 
L 2241 4531 
L 2241 4863 
L 3359 4863 
L 3359 331 
z
M 2784 1497 
L 2784 1825 
Q 2784 2422 2554 2737 
Q 2325 3053 1888 3053 
Q 1444 3053 1217 2703 
Q 991 2353 991 1663 
Q 991 975 1217 622 
Q 1444 269 1888 269 
Q 2325 269 2554 583 
Q 2784 897 2784 1497 
z
" transform="scale(0.015625)"/>
      </defs>
      <use xlink:href="#DejaVuSerif-35"/>
      <use xlink:href="#DejaVuSerif-47" x="63.623047"/>
      <use xlink:href="#DejaVuSerif-75" x="143.505859"/>
      <use xlink:href="#DejaVuSerif-61" x="207.910156"/>
      <use xlink:href="#DejaVuSerif-72" x="267.529297"/>
      <use xlink:href="#DejaVuSerif-64" x="315.332031"/>
     </g>
    </g>
    <g id="line2d_27">
     <path d="M 112.39 54.997812 
L 148.39 54.997812 
" style="fill: none; stroke: #ee0000; stroke-width: 5; stroke-linecap: square"/>
    </g>
    <g id="line2d_28">
     <g>
      <use xlink:href="#m6e2a42595a" x="130.39" y="54.997812" style="fill-opacity: 0; stroke: #ee0000; stroke-width: 4; stroke-linejoin: miter"/>
     </g>
    </g>
    <g id="text_12">
     <!-- OPT -->
     <g transform="translate(162.79 61.297812) scale(0.18 -0.18)">
      <defs>
       <path id="DejaVuSerif-4f" d="M 2625 244 
Q 3391 244 3781 770 
Q 4172 1297 4172 2328 
Q 4172 3363 3781 3889 
Q 3391 4416 2625 4416 
Q 1856 4416 1465 3889 
Q 1075 3363 1075 2328 
Q 1075 1297 1465 770 
Q 1856 244 2625 244 
z
M 2625 -91 
Q 2150 -91 1751 65 
Q 1353 222 1050 525 
Q 700 875 529 1319 
Q 359 1763 359 2328 
Q 359 2894 529 3339 
Q 700 3784 1050 4134 
Q 1356 4441 1750 4595 
Q 2144 4750 2625 4750 
Q 3641 4750 4266 4084 
Q 4891 3419 4891 2328 
Q 4891 1769 4719 1320 
Q 4547 872 4197 525 
Q 3891 219 3497 64 
Q 3103 -91 2625 -91 
z
" transform="scale(0.015625)"/>
       <path id="DejaVuSerif-50" d="M 1581 2375 
L 2406 2375 
Q 2872 2375 3115 2626 
Q 3359 2878 3359 3353 
Q 3359 3831 3115 4081 
Q 2872 4331 2406 4331 
L 1581 4331 
L 1581 2375 
z
M 353 0 
L 353 331 
L 947 331 
L 947 4331 
L 353 4331 
L 353 4666 
L 2559 4666 
Q 3259 4666 3668 4311 
Q 4078 3956 4078 3353 
Q 4078 2753 3668 2397 
Q 3259 2041 2559 2041 
L 1581 2041 
L 1581 331 
L 2303 331 
L 2303 0 
L 353 0 
z
" transform="scale(0.015625)"/>
      </defs>
      <use xlink:href="#DejaVuSerif-4f"/>
      <use xlink:href="#DejaVuSerif-50" x="81.982422"/>
      <use xlink:href="#DejaVuSerif-54" x="149.267578"/>
     </g>
    </g>
    <g id="line2d_29">
     <path d="M 112.39 81.418437 
L 148.39 81.418437 
" style="fill: none; stroke: #6e8ee6; stroke-width: 5; stroke-linecap: square"/>
    </g>
    <g id="line2d_30">
     <g>
      <use xlink:href="#m78e05d36ec" x="130.39" y="81.418437" style="fill-opacity: 0; stroke: #6e8ee6; stroke-width: 4; stroke-linejoin: miter"/>
     </g>
    </g>
    <g id="text_13">
     <!-- IAR -->
     <g transform="translate(162.79 87.718437) scale(0.18 -0.18)">
      <defs>
       <path id="DejaVuSerif-49" d="M 1581 331 
L 2175 331 
L 2175 0 
L 353 0 
L 353 331 
L 947 331 
L 947 4331 
L 353 4331 
L 353 4666 
L 2175 4666 
L 2175 4331 
L 1581 4331 
L 1581 331 
z
" transform="scale(0.015625)"/>
       <path id="DejaVuSerif-52" d="M 3066 2316 
Q 3284 2256 3442 2114 
Q 3600 1972 3725 1716 
L 4403 331 
L 4972 331 
L 4972 0 
L 3872 0 
L 3144 1484 
Q 2934 1916 2759 2042 
Q 2584 2169 2278 2169 
L 1581 2169 
L 1581 331 
L 2241 331 
L 2241 0 
L 353 0 
L 353 331 
L 947 331 
L 947 4331 
L 353 4331 
L 353 4666 
L 2719 4666 
Q 3400 4666 3770 4341 
Q 4141 4016 4141 3419 
Q 4141 2938 3870 2661 
Q 3600 2384 3066 2316 
z
M 1581 2503 
L 2503 2503 
Q 2975 2503 3200 2726 
Q 3425 2950 3425 3419 
Q 3425 3888 3200 4109 
Q 2975 4331 2503 4331 
L 1581 4331 
L 1581 2503 
z
" transform="scale(0.015625)"/>
      </defs>
      <use xlink:href="#DejaVuSerif-49"/>
      <use xlink:href="#DejaVuSerif-41" x="39.501953"/>
      <use xlink:href="#DejaVuSerif-52" x="111.71875"/>
     </g>
    </g>
    <g id="line2d_31">
     <path d="M 112.39 107.839062 
L 148.39 107.839062 
" style="fill: none; stroke: #21cd7d; stroke-width: 5; stroke-linecap: square"/>
    </g>
    <g id="line2d_32">
     <g>
      <use xlink:href="#ma9f01616c0" x="130.39" y="107.839062" style="fill-opacity: 0; stroke: #21cd7d; stroke-width: 4; stroke-linejoin: miter"/>
     </g>
    </g>
    <g id="text_14">
     <!-- DTR -->
     <g transform="translate(162.79 114.139062) scale(0.18 -0.18)">
      <defs>
       <path id="DejaVuSerif-44" d="M 1581 331 
L 2163 331 
Q 3072 331 3558 850 
Q 4044 1369 4044 2338 
Q 4044 3306 3559 3818 
Q 3075 4331 2163 4331 
L 1581 4331 
L 1581 331 
z
M 353 0 
L 353 331 
L 947 331 
L 947 4331 
L 353 4331 
L 353 4666 
L 2209 4666 
Q 3416 4666 4089 4050 
Q 4763 3434 4763 2338 
Q 4763 1238 4088 619 
Q 3413 0 2209 0 
L 353 0 
z
" transform="scale(0.015625)"/>
      </defs>
      <use xlink:href="#DejaVuSerif-44"/>
      <use xlink:href="#DejaVuSerif-54" x="80.175781"/>
      <use xlink:href="#DejaVuSerif-52" x="146.875"/>
     </g>
    </g>
    <g id="line2d_33">
     <path d="M 112.39 134.259687 
L 148.39 134.259687 
" style="fill: none; stroke: #00ff00; stroke-width: 5; stroke-linecap: square"/>
    </g>
    <g id="line2d_34">
     <g>
      <use xlink:href="#m169a0fd03d" x="130.39" y="134.259687" style="fill-opacity: 0; stroke: #00ff00; stroke-width: 4; stroke-linejoin: miter"/>
     </g>
    </g>
    <g id="text_15">
     <!-- RNR -->
     <g transform="translate(162.79 140.559687) scale(0.18 -0.18)">
      <defs>
       <path id="DejaVuSerif-4e" d="M 313 0 
L 313 331 
L 941 331 
L 941 4331 
L 313 4331 
L 313 4666 
L 1509 4666 
L 4306 984 
L 4306 4331 
L 3681 4331 
L 3681 4666 
L 5319 4666 
L 5319 4331 
L 4691 4331 
L 4691 -91 
L 4313 -91 
L 1325 3841 
L 1325 331 
L 1953 331 
L 1953 0 
L 313 0 
z
" transform="scale(0.015625)"/>
      </defs>
      <use xlink:href="#DejaVuSerif-52"/>
      <use xlink:href="#DejaVuSerif-4e" x="75.292969"/>
      <use xlink:href="#DejaVuSerif-52" x="162.792969"/>
     </g>
    </g>
    <g id="line2d_35">
     <path d="M 112.39 160.680312 
L 148.39 160.680312 
" style="fill: none; stroke-dasharray: 18.5,8; stroke-dashoffset: 0; stroke: #eeee00; stroke-width: 5"/>
    </g>
    <g id="line2d_36">
     <g>
      <use xlink:href="#m801f50c328" x="130.39" y="160.680312" style="fill-opacity: 0; stroke: #eeee00; stroke-width: 4; stroke-linejoin: miter"/>
     </g>
    </g>
    <g id="text_16">
     <!-- OPT-NIS -->
     <g transform="translate(162.79 166.980312) scale(0.18 -0.18)">
      <defs>
       <path id="DejaVuSerif-2d" d="M 281 1959 
L 1881 1959 
L 1881 1472 
L 281 1472 
L 281 1959 
z
" transform="scale(0.015625)"/>
       <path id="DejaVuSerif-53" d="M 594 225 
L 594 1288 
L 953 1284 
Q 969 753 1261 498 
Q 1553 244 2150 244 
Q 2706 244 2998 464 
Q 3291 684 3291 1106 
Q 3291 1444 3114 1625 
Q 2938 1806 2369 1978 
L 1753 2163 
Q 1084 2366 811 2669 
Q 538 2972 538 3500 
Q 538 4094 959 4422 
Q 1381 4750 2144 4750 
Q 2469 4750 2856 4679 
Q 3244 4609 3681 4475 
L 3681 3481 
L 3328 3481 
Q 3275 3975 2998 4195 
Q 2722 4416 2156 4416 
Q 1663 4416 1405 4214 
Q 1147 4013 1147 3628 
Q 1147 3294 1340 3103 
Q 1534 2913 2163 2725 
L 2741 2553 
Q 3375 2363 3645 2067 
Q 3916 1772 3916 1275 
Q 3916 597 3481 253 
Q 3047 -91 2188 -91 
Q 1803 -91 1404 -12 
Q 1006 66 594 225 
z
" transform="scale(0.015625)"/>
      </defs>
      <use xlink:href="#DejaVuSerif-4f"/>
      <use xlink:href="#DejaVuSerif-50" x="81.982422"/>
      <use xlink:href="#DejaVuSerif-54" x="149.267578"/>
      <use xlink:href="#DejaVuSerif-2d" x="203.091797"/>
      <use xlink:href="#DejaVuSerif-4e" x="236.880859"/>
      <use xlink:href="#DejaVuSerif-49" x="324.380859"/>
      <use xlink:href="#DejaVuSerif-53" x="363.882812"/>
     </g>
    </g>
    <g id="line2d_37">
     <path d="M 112.39 187.100937 
L 148.39 187.100937 
" style="fill: none; stroke-dasharray: 18.5,8; stroke-dashoffset: 0; stroke: #00eeee; stroke-width: 5"/>
    </g>
    <g id="line2d_38">
     <g>
      <use xlink:href="#mddabcb612a" x="130.39" y="187.100937" style="fill-opacity: 0; stroke: #00eeee; stroke-width: 4; stroke-linejoin: miter"/>
     </g>
    </g>
    <g id="text_17">
     <!-- OPT-CIS -->
     <g transform="translate(162.79 193.400937) scale(0.18 -0.18)">
      <defs>
       <path id="DejaVuSerif-43" d="M 4513 1234 
Q 4306 581 3820 245 
Q 3334 -91 2591 -91 
Q 2134 -91 1743 65 
Q 1353 222 1050 525 
Q 700 875 529 1320 
Q 359 1766 359 2328 
Q 359 3416 987 4083 
Q 1616 4750 2644 4750 
Q 3025 4750 3456 4650 
Q 3888 4550 4384 4347 
L 4384 3272 
L 4031 3272 
Q 3916 3859 3567 4137 
Q 3219 4416 2591 4416 
Q 1844 4416 1459 3886 
Q 1075 3356 1075 2328 
Q 1075 1303 1459 773 
Q 1844 244 2591 244 
Q 3113 244 3450 492 
Q 3788 741 3938 1234 
L 4513 1234 
z
" transform="scale(0.015625)"/>
      </defs>
      <use xlink:href="#DejaVuSerif-4f"/>
      <use xlink:href="#DejaVuSerif-50" x="81.982422"/>
      <use xlink:href="#DejaVuSerif-54" x="149.267578"/>
      <use xlink:href="#DejaVuSerif-2d" x="203.091797"/>
      <use xlink:href="#DejaVuSerif-43" x="236.880859"/>
      <use xlink:href="#DejaVuSerif-49" x="313.394531"/>
      <use xlink:href="#DejaVuSerif-53" x="352.896484"/>
     </g>
    </g>
   </g>
  </g>
 </g>
 <defs>
  <clipPath id="p670405414b">
   <rect x="96.19" y="5" width="618.81" height="272.04"/>
  </clipPath>
 </defs>
</svg>
