<?xml version="1.0" encoding="utf-8" standalone="no"?>
<!DOCTYPE svg PUBLIC "-//W3C//DTD SVG 1.1//EN"
  "http://www.w3.org/Graphics/SVG/1.1/DTD/svg11.dtd">
<svg xmlns:xlink="http://www.w3.org/1999/xlink" width="720pt" height="342pt" viewBox="0 0 720 342" xmlns="http://www.w3.org/2000/svg" version="1.1">
 <metadata>
  <rdf:RDF xmlns:dc="http://purl.org/dc/elements/1.1/" xmlns:cc="http://creativecommons.org/ns#" xmlns:rdf="http://www.w3.org/1999/02/22-rdf-syntax-ns#">
   <cc:Work>
    <dc:type rdf:resource="http://purl.org/dc/dcmitype/StillImage"/>
    <dc:date>2025-03-26T11:06:52.894916</dc:date>
    <dc:format>image/svg+xml</dc:format>
    <dc:creator>
     <cc:Agent>
      <dc:title>Matplotlib v3.8.0, https://matplotlib.org/</dc:title>
     </cc:Agent>
    </dc:creator>
   </cc:Work>
  </rdf:RDF>
 </metadata>
 <defs>
  <style type="text/css">*{stroke-linejoin: round; stroke-linecap: butt}</style>
 </defs>
 <g id="figure_1">
  <g id="patch_1">
   <path d="M 0 342 
L 720 342 
L 720 0 
L 0 0 
z
" style="fill: #ffffff"/>
  </g>
  <g id="axes_1">
   <g id="patch_2">
    <path d="M 48.13 287.12 
L 715 287.12 
L 715 5 
L 48.13 5 
z
" style="fill: #ffffff"/>
   </g>
   <g id="PolyCollection_1">
    <defs>
     <path id="m1029300d4a" d="M 78.442273 -67.703636 
L 78.442273 -67.703636 
L 230.003636 -324.176364 
L 381.565 -195.94 
L 533.126364 -67.703636 
L 684.687727 -67.703636 
L 684.687727 -67.703636 
L 684.687727 -67.703636 
L 533.126364 -67.703636 
L 381.565 -195.94 
L 230.003636 -324.176364 
L 78.442273 -67.703636 
z
" style="stroke: #118811; stroke-opacity: 0.3"/>
    </defs>
    <g clip-path="url(#p0bcd40b9b2)">
     <use xlink:href="#m1029300d4a" x="0" y="342" style="fill: #118811; fill-opacity: 0.3; stroke: #118811; stroke-opacity: 0.3"/>
    </g>
   </g>
   <g id="matplotlib.axis_1">
    <g id="xtick_1">
     <g id="line2d_1">
      <path d="M 78.442273 287.12 
L 78.442273 5 
" clip-path="url(#p0bcd40b9b2)" style="fill: none; stroke: #b0b0b0; stroke-width: 0.8; stroke-linecap: square"/>
     </g>
     <g id="line2d_2">
      <defs>
       <path id="m80133b08a4" d="M 0 0 
L 0 3.5 
" style="stroke: #000000; stroke-width: 0.8"/>
      </defs>
      <g>
       <use xlink:href="#m80133b08a4" x="78.442273" y="287.12" style="stroke: #000000; stroke-width: 0.8"/>
      </g>
     </g>
     <g id="text_1">
      <!-- 0 -->
      <g transform="translate(72.079773 309.316875) scale(0.2 -0.2)">
       <defs>
        <path id="DejaVuSerif-30" d="M 2034 219 
Q 2513 219 2750 744 
Q 2988 1269 2988 2328 
Q 2988 3391 2750 3916 
Q 2513 4441 2034 4441 
Q 1556 4441 1318 3916 
Q 1081 3391 1081 2328 
Q 1081 1269 1318 744 
Q 1556 219 2034 219 
z
M 2034 -91 
Q 1275 -91 848 546 
Q 422 1184 422 2328 
Q 422 3475 848 4112 
Q 1275 4750 2034 4750 
Q 2797 4750 3222 4112 
Q 3647 3475 3647 2328 
Q 3647 1184 3222 546 
Q 2797 -91 2034 -91 
z
" transform="scale(0.015625)"/>
       </defs>
       <use xlink:href="#DejaVuSerif-30"/>
      </g>
     </g>
    </g>
    <g id="text_2">
     <!-- $\it{t}$ -->
     <g transform="translate(377.565 332.673125) scale(0.2 -0.2)">
      <defs>
       <path id="DejaVuSans-Oblique-74" d="M 2706 3500 
L 2619 3053 
L 1472 3053 
L 1100 1153 
Q 1081 1047 1072 975 
Q 1063 903 1063 863 
Q 1063 663 1183 572 
Q 1303 481 1569 481 
L 2150 481 
L 2053 0 
L 1503 0 
Q 991 0 739 200 
Q 488 400 488 806 
Q 488 878 497 964 
Q 506 1050 525 1153 
L 897 3053 
L 409 3053 
L 500 3500 
L 978 3500 
L 1172 4494 
L 1747 4494 
L 1556 3500 
L 2706 3500 
z
" transform="scale(0.015625)"/>
      </defs>
      <use xlink:href="#DejaVuSans-Oblique-74" transform="translate(0 0.78125)"/>
     </g>
    </g>
   </g>
   <g id="matplotlib.axis_2">
    <g id="ytick_1">
     <g id="line2d_3">
      <path d="M 48.13 274.296364 
L 715 274.296364 
" clip-path="url(#p0bcd40b9b2)" style="fill: none; stroke: #b0b0b0; stroke-width: 0.8; stroke-linecap: square"/>
     </g>
     <g id="line2d_4">
      <defs>
       <path id="m15557f1ebb" d="M 0 0 
L -3.5 0 
" style="stroke: #000000; stroke-width: 0.8"/>
      </defs>
      <g>
       <use xlink:href="#m15557f1ebb" x="48.13" y="274.296364" style="stroke: #000000; stroke-width: 0.8"/>
      </g>
     </g>
     <g id="text_3">
      <!-- 0 -->
      <g transform="translate(28.405 281.894801) scale(0.2 -0.2)">
       <use xlink:href="#DejaVuSerif-30"/>
      </g>
     </g>
    </g>
    <g id="ytick_2">
     <g id="line2d_5">
      <path d="M 48.13 146.06 
L 715 146.06 
" clip-path="url(#p0bcd40b9b2)" style="fill: none; stroke: #b0b0b0; stroke-width: 0.8; stroke-linecap: square"/>
     </g>
     <g id="line2d_6">
      <g>
       <use xlink:href="#m15557f1ebb" x="48.13" y="146.06" style="stroke: #000000; stroke-width: 0.8"/>
      </g>
     </g>
     <g id="text_4">
      <!-- 1 -->
      <g transform="translate(28.405 153.658437) scale(0.2 -0.2)">
       <defs>
        <path id="DejaVuSerif-31" d="M 909 0 
L 909 331 
L 1722 331 
L 1722 4213 
L 781 3603 
L 781 4013 
L 1919 4750 
L 2350 4750 
L 2350 331 
L 3163 331 
L 3163 0 
L 909 0 
z
" transform="scale(0.015625)"/>
       </defs>
       <use xlink:href="#DejaVuSerif-31"/>
      </g>
     </g>
    </g>
    <g id="ytick_3">
     <g id="line2d_7">
      <path d="M 48.13 17.823636 
L 715 17.823636 
" clip-path="url(#p0bcd40b9b2)" style="fill: none; stroke: #b0b0b0; stroke-width: 0.8; stroke-linecap: square"/>
     </g>
     <g id="line2d_8">
      <g>
       <use xlink:href="#m15557f1ebb" x="48.13" y="17.823636" style="stroke: #000000; stroke-width: 0.8"/>
      </g>
     </g>
     <g id="text_5">
      <!-- 2 -->
      <g transform="translate(28.405 25.422074) scale(0.2 -0.2)">
       <defs>
        <path id="DejaVuSerif-32" d="M 819 3553 
L 469 3553 
L 469 4384 
Q 803 4563 1142 4656 
Q 1481 4750 1806 4750 
Q 2534 4750 2956 4397 
Q 3378 4044 3378 3438 
Q 3378 2753 2422 1800 
Q 2347 1728 2309 1691 
L 1131 513 
L 3078 513 
L 3078 1088 
L 3444 1088 
L 3444 0 
L 434 0 
L 434 341 
L 1850 1753 
Q 2319 2222 2519 2614 
Q 2719 3006 2719 3438 
Q 2719 3909 2473 4175 
Q 2228 4441 1797 4441 
Q 1350 4441 1106 4219 
Q 863 3997 819 3553 
z
" transform="scale(0.015625)"/>
       </defs>
       <use xlink:href="#DejaVuSerif-32"/>
      </g>
     </g>
    </g>
    <g id="text_6">
     <!-- Average Isolation Level -->
     <g transform="translate(19.96125 265.136562) rotate(-90) scale(0.2 -0.2)">
      <defs>
       <path id="DejaVuSerif-41" d="M 1281 1691 
L 2994 1691 
L 2138 3909 
L 1281 1691 
z
M -38 0 
L -38 331 
L 372 331 
L 2034 4666 
L 2559 4666 
L 4225 331 
L 4684 331 
L 4684 0 
L 2988 0 
L 2988 331 
L 3506 331 
L 3116 1356 
L 1153 1356 
L 763 331 
L 1275 331 
L 1275 0 
L -38 0 
z
" transform="scale(0.015625)"/>
       <path id="DejaVuSerif-76" d="M 1581 0 
L 359 2988 
L -19 2988 
L -19 3322 
L 1509 3322 
L 1509 2988 
L 978 2988 
L 1913 703 
L 2847 2988 
L 2350 2988 
L 2350 3322 
L 3597 3322 
L 3597 2988 
L 3225 2988 
L 2003 0 
L 1581 0 
z
" transform="scale(0.015625)"/>
       <path id="DejaVuSerif-65" d="M 3469 1600 
L 991 1600 
L 991 1575 
Q 991 903 1244 561 
Q 1497 219 1991 219 
Q 2369 219 2611 417 
Q 2853 616 2950 1006 
L 3413 1006 
Q 3275 459 2904 184 
Q 2534 -91 1931 -91 
Q 1203 -91 761 389 
Q 319 869 319 1663 
Q 319 2450 753 2931 
Q 1188 3413 1894 3413 
Q 2647 3413 3050 2948 
Q 3453 2484 3469 1600 
z
M 2791 1931 
Q 2772 2513 2545 2808 
Q 2319 3103 1894 3103 
Q 1497 3103 1269 2806 
Q 1041 2509 991 1931 
L 2791 1931 
z
" transform="scale(0.015625)"/>
       <path id="DejaVuSerif-72" d="M 3059 3328 
L 3059 2497 
L 2728 2497 
Q 2713 2744 2591 2866 
Q 2469 2988 2234 2988 
Q 1809 2988 1582 2694 
Q 1356 2400 1356 1850 
L 1356 331 
L 2022 331 
L 2022 0 
L 263 0 
L 263 331 
L 781 331 
L 781 2994 
L 231 2994 
L 231 3322 
L 1356 3322 
L 1356 2731 
Q 1525 3078 1790 3245 
Q 2056 3413 2438 3413 
Q 2578 3413 2733 3391 
Q 2888 3369 3059 3328 
z
" transform="scale(0.015625)"/>
       <path id="DejaVuSerif-61" d="M 2547 1044 
L 2547 1747 
L 1806 1747 
Q 1378 1747 1168 1562 
Q 959 1378 959 997 
Q 959 650 1171 447 
Q 1384 244 1747 244 
Q 2106 244 2326 466 
Q 2547 688 2547 1044 
z
M 3122 2075 
L 3122 331 
L 3634 331 
L 3634 0 
L 2547 0 
L 2547 359 
Q 2356 128 2106 18 
Q 1856 -91 1522 -91 
Q 969 -91 644 203 
Q 319 497 319 997 
Q 319 1513 691 1797 
Q 1063 2081 1741 2081 
L 2547 2081 
L 2547 2309 
Q 2547 2688 2317 2895 
Q 2088 3103 1672 3103 
Q 1328 3103 1125 2947 
Q 922 2791 872 2484 
L 575 2484 
L 575 3156 
Q 875 3284 1158 3348 
Q 1441 3413 1709 3413 
Q 2400 3413 2761 3070 
Q 3122 2728 3122 2075 
z
" transform="scale(0.015625)"/>
       <path id="DejaVuSerif-67" d="M 3359 2988 
L 3359 72 
Q 3359 -644 2965 -1033 
Q 2572 -1422 1844 -1422 
Q 1516 -1422 1216 -1362 
Q 916 -1303 641 -1184 
L 641 -488 
L 941 -488 
Q 997 -813 1206 -963 
Q 1416 -1113 1806 -1113 
Q 2313 -1113 2548 -827 
Q 2784 -541 2784 72 
L 2784 519 
Q 2616 206 2355 57 
Q 2094 -91 1709 -91 
Q 1097 -91 708 395 
Q 319 881 319 1663 
Q 319 2444 706 2928 
Q 1094 3413 1709 3413 
Q 2094 3413 2355 3264 
Q 2616 3116 2784 2803 
L 2784 3322 
L 3909 3322 
L 3909 2988 
L 3359 2988 
z
M 2784 1825 
Q 2784 2422 2554 2737 
Q 2325 3053 1888 3053 
Q 1444 3053 1217 2703 
Q 991 2353 991 1663 
Q 991 975 1217 622 
Q 1444 269 1888 269 
Q 2325 269 2554 583 
Q 2784 897 2784 1497 
L 2784 1825 
z
" transform="scale(0.015625)"/>
       <path id="DejaVuSerif-20" transform="scale(0.015625)"/>
       <path id="DejaVuSerif-49" d="M 1581 331 
L 2175 331 
L 2175 0 
L 353 0 
L 353 331 
L 947 331 
L 947 4331 
L 353 4331 
L 353 4666 
L 2175 4666 
L 2175 4331 
L 1581 4331 
L 1581 331 
z
" transform="scale(0.015625)"/>
       <path id="DejaVuSerif-73" d="M 359 184 
L 359 959 
L 691 959 
Q 703 588 923 403 
Q 1144 219 1575 219 
Q 1963 219 2166 364 
Q 2369 509 2369 788 
Q 2369 1006 2220 1140 
Q 2072 1275 1594 1428 
L 1178 1569 
Q 750 1706 558 1912 
Q 366 2119 366 2438 
Q 366 2894 700 3153 
Q 1034 3413 1625 3413 
Q 1888 3413 2178 3344 
Q 2469 3275 2778 3144 
L 2778 2419 
L 2447 2419 
Q 2434 2741 2221 2922 
Q 2009 3103 1644 3103 
Q 1281 3103 1095 2975 
Q 909 2847 909 2591 
Q 909 2381 1050 2254 
Q 1191 2128 1613 1997 
L 2069 1856 
Q 2541 1709 2748 1489 
Q 2956 1269 2956 922 
Q 2956 450 2595 179 
Q 2234 -91 1600 -91 
Q 1278 -91 972 -22 
Q 666 47 359 184 
z
" transform="scale(0.015625)"/>
       <path id="DejaVuSerif-6f" d="M 1925 219 
Q 2388 219 2623 584 
Q 2859 950 2859 1663 
Q 2859 2375 2623 2739 
Q 2388 3103 1925 3103 
Q 1463 3103 1227 2739 
Q 991 2375 991 1663 
Q 991 950 1228 584 
Q 1466 219 1925 219 
z
M 1925 -91 
Q 1200 -91 759 389 
Q 319 869 319 1663 
Q 319 2456 758 2934 
Q 1197 3413 1925 3413 
Q 2653 3413 3092 2934 
Q 3531 2456 3531 1663 
Q 3531 869 3092 389 
Q 2653 -91 1925 -91 
z
" transform="scale(0.015625)"/>
       <path id="DejaVuSerif-6c" d="M 1313 331 
L 1856 331 
L 1856 0 
L 184 0 
L 184 331 
L 738 331 
L 738 4531 
L 184 4531 
L 184 4863 
L 1313 4863 
L 1313 331 
z
" transform="scale(0.015625)"/>
       <path id="DejaVuSerif-74" d="M 691 2988 
L 184 2988 
L 184 3322 
L 691 3322 
L 691 4353 
L 1269 4353 
L 1269 3322 
L 2350 3322 
L 2350 2988 
L 1269 2988 
L 1269 878 
Q 1269 456 1350 337 
Q 1431 219 1650 219 
Q 1875 219 1978 351 
Q 2081 484 2088 781 
L 2522 781 
Q 2497 328 2275 118 
Q 2053 -91 1600 -91 
Q 1103 -91 897 129 
Q 691 350 691 878 
L 691 2988 
z
" transform="scale(0.015625)"/>
       <path id="DejaVuSerif-69" d="M 622 4353 
Q 622 4497 726 4603 
Q 831 4709 978 4709 
Q 1122 4709 1226 4603 
Q 1331 4497 1331 4353 
Q 1331 4206 1228 4103 
Q 1125 4000 978 4000 
Q 831 4000 726 4103 
Q 622 4206 622 4353 
z
M 1356 331 
L 1900 331 
L 1900 0 
L 231 0 
L 231 331 
L 781 331 
L 781 2988 
L 231 2988 
L 231 3322 
L 1356 3322 
L 1356 331 
z
" transform="scale(0.015625)"/>
       <path id="DejaVuSerif-6e" d="M 263 0 
L 263 331 
L 781 331 
L 781 2988 
L 231 2988 
L 231 3322 
L 1356 3322 
L 1356 2731 
Q 1516 3069 1770 3241 
Q 2025 3413 2363 3413 
Q 2913 3413 3172 3097 
Q 3431 2781 3431 2113 
L 3431 331 
L 3944 331 
L 3944 0 
L 2356 0 
L 2356 331 
L 2853 331 
L 2853 1931 
Q 2853 2541 2703 2767 
Q 2553 2994 2175 2994 
Q 1775 2994 1565 2701 
Q 1356 2409 1356 1850 
L 1356 331 
L 1856 331 
L 1856 0 
L 263 0 
z
" transform="scale(0.015625)"/>
       <path id="DejaVuSerif-4c" d="M 353 0 
L 353 331 
L 947 331 
L 947 4331 
L 353 4331 
L 353 4666 
L 2175 4666 
L 2175 4331 
L 1581 4331 
L 1581 384 
L 3713 384 
L 3713 1166 
L 4097 1166 
L 4097 0 
L 353 0 
z
" transform="scale(0.015625)"/>
      </defs>
      <use xlink:href="#DejaVuSerif-41"/>
      <use xlink:href="#DejaVuSerif-76" x="68.216797"/>
      <use xlink:href="#DejaVuSerif-65" x="124.710938"/>
      <use xlink:href="#DejaVuSerif-72" x="183.890625"/>
      <use xlink:href="#DejaVuSerif-61" x="231.693359"/>
      <use xlink:href="#DejaVuSerif-67" x="291.3125"/>
      <use xlink:href="#DejaVuSerif-65" x="355.326172"/>
      <use xlink:href="#DejaVuSerif-20" x="414.505859"/>
      <use xlink:href="#DejaVuSerif-49" x="446.292969"/>
      <use xlink:href="#DejaVuSerif-73" x="485.794922"/>
      <use xlink:href="#DejaVuSerif-6f" x="537.113281"/>
      <use xlink:href="#DejaVuSerif-6c" x="597.318359"/>
      <use xlink:href="#DejaVuSerif-61" x="629.300781"/>
      <use xlink:href="#DejaVuSerif-74" x="688.919922"/>
      <use xlink:href="#DejaVuSerif-69" x="729.105469"/>
      <use xlink:href="#DejaVuSerif-6f" x="761.087891"/>
      <use xlink:href="#DejaVuSerif-6e" x="821.292969"/>
      <use xlink:href="#DejaVuSerif-20" x="885.697266"/>
      <use xlink:href="#DejaVuSerif-4c" x="917.484375"/>
      <use xlink:href="#DejaVuSerif-65" x="983.890625"/>
      <use xlink:href="#DejaVuSerif-76" x="1043.070312"/>
      <use xlink:href="#DejaVuSerif-65" x="1099.564453"/>
      <use xlink:href="#DejaVuSerif-6c" x="1158.744141"/>
     </g>
    </g>
   </g>
   <g id="line2d_9">
    <path d="M 78.442273 274.296364 
L 230.003636 274.296364 
L 381.565 274.296364 
L 533.126364 274.296364 
L 684.687727 274.296364 
" clip-path="url(#p0bcd40b9b2)" style="fill: none; stroke-dasharray: 7.4,3.2; stroke-dashoffset: 0; stroke: #e4ac3e; stroke-width: 2"/>
    <defs>
     <path id="maa4d2cafe2" d="M 7.5 0 
L -7.5 -7.5 
L -7.5 7.5 
z
" style="stroke: #e4ac3e; stroke-width: 2; stroke-linejoin: miter"/>
    </defs>
    <g clip-path="url(#p0bcd40b9b2)">
     <use xlink:href="#maa4d2cafe2" x="78.442273" y="274.296364" style="fill-opacity: 0; stroke: #e4ac3e; stroke-width: 2; stroke-linejoin: miter"/>
     <use xlink:href="#maa4d2cafe2" x="230.003636" y="274.296364" style="fill-opacity: 0; stroke: #e4ac3e; stroke-width: 2; stroke-linejoin: miter"/>
     <use xlink:href="#maa4d2cafe2" x="381.565" y="274.296364" style="fill-opacity: 0; stroke: #e4ac3e; stroke-width: 2; stroke-linejoin: miter"/>
     <use xlink:href="#maa4d2cafe2" x="533.126364" y="274.296364" style="fill-opacity: 0; stroke: #e4ac3e; stroke-width: 2; stroke-linejoin: miter"/>
     <use xlink:href="#maa4d2cafe2" x="684.687727" y="274.296364" style="fill-opacity: 0; stroke: #e4ac3e; stroke-width: 2; stroke-linejoin: miter"/>
    </g>
   </g>
   <g id="line2d_10">
    <path d="M 78.442273 17.823636 
L 230.003636 17.823636 
L 381.565 17.823636 
L 533.126364 17.823636 
L 684.687727 17.823636 
" clip-path="url(#p0bcd40b9b2)" style="fill: none; stroke-dasharray: 7.4,3.2; stroke-dashoffset: 0; stroke: #416fbd; stroke-width: 2"/>
    <defs>
     <path id="m769d8b287d" d="M -7.5 -0 
L 7.5 7.5 
L 7.5 -7.5 
z
" style="stroke: #416fbd; stroke-width: 2; stroke-linejoin: miter"/>
    </defs>
    <g clip-path="url(#p0bcd40b9b2)">
     <use xlink:href="#m769d8b287d" x="78.442273" y="17.823636" style="fill-opacity: 0; stroke: #416fbd; stroke-width: 2; stroke-linejoin: miter"/>
     <use xlink:href="#m769d8b287d" x="230.003636" y="17.823636" style="fill-opacity: 0; stroke: #416fbd; stroke-width: 2; stroke-linejoin: miter"/>
     <use xlink:href="#m769d8b287d" x="381.565" y="17.823636" style="fill-opacity: 0; stroke: #416fbd; stroke-width: 2; stroke-linejoin: miter"/>
     <use xlink:href="#m769d8b287d" x="533.126364" y="17.823636" style="fill-opacity: 0; stroke: #416fbd; stroke-width: 2; stroke-linejoin: miter"/>
     <use xlink:href="#m769d8b287d" x="684.687727" y="17.823636" style="fill-opacity: 0; stroke: #416fbd; stroke-width: 2; stroke-linejoin: miter"/>
    </g>
   </g>
   <g id="line2d_11">
    <path d="M 78.442273 274.296364 
L 230.003636 146.06 
L 381.565 146.06 
L 533.126364 178.119091 
L 684.687727 197.354545 
" clip-path="url(#p0bcd40b9b2)" style="fill: none; stroke: #64b749; stroke-width: 2; stroke-linecap: square"/>
    <defs>
     <path id="m000efc8136" d="M 0 7.5 
C 1.989023 7.5 3.896849 6.709753 5.303301 5.303301 
C 6.709753 3.896849 7.5 1.989023 7.5 0 
C 7.5 -1.989023 6.709753 -3.896849 5.303301 -5.303301 
C 3.896849 -6.709753 1.989023 -7.5 0 -7.5 
C -1.989023 -7.5 -3.896849 -6.709753 -5.303301 -5.303301 
C -6.709753 -3.896849 -7.5 -1.989023 -7.5 0 
C -7.5 1.989023 -6.709753 3.896849 -5.303301 5.303301 
C -3.896849 6.709753 -1.989023 7.5 0 7.5 
z
" style="stroke: #64b749; stroke-width: 2"/>
    </defs>
    <g clip-path="url(#p0bcd40b9b2)">
     <use xlink:href="#m000efc8136" x="78.442273" y="274.296364" style="fill-opacity: 0; stroke: #64b749; stroke-width: 2"/>
     <use xlink:href="#m000efc8136" x="230.003636" y="146.06" style="fill-opacity: 0; stroke: #64b749; stroke-width: 2"/>
     <use xlink:href="#m000efc8136" x="381.565" y="146.06" style="fill-opacity: 0; stroke: #64b749; stroke-width: 2"/>
     <use xlink:href="#m000efc8136" x="533.126364" y="178.119091" style="fill-opacity: 0; stroke: #64b749; stroke-width: 2"/>
     <use xlink:href="#m000efc8136" x="684.687727" y="197.354545" style="fill-opacity: 0; stroke: #64b749; stroke-width: 2"/>
    </g>
   </g>
   <g id="patch_3">
    <path d="M 48.13 287.12 
L 48.13 5 
" style="fill: none; stroke: #000000; stroke-width: 0.8; stroke-linejoin: miter; stroke-linecap: square"/>
   </g>
   <g id="patch_4">
    <path d="M 715 287.12 
L 715 5 
" style="fill: none; stroke: #000000; stroke-width: 0.8; stroke-linejoin: miter; stroke-linecap: square"/>
   </g>
   <g id="patch_5">
    <path d="M 48.13 287.12 
L 715 287.12 
" style="fill: none; stroke: #000000; stroke-width: 0.8; stroke-linejoin: miter; stroke-linecap: square"/>
   </g>
   <g id="patch_6">
    <path d="M 48.13 5 
L 715 5 
" style="fill: none; stroke: #000000; stroke-width: 0.8; stroke-linejoin: miter; stroke-linecap: square"/>
   </g>
   <g id="legend_1">
    <g id="patch_7">
     <path d="M 518.905469 178.335781 
L 704.5 178.335781 
Q 707.5 178.335781 707.5 175.335781 
L 707.5 116.784219 
Q 707.5 113.784219 704.5 113.784219 
L 518.905469 113.784219 
Q 515.905469 113.784219 515.905469 116.784219 
L 515.905469 175.335781 
Q 515.905469 178.335781 518.905469 178.335781 
z
" style="fill: #ffffff; stroke: #cccccc; stroke-linejoin: miter"/>
    </g>
    <g id="line2d_12">
     <path d="M 521.905469 125.931875 
L 551.905469 125.931875 
" style="fill: none; stroke-dasharray: 7.4,3.2; stroke-dashoffset: 0; stroke: #e4ac3e; stroke-width: 2"/>
    </g>
    <g id="line2d_13">
     <g>
      <use xlink:href="#maa4d2cafe2" x="536.905469" y="125.931875" style="fill-opacity: 0; stroke: #e4ac3e; stroke-width: 2; stroke-linejoin: miter"/>
     </g>
    </g>
    <g id="text_7">
     <!-- No Isolation -->
     <g transform="translate(557.905469 131.181875) scale(0.15 -0.15)">
      <defs>
       <path id="DejaVuSerif-4e" d="M 313 0 
L 313 331 
L 941 331 
L 941 4331 
L 313 4331 
L 313 4666 
L 1509 4666 
L 4306 984 
L 4306 4331 
L 3681 4331 
L 3681 4666 
L 5319 4666 
L 5319 4331 
L 4691 4331 
L 4691 -91 
L 4313 -91 
L 1325 3841 
L 1325 331 
L 1953 331 
L 1953 0 
L 313 0 
z
" transform="scale(0.015625)"/>
      </defs>
      <use xlink:href="#DejaVuSerif-4e"/>
      <use xlink:href="#DejaVuSerif-6f" x="87.5"/>
      <use xlink:href="#DejaVuSerif-20" x="147.705078"/>
      <use xlink:href="#DejaVuSerif-49" x="179.492188"/>
      <use xlink:href="#DejaVuSerif-73" x="218.994141"/>
      <use xlink:href="#DejaVuSerif-6f" x="270.3125"/>
      <use xlink:href="#DejaVuSerif-6c" x="330.517578"/>
      <use xlink:href="#DejaVuSerif-61" x="362.5"/>
      <use xlink:href="#DejaVuSerif-74" x="422.119141"/>
      <use xlink:href="#DejaVuSerif-69" x="462.304688"/>
      <use xlink:href="#DejaVuSerif-6f" x="494.287109"/>
      <use xlink:href="#DejaVuSerif-6e" x="554.492188"/>
     </g>
    </g>
    <g id="line2d_14">
     <path d="M 521.905469 144.949062 
L 551.905469 144.949062 
" style="fill: none; stroke-dasharray: 7.4,3.2; stroke-dashoffset: 0; stroke: #416fbd; stroke-width: 2"/>
    </g>
    <g id="line2d_15">
     <g>
      <use xlink:href="#m769d8b287d" x="536.905469" y="144.949062" style="fill-opacity: 0; stroke: #416fbd; stroke-width: 2; stroke-linejoin: miter"/>
     </g>
    </g>
    <g id="text_8">
     <!-- Complete Isolation -->
     <g transform="translate(557.905469 150.199062) scale(0.15 -0.15)">
      <defs>
       <path id="DejaVuSerif-43" d="M 4513 1234 
Q 4306 581 3820 245 
Q 3334 -91 2591 -91 
Q 2134 -91 1743 65 
Q 1353 222 1050 525 
Q 700 875 529 1320 
Q 359 1766 359 2328 
Q 359 3416 987 4083 
Q 1616 4750 2644 4750 
Q 3025 4750 3456 4650 
Q 3888 4550 4384 4347 
L 4384 3272 
L 4031 3272 
Q 3916 3859 3567 4137 
Q 3219 4416 2591 4416 
Q 1844 4416 1459 3886 
Q 1075 3356 1075 2328 
Q 1075 1303 1459 773 
Q 1844 244 2591 244 
Q 3113 244 3450 492 
Q 3788 741 3938 1234 
L 4513 1234 
z
" transform="scale(0.015625)"/>
       <path id="DejaVuSerif-6d" d="M 3316 2675 
Q 3481 3041 3739 3227 
Q 3997 3413 4341 3413 
Q 4863 3413 5119 3089 
Q 5375 2766 5375 2113 
L 5375 331 
L 5894 331 
L 5894 0 
L 4300 0 
L 4300 331 
L 4800 331 
L 4800 2047 
Q 4800 2556 4650 2772 
Q 4500 2988 4153 2988 
Q 3769 2988 3567 2697 
Q 3366 2406 3366 1850 
L 3366 331 
L 3866 331 
L 3866 0 
L 2291 0 
L 2291 331 
L 2791 331 
L 2791 2069 
Q 2791 2566 2641 2777 
Q 2491 2988 2144 2988 
Q 1759 2988 1557 2697 
Q 1356 2406 1356 1850 
L 1356 331 
L 1856 331 
L 1856 0 
L 263 0 
L 263 331 
L 781 331 
L 781 2994 
L 231 2994 
L 231 3322 
L 1356 3322 
L 1356 2731 
Q 1516 3063 1762 3238 
Q 2009 3413 2322 3413 
Q 2709 3413 2968 3220 
Q 3228 3028 3316 2675 
z
" transform="scale(0.015625)"/>
       <path id="DejaVuSerif-70" d="M 1313 1825 
L 1313 1497 
Q 1313 897 1542 583 
Q 1772 269 2209 269 
Q 2650 269 2876 622 
Q 3103 975 3103 1663 
Q 3103 2353 2876 2703 
Q 2650 3053 2209 3053 
Q 1772 3053 1542 2737 
Q 1313 2422 1313 1825 
z
M 738 2988 
L 184 2988 
L 184 3322 
L 1313 3322 
L 1313 2803 
Q 1481 3116 1742 3264 
Q 2003 3413 2388 3413 
Q 3000 3413 3387 2928 
Q 3775 2444 3775 1663 
Q 3775 881 3387 395 
Q 3000 -91 2388 -91 
Q 2003 -91 1742 57 
Q 1481 206 1313 519 
L 1313 -997 
L 1856 -997 
L 1856 -1331 
L 184 -1331 
L 184 -997 
L 738 -997 
L 738 2988 
z
" transform="scale(0.015625)"/>
      </defs>
      <use xlink:href="#DejaVuSerif-43"/>
      <use xlink:href="#DejaVuSerif-6f" x="76.513672"/>
      <use xlink:href="#DejaVuSerif-6d" x="136.71875"/>
      <use xlink:href="#DejaVuSerif-70" x="231.542969"/>
      <use xlink:href="#DejaVuSerif-6c" x="295.556641"/>
      <use xlink:href="#DejaVuSerif-65" x="327.539062"/>
      <use xlink:href="#DejaVuSerif-74" x="386.71875"/>
      <use xlink:href="#DejaVuSerif-65" x="426.904297"/>
      <use xlink:href="#DejaVuSerif-20" x="486.083984"/>
      <use xlink:href="#DejaVuSerif-49" x="517.871094"/>
      <use xlink:href="#DejaVuSerif-73" x="557.373047"/>
      <use xlink:href="#DejaVuSerif-6f" x="608.691406"/>
      <use xlink:href="#DejaVuSerif-6c" x="668.896484"/>
      <use xlink:href="#DejaVuSerif-61" x="700.878906"/>
      <use xlink:href="#DejaVuSerif-74" x="760.498047"/>
      <use xlink:href="#DejaVuSerif-69" x="800.683594"/>
      <use xlink:href="#DejaVuSerif-6f" x="832.666016"/>
      <use xlink:href="#DejaVuSerif-6e" x="892.871094"/>
     </g>
    </g>
    <g id="line2d_16">
     <path d="M 521.905469 163.96625 
L 551.905469 163.96625 
" style="fill: none; stroke: #64b749; stroke-width: 2; stroke-linecap: square"/>
    </g>
    <g id="line2d_17">
     <g>
      <use xlink:href="#m000efc8136" x="536.905469" y="163.96625" style="fill-opacity: 0; stroke: #64b749; stroke-width: 2"/>
     </g>
    </g>
    <g id="text_9">
     <!-- Isolation-aware -->
     <g transform="translate(557.905469 169.21625) scale(0.15 -0.15)">
      <defs>
       <path id="DejaVuSerif-2d" d="M 281 1959 
L 1881 1959 
L 1881 1472 
L 281 1472 
L 281 1959 
z
" transform="scale(0.015625)"/>
       <path id="DejaVuSerif-77" d="M 3072 3322 
L 3922 728 
L 4672 2988 
L 4191 2988 
L 4191 3322 
L 5394 3322 
L 5394 2988 
L 5025 2988 
L 4038 0 
L 3559 0 
L 2741 2484 
L 1919 0 
L 1459 0 
L 475 2988 
L 103 2988 
L 103 3322 
L 1606 3322 
L 1606 2988 
L 1069 2988 
L 1813 728 
L 2669 3322 
L 3072 3322 
z
" transform="scale(0.015625)"/>
      </defs>
      <use xlink:href="#DejaVuSerif-49"/>
      <use xlink:href="#DejaVuSerif-73" x="39.501953"/>
      <use xlink:href="#DejaVuSerif-6f" x="90.820312"/>
      <use xlink:href="#DejaVuSerif-6c" x="151.025391"/>
      <use xlink:href="#DejaVuSerif-61" x="183.007812"/>
      <use xlink:href="#DejaVuSerif-74" x="242.626953"/>
      <use xlink:href="#DejaVuSerif-69" x="282.8125"/>
      <use xlink:href="#DejaVuSerif-6f" x="314.794922"/>
      <use xlink:href="#DejaVuSerif-6e" x="375"/>
      <use xlink:href="#DejaVuSerif-2d" x="439.404297"/>
      <use xlink:href="#DejaVuSerif-61" x="473.193359"/>
      <use xlink:href="#DejaVuSerif-77" x="532.8125"/>
      <use xlink:href="#DejaVuSerif-61" x="618.408203"/>
      <use xlink:href="#DejaVuSerif-72" x="678.027344"/>
      <use xlink:href="#DejaVuSerif-65" x="725.830078"/>
     </g>
    </g>
   </g>
  </g>
 </g>
 <defs>
  <clipPath id="p0bcd40b9b2">
   <rect x="48.13" y="5" width="666.87" height="282.12"/>
  </clipPath>
 </defs>
</svg>
