<?xml version="1.0" encoding="utf-8" standalone="no"?>
<!DOCTYPE svg PUBLIC "-//W3C//DTD SVG 1.1//EN"
  "http://www.w3.org/Graphics/SVG/1.1/DTD/svg11.dtd">
<svg xmlns:xlink="http://www.w3.org/1999/xlink" width="720pt" height="342pt" viewBox="0 0 720 342" xmlns="http://www.w3.org/2000/svg" version="1.1">
 <metadata>
  <rdf:RDF xmlns:dc="http://purl.org/dc/elements/1.1/" xmlns:cc="http://creativecommons.org/ns#" xmlns:rdf="http://www.w3.org/1999/02/22-rdf-syntax-ns#">
   <cc:Work>
    <dc:type rdf:resource="http://purl.org/dc/dcmitype/StillImage"/>
    <dc:date>2025-03-26T11:06:52.383300</dc:date>
    <dc:format>image/svg+xml</dc:format>
    <dc:creator>
     <cc:Agent>
      <dc:title>Matplotlib v3.8.0, https://matplotlib.org/</dc:title>
     </cc:Agent>
    </dc:creator>
   </cc:Work>
  </rdf:RDF>
 </metadata>
 <defs>
  <style type="text/css">*{stroke-linejoin: round; stroke-linecap: butt}</style>
 </defs>
 <g id="figure_1">
  <g id="patch_1">
   <path d="M 0 342 
L 720 342 
L 720 0 
L 0 0 
z
" style="fill: #ffffff"/>
  </g>
  <g id="axes_1">
   <g id="patch_2">
    <path d="M 56.41 277.04 
L 715 277.04 
L 715 5 
L 56.41 5 
z
" style="fill: #ffffff"/>
   </g>
   <g id="matplotlib.axis_1">
    <g id="xtick_1">
     <g id="line2d_1">
      <path d="M 86.345909 277.04 
L 86.345909 5 
" clip-path="url(#p0bcd5ae9bf)" style="fill: none; stroke: #b0b0b0; stroke-width: 0.8; stroke-linecap: square"/>
     </g>
     <g id="line2d_2">
      <defs>
       <path id="m9e761398dd" d="M 0 0 
L 0 3.5 
" style="stroke: #000000; stroke-width: 0.8"/>
      </defs>
      <g>
       <use xlink:href="#m9e761398dd" x="86.345909" y="277.04" style="stroke: #000000; stroke-width: 0.8"/>
      </g>
     </g>
     <g id="text_1">
      <!-- 0 -->
      <g transform="translate(78.392784 303.036094) scale(0.25 -0.25)">
       <defs>
        <path id="DejaVuSerif-30" d="M 2034 219 
Q 2513 219 2750 744 
Q 2988 1269 2988 2328 
Q 2988 3391 2750 3916 
Q 2513 4441 2034 4441 
Q 1556 4441 1318 3916 
Q 1081 3391 1081 2328 
Q 1081 1269 1318 744 
Q 1556 219 2034 219 
z
M 2034 -91 
Q 1275 -91 848 546 
Q 422 1184 422 2328 
Q 422 3475 848 4112 
Q 1275 4750 2034 4750 
Q 2797 4750 3222 4112 
Q 3647 3475 3647 2328 
Q 3647 1184 3222 546 
Q 2797 -91 2034 -91 
z
" transform="scale(0.015625)"/>
       </defs>
       <use xlink:href="#DejaVuSerif-30"/>
      </g>
     </g>
    </g>
    <g id="text_2">
     <!-- $\it{t}$ -->
     <g transform="translate(380.705 331.231406) scale(0.25 -0.25)">
      <defs>
       <path id="DejaVuSans-Oblique-74" d="M 2706 3500 
L 2619 3053 
L 1472 3053 
L 1100 1153 
Q 1081 1047 1072 975 
Q 1063 903 1063 863 
Q 1063 663 1183 572 
Q 1303 481 1569 481 
L 2150 481 
L 2053 0 
L 1503 0 
Q 991 0 739 200 
Q 488 400 488 806 
Q 488 878 497 964 
Q 506 1050 525 1153 
L 897 3053 
L 409 3053 
L 500 3500 
L 978 3500 
L 1172 4494 
L 1747 4494 
L 1556 3500 
L 2706 3500 
z
" transform="scale(0.015625)"/>
      </defs>
      <use xlink:href="#DejaVuSans-Oblique-74" transform="translate(0 0.78125)"/>
     </g>
    </g>
   </g>
   <g id="matplotlib.axis_2">
    <g id="ytick_1">
     <g id="line2d_3">
      <path d="M 56.41 264.682056 
L 715 264.682056 
" clip-path="url(#p0bcd5ae9bf)" style="fill: none; stroke: #b0b0b0; stroke-width: 0.8; stroke-linecap: square"/>
     </g>
     <g id="line2d_4">
      <defs>
       <path id="m2e06765060" d="M 0 0 
L -3.5 0 
" style="stroke: #000000; stroke-width: 0.8"/>
      </defs>
      <g>
       <use xlink:href="#m2e06765060" x="56.41" y="264.682056" style="stroke: #000000; stroke-width: 0.8"/>
      </g>
     </g>
     <g id="text_3">
      <!-- 0 -->
      <g transform="translate(33.50375 274.180103) scale(0.25 -0.25)">
       <use xlink:href="#DejaVuSerif-30"/>
      </g>
     </g>
    </g>
    <g id="ytick_2">
     <g id="line2d_5">
      <path d="M 56.41 182.243189 
L 715 182.243189 
" clip-path="url(#p0bcd5ae9bf)" style="fill: none; stroke: #b0b0b0; stroke-width: 0.8; stroke-linecap: square"/>
     </g>
     <g id="line2d_6">
      <g>
       <use xlink:href="#m2e06765060" x="56.41" y="182.243189" style="stroke: #000000; stroke-width: 0.8"/>
      </g>
     </g>
     <g id="text_4">
      <!-- 2 -->
      <g transform="translate(33.50375 191.741235) scale(0.25 -0.25)">
       <defs>
        <path id="DejaVuSerif-32" d="M 819 3553 
L 469 3553 
L 469 4384 
Q 803 4563 1142 4656 
Q 1481 4750 1806 4750 
Q 2534 4750 2956 4397 
Q 3378 4044 3378 3438 
Q 3378 2753 2422 1800 
Q 2347 1728 2309 1691 
L 1131 513 
L 3078 513 
L 3078 1088 
L 3444 1088 
L 3444 0 
L 434 0 
L 434 341 
L 1850 1753 
Q 2319 2222 2519 2614 
Q 2719 3006 2719 3438 
Q 2719 3909 2473 4175 
Q 2228 4441 1797 4441 
Q 1350 4441 1106 4219 
Q 863 3997 819 3553 
z
" transform="scale(0.015625)"/>
       </defs>
       <use xlink:href="#DejaVuSerif-32"/>
      </g>
     </g>
    </g>
    <g id="ytick_3">
     <g id="line2d_7">
      <path d="M 56.41 99.804322 
L 715 99.804322 
" clip-path="url(#p0bcd5ae9bf)" style="fill: none; stroke: #b0b0b0; stroke-width: 0.8; stroke-linecap: square"/>
     </g>
     <g id="line2d_8">
      <g>
       <use xlink:href="#m2e06765060" x="56.41" y="99.804322" style="stroke: #000000; stroke-width: 0.8"/>
      </g>
     </g>
     <g id="text_5">
      <!-- 4 -->
      <g transform="translate(33.50375 109.302368) scale(0.25 -0.25)">
       <defs>
        <path id="DejaVuSerif-34" d="M 2234 1581 
L 2234 4063 
L 641 1581 
L 2234 1581 
z
M 3609 0 
L 1484 0 
L 1484 331 
L 2234 331 
L 2234 1247 
L 197 1247 
L 197 1588 
L 2241 4750 
L 2859 4750 
L 2859 1581 
L 3750 1581 
L 3750 1247 
L 2859 1247 
L 2859 331 
L 3609 331 
L 3609 0 
z
" transform="scale(0.015625)"/>
       </defs>
       <use xlink:href="#DejaVuSerif-34"/>
      </g>
     </g>
    </g>
    <g id="ytick_4">
     <g id="line2d_9">
      <path d="M 56.41 17.365455 
L 715 17.365455 
" clip-path="url(#p0bcd5ae9bf)" style="fill: none; stroke: #b0b0b0; stroke-width: 0.8; stroke-linecap: square"/>
     </g>
     <g id="line2d_10">
      <g>
       <use xlink:href="#m2e06765060" x="56.41" y="17.365455" style="stroke: #000000; stroke-width: 0.8"/>
      </g>
     </g>
     <g id="text_6">
      <!-- 6 -->
      <g transform="translate(33.50375 26.863501) scale(0.25 -0.25)">
       <defs>
        <path id="DejaVuSerif-36" d="M 2094 219 
Q 2534 219 2771 542 
Q 3009 866 3009 1472 
Q 3009 2078 2771 2401 
Q 2534 2725 2094 2725 
Q 1647 2725 1412 2412 
Q 1178 2100 1178 1509 
Q 1178 888 1415 553 
Q 1653 219 2094 219 
z
M 1075 2569 
Q 1288 2803 1556 2918 
Q 1825 3034 2163 3034 
Q 2859 3034 3264 2615 
Q 3669 2197 3669 1472 
Q 3669 763 3233 336 
Q 2797 -91 2069 -91 
Q 1278 -91 853 498 
Q 428 1088 428 2181 
Q 428 3406 931 4078 
Q 1434 4750 2350 4750 
Q 2597 4750 2869 4703 
Q 3141 4656 3425 4563 
L 3425 3794 
L 3072 3794 
Q 3034 4109 2831 4275 
Q 2628 4441 2284 4441 
Q 1678 4441 1381 3981 
Q 1084 3522 1075 2569 
z
" transform="scale(0.015625)"/>
       </defs>
       <use xlink:href="#DejaVuSerif-36"/>
      </g>
     </g>
    </g>
    <g id="text_7">
     <!-- Allocation Time (sec.) -->
     <g transform="translate(24.304531 278.691875) rotate(-90) scale(0.25 -0.25)">
      <defs>
       <path id="DejaVuSerif-41" d="M 1281 1691 
L 2994 1691 
L 2138 3909 
L 1281 1691 
z
M -38 0 
L -38 331 
L 372 331 
L 2034 4666 
L 2559 4666 
L 4225 331 
L 4684 331 
L 4684 0 
L 2988 0 
L 2988 331 
L 3506 331 
L 3116 1356 
L 1153 1356 
L 763 331 
L 1275 331 
L 1275 0 
L -38 0 
z
" transform="scale(0.015625)"/>
       <path id="DejaVuSerif-6c" d="M 1313 331 
L 1856 331 
L 1856 0 
L 184 0 
L 184 331 
L 738 331 
L 738 4531 
L 184 4531 
L 184 4863 
L 1313 4863 
L 1313 331 
z
" transform="scale(0.015625)"/>
       <path id="DejaVuSerif-6f" d="M 1925 219 
Q 2388 219 2623 584 
Q 2859 950 2859 1663 
Q 2859 2375 2623 2739 
Q 2388 3103 1925 3103 
Q 1463 3103 1227 2739 
Q 991 2375 991 1663 
Q 991 950 1228 584 
Q 1466 219 1925 219 
z
M 1925 -91 
Q 1200 -91 759 389 
Q 319 869 319 1663 
Q 319 2456 758 2934 
Q 1197 3413 1925 3413 
Q 2653 3413 3092 2934 
Q 3531 2456 3531 1663 
Q 3531 869 3092 389 
Q 2653 -91 1925 -91 
z
" transform="scale(0.015625)"/>
       <path id="DejaVuSerif-63" d="M 3291 997 
Q 3169 466 2822 187 
Q 2475 -91 1925 -91 
Q 1200 -91 759 389 
Q 319 869 319 1663 
Q 319 2459 759 2936 
Q 1200 3413 1925 3413 
Q 2241 3413 2553 3339 
Q 2866 3266 3181 3116 
L 3181 2266 
L 2847 2266 
Q 2781 2703 2561 2903 
Q 2341 3103 1931 3103 
Q 1466 3103 1228 2742 
Q 991 2381 991 1663 
Q 991 944 1227 581 
Q 1463 219 1931 219 
Q 2303 219 2525 412 
Q 2747 606 2828 997 
L 3291 997 
z
" transform="scale(0.015625)"/>
       <path id="DejaVuSerif-61" d="M 2547 1044 
L 2547 1747 
L 1806 1747 
Q 1378 1747 1168 1562 
Q 959 1378 959 997 
Q 959 650 1171 447 
Q 1384 244 1747 244 
Q 2106 244 2326 466 
Q 2547 688 2547 1044 
z
M 3122 2075 
L 3122 331 
L 3634 331 
L 3634 0 
L 2547 0 
L 2547 359 
Q 2356 128 2106 18 
Q 1856 -91 1522 -91 
Q 969 -91 644 203 
Q 319 497 319 997 
Q 319 1513 691 1797 
Q 1063 2081 1741 2081 
L 2547 2081 
L 2547 2309 
Q 2547 2688 2317 2895 
Q 2088 3103 1672 3103 
Q 1328 3103 1125 2947 
Q 922 2791 872 2484 
L 575 2484 
L 575 3156 
Q 875 3284 1158 3348 
Q 1441 3413 1709 3413 
Q 2400 3413 2761 3070 
Q 3122 2728 3122 2075 
z
" transform="scale(0.015625)"/>
       <path id="DejaVuSerif-74" d="M 691 2988 
L 184 2988 
L 184 3322 
L 691 3322 
L 691 4353 
L 1269 4353 
L 1269 3322 
L 2350 3322 
L 2350 2988 
L 1269 2988 
L 1269 878 
Q 1269 456 1350 337 
Q 1431 219 1650 219 
Q 1875 219 1978 351 
Q 2081 484 2088 781 
L 2522 781 
Q 2497 328 2275 118 
Q 2053 -91 1600 -91 
Q 1103 -91 897 129 
Q 691 350 691 878 
L 691 2988 
z
" transform="scale(0.015625)"/>
       <path id="DejaVuSerif-69" d="M 622 4353 
Q 622 4497 726 4603 
Q 831 4709 978 4709 
Q 1122 4709 1226 4603 
Q 1331 4497 1331 4353 
Q 1331 4206 1228 4103 
Q 1125 4000 978 4000 
Q 831 4000 726 4103 
Q 622 4206 622 4353 
z
M 1356 331 
L 1900 331 
L 1900 0 
L 231 0 
L 231 331 
L 781 331 
L 781 2988 
L 231 2988 
L 231 3322 
L 1356 3322 
L 1356 331 
z
" transform="scale(0.015625)"/>
       <path id="DejaVuSerif-6e" d="M 263 0 
L 263 331 
L 781 331 
L 781 2988 
L 231 2988 
L 231 3322 
L 1356 3322 
L 1356 2731 
Q 1516 3069 1770 3241 
Q 2025 3413 2363 3413 
Q 2913 3413 3172 3097 
Q 3431 2781 3431 2113 
L 3431 331 
L 3944 331 
L 3944 0 
L 2356 0 
L 2356 331 
L 2853 331 
L 2853 1931 
Q 2853 2541 2703 2767 
Q 2553 2994 2175 2994 
Q 1775 2994 1565 2701 
Q 1356 2409 1356 1850 
L 1356 331 
L 1856 331 
L 1856 0 
L 263 0 
z
" transform="scale(0.015625)"/>
       <path id="DejaVuSerif-20" transform="scale(0.015625)"/>
       <path id="DejaVuSerif-54" d="M 1222 0 
L 1222 331 
L 1819 331 
L 1819 4294 
L 447 4294 
L 447 3566 
L 63 3566 
L 63 4666 
L 4206 4666 
L 4206 3566 
L 3822 3566 
L 3822 4294 
L 2450 4294 
L 2450 331 
L 3047 331 
L 3047 0 
L 1222 0 
z
" transform="scale(0.015625)"/>
       <path id="DejaVuSerif-6d" d="M 3316 2675 
Q 3481 3041 3739 3227 
Q 3997 3413 4341 3413 
Q 4863 3413 5119 3089 
Q 5375 2766 5375 2113 
L 5375 331 
L 5894 331 
L 5894 0 
L 4300 0 
L 4300 331 
L 4800 331 
L 4800 2047 
Q 4800 2556 4650 2772 
Q 4500 2988 4153 2988 
Q 3769 2988 3567 2697 
Q 3366 2406 3366 1850 
L 3366 331 
L 3866 331 
L 3866 0 
L 2291 0 
L 2291 331 
L 2791 331 
L 2791 2069 
Q 2791 2566 2641 2777 
Q 2491 2988 2144 2988 
Q 1759 2988 1557 2697 
Q 1356 2406 1356 1850 
L 1356 331 
L 1856 331 
L 1856 0 
L 263 0 
L 263 331 
L 781 331 
L 781 2994 
L 231 2994 
L 231 3322 
L 1356 3322 
L 1356 2731 
Q 1516 3063 1762 3238 
Q 2009 3413 2322 3413 
Q 2709 3413 2968 3220 
Q 3228 3028 3316 2675 
z
" transform="scale(0.015625)"/>
       <path id="DejaVuSerif-65" d="M 3469 1600 
L 991 1600 
L 991 1575 
Q 991 903 1244 561 
Q 1497 219 1991 219 
Q 2369 219 2611 417 
Q 2853 616 2950 1006 
L 3413 1006 
Q 3275 459 2904 184 
Q 2534 -91 1931 -91 
Q 1203 -91 761 389 
Q 319 869 319 1663 
Q 319 2450 753 2931 
Q 1188 3413 1894 3413 
Q 2647 3413 3050 2948 
Q 3453 2484 3469 1600 
z
M 2791 1931 
Q 2772 2513 2545 2808 
Q 2319 3103 1894 3103 
Q 1497 3103 1269 2806 
Q 1041 2509 991 1931 
L 2791 1931 
z
" transform="scale(0.015625)"/>
       <path id="DejaVuSerif-28" d="M 2041 -997 
Q 1281 -656 893 83 
Q 506 822 506 1931 
Q 506 3044 893 3783 
Q 1281 4522 2041 4863 
L 2041 4556 
Q 1559 4225 1350 3623 
Q 1141 3022 1141 1931 
Q 1141 844 1350 242 
Q 1559 -359 2041 -691 
L 2041 -997 
z
" transform="scale(0.015625)"/>
       <path id="DejaVuSerif-73" d="M 359 184 
L 359 959 
L 691 959 
Q 703 588 923 403 
Q 1144 219 1575 219 
Q 1963 219 2166 364 
Q 2369 509 2369 788 
Q 2369 1006 2220 1140 
Q 2072 1275 1594 1428 
L 1178 1569 
Q 750 1706 558 1912 
Q 366 2119 366 2438 
Q 366 2894 700 3153 
Q 1034 3413 1625 3413 
Q 1888 3413 2178 3344 
Q 2469 3275 2778 3144 
L 2778 2419 
L 2447 2419 
Q 2434 2741 2221 2922 
Q 2009 3103 1644 3103 
Q 1281 3103 1095 2975 
Q 909 2847 909 2591 
Q 909 2381 1050 2254 
Q 1191 2128 1613 1997 
L 2069 1856 
Q 2541 1709 2748 1489 
Q 2956 1269 2956 922 
Q 2956 450 2595 179 
Q 2234 -91 1600 -91 
Q 1278 -91 972 -22 
Q 666 47 359 184 
z
" transform="scale(0.015625)"/>
       <path id="DejaVuSerif-2e" d="M 603 325 
Q 603 500 722 622 
Q 841 744 1019 744 
Q 1191 744 1312 622 
Q 1434 500 1434 325 
Q 1434 153 1312 31 
Q 1191 -91 1019 -91 
Q 841 -91 722 29 
Q 603 150 603 325 
z
" transform="scale(0.015625)"/>
       <path id="DejaVuSerif-29" d="M 453 -997 
L 453 -691 
Q 934 -359 1145 242 
Q 1356 844 1356 1931 
Q 1356 3022 1145 3623 
Q 934 4225 453 4556 
L 453 4863 
Q 1216 4522 1603 3783 
Q 1991 3044 1991 1931 
Q 1991 822 1603 83 
Q 1216 -656 453 -997 
z
" transform="scale(0.015625)"/>
      </defs>
      <use xlink:href="#DejaVuSerif-41"/>
      <use xlink:href="#DejaVuSerif-6c" x="72.216797"/>
      <use xlink:href="#DejaVuSerif-6c" x="104.199219"/>
      <use xlink:href="#DejaVuSerif-6f" x="136.181641"/>
      <use xlink:href="#DejaVuSerif-63" x="196.386719"/>
      <use xlink:href="#DejaVuSerif-61" x="252.392578"/>
      <use xlink:href="#DejaVuSerif-74" x="312.011719"/>
      <use xlink:href="#DejaVuSerif-69" x="352.197266"/>
      <use xlink:href="#DejaVuSerif-6f" x="384.179688"/>
      <use xlink:href="#DejaVuSerif-6e" x="444.384766"/>
      <use xlink:href="#DejaVuSerif-20" x="508.789062"/>
      <use xlink:href="#DejaVuSerif-54" x="540.576172"/>
      <use xlink:href="#DejaVuSerif-69" x="607.275391"/>
      <use xlink:href="#DejaVuSerif-6d" x="639.257812"/>
      <use xlink:href="#DejaVuSerif-65" x="734.082031"/>
      <use xlink:href="#DejaVuSerif-20" x="793.261719"/>
      <use xlink:href="#DejaVuSerif-28" x="825.048828"/>
      <use xlink:href="#DejaVuSerif-73" x="864.0625"/>
      <use xlink:href="#DejaVuSerif-65" x="915.380859"/>
      <use xlink:href="#DejaVuSerif-63" x="974.560547"/>
      <use xlink:href="#DejaVuSerif-2e" x="1030.566406"/>
      <use xlink:href="#DejaVuSerif-29" x="1062.353516"/>
     </g>
    </g>
   </g>
   <g id="LineCollection_1">
    <path clip-path="url(#p0bcd5ae9bf)" style="fill: none; stroke: #e4ac3e; stroke-width: 2"/>
    <path clip-path="url(#p0bcd5ae9bf)" style="fill: none; stroke: #e4ac3e; stroke-width: 2"/>
    <path clip-path="url(#p0bcd5ae9bf)" style="fill: none; stroke: #e4ac3e; stroke-width: 2"/>
    <path clip-path="url(#p0bcd5ae9bf)" style="fill: none; stroke: #e4ac3e; stroke-width: 2"/>
    <path clip-path="url(#p0bcd5ae9bf)" style="fill: none; stroke: #e4ac3e; stroke-width: 2"/>
   </g>
   <g id="line2d_11">
    <defs>
     <path id="mc794354db4" d="M 4 0 
L -4 -0 
" style="stroke: #e4ac3e; stroke-width: 2"/>
    </defs>
    <g clip-path="url(#p0bcd5ae9bf)"/>
   </g>
   <g id="line2d_12">
    <g clip-path="url(#p0bcd5ae9bf)"/>
   </g>
   <g id="LineCollection_2">
    <path clip-path="url(#p0bcd5ae9bf)" style="fill: none; stroke: #416fbd; stroke-width: 2"/>
    <path clip-path="url(#p0bcd5ae9bf)" style="fill: none; stroke: #416fbd; stroke-width: 2"/>
    <path clip-path="url(#p0bcd5ae9bf)" style="fill: none; stroke: #416fbd; stroke-width: 2"/>
    <path clip-path="url(#p0bcd5ae9bf)" style="fill: none; stroke: #416fbd; stroke-width: 2"/>
    <path clip-path="url(#p0bcd5ae9bf)" style="fill: none; stroke: #416fbd; stroke-width: 2"/>
   </g>
   <g id="line2d_13">
    <defs>
     <path id="m663109942d" d="M 4 0 
L -4 -0 
" style="stroke: #416fbd; stroke-width: 2"/>
    </defs>
    <g clip-path="url(#p0bcd5ae9bf)"/>
   </g>
   <g id="line2d_14">
    <g clip-path="url(#p0bcd5ae9bf)"/>
   </g>
   <g id="LineCollection_3">
    <path clip-path="url(#p0bcd5ae9bf)" style="fill: none; stroke: #64b749; stroke-width: 2"/>
    <path clip-path="url(#p0bcd5ae9bf)" style="fill: none; stroke: #64b749; stroke-width: 2"/>
    <path clip-path="url(#p0bcd5ae9bf)" style="fill: none; stroke: #64b749; stroke-width: 2"/>
    <path clip-path="url(#p0bcd5ae9bf)" style="fill: none; stroke: #64b749; stroke-width: 2"/>
    <path clip-path="url(#p0bcd5ae9bf)" style="fill: none; stroke: #64b749; stroke-width: 2"/>
   </g>
   <g id="line2d_15">
    <defs>
     <path id="m15e620a4ec" d="M 4 0 
L -4 -0 
" style="stroke: #64b749; stroke-width: 2"/>
    </defs>
    <g clip-path="url(#p0bcd5ae9bf)"/>
   </g>
   <g id="line2d_16">
    <g clip-path="url(#p0bcd5ae9bf)"/>
   </g>
   <g id="LineCollection_4">
    <path clip-path="url(#p0bcd5ae9bf)" style="fill: none; stroke: #742993; stroke-width: 2"/>
    <path clip-path="url(#p0bcd5ae9bf)" style="fill: none; stroke: #742993; stroke-width: 2"/>
    <path clip-path="url(#p0bcd5ae9bf)" style="fill: none; stroke: #742993; stroke-width: 2"/>
    <path clip-path="url(#p0bcd5ae9bf)" style="fill: none; stroke: #742993; stroke-width: 2"/>
    <path clip-path="url(#p0bcd5ae9bf)" style="fill: none; stroke: #742993; stroke-width: 2"/>
   </g>
   <g id="line2d_17">
    <defs>
     <path id="mfcafac2d4b" d="M 4 0 
L -4 -0 
" style="stroke: #742993; stroke-width: 2"/>
    </defs>
    <g clip-path="url(#p0bcd5ae9bf)"/>
   </g>
   <g id="line2d_18">
    <g clip-path="url(#p0bcd5ae9bf)"/>
   </g>
   <g id="LineCollection_5">
    <path clip-path="url(#p0bcd5ae9bf)" style="fill: none; stroke: #777777; stroke-width: 2"/>
    <path clip-path="url(#p0bcd5ae9bf)" style="fill: none; stroke: #777777; stroke-width: 2"/>
    <path clip-path="url(#p0bcd5ae9bf)" style="fill: none; stroke: #777777; stroke-width: 2"/>
    <path clip-path="url(#p0bcd5ae9bf)" style="fill: none; stroke: #777777; stroke-width: 2"/>
    <path clip-path="url(#p0bcd5ae9bf)" style="fill: none; stroke: #777777; stroke-width: 2"/>
   </g>
   <g id="line2d_19">
    <defs>
     <path id="mc9cdf34fda" d="M 4 0 
L -4 -0 
" style="stroke: #777777; stroke-width: 2"/>
    </defs>
    <g clip-path="url(#p0bcd5ae9bf)"/>
   </g>
   <g id="line2d_20">
    <g clip-path="url(#p0bcd5ae9bf)"/>
   </g>
   <g id="LineCollection_6">
    <path d="M 86.345909 17.365455 
L 86.345909 17.365455 
" clip-path="url(#p0bcd5ae9bf)" style="fill: none; stroke: #bbbbbb; stroke-width: 2"/>
    <path clip-path="url(#p0bcd5ae9bf)" style="fill: none; stroke: #bbbbbb; stroke-width: 2"/>
    <path clip-path="url(#p0bcd5ae9bf)" style="fill: none; stroke: #bbbbbb; stroke-width: 2"/>
    <path clip-path="url(#p0bcd5ae9bf)" style="fill: none; stroke: #bbbbbb; stroke-width: 2"/>
    <path clip-path="url(#p0bcd5ae9bf)" style="fill: none; stroke: #bbbbbb; stroke-width: 2"/>
   </g>
   <g id="line2d_21">
    <defs>
     <path id="m0ae15ab5b7" d="M 4 0 
L -4 -0 
" style="stroke: #bbbbbb"/>
    </defs>
    <g clip-path="url(#p0bcd5ae9bf)">
     <use xlink:href="#m0ae15ab5b7" x="86.345909" y="17.365455" style="fill: #bbbbbb; stroke: #bbbbbb"/>
    </g>
   </g>
   <g id="line2d_22">
    <g clip-path="url(#p0bcd5ae9bf)">
     <use xlink:href="#m0ae15ab5b7" x="86.345909" y="17.365455" style="fill: #bbbbbb; stroke: #bbbbbb"/>
    </g>
   </g>
   <g id="line2d_23">
    <path d="M 86.345909 264.551448 
L 236.025455 264.534428 
L 385.705 264.524841 
L 535.384545 264.526976 
L 685.064091 264.52508 
" clip-path="url(#p0bcd5ae9bf)" style="fill: none; stroke: #e4ac3e; stroke-width: 2; stroke-linecap: square"/>
    <defs>
     <path id="m8906aa5c7c" d="M -0 7.5 
L 7.5 -7.5 
L -7.5 -7.5 
z
" style="stroke: #e4ac3e; stroke-width: 2; stroke-linejoin: miter"/>
    </defs>
    <g clip-path="url(#p0bcd5ae9bf)">
     <use xlink:href="#m8906aa5c7c" x="86.345909" y="264.551448" style="fill-opacity: 0; stroke: #e4ac3e; stroke-width: 2; stroke-linejoin: miter"/>
     <use xlink:href="#m8906aa5c7c" x="236.025455" y="264.534428" style="fill-opacity: 0; stroke: #e4ac3e; stroke-width: 2; stroke-linejoin: miter"/>
     <use xlink:href="#m8906aa5c7c" x="385.705" y="264.524841" style="fill-opacity: 0; stroke: #e4ac3e; stroke-width: 2; stroke-linejoin: miter"/>
     <use xlink:href="#m8906aa5c7c" x="535.384545" y="264.526976" style="fill-opacity: 0; stroke: #e4ac3e; stroke-width: 2; stroke-linejoin: miter"/>
     <use xlink:href="#m8906aa5c7c" x="685.064091" y="264.52508" style="fill-opacity: 0; stroke: #e4ac3e; stroke-width: 2; stroke-linejoin: miter"/>
    </g>
   </g>
   <g id="line2d_24">
    <path d="M 86.345909 264.674545 
L 236.025455 264.666945 
L 385.705 264.668297 
L 535.384545 264.667184 
L 685.064091 264.661932 
" clip-path="url(#p0bcd5ae9bf)" style="fill: none; stroke: #416fbd; stroke-width: 2; stroke-linecap: square"/>
    <defs>
     <path id="mcc696a474e" d="M 0 -7.5 
L -6.495191 -3.75 
L -6.495191 3.75 
L -0 7.5 
L 6.495191 3.75 
L 6.495191 -3.75 
z
" style="stroke: #416fbd; stroke-width: 2; stroke-linejoin: miter"/>
    </defs>
    <g clip-path="url(#p0bcd5ae9bf)">
     <use xlink:href="#mcc696a474e" x="86.345909" y="264.674545" style="fill-opacity: 0; stroke: #416fbd; stroke-width: 2; stroke-linejoin: miter"/>
     <use xlink:href="#mcc696a474e" x="236.025455" y="264.666945" style="fill-opacity: 0; stroke: #416fbd; stroke-width: 2; stroke-linejoin: miter"/>
     <use xlink:href="#mcc696a474e" x="385.705" y="264.668297" style="fill-opacity: 0; stroke: #416fbd; stroke-width: 2; stroke-linejoin: miter"/>
     <use xlink:href="#mcc696a474e" x="535.384545" y="264.667184" style="fill-opacity: 0; stroke: #416fbd; stroke-width: 2; stroke-linejoin: miter"/>
     <use xlink:href="#mcc696a474e" x="685.064091" y="264.661932" style="fill-opacity: 0; stroke: #416fbd; stroke-width: 2; stroke-linejoin: miter"/>
    </g>
   </g>
   <g id="line2d_25">
    <path d="M 86.345909 264.652518 
L 236.025455 264.649876 
L 385.705 264.627543 
L 535.384545 264.617939 
L 685.064091 264.62258 
" clip-path="url(#p0bcd5ae9bf)" style="fill: none; stroke: #64b749; stroke-width: 2; stroke-linecap: square"/>
    <defs>
     <path id="m986e2ac643" d="M 0 -7.5 
L -7.5 7.5 
L 7.5 7.5 
z
" style="stroke: #64b749; stroke-width: 2; stroke-linejoin: miter"/>
    </defs>
    <g clip-path="url(#p0bcd5ae9bf)">
     <use xlink:href="#m986e2ac643" x="86.345909" y="264.652518" style="fill-opacity: 0; stroke: #64b749; stroke-width: 2; stroke-linejoin: miter"/>
     <use xlink:href="#m986e2ac643" x="236.025455" y="264.649876" style="fill-opacity: 0; stroke: #64b749; stroke-width: 2; stroke-linejoin: miter"/>
     <use xlink:href="#m986e2ac643" x="385.705" y="264.627543" style="fill-opacity: 0; stroke: #64b749; stroke-width: 2; stroke-linejoin: miter"/>
     <use xlink:href="#m986e2ac643" x="535.384545" y="264.617939" style="fill-opacity: 0; stroke: #64b749; stroke-width: 2; stroke-linejoin: miter"/>
     <use xlink:href="#m986e2ac643" x="685.064091" y="264.62258" style="fill-opacity: 0; stroke: #64b749; stroke-width: 2; stroke-linejoin: miter"/>
    </g>
   </g>
   <g id="line2d_26">
    <path d="M 86.345909 264.654245 
L 236.025455 264.648878 
L 385.705 264.63509 
L 535.384545 264.631966 
L 685.064091 264.610664 
" clip-path="url(#p0bcd5ae9bf)" style="fill: none; stroke: #742993; stroke-width: 2; stroke-linecap: square"/>
    <defs>
     <path id="m26132cc7ce" d="M 0 10.606602 
L 10.606602 0 
L 0 -10.606602 
L -10.606602 0 
z
" style="stroke: #742993; stroke-width: 2; stroke-linejoin: miter"/>
    </defs>
    <g clip-path="url(#p0bcd5ae9bf)">
     <use xlink:href="#m26132cc7ce" x="86.345909" y="264.654245" style="fill-opacity: 0; stroke: #742993; stroke-width: 2; stroke-linejoin: miter"/>
     <use xlink:href="#m26132cc7ce" x="236.025455" y="264.648878" style="fill-opacity: 0; stroke: #742993; stroke-width: 2; stroke-linejoin: miter"/>
     <use xlink:href="#m26132cc7ce" x="385.705" y="264.63509" style="fill-opacity: 0; stroke: #742993; stroke-width: 2; stroke-linejoin: miter"/>
     <use xlink:href="#m26132cc7ce" x="535.384545" y="264.631966" style="fill-opacity: 0; stroke: #742993; stroke-width: 2; stroke-linejoin: miter"/>
     <use xlink:href="#m26132cc7ce" x="685.064091" y="264.610664" style="fill-opacity: 0; stroke: #742993; stroke-width: 2; stroke-linejoin: miter"/>
    </g>
   </g>
   <g id="line2d_27">
    <path d="M 86.345909 264.55578 
L 236.025455 264.535228 
L 385.705 264.516337 
L 535.384545 264.515265 
L 685.064091 264.522219 
" clip-path="url(#p0bcd5ae9bf)" style="fill: none; stroke: #777777; stroke-width: 2; stroke-linecap: square"/>
    <defs>
     <path id="m5c24017917" d="M 0 7.5 
C 1.989023 7.5 3.896849 6.709753 5.303301 5.303301 
C 6.709753 3.896849 7.5 1.989023 7.5 0 
C 7.5 -1.989023 6.709753 -3.896849 5.303301 -5.303301 
C 3.896849 -6.709753 1.989023 -7.5 0 -7.5 
C -1.989023 -7.5 -3.896849 -6.709753 -5.303301 -5.303301 
C -6.709753 -3.896849 -7.5 -1.989023 -7.5 0 
C -7.5 1.989023 -6.709753 3.896849 -5.303301 5.303301 
C -3.896849 6.709753 -1.989023 7.5 0 7.5 
z
" style="stroke: #777777; stroke-width: 2"/>
    </defs>
    <g clip-path="url(#p0bcd5ae9bf)">
     <use xlink:href="#m5c24017917" x="86.345909" y="264.55578" style="fill-opacity: 0; stroke: #777777; stroke-width: 2"/>
     <use xlink:href="#m5c24017917" x="236.025455" y="264.535228" style="fill-opacity: 0; stroke: #777777; stroke-width: 2"/>
     <use xlink:href="#m5c24017917" x="385.705" y="264.516337" style="fill-opacity: 0; stroke: #777777; stroke-width: 2"/>
     <use xlink:href="#m5c24017917" x="535.384545" y="264.515265" style="fill-opacity: 0; stroke: #777777; stroke-width: 2"/>
     <use xlink:href="#m5c24017917" x="685.064091" y="264.522219" style="fill-opacity: 0; stroke: #777777; stroke-width: 2"/>
    </g>
   </g>
   <g id="line2d_28">
    <path d="M 86.345909 17.365455 
L 236.025455 182.243189 
L 385.705 99.804322 
L 535.384545 17.365455 
L 685.064091 17.365455 
" clip-path="url(#p0bcd5ae9bf)" style="fill: none; stroke-dasharray: 2,3.3; stroke-dashoffset: 0; stroke: #000000; stroke-width: 2"/>
   </g>
   <g id="patch_3">
    <path d="M 56.41 277.04 
L 56.41 5 
" style="fill: none; stroke: #000000; stroke-width: 0.8; stroke-linejoin: miter; stroke-linecap: square"/>
   </g>
   <g id="patch_4">
    <path d="M 715 277.04 
L 715 5 
" style="fill: none; stroke: #000000; stroke-width: 0.8; stroke-linejoin: miter; stroke-linecap: square"/>
   </g>
   <g id="patch_5">
    <path d="M 56.41 277.04 
L 715 277.04 
" style="fill: none; stroke: #000000; stroke-width: 0.8; stroke-linejoin: miter; stroke-linecap: square"/>
   </g>
   <g id="patch_6">
    <path d="M 56.41 5 
L 715 5 
" style="fill: none; stroke: #000000; stroke-width: 0.8; stroke-linejoin: miter; stroke-linecap: square"/>
   </g>
   <g id="legend_1">
    <g id="patch_7">
     <path d="M 212.330312 156.930313 
L 702.4 156.930313 
Q 706 156.930313 706 153.330313 
L 706 128.709688 
Q 706 125.109688 702.4 125.109688 
L 212.330312 125.109688 
Q 208.730312 125.109688 208.730312 128.709688 
L 208.730312 153.330313 
Q 208.730312 156.930313 212.330312 156.930313 
z
" style="fill: #ffffff; stroke: #cccccc; stroke-linejoin: miter"/>
    </g>
    <g id="LineCollection_7">
     <path d="M 233.930312 148.686875 
L 233.930312 130.686875 
" style="fill: none; stroke: #e4ac3e; stroke-width: 2"/>
    </g>
    <g id="line2d_29">
     <g>
      <use xlink:href="#mc794354db4" x="233.930312" y="148.686875" style="fill: #e4ac3e; stroke: #e4ac3e; stroke-width: 2"/>
     </g>
    </g>
    <g id="line2d_30">
     <g>
      <use xlink:href="#mc794354db4" x="233.930312" y="130.686875" style="fill: #e4ac3e; stroke: #e4ac3e; stroke-width: 2"/>
     </g>
    </g>
    <g id="line2d_31">
     <path d="M 215.930312 139.686875 
L 251.930312 139.686875 
" style="fill: none; stroke: #e4ac3e; stroke-width: 2; stroke-linecap: square"/>
    </g>
    <g id="line2d_32">
     <g>
      <use xlink:href="#m8906aa5c7c" x="233.930312" y="139.686875" style="fill-opacity: 0; stroke: #e4ac3e; stroke-width: 2; stroke-linejoin: miter"/>
     </g>
    </g>
    <g id="text_8">
     <!-- OPT -->
     <g transform="translate(259.130312 145.986875) scale(0.18 -0.18)">
      <defs>
       <path id="DejaVuSerif-4f" d="M 2625 244 
Q 3391 244 3781 770 
Q 4172 1297 4172 2328 
Q 4172 3363 3781 3889 
Q 3391 4416 2625 4416 
Q 1856 4416 1465 3889 
Q 1075 3363 1075 2328 
Q 1075 1297 1465 770 
Q 1856 244 2625 244 
z
M 2625 -91 
Q 2150 -91 1751 65 
Q 1353 222 1050 525 
Q 700 875 529 1319 
Q 359 1763 359 2328 
Q 359 2894 529 3339 
Q 700 3784 1050 4134 
Q 1356 4441 1750 4595 
Q 2144 4750 2625 4750 
Q 3641 4750 4266 4084 
Q 4891 3419 4891 2328 
Q 4891 1769 4719 1320 
Q 4547 872 4197 525 
Q 3891 219 3497 64 
Q 3103 -91 2625 -91 
z
" transform="scale(0.015625)"/>
       <path id="DejaVuSerif-50" d="M 1581 2375 
L 2406 2375 
Q 2872 2375 3115 2626 
Q 3359 2878 3359 3353 
Q 3359 3831 3115 4081 
Q 2872 4331 2406 4331 
L 1581 4331 
L 1581 2375 
z
M 353 0 
L 353 331 
L 947 331 
L 947 4331 
L 353 4331 
L 353 4666 
L 2559 4666 
Q 3259 4666 3668 4311 
Q 4078 3956 4078 3353 
Q 4078 2753 3668 2397 
Q 3259 2041 2559 2041 
L 1581 2041 
L 1581 331 
L 2303 331 
L 2303 0 
L 353 0 
z
" transform="scale(0.015625)"/>
      </defs>
      <use xlink:href="#DejaVuSerif-4f"/>
      <use xlink:href="#DejaVuSerif-50" x="81.982422"/>
      <use xlink:href="#DejaVuSerif-54" x="149.267578"/>
     </g>
    </g>
    <g id="LineCollection_8">
     <path d="M 326.804687 148.686875 
L 326.804687 130.686875 
" style="fill: none; stroke: #416fbd; stroke-width: 2"/>
    </g>
    <g id="line2d_33">
     <g>
      <use xlink:href="#m663109942d" x="326.804687" y="148.686875" style="fill: #416fbd; stroke: #416fbd; stroke-width: 2"/>
     </g>
    </g>
    <g id="line2d_34">
     <g>
      <use xlink:href="#m663109942d" x="326.804687" y="130.686875" style="fill: #416fbd; stroke: #416fbd; stroke-width: 2"/>
     </g>
    </g>
    <g id="line2d_35">
     <path d="M 308.804687 139.686875 
L 344.804687 139.686875 
" style="fill: none; stroke: #416fbd; stroke-width: 2; stroke-linecap: square"/>
    </g>
    <g id="line2d_36">
     <g>
      <use xlink:href="#mcc696a474e" x="326.804687" y="139.686875" style="fill-opacity: 0; stroke: #416fbd; stroke-width: 2; stroke-linejoin: miter"/>
     </g>
    </g>
    <g id="text_9">
     <!-- IAR -->
     <g transform="translate(352.004687 145.986875) scale(0.18 -0.18)">
      <defs>
       <path id="DejaVuSerif-49" d="M 1581 331 
L 2175 331 
L 2175 0 
L 353 0 
L 353 331 
L 947 331 
L 947 4331 
L 353 4331 
L 353 4666 
L 2175 4666 
L 2175 4331 
L 1581 4331 
L 1581 331 
z
" transform="scale(0.015625)"/>
       <path id="DejaVuSerif-52" d="M 3066 2316 
Q 3284 2256 3442 2114 
Q 3600 1972 3725 1716 
L 4403 331 
L 4972 331 
L 4972 0 
L 3872 0 
L 3144 1484 
Q 2934 1916 2759 2042 
Q 2584 2169 2278 2169 
L 1581 2169 
L 1581 331 
L 2241 331 
L 2241 0 
L 353 0 
L 353 331 
L 947 331 
L 947 4331 
L 353 4331 
L 353 4666 
L 2719 4666 
Q 3400 4666 3770 4341 
Q 4141 4016 4141 3419 
Q 4141 2938 3870 2661 
Q 3600 2384 3066 2316 
z
M 1581 2503 
L 2503 2503 
Q 2975 2503 3200 2726 
Q 3425 2950 3425 3419 
Q 3425 3888 3200 4109 
Q 2975 4331 2503 4331 
L 1581 4331 
L 1581 2503 
z
" transform="scale(0.015625)"/>
      </defs>
      <use xlink:href="#DejaVuSerif-49"/>
      <use xlink:href="#DejaVuSerif-41" x="39.501953"/>
      <use xlink:href="#DejaVuSerif-52" x="111.71875"/>
     </g>
    </g>
    <g id="LineCollection_9">
     <path d="M 414.4675 148.686875 
L 414.4675 130.686875 
" style="fill: none; stroke: #64b749; stroke-width: 2"/>
    </g>
    <g id="line2d_37">
     <g>
      <use xlink:href="#m15e620a4ec" x="414.4675" y="148.686875" style="fill: #64b749; stroke: #64b749; stroke-width: 2"/>
     </g>
    </g>
    <g id="line2d_38">
     <g>
      <use xlink:href="#m15e620a4ec" x="414.4675" y="130.686875" style="fill: #64b749; stroke: #64b749; stroke-width: 2"/>
     </g>
    </g>
    <g id="line2d_39">
     <path d="M 396.4675 139.686875 
L 432.4675 139.686875 
" style="fill: none; stroke: #64b749; stroke-width: 2; stroke-linecap: square"/>
    </g>
    <g id="line2d_40">
     <g>
      <use xlink:href="#m986e2ac643" x="414.4675" y="139.686875" style="fill-opacity: 0; stroke: #64b749; stroke-width: 2; stroke-linejoin: miter"/>
     </g>
    </g>
    <g id="text_10">
     <!-- DTR -->
     <g transform="translate(439.6675 145.986875) scale(0.18 -0.18)">
      <defs>
       <path id="DejaVuSerif-44" d="M 1581 331 
L 2163 331 
Q 3072 331 3558 850 
Q 4044 1369 4044 2338 
Q 4044 3306 3559 3818 
Q 3075 4331 2163 4331 
L 1581 4331 
L 1581 331 
z
M 353 0 
L 353 331 
L 947 331 
L 947 4331 
L 353 4331 
L 353 4666 
L 2209 4666 
Q 3416 4666 4089 4050 
Q 4763 3434 4763 2338 
Q 4763 1238 4088 619 
Q 3413 0 2209 0 
L 353 0 
z
" transform="scale(0.015625)"/>
      </defs>
      <use xlink:href="#DejaVuSerif-44"/>
      <use xlink:href="#DejaVuSerif-54" x="80.175781"/>
      <use xlink:href="#DejaVuSerif-52" x="146.875"/>
     </g>
    </g>
    <g id="LineCollection_10">
     <path d="M 508.458437 148.686875 
L 508.458437 130.686875 
" style="fill: none; stroke: #742993; stroke-width: 2"/>
    </g>
    <g id="line2d_41">
     <g>
      <use xlink:href="#mfcafac2d4b" x="508.458437" y="148.686875" style="fill: #742993; stroke: #742993; stroke-width: 2"/>
     </g>
    </g>
    <g id="line2d_42">
     <g>
      <use xlink:href="#mfcafac2d4b" x="508.458437" y="130.686875" style="fill: #742993; stroke: #742993; stroke-width: 2"/>
     </g>
    </g>
    <g id="line2d_43">
     <path d="M 490.458437 139.686875 
L 526.458437 139.686875 
" style="fill: none; stroke: #742993; stroke-width: 2; stroke-linecap: square"/>
    </g>
    <g id="line2d_44">
     <g>
      <use xlink:href="#m26132cc7ce" x="508.458437" y="139.686875" style="fill-opacity: 0; stroke: #742993; stroke-width: 2; stroke-linejoin: miter"/>
     </g>
    </g>
    <g id="text_11">
     <!-- RNR -->
     <g transform="translate(533.658437 145.986875) scale(0.18 -0.18)">
      <defs>
       <path id="DejaVuSerif-4e" d="M 313 0 
L 313 331 
L 941 331 
L 941 4331 
L 313 4331 
L 313 4666 
L 1509 4666 
L 4306 984 
L 4306 4331 
L 3681 4331 
L 3681 4666 
L 5319 4666 
L 5319 4331 
L 4691 4331 
L 4691 -91 
L 4313 -91 
L 1325 3841 
L 1325 331 
L 1953 331 
L 1953 0 
L 313 0 
z
" transform="scale(0.015625)"/>
      </defs>
      <use xlink:href="#DejaVuSerif-52"/>
      <use xlink:href="#DejaVuSerif-4e" x="75.292969"/>
      <use xlink:href="#DejaVuSerif-52" x="162.792969"/>
     </g>
    </g>
    <g id="LineCollection_11">
     <path d="M 605.315312 148.686875 
L 605.315312 130.686875 
" style="fill: none; stroke: #777777; stroke-width: 2"/>
    </g>
    <g id="line2d_45">
     <g>
      <use xlink:href="#mc9cdf34fda" x="605.315312" y="148.686875" style="fill: #777777; stroke: #777777; stroke-width: 2"/>
     </g>
    </g>
    <g id="line2d_46">
     <g>
      <use xlink:href="#mc9cdf34fda" x="605.315312" y="130.686875" style="fill: #777777; stroke: #777777; stroke-width: 2"/>
     </g>
    </g>
    <g id="line2d_47">
     <path d="M 587.315312 139.686875 
L 623.315312 139.686875 
" style="fill: none; stroke: #777777; stroke-width: 2; stroke-linecap: square"/>
    </g>
    <g id="line2d_48">
     <g>
      <use xlink:href="#m5c24017917" x="605.315312" y="139.686875" style="fill-opacity: 0; stroke: #777777; stroke-width: 2"/>
     </g>
    </g>
    <g id="text_12">
     <!-- 5Guard -->
     <g transform="translate(630.515312 145.986875) scale(0.18 -0.18)">
      <defs>
       <path id="DejaVuSerif-35" d="M 3219 4666 
L 3219 4153 
L 1081 4153 
L 1081 2816 
Q 1244 2928 1461 2984 
Q 1678 3041 1947 3041 
Q 2703 3041 3140 2622 
Q 3578 2203 3578 1478 
Q 3578 738 3136 323 
Q 2694 -91 1894 -91 
Q 1572 -91 1234 -12 
Q 897 66 544 225 
L 544 1131 
L 897 1131 
Q 925 688 1179 453 
Q 1434 219 1894 219 
Q 2388 219 2653 544 
Q 2919 869 2919 1478 
Q 2919 2084 2655 2407 
Q 2391 2731 1894 2731 
Q 1613 2731 1398 2631 
Q 1184 2531 1019 2322 
L 750 2322 
L 750 4666 
L 3219 4666 
z
" transform="scale(0.015625)"/>
       <path id="DejaVuSerif-47" d="M 4097 3272 
Q 3988 3856 3641 4136 
Q 3294 4416 2675 4416 
Q 1869 4416 1472 3897 
Q 1075 3378 1075 2328 
Q 1075 1300 1484 772 
Q 1894 244 2688 244 
Q 3041 244 3362 331 
Q 3684 419 3975 594 
L 3975 1797 
L 3097 1797 
L 3097 2131 
L 4609 2131 
L 4609 391 
Q 4194 150 3714 29 
Q 3234 -91 2688 -91 
Q 1631 -91 995 570 
Q 359 1231 359 2328 
Q 359 3434 996 4092 
Q 1634 4750 2713 4750 
Q 3113 4750 3539 4658 
Q 3966 4566 4447 4378 
L 4447 3272 
L 4097 3272 
z
" transform="scale(0.015625)"/>
       <path id="DejaVuSerif-75" d="M 2266 3322 
L 3341 3322 
L 3341 331 
L 3884 331 
L 3884 0 
L 2766 0 
L 2766 588 
Q 2606 256 2353 82 
Q 2100 -91 1766 -91 
Q 1213 -91 952 223 
Q 691 538 691 1209 
L 691 2988 
L 172 2988 
L 172 3322 
L 1269 3322 
L 1269 1388 
Q 1269 781 1417 556 
Q 1566 331 1947 331 
Q 2347 331 2556 625 
Q 2766 919 2766 1478 
L 2766 2988 
L 2266 2988 
L 2266 3322 
z
" transform="scale(0.015625)"/>
       <path id="DejaVuSerif-72" d="M 3059 3328 
L 3059 2497 
L 2728 2497 
Q 2713 2744 2591 2866 
Q 2469 2988 2234 2988 
Q 1809 2988 1582 2694 
Q 1356 2400 1356 1850 
L 1356 331 
L 2022 331 
L 2022 0 
L 263 0 
L 263 331 
L 781 331 
L 781 2994 
L 231 2994 
L 231 3322 
L 1356 3322 
L 1356 2731 
Q 1525 3078 1790 3245 
Q 2056 3413 2438 3413 
Q 2578 3413 2733 3391 
Q 2888 3369 3059 3328 
z
" transform="scale(0.015625)"/>
       <path id="DejaVuSerif-64" d="M 3359 331 
L 3909 331 
L 3909 0 
L 2784 0 
L 2784 519 
Q 2616 206 2355 57 
Q 2094 -91 1709 -91 
Q 1097 -91 708 395 
Q 319 881 319 1663 
Q 319 2444 706 2928 
Q 1094 3413 1709 3413 
Q 2094 3413 2355 3264 
Q 2616 3116 2784 2803 
L 2784 4531 
L 2241 4531 
L 2241 4863 
L 3359 4863 
L 3359 331 
z
M 2784 1497 
L 2784 1825 
Q 2784 2422 2554 2737 
Q 2325 3053 1888 3053 
Q 1444 3053 1217 2703 
Q 991 2353 991 1663 
Q 991 975 1217 622 
Q 1444 269 1888 269 
Q 2325 269 2554 583 
Q 2784 897 2784 1497 
z
" transform="scale(0.015625)"/>
      </defs>
      <use xlink:href="#DejaVuSerif-35"/>
      <use xlink:href="#DejaVuSerif-47" x="63.623047"/>
      <use xlink:href="#DejaVuSerif-75" x="143.505859"/>
      <use xlink:href="#DejaVuSerif-61" x="207.910156"/>
      <use xlink:href="#DejaVuSerif-72" x="267.529297"/>
      <use xlink:href="#DejaVuSerif-64" x="315.332031"/>
     </g>
    </g>
   </g>
  </g>
 </g>
 <defs>
  <clipPath id="p0bcd5ae9bf">
   <rect x="56.41" y="5" width="658.59" height="272.04"/>
  </clipPath>
 </defs>
</svg>
