<?xml version="1.0" encoding="utf-8" standalone="no"?>
<!DOCTYPE svg PUBLIC "-//W3C//DTD SVG 1.1//EN"
  "http://www.w3.org/Graphics/SVG/1.1/DTD/svg11.dtd">
<svg xmlns:xlink="http://www.w3.org/1999/xlink" width="504pt" height="432pt" viewBox="0 0 504 432" xmlns="http://www.w3.org/2000/svg" version="1.1">
 <metadata>
  <rdf:RDF xmlns:dc="http://purl.org/dc/elements/1.1/" xmlns:cc="http://creativecommons.org/ns#" xmlns:rdf="http://www.w3.org/1999/02/22-rdf-syntax-ns#">
   <cc:Work>
    <dc:type rdf:resource="http://purl.org/dc/dcmitype/StillImage"/>
    <dc:date>2025-02-25T18:57:51.264708</dc:date>
    <dc:format>image/svg+xml</dc:format>
    <dc:creator>
     <cc:Agent>
      <dc:title>Matplotlib v3.8.0, https://matplotlib.org/</dc:title>
     </cc:Agent>
    </dc:creator>
   </cc:Work>
  </rdf:RDF>
 </metadata>
 <defs>
  <style type="text/css">*{stroke-linejoin: round; stroke-linecap: butt}</style>
 </defs>
 <g id="figure_1">
  <g id="patch_1">
   <path d="M 0 432 
L 504 432 
L 504 0 
L 0 0 
z
" style="fill: #ffffff"/>
  </g>
  <g id="axes_1">
   <g id="patch_2">
    <path d="M 54.43 369.2 
L 499 369.2 
L 499 24.704 
L 54.43 24.704 
z
" style="fill: #ffffff"/>
   </g>
   <g id="PolyCollection_1">
    <defs>
     <path id="m4a5e27594e" d="M 74.637727 -133.496644 
L 74.637727 -84.381831 
L 88.574091 -84.381831 
L 102.510455 -84.397962 
L 116.446818 -84.400651 
L 130.383182 -84.400651 
L 144.319545 -133.52353 
L 158.255909 -133.531596 
L 172.192273 -133.539661 
L 186.128636 -133.547727 
L 200.065 -133.555793 
L 214.001364 -133.563858 
L 227.937727 -133.571924 
L 241.874091 -133.57999 
L 255.810455 -133.57999 
L 269.746818 -133.588055 
L 283.683182 -133.596121 
L 297.619545 -133.604187 
L 311.555909 -133.612253 
L 325.492273 -133.620318 
L 339.428636 -133.628384 
L 353.365 -133.628384 
L 367.301364 -183.936923 
L 381.237727 -183.936923 
L 395.174091 -183.936923 
L 409.110455 -188.674185 
L 423.046818 -188.674185 
L 436.983182 -188.682251 
L 450.919545 -188.690316 
L 464.855909 -188.698382 
L 478.792273 -188.706448 
L 478.792273 -287.476477 
L 478.792273 -287.476477 
L 464.855909 -287.39582 
L 450.919545 -287.39582 
L 436.983182 -287.315163 
L 423.046818 -287.315163 
L 409.110455 -287.315163 
L 395.174091 -287.234506 
L 381.237727 -286.992534 
L 367.301364 -286.960271 
L 353.365 -286.879614 
L 339.428636 -286.876926 
L 325.492273 -286.86886 
L 311.555909 -286.860794 
L 297.619545 -286.852728 
L 283.683182 -286.852728 
L 269.746818 -286.852728 
L 255.810455 -286.852728 
L 241.874091 -237.737915 
L 227.937727 -237.721784 
L 214.001364 -237.721784 
L 200.065 -237.713718 
L 186.128636 -237.705652 
L 172.192273 -231.840785 
L 158.255909 -237.689521 
L 144.319545 -237.681455 
L 130.383182 -231.777415 
L 116.446818 -182.635655 
L 102.510455 -182.627589 
L 88.574091 -133.50471 
L 74.637727 -133.496644 
z
" style="stroke: #646464; stroke-opacity: 0.1"/>
    </defs>
    <g clip-path="url(#p327626d3d9)">
     <use xlink:href="#m4a5e27594e" x="0" y="432" style="fill: #646464; fill-opacity: 0.1; stroke: #646464; stroke-opacity: 0.1"/>
    </g>
   </g>
   <g id="PolyCollection_2">
    <defs>
     <path id="mada3fbe5b5" d="M 74.637727 -133.496644 
L 74.637727 -84.381831 
L 88.574091 -84.381831 
L 102.510455 -84.397962 
L 116.446818 -84.400651 
L 130.383182 -84.400651 
L 144.319545 -133.52353 
L 158.255909 -133.531596 
L 172.192273 -133.539661 
L 186.128636 -133.547727 
L 200.065 -133.555793 
L 214.001364 -133.563858 
L 227.937727 -133.571924 
L 241.874091 -133.57999 
L 255.810455 -133.57999 
L 269.746818 -133.588055 
L 283.683182 -133.596121 
L 297.619545 -133.604187 
L 311.555909 -133.612253 
L 325.492273 -133.620318 
L 339.428636 -133.628384 
L 353.365 -133.628384 
L 367.301364 -188.666119 
L 381.237727 -188.666119 
L 395.174091 -188.666119 
L 409.110455 -188.674185 
L 423.046818 -188.674185 
L 436.983182 -188.68225 
L 450.919545 -188.690316 
L 464.855909 -188.698382 
L 478.792273 -188.706448 
L 478.792273 -391.637091 
L 478.792273 -391.637091 
L 464.855909 -391.629025 
L 450.919545 -391.556434 
L 436.983182 -391.548368 
L 423.046818 -341.965743 
L 409.110455 -341.965743 
L 395.174091 -341.957673 
L 381.237727 -287.234506 
L 367.301364 -287.234506 
L 353.365 -287.153848 
L 339.428636 -287.073191 
L 325.492273 -287.040928 
L 311.555909 -286.911877 
L 297.619545 -286.852728 
L 283.683182 -286.852728 
L 269.746818 -286.852728 
L 255.810455 -286.852728 
L 241.874091 -237.737915 
L 227.937727 -237.729849 
L 214.001364 -237.721784 
L 200.065 -237.713718 
L 186.128636 -237.705652 
L 172.192273 -237.697587 
L 158.255909 -237.689521 
L 144.319545 -237.681455 
L 130.383182 -237.673389 
L 116.446818 -182.635655 
L 102.510455 -182.627589 
L 88.574091 -133.50471 
L 74.637727 -133.496644 
z
" style="stroke: #ee0000; stroke-opacity: 0.1"/>
    </defs>
    <g clip-path="url(#p327626d3d9)">
     <use xlink:href="#mada3fbe5b5" x="0" y="432" style="fill: #ee0000; fill-opacity: 0.1; stroke: #ee0000; stroke-opacity: 0.1"/>
    </g>
   </g>
   <g id="PolyCollection_3">
    <defs>
     <path id="mc3a6cdfc2c" d="M 74.637727 -133.496644 
L 74.637727 -84.454422 
L 88.574091 -84.454422 
L 102.510455 -84.615736 
L 116.446818 -84.642622 
L 130.383182 -84.642622 
L 144.319545 -133.765501 
L 158.255909 -133.846158 
L 172.192273 -133.926815 
L 186.128636 -134.007473 
L 200.065 -134.08813 
L 214.001364 -134.168787 
L 227.937727 -134.249444 
L 241.874091 -134.330101 
L 255.810455 -134.330101 
L 269.746818 -134.410758 
L 283.683182 -134.491415 
L 297.619545 -134.572072 
L 311.555909 -134.65273 
L 325.492273 -134.733387 
L 339.428636 -134.814044 
L 353.365 -134.814044 
L 367.301364 -183.694951 
L 381.237727 -183.775609 
L 395.174091 -183.856266 
L 409.110455 -183.936923 
L 423.046818 -184.01758 
L 436.983182 -184.01758 
L 450.919545 -184.098237 
L 464.855909 -184.098237 
L 478.792273 -184.178894 
L 478.792273 -184.501523 
L 478.792273 -184.501523 
L 464.855909 -184.420866 
L 450.919545 -184.340208 
L 436.983182 -184.259551 
L 423.046818 -184.178894 
L 409.110455 -184.178894 
L 395.174091 -184.098237 
L 381.237727 -184.01758 
L 367.301364 -184.01758 
L 353.365 -183.936923 
L 339.428636 -183.856266 
L 325.492273 -183.775609 
L 311.555909 -183.694951 
L 297.619545 -183.694951 
L 283.683182 -183.614294 
L 269.746818 -183.533637 
L 255.810455 -183.506751 
L 241.874091 -183.426094 
L 227.937727 -183.345437 
L 214.001364 -183.26478 
L 200.065 -183.184123 
L 186.128636 -183.184123 
L 172.192273 -183.103466 
L 158.255909 -182.969037 
L 144.319545 -182.861494 
L 130.383182 -182.780837 
L 116.446818 -182.780837 
L 102.510455 -182.70018 
L 88.574091 -133.577301 
L 74.637727 -133.496644 
z
" style="stroke: #6e8ee6; stroke-opacity: 0.1"/>
    </defs>
    <g clip-path="url(#p327626d3d9)">
     <use xlink:href="#mc3a6cdfc2c" x="0" y="432" style="fill: #6e8ee6; fill-opacity: 0.1; stroke: #6e8ee6; stroke-opacity: 0.1"/>
    </g>
   </g>
   <g id="PolyCollection_4">
    <defs>
     <path id="mbdf5d44834" d="M 74.637727 -133.496644 
L 74.637727 -84.381831 
L 88.574091 -84.381831 
L 102.510455 -84.397962 
L 116.446818 -84.400651 
L 130.383182 -84.400651 
L 144.319545 -133.52353 
L 158.255909 -133.531596 
L 172.192273 -133.539661 
L 186.128636 -133.547727 
L 200.065 -133.555793 
L 214.001364 -133.563858 
L 227.937727 -133.571924 
L 241.874091 -133.57999 
L 255.810455 -133.57999 
L 269.746818 -133.588055 
L 283.683182 -133.596121 
L 297.619545 -133.604187 
L 311.555909 -133.612253 
L 325.492273 -133.620318 
L 339.428636 -133.628384 
L 353.365 -133.628384 
L 367.301364 -133.628384 
L 381.237727 -133.628384 
L 395.174091 -133.628384 
L 409.110455 -133.63645 
L 423.046818 -133.63645 
L 436.983182 -133.644515 
L 450.919545 -133.652581 
L 464.855909 -133.660647 
L 478.792273 -133.668713 
L 478.792273 -182.719 
L 478.792273 -182.719 
L 464.855909 -182.719 
L 450.919545 -182.719 
L 436.983182 -182.719 
L 423.046818 -182.719 
L 409.110455 -182.719 
L 395.174091 -182.719 
L 381.237727 -182.719 
L 367.301364 -182.719 
L 353.365 -182.719 
L 339.428636 -182.719 
L 325.492273 -182.719 
L 311.555909 -182.719 
L 297.619545 -182.719 
L 283.683182 -182.719 
L 269.746818 -182.710934 
L 255.810455 -182.708246 
L 241.874091 -182.70018 
L 227.937727 -182.692114 
L 214.001364 -182.684049 
L 200.065 -182.675983 
L 186.128636 -182.675983 
L 172.192273 -182.667917 
L 158.255909 -182.654474 
L 144.319545 -182.64372 
L 130.383182 -182.635655 
L 116.446818 -182.635655 
L 102.510455 -182.627589 
L 88.574091 -133.50471 
L 74.637727 -133.496644 
z
" style="stroke: #21cd7d; stroke-opacity: 0.1"/>
    </defs>
    <g clip-path="url(#p327626d3d9)">
     <use xlink:href="#mbdf5d44834" x="0" y="432" style="fill: #21cd7d; fill-opacity: 0.1; stroke: #21cd7d; stroke-opacity: 0.1"/>
    </g>
   </g>
   <g id="PolyCollection_5">
    <defs>
     <path id="m12cf4e319c" d="M 74.637727 -133.496644 
L 74.637727 -84.381831 
L 88.574091 -84.381831 
L 102.510455 -84.397962 
L 116.446818 -84.400651 
L 130.383182 -84.400651 
L 144.319545 -133.52353 
L 158.255909 -133.531596 
L 172.192273 -133.539661 
L 186.128636 -133.547727 
L 200.065 -133.547727 
L 214.001364 -133.547727 
L 227.937727 -133.547727 
L 241.874091 -133.547727 
L 255.810455 -133.547727 
L 269.746818 -133.547727 
L 283.683182 -133.547727 
L 297.619545 -133.547727 
L 311.555909 -133.547727 
L 325.492273 -133.547727 
L 339.428636 -133.547727 
L 353.365 -133.547727 
L 367.301364 -133.547727 
L 381.237727 -133.547727 
L 395.174091 -133.547727 
L 409.110455 -133.547727 
L 423.046818 -133.547727 
L 436.983182 -133.547727 
L 450.919545 -133.547727 
L 464.855909 -133.547727 
L 478.792273 -133.547727 
L 478.792273 -330.316305 
L 478.792273 -330.316305 
L 464.855909 -330.316305 
L 450.919545 -330.316305 
L 436.983182 -330.316305 
L 423.046818 -330.316305 
L 409.110455 -330.316305 
L 395.174091 -330.316305 
L 381.237727 -281.131301 
L 367.301364 -281.131301 
L 353.365 -281.095067 
L 339.428636 -281.095067 
L 325.492273 -281.059638 
L 311.555909 -281.059638 
L 297.619545 -231.864606 
L 283.683182 -231.864606 
L 269.746818 -231.864606 
L 255.810455 -231.864606 
L 241.874091 -231.864606 
L 227.937727 -231.864606 
L 214.001364 -231.840785 
L 200.065 -231.840785 
L 186.128636 -231.840785 
L 172.192273 -231.840785 
L 158.255909 -231.818282 
L 144.319545 -231.797142 
L 130.383182 -231.777415 
L 116.446818 -182.635655 
L 102.510455 -182.627589 
L 88.574091 -133.50471 
L 74.637727 -133.496644 
z
" style="stroke: #00ff00; stroke-opacity: 0.1"/>
    </defs>
    <g clip-path="url(#p327626d3d9)">
     <use xlink:href="#m12cf4e319c" x="0" y="432" style="fill: #00ff00; fill-opacity: 0.1; stroke: #00ff00; stroke-opacity: 0.1"/>
    </g>
   </g>
   <g id="PolyCollection_6">
    <defs>
     <path id="m8d35545031" d="M 74.637727 -84.387208 
L 74.637727 -84.381831 
L 88.574091 -84.381831 
L 102.510455 -84.381831 
L 116.446818 -84.381831 
L 130.383182 -84.387208 
L 144.319545 -84.387208 
L 158.255909 -84.387208 
L 172.192273 -84.387208 
L 186.128636 -84.387208 
L 200.065 -84.387208 
L 214.001364 -84.387208 
L 227.937727 -84.387208 
L 241.874091 -84.387208 
L 255.810455 -84.387208 
L 269.746818 -84.387208 
L 283.683182 -84.387208 
L 297.619545 -84.387208 
L 311.555909 -84.387208 
L 325.492273 -84.387208 
L 339.428636 -84.387208 
L 353.365 -84.387208 
L 367.301364 -84.387208 
L 381.237727 -84.387208 
L 395.174091 -84.387208 
L 409.110455 -84.387208 
L 423.046818 -84.387208 
L 436.983182 -84.387208 
L 450.919545 -84.387208 
L 464.855909 -84.387208 
L 478.792273 -84.387208 
L 478.792273 -84.387208 
L 478.792273 -84.387208 
L 464.855909 -84.387208 
L 450.919545 -84.387208 
L 436.983182 -84.387208 
L 423.046818 -84.387208 
L 409.110455 -84.387208 
L 395.174091 -84.387208 
L 381.237727 -84.387208 
L 367.301364 -84.387208 
L 353.365 -84.387208 
L 339.428636 -84.387208 
L 325.492273 -84.387208 
L 311.555909 -84.387208 
L 297.619545 -84.387208 
L 283.683182 -84.387208 
L 269.746818 -84.387208 
L 255.810455 -84.387208 
L 241.874091 -84.387208 
L 227.937727 -84.387208 
L 214.001364 -84.387208 
L 200.065 -84.387208 
L 186.128636 -84.387208 
L 172.192273 -84.387208 
L 158.255909 -84.387208 
L 144.319545 -84.387208 
L 130.383182 -84.387208 
L 116.446818 -84.387208 
L 102.510455 -84.387208 
L 88.574091 -84.387208 
L 74.637727 -84.387208 
z
" style="stroke: #eeee00; stroke-opacity: 0.1"/>
    </defs>
    <g clip-path="url(#p327626d3d9)">
     <use xlink:href="#m8d35545031" x="0" y="432" style="fill: #eeee00; fill-opacity: 0.1; stroke: #eeee00; stroke-opacity: 0.1"/>
    </g>
   </g>
   <g id="PolyCollection_7">
    <defs>
     <path id="mcc7b7064ef" d="M 74.637727 -78.458909 
L 74.637727 -78.458909 
L 88.574091 -78.458909 
L 102.510455 -78.458909 
L 116.446818 -78.458909 
L 130.383182 -78.458909 
L 144.319545 -78.458909 
L 158.255909 -78.458909 
L 172.192273 -78.458909 
L 186.128636 -78.458909 
L 200.065 -78.458909 
L 214.001364 -78.458909 
L 227.937727 -78.458909 
L 241.874091 -78.458909 
L 255.810455 -78.458909 
L 269.746818 -78.458909 
L 283.683182 -78.458909 
L 297.619545 -78.458909 
L 311.555909 -78.458909 
L 325.492273 -78.458909 
L 339.428636 -78.458909 
L 353.365 -78.458909 
L 367.301364 -78.458909 
L 381.237727 -78.458909 
L 395.174091 -78.458909 
L 409.110455 -78.458909 
L 423.046818 -78.458909 
L 436.983182 -78.458909 
L 450.919545 -78.458909 
L 464.855909 -78.458909 
L 478.792273 -78.458909 
L 478.792273 -78.458909 
L 478.792273 -78.458909 
L 464.855909 -78.458909 
L 450.919545 -78.458909 
L 436.983182 -78.458909 
L 423.046818 -78.458909 
L 409.110455 -78.458909 
L 395.174091 -78.458909 
L 381.237727 -78.458909 
L 367.301364 -78.458909 
L 353.365 -78.458909 
L 339.428636 -78.458909 
L 325.492273 -78.458909 
L 311.555909 -78.458909 
L 297.619545 -78.458909 
L 283.683182 -78.458909 
L 269.746818 -78.458909 
L 255.810455 -78.458909 
L 241.874091 -78.458909 
L 227.937727 -78.458909 
L 214.001364 -78.458909 
L 200.065 -78.458909 
L 186.128636 -78.458909 
L 172.192273 -78.458909 
L 158.255909 -78.458909 
L 144.319545 -78.458909 
L 130.383182 -78.458909 
L 116.446818 -78.458909 
L 102.510455 -78.458909 
L 88.574091 -78.458909 
L 74.637727 -78.458909 
z
" style="stroke: #00eeee; stroke-opacity: 0.1"/>
    </defs>
    <g clip-path="url(#p327626d3d9)">
     <use xlink:href="#mcc7b7064ef" x="0" y="432" style="fill: #00eeee; fill-opacity: 0.1; stroke: #00eeee; stroke-opacity: 0.1"/>
    </g>
   </g>
   <g id="matplotlib.axis_1">
    <g id="xtick_1">
     <g id="line2d_1">
      <path d="M 74.637727 369.2 
L 74.637727 24.704 
" clip-path="url(#p327626d3d9)" style="fill: none; stroke: #b0b0b0; stroke-width: 0.8; stroke-linecap: square"/>
     </g>
     <g id="line2d_2">
      <defs>
       <path id="m66d90ac5a1" d="M 0 0 
L 0 3.5 
" style="stroke: #000000; stroke-width: 0.8"/>
      </defs>
      <g>
       <use xlink:href="#m66d90ac5a1" x="74.637727" y="369.2" style="stroke: #000000; stroke-width: 0.8"/>
      </g>
     </g>
     <g id="text_1">
      <!-- 0 -->
      <g transform="translate(66.684602 395.196094) scale(0.25 -0.25)">
       <defs>
        <path id="DejaVuSerif-30" d="M 2034 219 
Q 2513 219 2750 744 
Q 2988 1269 2988 2328 
Q 2988 3391 2750 3916 
Q 2513 4441 2034 4441 
Q 1556 4441 1318 3916 
Q 1081 3391 1081 2328 
Q 1081 1269 1318 744 
Q 1556 219 2034 219 
z
M 2034 -91 
Q 1275 -91 848 546 
Q 422 1184 422 2328 
Q 422 3475 848 4112 
Q 1275 4750 2034 4750 
Q 2797 4750 3222 4112 
Q 3647 3475 3647 2328 
Q 3647 1184 3222 546 
Q 2797 -91 2034 -91 
z
" transform="scale(0.015625)"/>
       </defs>
       <use xlink:href="#DejaVuSerif-30"/>
      </g>
     </g>
    </g>
    <g id="xtick_2">
     <g id="line2d_3">
      <path d="M 214.001364 369.2 
L 214.001364 24.704 
" clip-path="url(#p327626d3d9)" style="fill: none; stroke: #b0b0b0; stroke-width: 0.8; stroke-linecap: square"/>
     </g>
     <g id="line2d_4">
      <g>
       <use xlink:href="#m66d90ac5a1" x="214.001364" y="369.2" style="stroke: #000000; stroke-width: 0.8"/>
      </g>
     </g>
     <g id="text_2">
      <!-- 10 -->
      <g transform="translate(198.095114 395.196094) scale(0.25 -0.25)">
       <defs>
        <path id="DejaVuSerif-31" d="M 909 0 
L 909 331 
L 1722 331 
L 1722 4213 
L 781 3603 
L 781 4013 
L 1919 4750 
L 2350 4750 
L 2350 331 
L 3163 331 
L 3163 0 
L 909 0 
z
" transform="scale(0.015625)"/>
       </defs>
       <use xlink:href="#DejaVuSerif-31"/>
       <use xlink:href="#DejaVuSerif-30" x="63.623047"/>
      </g>
     </g>
    </g>
    <g id="xtick_3">
     <g id="line2d_5">
      <path d="M 353.365 369.2 
L 353.365 24.704 
" clip-path="url(#p327626d3d9)" style="fill: none; stroke: #b0b0b0; stroke-width: 0.8; stroke-linecap: square"/>
     </g>
     <g id="line2d_6">
      <g>
       <use xlink:href="#m66d90ac5a1" x="353.365" y="369.2" style="stroke: #000000; stroke-width: 0.8"/>
      </g>
     </g>
     <g id="text_3">
      <!-- 20 -->
      <g transform="translate(337.45875 395.196094) scale(0.25 -0.25)">
       <defs>
        <path id="DejaVuSerif-32" d="M 819 3553 
L 469 3553 
L 469 4384 
Q 803 4563 1142 4656 
Q 1481 4750 1806 4750 
Q 2534 4750 2956 4397 
Q 3378 4044 3378 3438 
Q 3378 2753 2422 1800 
Q 2347 1728 2309 1691 
L 1131 513 
L 3078 513 
L 3078 1088 
L 3444 1088 
L 3444 0 
L 434 0 
L 434 341 
L 1850 1753 
Q 2319 2222 2519 2614 
Q 2719 3006 2719 3438 
Q 2719 3909 2473 4175 
Q 2228 4441 1797 4441 
Q 1350 4441 1106 4219 
Q 863 3997 819 3553 
z
" transform="scale(0.015625)"/>
       </defs>
       <use xlink:href="#DejaVuSerif-32"/>
       <use xlink:href="#DejaVuSerif-30" x="63.623047"/>
      </g>
     </g>
    </g>
    <g id="text_4">
     <!-- $\it{t}$ -->
     <g transform="translate(272.115 421.871719) scale(0.23 -0.23)">
      <defs>
       <path id="DejaVuSans-Oblique-74" d="M 2706 3500 
L 2619 3053 
L 1472 3053 
L 1100 1153 
Q 1081 1047 1072 975 
Q 1063 903 1063 863 
Q 1063 663 1183 572 
Q 1303 481 1569 481 
L 2150 481 
L 2053 0 
L 1503 0 
Q 991 0 739 200 
Q 488 400 488 806 
Q 488 878 497 964 
Q 506 1050 525 1153 
L 897 3053 
L 409 3053 
L 500 3500 
L 978 3500 
L 1172 4494 
L 1747 4494 
L 1556 3500 
L 2706 3500 
z
" transform="scale(0.015625)"/>
      </defs>
      <use xlink:href="#DejaVuSans-Oblique-74" transform="translate(0 0.78125)"/>
     </g>
    </g>
   </g>
   <g id="matplotlib.axis_2">
    <g id="ytick_1">
     <g id="line2d_7">
      <path d="M 54.43 353.541091 
L 499 353.541091 
" clip-path="url(#p327626d3d9)" style="fill: none; stroke: #b0b0b0; stroke-width: 0.8; stroke-linecap: square"/>
     </g>
     <g id="line2d_8">
      <defs>
       <path id="m973acef80b" d="M 0 0 
L -3.5 0 
" style="stroke: #000000; stroke-width: 0.8"/>
      </defs>
      <g>
       <use xlink:href="#m973acef80b" x="54.43" y="353.541091" style="stroke: #000000; stroke-width: 0.8"/>
      </g>
     </g>
     <g id="text_5">
      <!-- $\mathdefault{0}$ -->
      <g transform="translate(31.43 363.039138) scale(0.25 -0.25)">
       <use xlink:href="#DejaVuSerif-30" transform="translate(0 0.78125)"/>
      </g>
     </g>
    </g>
    <g id="ytick_2">
     <g id="line2d_9">
      <path d="M 54.43 294.392531 
L 499 294.392531 
" clip-path="url(#p327626d3d9)" style="fill: none; stroke: #b0b0b0; stroke-width: 0.8; stroke-linecap: square"/>
     </g>
     <g id="line2d_10">
      <g>
       <use xlink:href="#m973acef80b" x="54.43" y="294.392531" style="stroke: #000000; stroke-width: 0.8"/>
      </g>
     </g>
     <g id="text_6">
      <!-- $\mathdefault{1}$ -->
      <g transform="translate(31.43 303.890578) scale(0.25 -0.25)">
       <use xlink:href="#DejaVuSerif-31" transform="translate(0 0.78125)"/>
      </g>
     </g>
    </g>
    <g id="ytick_3">
     <g id="line2d_11">
      <path d="M 54.43 235.243971 
L 499 235.243971 
" clip-path="url(#p327626d3d9)" style="fill: none; stroke: #b0b0b0; stroke-width: 0.8; stroke-linecap: square"/>
     </g>
     <g id="line2d_12">
      <g>
       <use xlink:href="#m973acef80b" x="54.43" y="235.243971" style="stroke: #000000; stroke-width: 0.8"/>
      </g>
     </g>
     <g id="text_7">
      <!-- $\mathdefault{2}$ -->
      <g transform="translate(31.43 244.742018) scale(0.25 -0.25)">
       <use xlink:href="#DejaVuSerif-32" transform="translate(0 0.78125)"/>
      </g>
     </g>
    </g>
    <g id="ytick_4">
     <g id="line2d_13">
      <path d="M 54.43 176.095411 
L 499 176.095411 
" clip-path="url(#p327626d3d9)" style="fill: none; stroke: #b0b0b0; stroke-width: 0.8; stroke-linecap: square"/>
     </g>
     <g id="line2d_14">
      <g>
       <use xlink:href="#m973acef80b" x="54.43" y="176.095411" style="stroke: #000000; stroke-width: 0.8"/>
      </g>
     </g>
     <g id="text_8">
      <!-- $\mathdefault{3}$ -->
      <g transform="translate(31.43 185.593458) scale(0.25 -0.25)">
       <defs>
        <path id="DejaVuSerif-33" d="M 622 4469 
Q 988 4606 1323 4678 
Q 1659 4750 1953 4750 
Q 2638 4750 3022 4454 
Q 3406 4159 3406 3634 
Q 3406 3213 3140 2930 
Q 2875 2647 2388 2547 
Q 2963 2466 3280 2130 
Q 3597 1794 3597 1259 
Q 3597 606 3158 257 
Q 2719 -91 1894 -91 
Q 1528 -91 1179 -12 
Q 831 66 488 225 
L 488 1131 
L 838 1131 
Q 869 681 1141 450 
Q 1413 219 1906 219 
Q 2384 219 2661 495 
Q 2938 772 2938 1253 
Q 2938 1803 2653 2086 
Q 2369 2369 1819 2369 
L 1522 2369 
L 1522 2688 
L 1678 2688 
Q 2225 2688 2498 2914 
Q 2772 3141 2772 3597 
Q 2772 4006 2547 4223 
Q 2322 4441 1900 4441 
Q 1478 4441 1245 4241 
Q 1013 4041 972 3647 
L 622 3647 
L 622 4469 
z
" transform="scale(0.015625)"/>
       </defs>
       <use xlink:href="#DejaVuSerif-33" transform="translate(0 0.78125)"/>
      </g>
     </g>
    </g>
    <g id="ytick_5">
     <g id="line2d_15">
      <path d="M 54.43 116.946851 
L 499 116.946851 
" clip-path="url(#p327626d3d9)" style="fill: none; stroke: #b0b0b0; stroke-width: 0.8; stroke-linecap: square"/>
     </g>
     <g id="line2d_16">
      <g>
       <use xlink:href="#m973acef80b" x="54.43" y="116.946851" style="stroke: #000000; stroke-width: 0.8"/>
      </g>
     </g>
     <g id="text_9">
      <!-- $\mathdefault{4}$ -->
      <g transform="translate(31.43 126.444898) scale(0.25 -0.25)">
       <defs>
        <path id="DejaVuSerif-34" d="M 2234 1581 
L 2234 4063 
L 641 1581 
L 2234 1581 
z
M 3609 0 
L 1484 0 
L 1484 331 
L 2234 331 
L 2234 1247 
L 197 1247 
L 197 1588 
L 2241 4750 
L 2859 4750 
L 2859 1581 
L 3750 1581 
L 3750 1247 
L 2859 1247 
L 2859 331 
L 3609 331 
L 3609 0 
z
" transform="scale(0.015625)"/>
       </defs>
       <use xlink:href="#DejaVuSerif-34" transform="translate(0 0.78125)"/>
      </g>
     </g>
    </g>
    <g id="ytick_6">
     <g id="line2d_17">
      <path d="M 54.43 57.798291 
L 499 57.798291 
" clip-path="url(#p327626d3d9)" style="fill: none; stroke: #b0b0b0; stroke-width: 0.8; stroke-linecap: square"/>
     </g>
     <g id="line2d_18">
      <g>
       <use xlink:href="#m973acef80b" x="54.43" y="57.798291" style="stroke: #000000; stroke-width: 0.8"/>
      </g>
     </g>
     <g id="text_10">
      <!-- $\mathdefault{5}$ -->
      <g transform="translate(31.43 67.296338) scale(0.25 -0.25)">
       <defs>
        <path id="DejaVuSerif-35" d="M 3219 4666 
L 3219 4153 
L 1081 4153 
L 1081 2816 
Q 1244 2928 1461 2984 
Q 1678 3041 1947 3041 
Q 2703 3041 3140 2622 
Q 3578 2203 3578 1478 
Q 3578 738 3136 323 
Q 2694 -91 1894 -91 
Q 1572 -91 1234 -12 
Q 897 66 544 225 
L 544 1131 
L 897 1131 
Q 925 688 1179 453 
Q 1434 219 1894 219 
Q 2388 219 2653 544 
Q 2919 869 2919 1478 
Q 2919 2084 2655 2407 
Q 2391 2731 1894 2731 
Q 1613 2731 1398 2631 
Q 1184 2531 1019 2322 
L 750 2322 
L 750 4666 
L 3219 4666 
z
" transform="scale(0.015625)"/>
       </defs>
       <use xlink:href="#DejaVuSerif-35" transform="translate(0 0.09375)"/>
      </g>
     </g>
    </g>
    <g id="text_11">
     <!-- Aggregate Overhead Cost -->
     <g transform="translate(22.319688 348.146453) rotate(-90) scale(0.23 -0.23)">
      <defs>
       <path id="DejaVuSerif-41" d="M 1281 1691 
L 2994 1691 
L 2138 3909 
L 1281 1691 
z
M -38 0 
L -38 331 
L 372 331 
L 2034 4666 
L 2559 4666 
L 4225 331 
L 4684 331 
L 4684 0 
L 2988 0 
L 2988 331 
L 3506 331 
L 3116 1356 
L 1153 1356 
L 763 331 
L 1275 331 
L 1275 0 
L -38 0 
z
" transform="scale(0.015625)"/>
       <path id="DejaVuSerif-67" d="M 3359 2988 
L 3359 72 
Q 3359 -644 2965 -1033 
Q 2572 -1422 1844 -1422 
Q 1516 -1422 1216 -1362 
Q 916 -1303 641 -1184 
L 641 -488 
L 941 -488 
Q 997 -813 1206 -963 
Q 1416 -1113 1806 -1113 
Q 2313 -1113 2548 -827 
Q 2784 -541 2784 72 
L 2784 519 
Q 2616 206 2355 57 
Q 2094 -91 1709 -91 
Q 1097 -91 708 395 
Q 319 881 319 1663 
Q 319 2444 706 2928 
Q 1094 3413 1709 3413 
Q 2094 3413 2355 3264 
Q 2616 3116 2784 2803 
L 2784 3322 
L 3909 3322 
L 3909 2988 
L 3359 2988 
z
M 2784 1825 
Q 2784 2422 2554 2737 
Q 2325 3053 1888 3053 
Q 1444 3053 1217 2703 
Q 991 2353 991 1663 
Q 991 975 1217 622 
Q 1444 269 1888 269 
Q 2325 269 2554 583 
Q 2784 897 2784 1497 
L 2784 1825 
z
" transform="scale(0.015625)"/>
       <path id="DejaVuSerif-72" d="M 3059 3328 
L 3059 2497 
L 2728 2497 
Q 2713 2744 2591 2866 
Q 2469 2988 2234 2988 
Q 1809 2988 1582 2694 
Q 1356 2400 1356 1850 
L 1356 331 
L 2022 331 
L 2022 0 
L 263 0 
L 263 331 
L 781 331 
L 781 2994 
L 231 2994 
L 231 3322 
L 1356 3322 
L 1356 2731 
Q 1525 3078 1790 3245 
Q 2056 3413 2438 3413 
Q 2578 3413 2733 3391 
Q 2888 3369 3059 3328 
z
" transform="scale(0.015625)"/>
       <path id="DejaVuSerif-65" d="M 3469 1600 
L 991 1600 
L 991 1575 
Q 991 903 1244 561 
Q 1497 219 1991 219 
Q 2369 219 2611 417 
Q 2853 616 2950 1006 
L 3413 1006 
Q 3275 459 2904 184 
Q 2534 -91 1931 -91 
Q 1203 -91 761 389 
Q 319 869 319 1663 
Q 319 2450 753 2931 
Q 1188 3413 1894 3413 
Q 2647 3413 3050 2948 
Q 3453 2484 3469 1600 
z
M 2791 1931 
Q 2772 2513 2545 2808 
Q 2319 3103 1894 3103 
Q 1497 3103 1269 2806 
Q 1041 2509 991 1931 
L 2791 1931 
z
" transform="scale(0.015625)"/>
       <path id="DejaVuSerif-61" d="M 2547 1044 
L 2547 1747 
L 1806 1747 
Q 1378 1747 1168 1562 
Q 959 1378 959 997 
Q 959 650 1171 447 
Q 1384 244 1747 244 
Q 2106 244 2326 466 
Q 2547 688 2547 1044 
z
M 3122 2075 
L 3122 331 
L 3634 331 
L 3634 0 
L 2547 0 
L 2547 359 
Q 2356 128 2106 18 
Q 1856 -91 1522 -91 
Q 969 -91 644 203 
Q 319 497 319 997 
Q 319 1513 691 1797 
Q 1063 2081 1741 2081 
L 2547 2081 
L 2547 2309 
Q 2547 2688 2317 2895 
Q 2088 3103 1672 3103 
Q 1328 3103 1125 2947 
Q 922 2791 872 2484 
L 575 2484 
L 575 3156 
Q 875 3284 1158 3348 
Q 1441 3413 1709 3413 
Q 2400 3413 2761 3070 
Q 3122 2728 3122 2075 
z
" transform="scale(0.015625)"/>
       <path id="DejaVuSerif-74" d="M 691 2988 
L 184 2988 
L 184 3322 
L 691 3322 
L 691 4353 
L 1269 4353 
L 1269 3322 
L 2350 3322 
L 2350 2988 
L 1269 2988 
L 1269 878 
Q 1269 456 1350 337 
Q 1431 219 1650 219 
Q 1875 219 1978 351 
Q 2081 484 2088 781 
L 2522 781 
Q 2497 328 2275 118 
Q 2053 -91 1600 -91 
Q 1103 -91 897 129 
Q 691 350 691 878 
L 691 2988 
z
" transform="scale(0.015625)"/>
       <path id="DejaVuSerif-20" transform="scale(0.015625)"/>
       <path id="DejaVuSerif-4f" d="M 2625 244 
Q 3391 244 3781 770 
Q 4172 1297 4172 2328 
Q 4172 3363 3781 3889 
Q 3391 4416 2625 4416 
Q 1856 4416 1465 3889 
Q 1075 3363 1075 2328 
Q 1075 1297 1465 770 
Q 1856 244 2625 244 
z
M 2625 -91 
Q 2150 -91 1751 65 
Q 1353 222 1050 525 
Q 700 875 529 1319 
Q 359 1763 359 2328 
Q 359 2894 529 3339 
Q 700 3784 1050 4134 
Q 1356 4441 1750 4595 
Q 2144 4750 2625 4750 
Q 3641 4750 4266 4084 
Q 4891 3419 4891 2328 
Q 4891 1769 4719 1320 
Q 4547 872 4197 525 
Q 3891 219 3497 64 
Q 3103 -91 2625 -91 
z
" transform="scale(0.015625)"/>
       <path id="DejaVuSerif-76" d="M 1581 0 
L 359 2988 
L -19 2988 
L -19 3322 
L 1509 3322 
L 1509 2988 
L 978 2988 
L 1913 703 
L 2847 2988 
L 2350 2988 
L 2350 3322 
L 3597 3322 
L 3597 2988 
L 3225 2988 
L 2003 0 
L 1581 0 
z
" transform="scale(0.015625)"/>
       <path id="DejaVuSerif-68" d="M 263 0 
L 263 331 
L 781 331 
L 781 4531 
L 231 4531 
L 231 4863 
L 1356 4863 
L 1356 2731 
Q 1516 3069 1770 3241 
Q 2025 3413 2363 3413 
Q 2913 3413 3172 3097 
Q 3431 2781 3431 2113 
L 3431 331 
L 3944 331 
L 3944 0 
L 2356 0 
L 2356 331 
L 2853 331 
L 2853 1931 
Q 2853 2541 2704 2764 
Q 2556 2988 2175 2988 
Q 1775 2988 1565 2697 
Q 1356 2406 1356 1850 
L 1356 331 
L 1856 331 
L 1856 0 
L 263 0 
z
" transform="scale(0.015625)"/>
       <path id="DejaVuSerif-64" d="M 3359 331 
L 3909 331 
L 3909 0 
L 2784 0 
L 2784 519 
Q 2616 206 2355 57 
Q 2094 -91 1709 -91 
Q 1097 -91 708 395 
Q 319 881 319 1663 
Q 319 2444 706 2928 
Q 1094 3413 1709 3413 
Q 2094 3413 2355 3264 
Q 2616 3116 2784 2803 
L 2784 4531 
L 2241 4531 
L 2241 4863 
L 3359 4863 
L 3359 331 
z
M 2784 1497 
L 2784 1825 
Q 2784 2422 2554 2737 
Q 2325 3053 1888 3053 
Q 1444 3053 1217 2703 
Q 991 2353 991 1663 
Q 991 975 1217 622 
Q 1444 269 1888 269 
Q 2325 269 2554 583 
Q 2784 897 2784 1497 
z
" transform="scale(0.015625)"/>
       <path id="DejaVuSerif-43" d="M 4513 1234 
Q 4306 581 3820 245 
Q 3334 -91 2591 -91 
Q 2134 -91 1743 65 
Q 1353 222 1050 525 
Q 700 875 529 1320 
Q 359 1766 359 2328 
Q 359 3416 987 4083 
Q 1616 4750 2644 4750 
Q 3025 4750 3456 4650 
Q 3888 4550 4384 4347 
L 4384 3272 
L 4031 3272 
Q 3916 3859 3567 4137 
Q 3219 4416 2591 4416 
Q 1844 4416 1459 3886 
Q 1075 3356 1075 2328 
Q 1075 1303 1459 773 
Q 1844 244 2591 244 
Q 3113 244 3450 492 
Q 3788 741 3938 1234 
L 4513 1234 
z
" transform="scale(0.015625)"/>
       <path id="DejaVuSerif-6f" d="M 1925 219 
Q 2388 219 2623 584 
Q 2859 950 2859 1663 
Q 2859 2375 2623 2739 
Q 2388 3103 1925 3103 
Q 1463 3103 1227 2739 
Q 991 2375 991 1663 
Q 991 950 1228 584 
Q 1466 219 1925 219 
z
M 1925 -91 
Q 1200 -91 759 389 
Q 319 869 319 1663 
Q 319 2456 758 2934 
Q 1197 3413 1925 3413 
Q 2653 3413 3092 2934 
Q 3531 2456 3531 1663 
Q 3531 869 3092 389 
Q 2653 -91 1925 -91 
z
" transform="scale(0.015625)"/>
       <path id="DejaVuSerif-73" d="M 359 184 
L 359 959 
L 691 959 
Q 703 588 923 403 
Q 1144 219 1575 219 
Q 1963 219 2166 364 
Q 2369 509 2369 788 
Q 2369 1006 2220 1140 
Q 2072 1275 1594 1428 
L 1178 1569 
Q 750 1706 558 1912 
Q 366 2119 366 2438 
Q 366 2894 700 3153 
Q 1034 3413 1625 3413 
Q 1888 3413 2178 3344 
Q 2469 3275 2778 3144 
L 2778 2419 
L 2447 2419 
Q 2434 2741 2221 2922 
Q 2009 3103 1644 3103 
Q 1281 3103 1095 2975 
Q 909 2847 909 2591 
Q 909 2381 1050 2254 
Q 1191 2128 1613 1997 
L 2069 1856 
Q 2541 1709 2748 1489 
Q 2956 1269 2956 922 
Q 2956 450 2595 179 
Q 2234 -91 1600 -91 
Q 1278 -91 972 -22 
Q 666 47 359 184 
z
" transform="scale(0.015625)"/>
      </defs>
      <use xlink:href="#DejaVuSerif-41"/>
      <use xlink:href="#DejaVuSerif-67" x="72.216797"/>
      <use xlink:href="#DejaVuSerif-67" x="136.230469"/>
      <use xlink:href="#DejaVuSerif-72" x="200.244141"/>
      <use xlink:href="#DejaVuSerif-65" x="248.046875"/>
      <use xlink:href="#DejaVuSerif-67" x="307.226562"/>
      <use xlink:href="#DejaVuSerif-61" x="371.240234"/>
      <use xlink:href="#DejaVuSerif-74" x="430.859375"/>
      <use xlink:href="#DejaVuSerif-65" x="471.044922"/>
      <use xlink:href="#DejaVuSerif-20" x="530.224609"/>
      <use xlink:href="#DejaVuSerif-4f" x="562.011719"/>
      <use xlink:href="#DejaVuSerif-76" x="643.994141"/>
      <use xlink:href="#DejaVuSerif-65" x="700.488281"/>
      <use xlink:href="#DejaVuSerif-72" x="759.667969"/>
      <use xlink:href="#DejaVuSerif-68" x="807.470703"/>
      <use xlink:href="#DejaVuSerif-65" x="871.875"/>
      <use xlink:href="#DejaVuSerif-61" x="931.054688"/>
      <use xlink:href="#DejaVuSerif-64" x="990.673828"/>
      <use xlink:href="#DejaVuSerif-20" x="1054.6875"/>
      <use xlink:href="#DejaVuSerif-43" x="1086.474609"/>
      <use xlink:href="#DejaVuSerif-6f" x="1162.988281"/>
      <use xlink:href="#DejaVuSerif-73" x="1223.193359"/>
      <use xlink:href="#DejaVuSerif-74" x="1274.511719"/>
     </g>
    </g>
    <g id="text_12">
     <!-- $\times\mathdefault{10^{3}}\mathdefault{}$ -->
     <g transform="translate(54.43 21.704) scale(0.2 -0.2)">
      <defs>
       <path id="DejaVuSans-d7" d="M 4488 3438 
L 3059 2003 
L 4488 575 
L 4116 197 
L 2681 1631 
L 1247 197 
L 878 575 
L 2303 2003 
L 878 3438 
L 1247 3816 
L 2681 2381 
L 4116 3816 
L 4488 3438 
z
" transform="scale(0.015625)"/>
      </defs>
      <use xlink:href="#DejaVuSans-d7" transform="translate(0 0.7125)"/>
      <use xlink:href="#DejaVuSerif-31" transform="translate(83.789062 0.7125)"/>
      <use xlink:href="#DejaVuSerif-30" transform="translate(147.412109 0.7125)"/>
      <use xlink:href="#DejaVuSerif-33" transform="translate(211.943516 37.046875) scale(0.7)"/>
     </g>
    </g>
   </g>
   <g id="line2d_19">
    <path d="M 74.637727 337.795207 
L 88.574091 327.966867 
L 102.510455 298.489913 
L 116.446818 298.482923 
L 130.383182 288.649731 
L 144.319545 277.639508 
L 158.255909 267.80848 
L 172.192273 259.1515 
L 186.128636 257.972074 
L 200.065 248.142659 
L 214.001364 237.128659 
L 227.937727 238.279469 
L 241.874091 226.108207 
L 255.810455 216.278792 
L 269.746818 216.275028 
L 283.683182 216.268575 
L 297.619545 216.262123 
L 311.555909 205.249736 
L 325.492273 205.241671 
L 339.428636 205.230378 
L 353.365 205.231454 
L 367.301364 195.148775 
L 381.237727 195.139097 
L 395.174091 185.232251 
L 409.110455 184.23963 
L 423.046818 184.231564 
L 436.983182 184.226725 
L 450.919545 184.189623 
L 464.855909 184.184783 
L 478.792273 184.142842 
" clip-path="url(#p327626d3d9)" style="fill: none; stroke: #646464; stroke-width: 5; stroke-linecap: square"/>
    <defs>
     <path id="m895fa28d59" d="M 0 8.5 
C 2.254226 8.5 4.416429 7.604386 6.010408 6.010408 
C 7.604386 4.416429 8.5 2.254226 8.5 0 
C 8.5 -2.254226 7.604386 -4.416429 6.010408 -6.010408 
C 4.416429 -7.604386 2.254226 -8.5 0 -8.5 
C -2.254226 -8.5 -4.416429 -7.604386 -6.010408 -6.010408 
C -7.604386 -4.416429 -8.5 -2.254226 -8.5 0 
C -8.5 2.254226 -7.604386 4.416429 -6.010408 6.010408 
C -4.416429 7.604386 -2.254226 8.5 0 8.5 
z
" style="stroke: #646464; stroke-width: 4"/>
    </defs>
    <g clip-path="url(#p327626d3d9)">
     <use xlink:href="#m895fa28d59" x="74.637727" y="337.795207" style="fill-opacity: 0; stroke: #646464; stroke-width: 4"/>
     <use xlink:href="#m895fa28d59" x="214.001364" y="237.128659" style="fill-opacity: 0; stroke: #646464; stroke-width: 4"/>
     <use xlink:href="#m895fa28d59" x="353.365" y="205.231454" style="fill-opacity: 0; stroke: #646464; stroke-width: 4"/>
    </g>
   </g>
   <g id="line2d_20">
    <path d="M 74.637727 337.795207 
L 88.574091 327.966867 
L 102.510455 298.489913 
L 116.446818 298.482923 
L 130.383182 287.470536 
L 144.319545 277.639508 
L 158.255909 267.80848 
L 172.192273 257.98014 
L 186.128636 257.972074 
L 200.065 248.142659 
L 214.001364 237.128659 
L 227.937727 237.122207 
L 241.874091 226.108207 
L 255.810455 216.278792 
L 269.746818 216.275028 
L 283.683182 216.268575 
L 297.619545 216.262123 
L 311.555909 195.420321 
L 325.492273 195.388058 
L 339.428636 195.371927 
L 353.365 195.358484 
L 367.301364 184.315448 
L 381.237727 184.305769 
L 395.174091 173.341778 
L 409.110455 173.309514 
L 423.046818 163.384923 
L 436.983182 153.439362 
L 450.919545 153.40226 
L 464.855909 153.378062 
L 478.792273 153.34096 
" clip-path="url(#p327626d3d9)" style="fill: none; stroke: #ee0000; stroke-width: 5; stroke-linecap: square"/>
    <defs>
     <path id="mbf37e7380f" d="M -0 8.5 
L 8.5 -8.5 
L -8.5 -8.5 
z
" style="stroke: #ee0000; stroke-width: 4; stroke-linejoin: miter"/>
    </defs>
    <g clip-path="url(#p327626d3d9)">
     <use xlink:href="#mbf37e7380f" x="74.637727" y="337.795207" style="fill-opacity: 0; stroke: #ee0000; stroke-width: 4; stroke-linejoin: miter"/>
     <use xlink:href="#mbf37e7380f" x="214.001364" y="237.128659" style="fill-opacity: 0; stroke: #ee0000; stroke-width: 4; stroke-linejoin: miter"/>
     <use xlink:href="#mbf37e7380f" x="353.365" y="195.358484" style="fill-opacity: 0; stroke: #ee0000; stroke-width: 4; stroke-linejoin: miter"/>
    </g>
   </g>
   <g id="line2d_21">
    <path d="M 74.637727 337.737133 
L 88.574091 327.874918 
L 102.510455 298.368927 
L 116.446818 298.299025 
L 130.383182 298.25063 
L 144.319545 288.361529 
L 158.255909 278.472427 
L 172.192273 268.610211 
L 186.128636 268.529554 
L 200.065 258.656584 
L 214.001364 258.592059 
L 227.937727 258.527533 
L 241.874091 258.463007 
L 255.810455 258.414613 
L 269.746818 258.376973 
L 283.683182 258.312447 
L 297.619545 258.247921 
L 311.555909 258.199527 
L 325.492273 258.11887 
L 339.428636 258.054344 
L 353.365 258.016704 
L 367.301364 248.127603 
L 381.237727 248.079209 
L 395.174091 248.030814 
L 409.110455 247.950157 
L 423.046818 247.917894 
L 436.983182 247.8695 
L 450.919545 247.788843 
L 464.855909 247.740449 
L 478.792273 247.659792 
" clip-path="url(#p327626d3d9)" style="fill: none; stroke: #6e8ee6; stroke-width: 5; stroke-linecap: square"/>
    <defs>
     <path id="m101888ca3a" d="M 0 -8.5 
L -7.361216 -4.25 
L -7.361216 4.25 
L -0 8.5 
L 7.361216 4.25 
L 7.361216 -4.25 
z
" style="stroke: #6e8ee6; stroke-width: 4; stroke-linejoin: miter"/>
    </defs>
    <g clip-path="url(#p327626d3d9)">
     <use xlink:href="#m101888ca3a" x="74.637727" y="337.737133" style="fill-opacity: 0; stroke: #6e8ee6; stroke-width: 4; stroke-linejoin: miter"/>
     <use xlink:href="#m101888ca3a" x="214.001364" y="258.592059" style="fill-opacity: 0; stroke: #6e8ee6; stroke-width: 4; stroke-linejoin: miter"/>
     <use xlink:href="#m101888ca3a" x="353.365" y="258.016704" style="fill-opacity: 0; stroke: #6e8ee6; stroke-width: 4; stroke-linejoin: miter"/>
    </g>
   </g>
   <g id="line2d_22">
    <path d="M 74.637727 337.795207 
L 88.574091 327.966867 
L 102.510455 298.489913 
L 116.446818 298.482923 
L 130.383182 298.478083 
L 144.319545 288.647055 
L 158.255909 278.816027 
L 172.192273 268.987687 
L 186.128636 268.979621 
L 200.065 259.150206 
L 214.001364 259.143753 
L 227.937727 259.137301 
L 241.874091 259.130848 
L 255.810455 259.126009 
L 269.746818 259.122245 
L 283.683182 259.117405 
L 297.619545 259.114179 
L 311.555909 259.10934 
L 325.492273 259.106113 
L 339.428636 259.102887 
L 353.365 259.102349 
L 367.301364 259.102349 
L 381.237727 259.102349 
L 395.174091 259.102349 
L 409.110455 259.100736 
L 423.046818 259.100736 
L 436.983182 259.099123 
L 450.919545 259.09751 
L 464.855909 259.095897 
L 478.792273 259.094284 
" clip-path="url(#p327626d3d9)" style="fill: none; stroke: #21cd7d; stroke-width: 5; stroke-linecap: square"/>
    <defs>
     <path id="m36609bb287" d="M 0 -8.5 
L -8.5 8.5 
L 8.5 8.5 
z
" style="stroke: #21cd7d; stroke-width: 4; stroke-linejoin: miter"/>
    </defs>
    <g clip-path="url(#p327626d3d9)">
     <use xlink:href="#m36609bb287" x="74.637727" y="337.795207" style="fill-opacity: 0; stroke: #21cd7d; stroke-width: 4; stroke-linejoin: miter"/>
     <use xlink:href="#m36609bb287" x="214.001364" y="259.143753" style="fill-opacity: 0; stroke: #21cd7d; stroke-width: 4; stroke-linejoin: miter"/>
     <use xlink:href="#m36609bb287" x="353.365" y="259.102349" style="fill-opacity: 0; stroke: #21cd7d; stroke-width: 4; stroke-linejoin: miter"/>
    </g>
   </g>
   <g id="line2d_23">
    <path d="M 74.637727 337.795207 
L 88.574091 327.966867 
L 102.510455 298.489913 
L 116.446818 298.482923 
L 130.383182 288.649731 
L 144.319545 278.816371 
L 158.255909 268.982727 
L 172.192273 259.1515 
L 186.128636 259.145048 
L 200.065 249.318859 
L 214.001364 249.318859 
L 227.937727 249.312481 
L 241.874091 249.310868 
L 255.810455 249.309255 
L 269.746818 249.309255 
L 283.683182 249.307642 
L 297.619545 249.306029 
L 311.555909 239.465409 
L 325.492273 239.462183 
L 339.428636 239.453484 
L 353.365 239.453484 
L 367.301364 239.443011 
L 381.237727 239.441398 
L 395.174091 229.604397 
L 409.110455 229.602784 
L 423.046818 229.602784 
L 436.983182 229.602784 
L 450.919545 229.602784 
L 464.855909 229.602784 
L 478.792273 229.602784 
" clip-path="url(#p327626d3d9)" style="fill: none; stroke: #00ff00; stroke-width: 5; stroke-linecap: square"/>
    <defs>
     <path id="md4fa1c9628" d="M 0 12.020815 
L 12.020815 0 
L 0 -12.020815 
L -12.020815 0 
z
" style="stroke: #00ff00; stroke-width: 4; stroke-linejoin: miter"/>
    </defs>
    <g clip-path="url(#p327626d3d9)">
     <use xlink:href="#md4fa1c9628" x="74.637727" y="337.795207" style="fill-opacity: 0; stroke: #00ff00; stroke-width: 4; stroke-linejoin: miter"/>
     <use xlink:href="#md4fa1c9628" x="214.001364" y="249.318859" style="fill-opacity: 0; stroke: #00ff00; stroke-width: 4; stroke-linejoin: miter"/>
     <use xlink:href="#md4fa1c9628" x="353.365" y="239.453484" style="fill-opacity: 0; stroke: #00ff00; stroke-width: 4; stroke-linejoin: miter"/>
    </g>
   </g>
   <g id="line2d_24">
    <path d="M 74.637727 347.617094 
L 88.574091 347.614943 
L 102.510455 347.613867 
L 116.446818 347.613867 
L 130.383182 347.612792 
L 144.319545 347.612792 
L 158.255909 347.612792 
L 172.192273 347.612792 
L 186.128636 347.612792 
L 200.065 347.612792 
L 214.001364 347.612792 
L 227.937727 347.612792 
L 241.874091 347.612792 
L 255.810455 347.612792 
L 269.746818 347.612792 
L 283.683182 347.612792 
L 297.619545 347.612792 
L 311.555909 347.612792 
L 325.492273 347.612792 
L 339.428636 347.612792 
L 353.365 347.612792 
L 367.301364 347.612792 
L 381.237727 347.612792 
L 395.174091 347.612792 
L 409.110455 347.612792 
L 423.046818 347.612792 
L 436.983182 347.612792 
L 450.919545 347.612792 
L 464.855909 347.612792 
L 478.792273 347.612792 
" clip-path="url(#p327626d3d9)" style="fill: none; stroke-dasharray: 18.5,8; stroke-dashoffset: 0; stroke: #eeee00; stroke-width: 5"/>
    <defs>
     <path id="meb3f767e6d" d="M 8.5 0 
L -8.5 -8.5 
L -8.5 8.5 
z
" style="stroke: #eeee00; stroke-width: 4; stroke-linejoin: miter"/>
    </defs>
    <g clip-path="url(#p327626d3d9)">
     <use xlink:href="#meb3f767e6d" x="74.637727" y="347.617094" style="fill-opacity: 0; stroke: #eeee00; stroke-width: 4; stroke-linejoin: miter"/>
     <use xlink:href="#meb3f767e6d" x="214.001364" y="347.612792" style="fill-opacity: 0; stroke: #eeee00; stroke-width: 4; stroke-linejoin: miter"/>
     <use xlink:href="#meb3f767e6d" x="353.365" y="347.612792" style="fill-opacity: 0; stroke: #eeee00; stroke-width: 4; stroke-linejoin: miter"/>
    </g>
   </g>
   <g id="line2d_25">
    <path d="M 74.637727 353.541091 
L 88.574091 353.541091 
L 102.510455 353.541091 
L 116.446818 353.541091 
L 130.383182 353.541091 
L 144.319545 353.541091 
L 158.255909 353.541091 
L 172.192273 353.541091 
L 186.128636 353.541091 
L 200.065 353.541091 
L 214.001364 353.541091 
L 227.937727 353.541091 
L 241.874091 353.541091 
L 255.810455 353.541091 
L 269.746818 353.541091 
L 283.683182 353.541091 
L 297.619545 353.541091 
L 311.555909 353.541091 
L 325.492273 353.541091 
L 339.428636 353.541091 
L 353.365 353.541091 
L 367.301364 353.541091 
L 381.237727 353.541091 
L 395.174091 353.541091 
L 409.110455 353.541091 
L 423.046818 353.541091 
L 436.983182 353.541091 
L 450.919545 353.541091 
L 464.855909 353.541091 
L 478.792273 353.541091 
" clip-path="url(#p327626d3d9)" style="fill: none; stroke-dasharray: 18.5,8; stroke-dashoffset: 0; stroke: #00eeee; stroke-width: 5"/>
    <defs>
     <path id="m0e337a62ac" d="M -8.5 -0 
L 8.5 8.5 
L 8.5 -8.5 
z
" style="stroke: #00eeee; stroke-width: 4; stroke-linejoin: miter"/>
    </defs>
    <g clip-path="url(#p327626d3d9)">
     <use xlink:href="#m0e337a62ac" x="74.637727" y="353.541091" style="fill-opacity: 0; stroke: #00eeee; stroke-width: 4; stroke-linejoin: miter"/>
     <use xlink:href="#m0e337a62ac" x="214.001364" y="353.541091" style="fill-opacity: 0; stroke: #00eeee; stroke-width: 4; stroke-linejoin: miter"/>
     <use xlink:href="#m0e337a62ac" x="353.365" y="353.541091" style="fill-opacity: 0; stroke: #00eeee; stroke-width: 4; stroke-linejoin: miter"/>
    </g>
   </g>
   <g id="patch_3">
    <path d="M 54.43 369.2 
L 54.43 24.704 
" style="fill: none; stroke: #000000; stroke-width: 0.8; stroke-linejoin: miter; stroke-linecap: square"/>
   </g>
   <g id="patch_4">
    <path d="M 499 369.2 
L 499 24.704 
" style="fill: none; stroke: #000000; stroke-width: 0.8; stroke-linejoin: miter; stroke-linecap: square"/>
   </g>
   <g id="patch_5">
    <path d="M 54.43 369.2 
L 499 369.2 
" style="fill: none; stroke: #000000; stroke-width: 0.8; stroke-linejoin: miter; stroke-linecap: square"/>
   </g>
   <g id="patch_6">
    <path d="M 54.43 24.704 
L 499 24.704 
" style="fill: none; stroke: #000000; stroke-width: 0.8; stroke-linejoin: miter; stroke-linecap: square"/>
   </g>
   <g id="legend_1">
    <g id="patch_7">
     <path d="M 67.03 224.048375 
L 202.460313 224.048375 
Q 206.060313 224.048375 206.060313 220.448375 
L 206.060313 37.304 
Q 206.060313 33.704 202.460313 33.704 
L 67.03 33.704 
Q 63.43 33.704 63.43 37.304 
L 63.43 220.448375 
Q 63.43 224.048375 67.03 224.048375 
z
" style="fill: #ffffff; opacity: 0.8; stroke: #cccccc; stroke-linejoin: miter"/>
    </g>
    <g id="line2d_26">
     <path d="M 70.63 48.281188 
L 106.63 48.281188 
" style="fill: none; stroke: #646464; stroke-width: 5; stroke-linecap: square"/>
    </g>
    <g id="line2d_27">
     <g>
      <use xlink:href="#m895fa28d59" x="88.63" y="48.281188" style="fill-opacity: 0; stroke: #646464; stroke-width: 4"/>
     </g>
    </g>
    <g id="text_13">
     <!-- 5Guard -->
     <g transform="translate(121.03 54.581187) scale(0.18 -0.18)">
      <defs>
       <path id="DejaVuSerif-47" d="M 4097 3272 
Q 3988 3856 3641 4136 
Q 3294 4416 2675 4416 
Q 1869 4416 1472 3897 
Q 1075 3378 1075 2328 
Q 1075 1300 1484 772 
Q 1894 244 2688 244 
Q 3041 244 3362 331 
Q 3684 419 3975 594 
L 3975 1797 
L 3097 1797 
L 3097 2131 
L 4609 2131 
L 4609 391 
Q 4194 150 3714 29 
Q 3234 -91 2688 -91 
Q 1631 -91 995 570 
Q 359 1231 359 2328 
Q 359 3434 996 4092 
Q 1634 4750 2713 4750 
Q 3113 4750 3539 4658 
Q 3966 4566 4447 4378 
L 4447 3272 
L 4097 3272 
z
" transform="scale(0.015625)"/>
       <path id="DejaVuSerif-75" d="M 2266 3322 
L 3341 3322 
L 3341 331 
L 3884 331 
L 3884 0 
L 2766 0 
L 2766 588 
Q 2606 256 2353 82 
Q 2100 -91 1766 -91 
Q 1213 -91 952 223 
Q 691 538 691 1209 
L 691 2988 
L 172 2988 
L 172 3322 
L 1269 3322 
L 1269 1388 
Q 1269 781 1417 556 
Q 1566 331 1947 331 
Q 2347 331 2556 625 
Q 2766 919 2766 1478 
L 2766 2988 
L 2266 2988 
L 2266 3322 
z
" transform="scale(0.015625)"/>
      </defs>
      <use xlink:href="#DejaVuSerif-35"/>
      <use xlink:href="#DejaVuSerif-47" x="63.623047"/>
      <use xlink:href="#DejaVuSerif-75" x="143.505859"/>
      <use xlink:href="#DejaVuSerif-61" x="207.910156"/>
      <use xlink:href="#DejaVuSerif-72" x="267.529297"/>
      <use xlink:href="#DejaVuSerif-64" x="315.332031"/>
     </g>
    </g>
    <g id="line2d_28">
     <path d="M 70.63 74.701813 
L 106.63 74.701813 
" style="fill: none; stroke: #ee0000; stroke-width: 5; stroke-linecap: square"/>
    </g>
    <g id="line2d_29">
     <g>
      <use xlink:href="#mbf37e7380f" x="88.63" y="74.701813" style="fill-opacity: 0; stroke: #ee0000; stroke-width: 4; stroke-linejoin: miter"/>
     </g>
    </g>
    <g id="text_14">
     <!-- OPT -->
     <g transform="translate(121.03 81.001813) scale(0.18 -0.18)">
      <defs>
       <path id="DejaVuSerif-50" d="M 1581 2375 
L 2406 2375 
Q 2872 2375 3115 2626 
Q 3359 2878 3359 3353 
Q 3359 3831 3115 4081 
Q 2872 4331 2406 4331 
L 1581 4331 
L 1581 2375 
z
M 353 0 
L 353 331 
L 947 331 
L 947 4331 
L 353 4331 
L 353 4666 
L 2559 4666 
Q 3259 4666 3668 4311 
Q 4078 3956 4078 3353 
Q 4078 2753 3668 2397 
Q 3259 2041 2559 2041 
L 1581 2041 
L 1581 331 
L 2303 331 
L 2303 0 
L 353 0 
z
" transform="scale(0.015625)"/>
       <path id="DejaVuSerif-54" d="M 1222 0 
L 1222 331 
L 1819 331 
L 1819 4294 
L 447 4294 
L 447 3566 
L 63 3566 
L 63 4666 
L 4206 4666 
L 4206 3566 
L 3822 3566 
L 3822 4294 
L 2450 4294 
L 2450 331 
L 3047 331 
L 3047 0 
L 1222 0 
z
" transform="scale(0.015625)"/>
      </defs>
      <use xlink:href="#DejaVuSerif-4f"/>
      <use xlink:href="#DejaVuSerif-50" x="81.982422"/>
      <use xlink:href="#DejaVuSerif-54" x="149.267578"/>
     </g>
    </g>
    <g id="line2d_30">
     <path d="M 70.63 101.122438 
L 106.63 101.122438 
" style="fill: none; stroke: #6e8ee6; stroke-width: 5; stroke-linecap: square"/>
    </g>
    <g id="line2d_31">
     <g>
      <use xlink:href="#m101888ca3a" x="88.63" y="101.122438" style="fill-opacity: 0; stroke: #6e8ee6; stroke-width: 4; stroke-linejoin: miter"/>
     </g>
    </g>
    <g id="text_15">
     <!-- IAR -->
     <g transform="translate(121.03 107.422438) scale(0.18 -0.18)">
      <defs>
       <path id="DejaVuSerif-49" d="M 1581 331 
L 2175 331 
L 2175 0 
L 353 0 
L 353 331 
L 947 331 
L 947 4331 
L 353 4331 
L 353 4666 
L 2175 4666 
L 2175 4331 
L 1581 4331 
L 1581 331 
z
" transform="scale(0.015625)"/>
       <path id="DejaVuSerif-52" d="M 3066 2316 
Q 3284 2256 3442 2114 
Q 3600 1972 3725 1716 
L 4403 331 
L 4972 331 
L 4972 0 
L 3872 0 
L 3144 1484 
Q 2934 1916 2759 2042 
Q 2584 2169 2278 2169 
L 1581 2169 
L 1581 331 
L 2241 331 
L 2241 0 
L 353 0 
L 353 331 
L 947 331 
L 947 4331 
L 353 4331 
L 353 4666 
L 2719 4666 
Q 3400 4666 3770 4341 
Q 4141 4016 4141 3419 
Q 4141 2938 3870 2661 
Q 3600 2384 3066 2316 
z
M 1581 2503 
L 2503 2503 
Q 2975 2503 3200 2726 
Q 3425 2950 3425 3419 
Q 3425 3888 3200 4109 
Q 2975 4331 2503 4331 
L 1581 4331 
L 1581 2503 
z
" transform="scale(0.015625)"/>
      </defs>
      <use xlink:href="#DejaVuSerif-49"/>
      <use xlink:href="#DejaVuSerif-41" x="39.501953"/>
      <use xlink:href="#DejaVuSerif-52" x="111.71875"/>
     </g>
    </g>
    <g id="line2d_32">
     <path d="M 70.63 127.543062 
L 106.63 127.543062 
" style="fill: none; stroke: #21cd7d; stroke-width: 5; stroke-linecap: square"/>
    </g>
    <g id="line2d_33">
     <g>
      <use xlink:href="#m36609bb287" x="88.63" y="127.543062" style="fill-opacity: 0; stroke: #21cd7d; stroke-width: 4; stroke-linejoin: miter"/>
     </g>
    </g>
    <g id="text_16">
     <!-- DTR -->
     <g transform="translate(121.03 133.843062) scale(0.18 -0.18)">
      <defs>
       <path id="DejaVuSerif-44" d="M 1581 331 
L 2163 331 
Q 3072 331 3558 850 
Q 4044 1369 4044 2338 
Q 4044 3306 3559 3818 
Q 3075 4331 2163 4331 
L 1581 4331 
L 1581 331 
z
M 353 0 
L 353 331 
L 947 331 
L 947 4331 
L 353 4331 
L 353 4666 
L 2209 4666 
Q 3416 4666 4089 4050 
Q 4763 3434 4763 2338 
Q 4763 1238 4088 619 
Q 3413 0 2209 0 
L 353 0 
z
" transform="scale(0.015625)"/>
      </defs>
      <use xlink:href="#DejaVuSerif-44"/>
      <use xlink:href="#DejaVuSerif-54" x="80.175781"/>
      <use xlink:href="#DejaVuSerif-52" x="146.875"/>
     </g>
    </g>
    <g id="line2d_34">
     <path d="M 70.63 153.963687 
L 106.63 153.963687 
" style="fill: none; stroke: #00ff00; stroke-width: 5; stroke-linecap: square"/>
    </g>
    <g id="line2d_35">
     <g>
      <use xlink:href="#md4fa1c9628" x="88.63" y="153.963687" style="fill-opacity: 0; stroke: #00ff00; stroke-width: 4; stroke-linejoin: miter"/>
     </g>
    </g>
    <g id="text_17">
     <!-- RNR -->
     <g transform="translate(121.03 160.263688) scale(0.18 -0.18)">
      <defs>
       <path id="DejaVuSerif-4e" d="M 313 0 
L 313 331 
L 941 331 
L 941 4331 
L 313 4331 
L 313 4666 
L 1509 4666 
L 4306 984 
L 4306 4331 
L 3681 4331 
L 3681 4666 
L 5319 4666 
L 5319 4331 
L 4691 4331 
L 4691 -91 
L 4313 -91 
L 1325 3841 
L 1325 331 
L 1953 331 
L 1953 0 
L 313 0 
z
" transform="scale(0.015625)"/>
      </defs>
      <use xlink:href="#DejaVuSerif-52"/>
      <use xlink:href="#DejaVuSerif-4e" x="75.292969"/>
      <use xlink:href="#DejaVuSerif-52" x="162.792969"/>
     </g>
    </g>
    <g id="line2d_36">
     <path d="M 70.63 180.384312 
L 106.63 180.384312 
" style="fill: none; stroke-dasharray: 18.5,8; stroke-dashoffset: 0; stroke: #eeee00; stroke-width: 5"/>
    </g>
    <g id="line2d_37">
     <g>
      <use xlink:href="#meb3f767e6d" x="88.63" y="180.384312" style="fill-opacity: 0; stroke: #eeee00; stroke-width: 4; stroke-linejoin: miter"/>
     </g>
    </g>
    <g id="text_18">
     <!-- OPT-NIS -->
     <g transform="translate(121.03 186.684312) scale(0.18 -0.18)">
      <defs>
       <path id="DejaVuSerif-2d" d="M 281 1959 
L 1881 1959 
L 1881 1472 
L 281 1472 
L 281 1959 
z
" transform="scale(0.015625)"/>
       <path id="DejaVuSerif-53" d="M 594 225 
L 594 1288 
L 953 1284 
Q 969 753 1261 498 
Q 1553 244 2150 244 
Q 2706 244 2998 464 
Q 3291 684 3291 1106 
Q 3291 1444 3114 1625 
Q 2938 1806 2369 1978 
L 1753 2163 
Q 1084 2366 811 2669 
Q 538 2972 538 3500 
Q 538 4094 959 4422 
Q 1381 4750 2144 4750 
Q 2469 4750 2856 4679 
Q 3244 4609 3681 4475 
L 3681 3481 
L 3328 3481 
Q 3275 3975 2998 4195 
Q 2722 4416 2156 4416 
Q 1663 4416 1405 4214 
Q 1147 4013 1147 3628 
Q 1147 3294 1340 3103 
Q 1534 2913 2163 2725 
L 2741 2553 
Q 3375 2363 3645 2067 
Q 3916 1772 3916 1275 
Q 3916 597 3481 253 
Q 3047 -91 2188 -91 
Q 1803 -91 1404 -12 
Q 1006 66 594 225 
z
" transform="scale(0.015625)"/>
      </defs>
      <use xlink:href="#DejaVuSerif-4f"/>
      <use xlink:href="#DejaVuSerif-50" x="81.982422"/>
      <use xlink:href="#DejaVuSerif-54" x="149.267578"/>
      <use xlink:href="#DejaVuSerif-2d" x="203.091797"/>
      <use xlink:href="#DejaVuSerif-4e" x="236.880859"/>
      <use xlink:href="#DejaVuSerif-49" x="324.380859"/>
      <use xlink:href="#DejaVuSerif-53" x="363.882812"/>
     </g>
    </g>
    <g id="line2d_38">
     <path d="M 70.63 206.804937 
L 106.63 206.804937 
" style="fill: none; stroke-dasharray: 18.5,8; stroke-dashoffset: 0; stroke: #00eeee; stroke-width: 5"/>
    </g>
    <g id="line2d_39">
     <g>
      <use xlink:href="#m0e337a62ac" x="88.63" y="206.804937" style="fill-opacity: 0; stroke: #00eeee; stroke-width: 4; stroke-linejoin: miter"/>
     </g>
    </g>
    <g id="text_19">
     <!-- OPT-CIS -->
     <g transform="translate(121.03 213.104937) scale(0.18 -0.18)">
      <use xlink:href="#DejaVuSerif-4f"/>
      <use xlink:href="#DejaVuSerif-50" x="81.982422"/>
      <use xlink:href="#DejaVuSerif-54" x="149.267578"/>
      <use xlink:href="#DejaVuSerif-2d" x="203.091797"/>
      <use xlink:href="#DejaVuSerif-43" x="236.880859"/>
      <use xlink:href="#DejaVuSerif-49" x="313.394531"/>
      <use xlink:href="#DejaVuSerif-53" x="352.896484"/>
     </g>
    </g>
   </g>
  </g>
 </g>
 <defs>
  <clipPath id="p327626d3d9">
   <rect x="54.43" y="24.704" width="444.57" height="344.496"/>
  </clipPath>
 </defs>
</svg>
