<?xml version="1.0" encoding="utf-8" standalone="no"?>
<!DOCTYPE svg PUBLIC "-//W3C//DTD SVG 1.1//EN"
  "http://www.w3.org/Graphics/SVG/1.1/DTD/svg11.dtd">
<svg xmlns:xlink="http://www.w3.org/1999/xlink" width="432pt" height="432pt" viewBox="0 0 432 432" xmlns="http://www.w3.org/2000/svg" version="1.1">
 <metadata>
  <rdf:RDF xmlns:dc="http://purl.org/dc/elements/1.1/" xmlns:cc="http://creativecommons.org/ns#" xmlns:rdf="http://www.w3.org/1999/02/22-rdf-syntax-ns#">
   <cc:Work>
    <dc:type rdf:resource="http://purl.org/dc/dcmitype/StillImage"/>
    <dc:date>2025-03-26T11:06:49.269947</dc:date>
    <dc:format>image/svg+xml</dc:format>
    <dc:creator>
     <cc:Agent>
      <dc:title>Matplotlib v3.8.0, https://matplotlib.org/</dc:title>
     </cc:Agent>
    </dc:creator>
   </cc:Work>
  </rdf:RDF>
 </metadata>
 <defs>
  <style type="text/css">*{stroke-linejoin: round; stroke-linecap: butt}</style>
 </defs>
 <g id="figure_1">
  <g id="patch_1">
   <path d="M 0 432 
L 432 432 
L 432 0 
L 0 0 
z
" style="fill: #ffffff"/>
  </g>
  <g id="axes_1">
   <g id="patch_2">
    <path d="M 67.425475 377.12 
L 427 377.12 
L 427 24.704 
L 67.425475 24.704 
z
" style="fill: #ffffff"/>
   </g>
   <g id="matplotlib.axis_1">
    <g id="xtick_1">
     <g id="line2d_1">
      <path d="M 83.769771 377.12 
L 83.769771 24.704 
" clip-path="url(#pfc39027e80)" style="fill: none; stroke: #b0b0b0; stroke-width: 0.8; stroke-linecap: square"/>
     </g>
     <g id="line2d_2">
      <defs>
       <path id="m89c9c07385" d="M 0 0 
L 0 3.5 
" style="stroke: #000000; stroke-width: 0.8"/>
      </defs>
      <g>
       <use xlink:href="#m89c9c07385" x="83.769771" y="377.12" style="stroke: #000000; stroke-width: 0.8"/>
      </g>
     </g>
     <g id="text_1">
      <!-- 0 -->
      <g transform="translate(77.407271 399.316875) scale(0.2 -0.2)">
       <defs>
        <path id="DejaVuSerif-30" d="M 2034 219 
Q 2513 219 2750 744 
Q 2988 1269 2988 2328 
Q 2988 3391 2750 3916 
Q 2513 4441 2034 4441 
Q 1556 4441 1318 3916 
Q 1081 3391 1081 2328 
Q 1081 1269 1318 744 
Q 1556 219 2034 219 
z
M 2034 -91 
Q 1275 -91 848 546 
Q 422 1184 422 2328 
Q 422 3475 848 4112 
Q 1275 4750 2034 4750 
Q 2797 4750 3222 4112 
Q 3647 3475 3647 2328 
Q 3647 1184 3222 546 
Q 2797 -91 2034 -91 
z
" transform="scale(0.015625)"/>
       </defs>
       <use xlink:href="#DejaVuSerif-30"/>
      </g>
     </g>
    </g>
    <g id="text_2">
     <!-- $\it{t}$ -->
     <g transform="translate(243.212737 422.673125) scale(0.2 -0.2)">
      <defs>
       <path id="DejaVuSans-Oblique-74" d="M 2706 3500 
L 2619 3053 
L 1472 3053 
L 1100 1153 
Q 1081 1047 1072 975 
Q 1063 903 1063 863 
Q 1063 663 1183 572 
Q 1303 481 1569 481 
L 2150 481 
L 2053 0 
L 1503 0 
Q 991 0 739 200 
Q 488 400 488 806 
Q 488 878 497 964 
Q 506 1050 525 1153 
L 897 3053 
L 409 3053 
L 500 3500 
L 978 3500 
L 1172 4494 
L 1747 4494 
L 1556 3500 
L 2706 3500 
z
" transform="scale(0.015625)"/>
      </defs>
      <use xlink:href="#DejaVuSans-Oblique-74" transform="translate(0 0.78125)"/>
     </g>
    </g>
   </g>
   <g id="matplotlib.axis_2">
    <g id="ytick_1">
     <g id="line2d_3">
      <path d="M 67.425475 361.023519 
L 427 361.023519 
" clip-path="url(#pfc39027e80)" style="fill: none; stroke: #b0b0b0; stroke-width: 0.8; stroke-linecap: square"/>
     </g>
     <g id="line2d_4">
      <defs>
       <path id="m3b65e06441" d="M 0 0 
L -3.5 0 
" style="stroke: #000000; stroke-width: 0.8"/>
      </defs>
      <g>
       <use xlink:href="#m3b65e06441" x="67.425475" y="361.023519" style="stroke: #000000; stroke-width: 0.8"/>
      </g>
     </g>
     <g id="text_3">
      <!-- $\mathdefault{0.0}$ -->
      <g transform="translate(28.425475 368.621957) scale(0.2 -0.2)">
       <defs>
        <path id="DejaVuSerif-2e" d="M 603 325 
Q 603 500 722 622 
Q 841 744 1019 744 
Q 1191 744 1312 622 
Q 1434 500 1434 325 
Q 1434 153 1312 31 
Q 1191 -91 1019 -91 
Q 841 -91 722 29 
Q 603 150 603 325 
z
" transform="scale(0.015625)"/>
       </defs>
       <use xlink:href="#DejaVuSerif-30" transform="translate(0 0.78125)"/>
       <use xlink:href="#DejaVuSerif-2e" transform="translate(63.623047 0.78125)"/>
       <use xlink:href="#DejaVuSerif-30" transform="translate(95.410156 0.78125)"/>
      </g>
     </g>
    </g>
    <g id="ytick_2">
     <g id="line2d_5">
      <path d="M 67.425475 276.79849 
L 427 276.79849 
" clip-path="url(#pfc39027e80)" style="fill: none; stroke: #b0b0b0; stroke-width: 0.8; stroke-linecap: square"/>
     </g>
     <g id="line2d_6">
      <g>
       <use xlink:href="#m3b65e06441" x="67.425475" y="276.79849" style="stroke: #000000; stroke-width: 0.8"/>
      </g>
     </g>
     <g id="text_4">
      <!-- $\mathdefault{0.5}$ -->
      <g transform="translate(28.425475 284.396928) scale(0.2 -0.2)">
       <defs>
        <path id="DejaVuSerif-35" d="M 3219 4666 
L 3219 4153 
L 1081 4153 
L 1081 2816 
Q 1244 2928 1461 2984 
Q 1678 3041 1947 3041 
Q 2703 3041 3140 2622 
Q 3578 2203 3578 1478 
Q 3578 738 3136 323 
Q 2694 -91 1894 -91 
Q 1572 -91 1234 -12 
Q 897 66 544 225 
L 544 1131 
L 897 1131 
Q 925 688 1179 453 
Q 1434 219 1894 219 
Q 2388 219 2653 544 
Q 2919 869 2919 1478 
Q 2919 2084 2655 2407 
Q 2391 2731 1894 2731 
Q 1613 2731 1398 2631 
Q 1184 2531 1019 2322 
L 750 2322 
L 750 4666 
L 3219 4666 
z
" transform="scale(0.015625)"/>
       </defs>
       <use xlink:href="#DejaVuSerif-30" transform="translate(0 0.78125)"/>
       <use xlink:href="#DejaVuSerif-2e" transform="translate(63.623047 0.78125)"/>
       <use xlink:href="#DejaVuSerif-35" transform="translate(95.410156 0.78125)"/>
      </g>
     </g>
    </g>
    <g id="ytick_3">
     <g id="line2d_7">
      <path d="M 67.425475 192.573461 
L 427 192.573461 
" clip-path="url(#pfc39027e80)" style="fill: none; stroke: #b0b0b0; stroke-width: 0.8; stroke-linecap: square"/>
     </g>
     <g id="line2d_8">
      <g>
       <use xlink:href="#m3b65e06441" x="67.425475" y="192.573461" style="stroke: #000000; stroke-width: 0.8"/>
      </g>
     </g>
     <g id="text_5">
      <!-- $\mathdefault{1.0}$ -->
      <g transform="translate(28.425475 200.171899) scale(0.2 -0.2)">
       <defs>
        <path id="DejaVuSerif-31" d="M 909 0 
L 909 331 
L 1722 331 
L 1722 4213 
L 781 3603 
L 781 4013 
L 1919 4750 
L 2350 4750 
L 2350 331 
L 3163 331 
L 3163 0 
L 909 0 
z
" transform="scale(0.015625)"/>
       </defs>
       <use xlink:href="#DejaVuSerif-31" transform="translate(0 0.78125)"/>
       <use xlink:href="#DejaVuSerif-2e" transform="translate(63.623047 0.78125)"/>
       <use xlink:href="#DejaVuSerif-30" transform="translate(95.410156 0.78125)"/>
      </g>
     </g>
    </g>
    <g id="ytick_4">
     <g id="line2d_9">
      <path d="M 67.425475 108.348432 
L 427 108.348432 
" clip-path="url(#pfc39027e80)" style="fill: none; stroke: #b0b0b0; stroke-width: 0.8; stroke-linecap: square"/>
     </g>
     <g id="line2d_10">
      <g>
       <use xlink:href="#m3b65e06441" x="67.425475" y="108.348432" style="stroke: #000000; stroke-width: 0.8"/>
      </g>
     </g>
     <g id="text_6">
      <!-- $\mathdefault{1.5}$ -->
      <g transform="translate(28.425475 115.946869) scale(0.2 -0.2)">
       <use xlink:href="#DejaVuSerif-31" transform="translate(0 0.78125)"/>
       <use xlink:href="#DejaVuSerif-2e" transform="translate(63.623047 0.78125)"/>
       <use xlink:href="#DejaVuSerif-35" transform="translate(95.410156 0.78125)"/>
      </g>
     </g>
    </g>
    <g id="text_7">
     <!-- Profit -->
     <g transform="translate(20.2661 229.358875) rotate(-90) scale(0.2 -0.2)">
      <defs>
       <path id="DejaVuSerif-50" d="M 1581 2375 
L 2406 2375 
Q 2872 2375 3115 2626 
Q 3359 2878 3359 3353 
Q 3359 3831 3115 4081 
Q 2872 4331 2406 4331 
L 1581 4331 
L 1581 2375 
z
M 353 0 
L 353 331 
L 947 331 
L 947 4331 
L 353 4331 
L 353 4666 
L 2559 4666 
Q 3259 4666 3668 4311 
Q 4078 3956 4078 3353 
Q 4078 2753 3668 2397 
Q 3259 2041 2559 2041 
L 1581 2041 
L 1581 331 
L 2303 331 
L 2303 0 
L 353 0 
z
" transform="scale(0.015625)"/>
       <path id="DejaVuSerif-72" d="M 3059 3328 
L 3059 2497 
L 2728 2497 
Q 2713 2744 2591 2866 
Q 2469 2988 2234 2988 
Q 1809 2988 1582 2694 
Q 1356 2400 1356 1850 
L 1356 331 
L 2022 331 
L 2022 0 
L 263 0 
L 263 331 
L 781 331 
L 781 2994 
L 231 2994 
L 231 3322 
L 1356 3322 
L 1356 2731 
Q 1525 3078 1790 3245 
Q 2056 3413 2438 3413 
Q 2578 3413 2733 3391 
Q 2888 3369 3059 3328 
z
" transform="scale(0.015625)"/>
       <path id="DejaVuSerif-6f" d="M 1925 219 
Q 2388 219 2623 584 
Q 2859 950 2859 1663 
Q 2859 2375 2623 2739 
Q 2388 3103 1925 3103 
Q 1463 3103 1227 2739 
Q 991 2375 991 1663 
Q 991 950 1228 584 
Q 1466 219 1925 219 
z
M 1925 -91 
Q 1200 -91 759 389 
Q 319 869 319 1663 
Q 319 2456 758 2934 
Q 1197 3413 1925 3413 
Q 2653 3413 3092 2934 
Q 3531 2456 3531 1663 
Q 3531 869 3092 389 
Q 2653 -91 1925 -91 
z
" transform="scale(0.015625)"/>
       <path id="DejaVuSerif-66" d="M 2753 4078 
L 2450 4078 
Q 2447 4313 2317 4434 
Q 2188 4556 1941 4556 
Q 1619 4556 1487 4379 
Q 1356 4203 1356 3750 
L 1356 3322 
L 2284 3322 
L 2284 2988 
L 1356 2988 
L 1356 331 
L 2094 331 
L 2094 0 
L 231 0 
L 231 331 
L 781 331 
L 781 2988 
L 231 2988 
L 231 3322 
L 781 3322 
L 781 3738 
Q 781 4294 1070 4578 
Q 1359 4863 1919 4863 
Q 2128 4863 2337 4825 
Q 2547 4788 2753 4709 
L 2753 4078 
z
" transform="scale(0.015625)"/>
       <path id="DejaVuSerif-69" d="M 622 4353 
Q 622 4497 726 4603 
Q 831 4709 978 4709 
Q 1122 4709 1226 4603 
Q 1331 4497 1331 4353 
Q 1331 4206 1228 4103 
Q 1125 4000 978 4000 
Q 831 4000 726 4103 
Q 622 4206 622 4353 
z
M 1356 331 
L 1900 331 
L 1900 0 
L 231 0 
L 231 331 
L 781 331 
L 781 2988 
L 231 2988 
L 231 3322 
L 1356 3322 
L 1356 331 
z
" transform="scale(0.015625)"/>
       <path id="DejaVuSerif-74" d="M 691 2988 
L 184 2988 
L 184 3322 
L 691 3322 
L 691 4353 
L 1269 4353 
L 1269 3322 
L 2350 3322 
L 2350 2988 
L 1269 2988 
L 1269 878 
Q 1269 456 1350 337 
Q 1431 219 1650 219 
Q 1875 219 1978 351 
Q 2081 484 2088 781 
L 2522 781 
Q 2497 328 2275 118 
Q 2053 -91 1600 -91 
Q 1103 -91 897 129 
Q 691 350 691 878 
L 691 2988 
z
" transform="scale(0.015625)"/>
      </defs>
      <use xlink:href="#DejaVuSerif-50"/>
      <use xlink:href="#DejaVuSerif-72" x="67.285156"/>
      <use xlink:href="#DejaVuSerif-6f" x="115.087891"/>
      <use xlink:href="#DejaVuSerif-66" x="175.292969"/>
      <use xlink:href="#DejaVuSerif-69" x="212.304688"/>
      <use xlink:href="#DejaVuSerif-74" x="244.287109"/>
     </g>
    </g>
    <g id="text_8">
     <!-- $\times\mathdefault{10^{4}}\mathdefault{}$ -->
     <g transform="translate(67.425475 21.704) scale(0.2 -0.2)">
      <defs>
       <path id="DejaVuSans-d7" d="M 4488 3438 
L 3059 2003 
L 4488 575 
L 4116 197 
L 2681 1631 
L 1247 197 
L 878 575 
L 2303 2003 
L 878 3438 
L 1247 3816 
L 2681 2381 
L 4116 3816 
L 4488 3438 
z
" transform="scale(0.015625)"/>
       <path id="DejaVuSerif-34" d="M 2234 1581 
L 2234 4063 
L 641 1581 
L 2234 1581 
z
M 3609 0 
L 1484 0 
L 1484 331 
L 2234 331 
L 2234 1247 
L 197 1247 
L 197 1588 
L 2241 4750 
L 2859 4750 
L 2859 1581 
L 3750 1581 
L 3750 1247 
L 2859 1247 
L 2859 331 
L 3609 331 
L 3609 0 
z
" transform="scale(0.015625)"/>
      </defs>
      <use xlink:href="#DejaVuSans-d7" transform="translate(0 0.7125)"/>
      <use xlink:href="#DejaVuSerif-31" transform="translate(83.789062 0.7125)"/>
      <use xlink:href="#DejaVuSerif-30" transform="translate(147.412109 0.7125)"/>
      <use xlink:href="#DejaVuSerif-34" transform="translate(211.943516 37.046875) scale(0.7)"/>
     </g>
    </g>
   </g>
   <g id="LineCollection_1">
    <path d="M 83.769771 361.101091 
L 83.769771 361.101091 
" clip-path="url(#pfc39027e80)" style="fill: none; stroke: #e4ac3e; stroke-width: 2"/>
    <path clip-path="url(#pfc39027e80)" style="fill: none; stroke: #e4ac3e; stroke-width: 2"/>
    <path clip-path="url(#pfc39027e80)" style="fill: none; stroke: #e4ac3e; stroke-width: 2"/>
    <path clip-path="url(#pfc39027e80)" style="fill: none; stroke: #e4ac3e; stroke-width: 2"/>
    <path clip-path="url(#pfc39027e80)" style="fill: none; stroke: #e4ac3e; stroke-width: 2"/>
   </g>
   <g id="line2d_11">
    <defs>
     <path id="md7bc49d422" d="M 4 0 
L -4 -0 
" style="stroke: #e4ac3e; stroke-width: 2"/>
    </defs>
    <g clip-path="url(#pfc39027e80)">
     <use xlink:href="#md7bc49d422" x="83.769771" y="361.101091" style="fill: #e4ac3e; stroke: #e4ac3e; stroke-width: 2"/>
    </g>
   </g>
   <g id="line2d_12">
    <g clip-path="url(#pfc39027e80)">
     <use xlink:href="#md7bc49d422" x="83.769771" y="361.101091" style="fill: #e4ac3e; stroke: #e4ac3e; stroke-width: 2"/>
    </g>
   </g>
   <g id="LineCollection_2">
    <path d="M 83.769771 361.101091 
L 83.769771 361.101091 
" clip-path="url(#pfc39027e80)" style="fill: none; stroke: #416fbd; stroke-width: 2"/>
    <path clip-path="url(#pfc39027e80)" style="fill: none; stroke: #416fbd; stroke-width: 2"/>
    <path clip-path="url(#pfc39027e80)" style="fill: none; stroke: #416fbd; stroke-width: 2"/>
    <path clip-path="url(#pfc39027e80)" style="fill: none; stroke: #416fbd; stroke-width: 2"/>
    <path clip-path="url(#pfc39027e80)" style="fill: none; stroke: #416fbd; stroke-width: 2"/>
   </g>
   <g id="line2d_13">
    <defs>
     <path id="mf9acfbd42d" d="M 4 0 
L -4 -0 
" style="stroke: #416fbd; stroke-width: 2"/>
    </defs>
    <g clip-path="url(#pfc39027e80)">
     <use xlink:href="#mf9acfbd42d" x="83.769771" y="361.101091" style="fill: #416fbd; stroke: #416fbd; stroke-width: 2"/>
    </g>
   </g>
   <g id="line2d_14">
    <g clip-path="url(#pfc39027e80)">
     <use xlink:href="#mf9acfbd42d" x="83.769771" y="361.101091" style="fill: #416fbd; stroke: #416fbd; stroke-width: 2"/>
    </g>
   </g>
   <g id="LineCollection_3">
    <path d="M 83.769771 361.101091 
L 83.769771 361.101091 
" clip-path="url(#pfc39027e80)" style="fill: none; stroke: #64b749; stroke-width: 2"/>
    <path clip-path="url(#pfc39027e80)" style="fill: none; stroke: #64b749; stroke-width: 2"/>
    <path clip-path="url(#pfc39027e80)" style="fill: none; stroke: #64b749; stroke-width: 2"/>
    <path clip-path="url(#pfc39027e80)" style="fill: none; stroke: #64b749; stroke-width: 2"/>
    <path clip-path="url(#pfc39027e80)" style="fill: none; stroke: #64b749; stroke-width: 2"/>
   </g>
   <g id="line2d_15">
    <defs>
     <path id="m2ed6579143" d="M 4 0 
L -4 -0 
" style="stroke: #64b749; stroke-width: 2"/>
    </defs>
    <g clip-path="url(#pfc39027e80)">
     <use xlink:href="#m2ed6579143" x="83.769771" y="361.101091" style="fill: #64b749; stroke: #64b749; stroke-width: 2"/>
    </g>
   </g>
   <g id="line2d_16">
    <g clip-path="url(#pfc39027e80)">
     <use xlink:href="#m2ed6579143" x="83.769771" y="361.101091" style="fill: #64b749; stroke: #64b749; stroke-width: 2"/>
    </g>
   </g>
   <g id="LineCollection_4">
    <path d="M 83.769771 361.101091 
L 83.769771 361.101091 
" clip-path="url(#pfc39027e80)" style="fill: none; stroke: #742993; stroke-width: 2"/>
    <path clip-path="url(#pfc39027e80)" style="fill: none; stroke: #742993; stroke-width: 2"/>
    <path clip-path="url(#pfc39027e80)" style="fill: none; stroke: #742993; stroke-width: 2"/>
    <path clip-path="url(#pfc39027e80)" style="fill: none; stroke: #742993; stroke-width: 2"/>
    <path clip-path="url(#pfc39027e80)" style="fill: none; stroke: #742993; stroke-width: 2"/>
   </g>
   <g id="line2d_17">
    <defs>
     <path id="mc3e00c56d6" d="M 4 0 
L -4 -0 
" style="stroke: #742993; stroke-width: 2"/>
    </defs>
    <g clip-path="url(#pfc39027e80)">
     <use xlink:href="#mc3e00c56d6" x="83.769771" y="361.101091" style="fill: #742993; stroke: #742993; stroke-width: 2"/>
    </g>
   </g>
   <g id="line2d_18">
    <g clip-path="url(#pfc39027e80)">
     <use xlink:href="#mc3e00c56d6" x="83.769771" y="361.101091" style="fill: #742993; stroke: #742993; stroke-width: 2"/>
    </g>
   </g>
   <g id="LineCollection_5">
    <path d="M 83.769771 361.101091 
L 83.769771 361.101091 
" clip-path="url(#pfc39027e80)" style="fill: none; stroke: #777777; stroke-width: 2"/>
    <path clip-path="url(#pfc39027e80)" style="fill: none; stroke: #777777; stroke-width: 2"/>
    <path clip-path="url(#pfc39027e80)" style="fill: none; stroke: #777777; stroke-width: 2"/>
    <path clip-path="url(#pfc39027e80)" style="fill: none; stroke: #777777; stroke-width: 2"/>
    <path clip-path="url(#pfc39027e80)" style="fill: none; stroke: #777777; stroke-width: 2"/>
   </g>
   <g id="line2d_19">
    <defs>
     <path id="mdca7b3795e" d="M 4 0 
L -4 -0 
" style="stroke: #777777; stroke-width: 2"/>
    </defs>
    <g clip-path="url(#pfc39027e80)">
     <use xlink:href="#mdca7b3795e" x="83.769771" y="361.101091" style="fill: #777777; stroke: #777777; stroke-width: 2"/>
    </g>
   </g>
   <g id="line2d_20">
    <g clip-path="url(#pfc39027e80)">
     <use xlink:href="#mdca7b3795e" x="83.769771" y="361.101091" style="fill: #777777; stroke: #777777; stroke-width: 2"/>
    </g>
   </g>
   <g id="line2d_21">
    <path d="M 83.769771 361.101091 
L 165.491254 89.586733 
L 247.212737 41.073116 
L 328.93422 40.898013 
L 410.655703 40.722909 
" clip-path="url(#pfc39027e80)" style="fill: none; stroke: #e4ac3e; stroke-width: 2; stroke-linecap: square"/>
    <defs>
     <path id="m08b18b38f0" d="M -0 7.5 
L 7.5 -7.5 
L -7.5 -7.5 
z
" style="stroke: #e4ac3e; stroke-width: 2; stroke-linejoin: miter"/>
    </defs>
    <g clip-path="url(#pfc39027e80)">
     <use xlink:href="#m08b18b38f0" x="83.769771" y="361.101091" style="fill-opacity: 0; stroke: #e4ac3e; stroke-width: 2; stroke-linejoin: miter"/>
     <use xlink:href="#m08b18b38f0" x="165.491254" y="89.586733" style="fill-opacity: 0; stroke: #e4ac3e; stroke-width: 2; stroke-linejoin: miter"/>
     <use xlink:href="#m08b18b38f0" x="247.212737" y="41.073116" style="fill-opacity: 0; stroke: #e4ac3e; stroke-width: 2; stroke-linejoin: miter"/>
     <use xlink:href="#m08b18b38f0" x="328.93422" y="40.898013" style="fill-opacity: 0; stroke: #e4ac3e; stroke-width: 2; stroke-linejoin: miter"/>
     <use xlink:href="#m08b18b38f0" x="410.655703" y="40.722909" style="fill-opacity: 0; stroke: #e4ac3e; stroke-width: 2; stroke-linejoin: miter"/>
    </g>
   </g>
   <g id="line2d_22">
    <path d="M 83.769771 361.101091 
L 165.491254 92.654176 
L 247.212737 92.654176 
L 328.93422 92.698058 
L 410.655703 92.522954 
" clip-path="url(#pfc39027e80)" style="fill: none; stroke: #416fbd; stroke-width: 2; stroke-linecap: square"/>
    <defs>
     <path id="m57eba9e47d" d="M 0 -7.5 
L -6.495191 -3.75 
L -6.495191 3.75 
L -0 7.5 
L 6.495191 3.75 
L 6.495191 -3.75 
z
" style="stroke: #416fbd; stroke-width: 2; stroke-linejoin: miter"/>
    </defs>
    <g clip-path="url(#pfc39027e80)">
     <use xlink:href="#m57eba9e47d" x="83.769771" y="361.101091" style="fill-opacity: 0; stroke: #416fbd; stroke-width: 2; stroke-linejoin: miter"/>
     <use xlink:href="#m57eba9e47d" x="165.491254" y="92.654176" style="fill-opacity: 0; stroke: #416fbd; stroke-width: 2; stroke-linejoin: miter"/>
     <use xlink:href="#m57eba9e47d" x="247.212737" y="92.654176" style="fill-opacity: 0; stroke: #416fbd; stroke-width: 2; stroke-linejoin: miter"/>
     <use xlink:href="#m57eba9e47d" x="328.93422" y="92.698058" style="fill-opacity: 0; stroke: #416fbd; stroke-width: 2; stroke-linejoin: miter"/>
     <use xlink:href="#m57eba9e47d" x="410.655703" y="92.522954" style="fill-opacity: 0; stroke: #416fbd; stroke-width: 2; stroke-linejoin: miter"/>
    </g>
   </g>
   <g id="line2d_23">
    <path d="M 83.769771 361.101091 
L 165.491254 89.586733 
L 247.212737 41.073116 
L 328.93422 40.898013 
L 410.655703 40.722909 
" clip-path="url(#pfc39027e80)" style="fill: none; stroke: #64b749; stroke-width: 2; stroke-linecap: square"/>
    <defs>
     <path id="m7dc7278f2a" d="M 0 -7.5 
L -7.5 7.5 
L 7.5 7.5 
z
" style="stroke: #64b749; stroke-width: 2; stroke-linejoin: miter"/>
    </defs>
    <g clip-path="url(#pfc39027e80)">
     <use xlink:href="#m7dc7278f2a" x="83.769771" y="361.101091" style="fill-opacity: 0; stroke: #64b749; stroke-width: 2; stroke-linejoin: miter"/>
     <use xlink:href="#m7dc7278f2a" x="165.491254" y="89.586733" style="fill-opacity: 0; stroke: #64b749; stroke-width: 2; stroke-linejoin: miter"/>
     <use xlink:href="#m7dc7278f2a" x="247.212737" y="41.073116" style="fill-opacity: 0; stroke: #64b749; stroke-width: 2; stroke-linejoin: miter"/>
     <use xlink:href="#m7dc7278f2a" x="328.93422" y="40.898013" style="fill-opacity: 0; stroke: #64b749; stroke-width: 2; stroke-linejoin: miter"/>
     <use xlink:href="#m7dc7278f2a" x="410.655703" y="40.722909" style="fill-opacity: 0; stroke: #64b749; stroke-width: 2; stroke-linejoin: miter"/>
    </g>
   </g>
   <g id="line2d_24">
    <path d="M 83.769771 361.101091 
L 165.491254 89.586733 
L 247.212737 41.073116 
L 328.93422 40.898013 
L 410.655703 40.722909 
" clip-path="url(#pfc39027e80)" style="fill: none; stroke: #742993; stroke-width: 2; stroke-linecap: square"/>
    <defs>
     <path id="mee1be14d5e" d="M 0 10.606602 
L 10.606602 0 
L 0 -10.606602 
L -10.606602 0 
z
" style="stroke: #742993; stroke-width: 2; stroke-linejoin: miter"/>
    </defs>
    <g clip-path="url(#pfc39027e80)">
     <use xlink:href="#mee1be14d5e" x="83.769771" y="361.101091" style="fill-opacity: 0; stroke: #742993; stroke-width: 2; stroke-linejoin: miter"/>
     <use xlink:href="#mee1be14d5e" x="165.491254" y="89.586733" style="fill-opacity: 0; stroke: #742993; stroke-width: 2; stroke-linejoin: miter"/>
     <use xlink:href="#mee1be14d5e" x="247.212737" y="41.073116" style="fill-opacity: 0; stroke: #742993; stroke-width: 2; stroke-linejoin: miter"/>
     <use xlink:href="#mee1be14d5e" x="328.93422" y="40.898013" style="fill-opacity: 0; stroke: #742993; stroke-width: 2; stroke-linejoin: miter"/>
     <use xlink:href="#mee1be14d5e" x="410.655703" y="40.722909" style="fill-opacity: 0; stroke: #742993; stroke-width: 2; stroke-linejoin: miter"/>
    </g>
   </g>
   <g id="line2d_25">
    <path d="M 83.769771 361.101091 
L 165.491254 89.586733 
L 247.212737 41.073116 
L 328.93422 40.898013 
L 410.655703 40.722909 
" clip-path="url(#pfc39027e80)" style="fill: none; stroke: #777777; stroke-width: 2; stroke-linecap: square"/>
    <defs>
     <path id="m518ec3afa3" d="M 0 7.5 
C 1.989023 7.5 3.896849 6.709753 5.303301 5.303301 
C 6.709753 3.896849 7.5 1.989023 7.5 0 
C 7.5 -1.989023 6.709753 -3.896849 5.303301 -5.303301 
C 3.896849 -6.709753 1.989023 -7.5 0 -7.5 
C -1.989023 -7.5 -3.896849 -6.709753 -5.303301 -5.303301 
C -6.709753 -3.896849 -7.5 -1.989023 -7.5 0 
C -7.5 1.989023 -6.709753 3.896849 -5.303301 5.303301 
C -3.896849 6.709753 -1.989023 7.5 0 7.5 
z
" style="stroke: #777777; stroke-width: 2"/>
    </defs>
    <g clip-path="url(#pfc39027e80)">
     <use xlink:href="#m518ec3afa3" x="83.769771" y="361.101091" style="fill-opacity: 0; stroke: #777777; stroke-width: 2"/>
     <use xlink:href="#m518ec3afa3" x="165.491254" y="89.586733" style="fill-opacity: 0; stroke: #777777; stroke-width: 2"/>
     <use xlink:href="#m518ec3afa3" x="247.212737" y="41.073116" style="fill-opacity: 0; stroke: #777777; stroke-width: 2"/>
     <use xlink:href="#m518ec3afa3" x="328.93422" y="40.898013" style="fill-opacity: 0; stroke: #777777; stroke-width: 2"/>
     <use xlink:href="#m518ec3afa3" x="410.655703" y="40.722909" style="fill-opacity: 0; stroke: #777777; stroke-width: 2"/>
    </g>
   </g>
   <g id="patch_3">
    <path d="M 67.425475 377.12 
L 67.425475 24.704 
" style="fill: none; stroke: #000000; stroke-width: 0.8; stroke-linejoin: miter; stroke-linecap: square"/>
   </g>
   <g id="patch_4">
    <path d="M 427 377.12 
L 427 24.704 
" style="fill: none; stroke: #000000; stroke-width: 0.8; stroke-linejoin: miter; stroke-linecap: square"/>
   </g>
   <g id="patch_5">
    <path d="M 67.425475 377.12 
L 427 377.12 
" style="fill: none; stroke: #000000; stroke-width: 0.8; stroke-linejoin: miter; stroke-linecap: square"/>
   </g>
   <g id="patch_6">
    <path d="M 67.425475 24.704 
L 427 24.704 
" style="fill: none; stroke: #000000; stroke-width: 0.8; stroke-linejoin: miter; stroke-linecap: square"/>
   </g>
   <g id="legend_1">
    <g id="patch_7">
     <path d="M 317.596094 369.62 
L 416.5 369.62 
Q 419.5 369.62 419.5 366.62 
L 419.5 270.034063 
Q 419.5 267.034063 416.5 267.034063 
L 317.596094 267.034063 
Q 314.596094 267.034063 314.596094 270.034063 
L 314.596094 366.62 
Q 314.596094 369.62 317.596094 369.62 
z
" style="fill: #ffffff; stroke: #cccccc; stroke-linejoin: miter"/>
    </g>
    <g id="LineCollection_6">
     <path d="M 335.596094 286.681719 
L 335.596094 271.681719 
" style="fill: none; stroke: #e4ac3e; stroke-width: 2"/>
    </g>
    <g id="line2d_26">
     <g>
      <use xlink:href="#md7bc49d422" x="335.596094" y="286.681719" style="fill: #e4ac3e; stroke: #e4ac3e; stroke-width: 2"/>
     </g>
    </g>
    <g id="line2d_27">
     <g>
      <use xlink:href="#md7bc49d422" x="335.596094" y="271.681719" style="fill: #e4ac3e; stroke: #e4ac3e; stroke-width: 2"/>
     </g>
    </g>
    <g id="line2d_28">
     <path d="M 320.596094 279.181719 
L 350.596094 279.181719 
" style="fill: none; stroke: #e4ac3e; stroke-width: 2; stroke-linecap: square"/>
    </g>
    <g id="line2d_29">
     <g>
      <use xlink:href="#m08b18b38f0" x="335.596094" y="279.181719" style="fill-opacity: 0; stroke: #e4ac3e; stroke-width: 2; stroke-linejoin: miter"/>
     </g>
    </g>
    <g id="text_9">
     <!-- OPT -->
     <g transform="translate(356.596094 284.431719) scale(0.15 -0.15)">
      <defs>
       <path id="DejaVuSerif-4f" d="M 2625 244 
Q 3391 244 3781 770 
Q 4172 1297 4172 2328 
Q 4172 3363 3781 3889 
Q 3391 4416 2625 4416 
Q 1856 4416 1465 3889 
Q 1075 3363 1075 2328 
Q 1075 1297 1465 770 
Q 1856 244 2625 244 
z
M 2625 -91 
Q 2150 -91 1751 65 
Q 1353 222 1050 525 
Q 700 875 529 1319 
Q 359 1763 359 2328 
Q 359 2894 529 3339 
Q 700 3784 1050 4134 
Q 1356 4441 1750 4595 
Q 2144 4750 2625 4750 
Q 3641 4750 4266 4084 
Q 4891 3419 4891 2328 
Q 4891 1769 4719 1320 
Q 4547 872 4197 525 
Q 3891 219 3497 64 
Q 3103 -91 2625 -91 
z
" transform="scale(0.015625)"/>
       <path id="DejaVuSerif-54" d="M 1222 0 
L 1222 331 
L 1819 331 
L 1819 4294 
L 447 4294 
L 447 3566 
L 63 3566 
L 63 4666 
L 4206 4666 
L 4206 3566 
L 3822 3566 
L 3822 4294 
L 2450 4294 
L 2450 331 
L 3047 331 
L 3047 0 
L 1222 0 
z
" transform="scale(0.015625)"/>
      </defs>
      <use xlink:href="#DejaVuSerif-4f"/>
      <use xlink:href="#DejaVuSerif-50" x="81.982422"/>
      <use xlink:href="#DejaVuSerif-54" x="149.267578"/>
     </g>
    </g>
    <g id="LineCollection_7">
     <path d="M 335.596094 305.698906 
L 335.596094 290.698906 
" style="fill: none; stroke: #416fbd; stroke-width: 2"/>
    </g>
    <g id="line2d_30">
     <g>
      <use xlink:href="#mf9acfbd42d" x="335.596094" y="305.698906" style="fill: #416fbd; stroke: #416fbd; stroke-width: 2"/>
     </g>
    </g>
    <g id="line2d_31">
     <g>
      <use xlink:href="#mf9acfbd42d" x="335.596094" y="290.698906" style="fill: #416fbd; stroke: #416fbd; stroke-width: 2"/>
     </g>
    </g>
    <g id="line2d_32">
     <path d="M 320.596094 298.198906 
L 350.596094 298.198906 
" style="fill: none; stroke: #416fbd; stroke-width: 2; stroke-linecap: square"/>
    </g>
    <g id="line2d_33">
     <g>
      <use xlink:href="#m57eba9e47d" x="335.596094" y="298.198906" style="fill-opacity: 0; stroke: #416fbd; stroke-width: 2; stroke-linejoin: miter"/>
     </g>
    </g>
    <g id="text_10">
     <!-- IAR -->
     <g transform="translate(356.596094 303.448906) scale(0.15 -0.15)">
      <defs>
       <path id="DejaVuSerif-49" d="M 1581 331 
L 2175 331 
L 2175 0 
L 353 0 
L 353 331 
L 947 331 
L 947 4331 
L 353 4331 
L 353 4666 
L 2175 4666 
L 2175 4331 
L 1581 4331 
L 1581 331 
z
" transform="scale(0.015625)"/>
       <path id="DejaVuSerif-41" d="M 1281 1691 
L 2994 1691 
L 2138 3909 
L 1281 1691 
z
M -38 0 
L -38 331 
L 372 331 
L 2034 4666 
L 2559 4666 
L 4225 331 
L 4684 331 
L 4684 0 
L 2988 0 
L 2988 331 
L 3506 331 
L 3116 1356 
L 1153 1356 
L 763 331 
L 1275 331 
L 1275 0 
L -38 0 
z
" transform="scale(0.015625)"/>
       <path id="DejaVuSerif-52" d="M 3066 2316 
Q 3284 2256 3442 2114 
Q 3600 1972 3725 1716 
L 4403 331 
L 4972 331 
L 4972 0 
L 3872 0 
L 3144 1484 
Q 2934 1916 2759 2042 
Q 2584 2169 2278 2169 
L 1581 2169 
L 1581 331 
L 2241 331 
L 2241 0 
L 353 0 
L 353 331 
L 947 331 
L 947 4331 
L 353 4331 
L 353 4666 
L 2719 4666 
Q 3400 4666 3770 4341 
Q 4141 4016 4141 3419 
Q 4141 2938 3870 2661 
Q 3600 2384 3066 2316 
z
M 1581 2503 
L 2503 2503 
Q 2975 2503 3200 2726 
Q 3425 2950 3425 3419 
Q 3425 3888 3200 4109 
Q 2975 4331 2503 4331 
L 1581 4331 
L 1581 2503 
z
" transform="scale(0.015625)"/>
      </defs>
      <use xlink:href="#DejaVuSerif-49"/>
      <use xlink:href="#DejaVuSerif-41" x="39.501953"/>
      <use xlink:href="#DejaVuSerif-52" x="111.71875"/>
     </g>
    </g>
    <g id="LineCollection_8">
     <path d="M 335.596094 324.716094 
L 335.596094 309.716094 
" style="fill: none; stroke: #64b749; stroke-width: 2"/>
    </g>
    <g id="line2d_34">
     <g>
      <use xlink:href="#m2ed6579143" x="335.596094" y="324.716094" style="fill: #64b749; stroke: #64b749; stroke-width: 2"/>
     </g>
    </g>
    <g id="line2d_35">
     <g>
      <use xlink:href="#m2ed6579143" x="335.596094" y="309.716094" style="fill: #64b749; stroke: #64b749; stroke-width: 2"/>
     </g>
    </g>
    <g id="line2d_36">
     <path d="M 320.596094 317.216094 
L 350.596094 317.216094 
" style="fill: none; stroke: #64b749; stroke-width: 2; stroke-linecap: square"/>
    </g>
    <g id="line2d_37">
     <g>
      <use xlink:href="#m7dc7278f2a" x="335.596094" y="317.216094" style="fill-opacity: 0; stroke: #64b749; stroke-width: 2; stroke-linejoin: miter"/>
     </g>
    </g>
    <g id="text_11">
     <!-- DTR -->
     <g transform="translate(356.596094 322.466094) scale(0.15 -0.15)">
      <defs>
       <path id="DejaVuSerif-44" d="M 1581 331 
L 2163 331 
Q 3072 331 3558 850 
Q 4044 1369 4044 2338 
Q 4044 3306 3559 3818 
Q 3075 4331 2163 4331 
L 1581 4331 
L 1581 331 
z
M 353 0 
L 353 331 
L 947 331 
L 947 4331 
L 353 4331 
L 353 4666 
L 2209 4666 
Q 3416 4666 4089 4050 
Q 4763 3434 4763 2338 
Q 4763 1238 4088 619 
Q 3413 0 2209 0 
L 353 0 
z
" transform="scale(0.015625)"/>
      </defs>
      <use xlink:href="#DejaVuSerif-44"/>
      <use xlink:href="#DejaVuSerif-54" x="80.175781"/>
      <use xlink:href="#DejaVuSerif-52" x="146.875"/>
     </g>
    </g>
    <g id="LineCollection_9">
     <path d="M 335.596094 343.733281 
L 335.596094 328.733281 
" style="fill: none; stroke: #742993; stroke-width: 2"/>
    </g>
    <g id="line2d_38">
     <g>
      <use xlink:href="#mc3e00c56d6" x="335.596094" y="343.733281" style="fill: #742993; stroke: #742993; stroke-width: 2"/>
     </g>
    </g>
    <g id="line2d_39">
     <g>
      <use xlink:href="#mc3e00c56d6" x="335.596094" y="328.733281" style="fill: #742993; stroke: #742993; stroke-width: 2"/>
     </g>
    </g>
    <g id="line2d_40">
     <path d="M 320.596094 336.233281 
L 350.596094 336.233281 
" style="fill: none; stroke: #742993; stroke-width: 2; stroke-linecap: square"/>
    </g>
    <g id="line2d_41">
     <g>
      <use xlink:href="#mee1be14d5e" x="335.596094" y="336.233281" style="fill-opacity: 0; stroke: #742993; stroke-width: 2; stroke-linejoin: miter"/>
     </g>
    </g>
    <g id="text_12">
     <!-- RNR -->
     <g transform="translate(356.596094 341.483281) scale(0.15 -0.15)">
      <defs>
       <path id="DejaVuSerif-4e" d="M 313 0 
L 313 331 
L 941 331 
L 941 4331 
L 313 4331 
L 313 4666 
L 1509 4666 
L 4306 984 
L 4306 4331 
L 3681 4331 
L 3681 4666 
L 5319 4666 
L 5319 4331 
L 4691 4331 
L 4691 -91 
L 4313 -91 
L 1325 3841 
L 1325 331 
L 1953 331 
L 1953 0 
L 313 0 
z
" transform="scale(0.015625)"/>
      </defs>
      <use xlink:href="#DejaVuSerif-52"/>
      <use xlink:href="#DejaVuSerif-4e" x="75.292969"/>
      <use xlink:href="#DejaVuSerif-52" x="162.792969"/>
     </g>
    </g>
    <g id="LineCollection_10">
     <path d="M 335.596094 362.750469 
L 335.596094 347.750469 
" style="fill: none; stroke: #777777; stroke-width: 2"/>
    </g>
    <g id="line2d_42">
     <g>
      <use xlink:href="#mdca7b3795e" x="335.596094" y="362.750469" style="fill: #777777; stroke: #777777; stroke-width: 2"/>
     </g>
    </g>
    <g id="line2d_43">
     <g>
      <use xlink:href="#mdca7b3795e" x="335.596094" y="347.750469" style="fill: #777777; stroke: #777777; stroke-width: 2"/>
     </g>
    </g>
    <g id="line2d_44">
     <path d="M 320.596094 355.250469 
L 350.596094 355.250469 
" style="fill: none; stroke: #777777; stroke-width: 2; stroke-linecap: square"/>
    </g>
    <g id="line2d_45">
     <g>
      <use xlink:href="#m518ec3afa3" x="335.596094" y="355.250469" style="fill-opacity: 0; stroke: #777777; stroke-width: 2"/>
     </g>
    </g>
    <g id="text_13">
     <!-- 5Guard -->
     <g transform="translate(356.596094 360.500469) scale(0.15 -0.15)">
      <defs>
       <path id="DejaVuSerif-47" d="M 4097 3272 
Q 3988 3856 3641 4136 
Q 3294 4416 2675 4416 
Q 1869 4416 1472 3897 
Q 1075 3378 1075 2328 
Q 1075 1300 1484 772 
Q 1894 244 2688 244 
Q 3041 244 3362 331 
Q 3684 419 3975 594 
L 3975 1797 
L 3097 1797 
L 3097 2131 
L 4609 2131 
L 4609 391 
Q 4194 150 3714 29 
Q 3234 -91 2688 -91 
Q 1631 -91 995 570 
Q 359 1231 359 2328 
Q 359 3434 996 4092 
Q 1634 4750 2713 4750 
Q 3113 4750 3539 4658 
Q 3966 4566 4447 4378 
L 4447 3272 
L 4097 3272 
z
" transform="scale(0.015625)"/>
       <path id="DejaVuSerif-75" d="M 2266 3322 
L 3341 3322 
L 3341 331 
L 3884 331 
L 3884 0 
L 2766 0 
L 2766 588 
Q 2606 256 2353 82 
Q 2100 -91 1766 -91 
Q 1213 -91 952 223 
Q 691 538 691 1209 
L 691 2988 
L 172 2988 
L 172 3322 
L 1269 3322 
L 1269 1388 
Q 1269 781 1417 556 
Q 1566 331 1947 331 
Q 2347 331 2556 625 
Q 2766 919 2766 1478 
L 2766 2988 
L 2266 2988 
L 2266 3322 
z
" transform="scale(0.015625)"/>
       <path id="DejaVuSerif-61" d="M 2547 1044 
L 2547 1747 
L 1806 1747 
Q 1378 1747 1168 1562 
Q 959 1378 959 997 
Q 959 650 1171 447 
Q 1384 244 1747 244 
Q 2106 244 2326 466 
Q 2547 688 2547 1044 
z
M 3122 2075 
L 3122 331 
L 3634 331 
L 3634 0 
L 2547 0 
L 2547 359 
Q 2356 128 2106 18 
Q 1856 -91 1522 -91 
Q 969 -91 644 203 
Q 319 497 319 997 
Q 319 1513 691 1797 
Q 1063 2081 1741 2081 
L 2547 2081 
L 2547 2309 
Q 2547 2688 2317 2895 
Q 2088 3103 1672 3103 
Q 1328 3103 1125 2947 
Q 922 2791 872 2484 
L 575 2484 
L 575 3156 
Q 875 3284 1158 3348 
Q 1441 3413 1709 3413 
Q 2400 3413 2761 3070 
Q 3122 2728 3122 2075 
z
" transform="scale(0.015625)"/>
       <path id="DejaVuSerif-64" d="M 3359 331 
L 3909 331 
L 3909 0 
L 2784 0 
L 2784 519 
Q 2616 206 2355 57 
Q 2094 -91 1709 -91 
Q 1097 -91 708 395 
Q 319 881 319 1663 
Q 319 2444 706 2928 
Q 1094 3413 1709 3413 
Q 2094 3413 2355 3264 
Q 2616 3116 2784 2803 
L 2784 4531 
L 2241 4531 
L 2241 4863 
L 3359 4863 
L 3359 331 
z
M 2784 1497 
L 2784 1825 
Q 2784 2422 2554 2737 
Q 2325 3053 1888 3053 
Q 1444 3053 1217 2703 
Q 991 2353 991 1663 
Q 991 975 1217 622 
Q 1444 269 1888 269 
Q 2325 269 2554 583 
Q 2784 897 2784 1497 
z
" transform="scale(0.015625)"/>
      </defs>
      <use xlink:href="#DejaVuSerif-35"/>
      <use xlink:href="#DejaVuSerif-47" x="63.623047"/>
      <use xlink:href="#DejaVuSerif-75" x="143.505859"/>
      <use xlink:href="#DejaVuSerif-61" x="207.910156"/>
      <use xlink:href="#DejaVuSerif-72" x="267.529297"/>
      <use xlink:href="#DejaVuSerif-64" x="315.332031"/>
     </g>
    </g>
   </g>
  </g>
 </g>
 <defs>
  <clipPath id="pfc39027e80">
   <rect x="67.425475" y="24.704" width="359.574525" height="352.416"/>
  </clipPath>
 </defs>
</svg>
