<?xml version="1.0" encoding="utf-8" standalone="no"?>
<!DOCTYPE svg PUBLIC "-//W3C//DTD SVG 1.1//EN"
  "http://www.w3.org/Graphics/SVG/1.1/DTD/svg11.dtd">
<svg xmlns:xlink="http://www.w3.org/1999/xlink" width="504pt" height="432pt" viewBox="0 0 504 432" xmlns="http://www.w3.org/2000/svg" version="1.1">
 <metadata>
  <rdf:RDF xmlns:dc="http://purl.org/dc/elements/1.1/" xmlns:cc="http://creativecommons.org/ns#" xmlns:rdf="http://www.w3.org/1999/02/22-rdf-syntax-ns#">
   <cc:Work>
    <dc:type rdf:resource="http://purl.org/dc/dcmitype/StillImage"/>
    <dc:date>2025-02-25T19:02:01.825835</dc:date>
    <dc:format>image/svg+xml</dc:format>
    <dc:creator>
     <cc:Agent>
      <dc:title>Matplotlib v3.8.0, https://matplotlib.org/</dc:title>
     </cc:Agent>
    </dc:creator>
   </cc:Work>
  </rdf:RDF>
 </metadata>
 <defs>
  <style type="text/css">*{stroke-linejoin: round; stroke-linecap: butt}</style>
 </defs>
 <g id="figure_1">
  <g id="patch_1">
   <path d="M 0 432 
L 504 432 
L 504 0 
L 0 0 
z
" style="fill: #ffffff"/>
  </g>
  <g id="axes_1">
   <g id="patch_2">
    <path d="M 78.1 369.2 
L 499 369.2 
L 499 5 
L 78.1 5 
z
" style="fill: #ffffff"/>
   </g>
   <g id="PolyCollection_1">
    <defs>
     <path id="mbb7e0d586f" d="M 97.231818 -79.354545 
L 97.231818 -79.354545 
L 110.426176 -79.354545 
L 123.620533 -79.354545 
L 136.81489 -79.354545 
L 150.009248 -79.354545 
L 163.203605 -79.354545 
L 176.397962 -79.354545 
L 189.59232 -79.354545 
L 202.786677 -79.354545 
L 215.981034 -79.354545 
L 229.175392 -79.354545 
L 242.369749 -79.354545 
L 255.564107 -79.354545 
L 268.758464 -79.354545 
L 281.952821 -79.354545 
L 295.147179 -79.354545 
L 308.341536 -79.354545 
L 321.535893 -79.354545 
L 334.730251 -79.354545 
L 347.924608 -79.354545 
L 361.118966 -79.354545 
L 374.313323 -79.354545 
L 387.50768 -79.354545 
L 400.702038 -79.354545 
L 413.896395 -79.354545 
L 427.090752 -79.354545 
L 440.28511 -79.354545 
L 453.479467 -79.354545 
L 466.673824 -79.354545 
L 479.868182 -79.354545 
L 479.868182 -79.354545 
L 479.868182 -79.354545 
L 466.673824 -79.354545 
L 453.479467 -79.354545 
L 440.28511 -410.445455 
L 427.090752 -244.9 
L 413.896395 -410.445455 
L 400.702038 -79.354545 
L 387.50768 -79.354545 
L 374.313323 -244.9 
L 361.118966 -244.9 
L 347.924608 -244.9 
L 334.730251 -79.354545 
L 321.535893 -244.9 
L 308.341536 -244.9 
L 295.147179 -79.354545 
L 281.952821 -244.9 
L 268.758464 -410.445455 
L 255.564107 -410.445455 
L 242.369749 -410.445455 
L 229.175392 -79.354545 
L 215.981034 -244.9 
L 202.786677 -244.9 
L 189.59232 -244.9 
L 176.397962 -79.354545 
L 163.203605 -410.445455 
L 150.009248 -244.9 
L 136.81489 -244.9 
L 123.620533 -244.9 
L 110.426176 -410.445455 
L 97.231818 -79.354545 
z
" style="stroke: #118811; stroke-opacity: 0.1"/>
    </defs>
    <g clip-path="url(#p9ee6b7c57d)">
     <use xlink:href="#mbb7e0d586f" x="0" y="432" style="fill: #118811; fill-opacity: 0.1; stroke: #118811; stroke-opacity: 0.1"/>
    </g>
   </g>
   <g id="matplotlib.axis_1">
    <g id="xtick_1">
     <g id="line2d_1">
      <path d="M 97.231818 369.2 
L 97.231818 5 
" clip-path="url(#p9ee6b7c57d)" style="fill: none; stroke: #b0b0b0; stroke-width: 0.8; stroke-linecap: square"/>
     </g>
     <g id="line2d_2">
      <defs>
       <path id="m6e50e443b3" d="M 0 0 
L 0 3.5 
" style="stroke: #000000; stroke-width: 0.8"/>
      </defs>
      <g>
       <use xlink:href="#m6e50e443b3" x="97.231818" y="369.2" style="stroke: #000000; stroke-width: 0.8"/>
      </g>
     </g>
     <g id="text_1">
      <!-- 0 -->
      <g transform="translate(89.278693 395.196094) scale(0.25 -0.25)">
       <defs>
        <path id="DejaVuSerif-30" d="M 2034 219 
Q 2513 219 2750 744 
Q 2988 1269 2988 2328 
Q 2988 3391 2750 3916 
Q 2513 4441 2034 4441 
Q 1556 4441 1318 3916 
Q 1081 3391 1081 2328 
Q 1081 1269 1318 744 
Q 1556 219 2034 219 
z
M 2034 -91 
Q 1275 -91 848 546 
Q 422 1184 422 2328 
Q 422 3475 848 4112 
Q 1275 4750 2034 4750 
Q 2797 4750 3222 4112 
Q 3647 3475 3647 2328 
Q 3647 1184 3222 546 
Q 2797 -91 2034 -91 
z
" transform="scale(0.015625)"/>
       </defs>
       <use xlink:href="#DejaVuSerif-30"/>
      </g>
     </g>
    </g>
    <g id="xtick_2">
     <g id="line2d_3">
      <path d="M 229.175392 369.2 
L 229.175392 5 
" clip-path="url(#p9ee6b7c57d)" style="fill: none; stroke: #b0b0b0; stroke-width: 0.8; stroke-linecap: square"/>
     </g>
     <g id="line2d_4">
      <g>
       <use xlink:href="#m6e50e443b3" x="229.175392" y="369.2" style="stroke: #000000; stroke-width: 0.8"/>
      </g>
     </g>
     <g id="text_2">
      <!-- 10 -->
      <g transform="translate(213.269142 395.196094) scale(0.25 -0.25)">
       <defs>
        <path id="DejaVuSerif-31" d="M 909 0 
L 909 331 
L 1722 331 
L 1722 4213 
L 781 3603 
L 781 4013 
L 1919 4750 
L 2350 4750 
L 2350 331 
L 3163 331 
L 3163 0 
L 909 0 
z
" transform="scale(0.015625)"/>
       </defs>
       <use xlink:href="#DejaVuSerif-31"/>
       <use xlink:href="#DejaVuSerif-30" x="63.623047"/>
      </g>
     </g>
    </g>
    <g id="xtick_3">
     <g id="line2d_5">
      <path d="M 361.118966 369.2 
L 361.118966 5 
" clip-path="url(#p9ee6b7c57d)" style="fill: none; stroke: #b0b0b0; stroke-width: 0.8; stroke-linecap: square"/>
     </g>
     <g id="line2d_6">
      <g>
       <use xlink:href="#m6e50e443b3" x="361.118966" y="369.2" style="stroke: #000000; stroke-width: 0.8"/>
      </g>
     </g>
     <g id="text_3">
      <!-- 20 -->
      <g transform="translate(345.212716 395.196094) scale(0.25 -0.25)">
       <defs>
        <path id="DejaVuSerif-32" d="M 819 3553 
L 469 3553 
L 469 4384 
Q 803 4563 1142 4656 
Q 1481 4750 1806 4750 
Q 2534 4750 2956 4397 
Q 3378 4044 3378 3438 
Q 3378 2753 2422 1800 
Q 2347 1728 2309 1691 
L 1131 513 
L 3078 513 
L 3078 1088 
L 3444 1088 
L 3444 0 
L 434 0 
L 434 341 
L 1850 1753 
Q 2319 2222 2519 2614 
Q 2719 3006 2719 3438 
Q 2719 3909 2473 4175 
Q 2228 4441 1797 4441 
Q 1350 4441 1106 4219 
Q 863 3997 819 3553 
z
" transform="scale(0.015625)"/>
       </defs>
       <use xlink:href="#DejaVuSerif-32"/>
       <use xlink:href="#DejaVuSerif-30" x="63.623047"/>
      </g>
     </g>
    </g>
    <g id="text_4">
     <!-- $\it{t}$ -->
     <g transform="translate(283.95 421.871719) scale(0.23 -0.23)">
      <defs>
       <path id="DejaVuSans-Oblique-74" d="M 2706 3500 
L 2619 3053 
L 1472 3053 
L 1100 1153 
Q 1081 1047 1072 975 
Q 1063 903 1063 863 
Q 1063 663 1183 572 
Q 1303 481 1569 481 
L 2150 481 
L 2053 0 
L 1503 0 
Q 991 0 739 200 
Q 488 400 488 806 
Q 488 878 497 964 
Q 506 1050 525 1153 
L 897 3053 
L 409 3053 
L 500 3500 
L 978 3500 
L 1172 4494 
L 1747 4494 
L 1556 3500 
L 2706 3500 
z
" transform="scale(0.015625)"/>
      </defs>
      <use xlink:href="#DejaVuSans-Oblique-74" transform="translate(0 0.78125)"/>
     </g>
    </g>
   </g>
   <g id="matplotlib.axis_2">
    <g id="ytick_1">
     <g id="line2d_7">
      <path d="M 78.1 352.645455 
L 499 352.645455 
" clip-path="url(#p9ee6b7c57d)" style="fill: none; stroke: #b0b0b0; stroke-width: 0.8; stroke-linecap: square"/>
     </g>
     <g id="line2d_8">
      <defs>
       <path id="m56b4e1d48e" d="M 0 0 
L -3.5 0 
" style="stroke: #000000; stroke-width: 0.8"/>
      </defs>
      <g>
       <use xlink:href="#m56b4e1d48e" x="78.1" y="352.645455" style="stroke: #000000; stroke-width: 0.8"/>
      </g>
     </g>
     <g id="text_5">
      <!-- 0.0 -->
      <g transform="translate(31.342188 362.143501) scale(0.25 -0.25)">
       <defs>
        <path id="DejaVuSerif-2e" d="M 603 325 
Q 603 500 722 622 
Q 841 744 1019 744 
Q 1191 744 1312 622 
Q 1434 500 1434 325 
Q 1434 153 1312 31 
Q 1191 -91 1019 -91 
Q 841 -91 722 29 
Q 603 150 603 325 
z
" transform="scale(0.015625)"/>
       </defs>
       <use xlink:href="#DejaVuSerif-30"/>
       <use xlink:href="#DejaVuSerif-2e" x="63.623047"/>
       <use xlink:href="#DejaVuSerif-30" x="95.410156"/>
      </g>
     </g>
    </g>
    <g id="ytick_2">
     <g id="line2d_9">
      <path d="M 78.1 269.872727 
L 499 269.872727 
" clip-path="url(#p9ee6b7c57d)" style="fill: none; stroke: #b0b0b0; stroke-width: 0.8; stroke-linecap: square"/>
     </g>
     <g id="line2d_10">
      <g>
       <use xlink:href="#m56b4e1d48e" x="78.1" y="269.872727" style="stroke: #000000; stroke-width: 0.8"/>
      </g>
     </g>
     <g id="text_6">
      <!-- 0.5 -->
      <g transform="translate(31.342188 279.370774) scale(0.25 -0.25)">
       <defs>
        <path id="DejaVuSerif-35" d="M 3219 4666 
L 3219 4153 
L 1081 4153 
L 1081 2816 
Q 1244 2928 1461 2984 
Q 1678 3041 1947 3041 
Q 2703 3041 3140 2622 
Q 3578 2203 3578 1478 
Q 3578 738 3136 323 
Q 2694 -91 1894 -91 
Q 1572 -91 1234 -12 
Q 897 66 544 225 
L 544 1131 
L 897 1131 
Q 925 688 1179 453 
Q 1434 219 1894 219 
Q 2388 219 2653 544 
Q 2919 869 2919 1478 
Q 2919 2084 2655 2407 
Q 2391 2731 1894 2731 
Q 1613 2731 1398 2631 
Q 1184 2531 1019 2322 
L 750 2322 
L 750 4666 
L 3219 4666 
z
" transform="scale(0.015625)"/>
       </defs>
       <use xlink:href="#DejaVuSerif-30"/>
       <use xlink:href="#DejaVuSerif-2e" x="63.623047"/>
       <use xlink:href="#DejaVuSerif-35" x="95.410156"/>
      </g>
     </g>
    </g>
    <g id="ytick_3">
     <g id="line2d_11">
      <path d="M 78.1 187.1 
L 499 187.1 
" clip-path="url(#p9ee6b7c57d)" style="fill: none; stroke: #b0b0b0; stroke-width: 0.8; stroke-linecap: square"/>
     </g>
     <g id="line2d_12">
      <g>
       <use xlink:href="#m56b4e1d48e" x="78.1" y="187.1" style="stroke: #000000; stroke-width: 0.8"/>
      </g>
     </g>
     <g id="text_7">
      <!-- 1.0 -->
      <g transform="translate(31.342188 196.598047) scale(0.25 -0.25)">
       <use xlink:href="#DejaVuSerif-31"/>
       <use xlink:href="#DejaVuSerif-2e" x="63.623047"/>
       <use xlink:href="#DejaVuSerif-30" x="95.410156"/>
      </g>
     </g>
    </g>
    <g id="ytick_4">
     <g id="line2d_13">
      <path d="M 78.1 104.327273 
L 499 104.327273 
" clip-path="url(#p9ee6b7c57d)" style="fill: none; stroke: #b0b0b0; stroke-width: 0.8; stroke-linecap: square"/>
     </g>
     <g id="line2d_14">
      <g>
       <use xlink:href="#m56b4e1d48e" x="78.1" y="104.327273" style="stroke: #000000; stroke-width: 0.8"/>
      </g>
     </g>
     <g id="text_8">
      <!-- 1.5 -->
      <g transform="translate(31.342188 113.82532) scale(0.25 -0.25)">
       <use xlink:href="#DejaVuSerif-31"/>
       <use xlink:href="#DejaVuSerif-2e" x="63.623047"/>
       <use xlink:href="#DejaVuSerif-35" x="95.410156"/>
      </g>
     </g>
    </g>
    <g id="ytick_5">
     <g id="line2d_15">
      <path d="M 78.1 21.554545 
L 499 21.554545 
" clip-path="url(#p9ee6b7c57d)" style="fill: none; stroke: #b0b0b0; stroke-width: 0.8; stroke-linecap: square"/>
     </g>
     <g id="line2d_16">
      <g>
       <use xlink:href="#m56b4e1d48e" x="78.1" y="21.554545" style="stroke: #000000; stroke-width: 0.8"/>
      </g>
     </g>
     <g id="text_9">
      <!-- 2.0 -->
      <g transform="translate(31.342188 31.052592) scale(0.25 -0.25)">
       <use xlink:href="#DejaVuSerif-32"/>
       <use xlink:href="#DejaVuSerif-2e" x="63.623047"/>
       <use xlink:href="#DejaVuSerif-30" x="95.410156"/>
      </g>
     </g>
    </g>
    <g id="text_10">
     <!-- Average Isolation Level -->
     <g transform="translate(22.231875 324.038047) rotate(-90) scale(0.23 -0.23)">
      <defs>
       <path id="DejaVuSerif-41" d="M 1281 1691 
L 2994 1691 
L 2138 3909 
L 1281 1691 
z
M -38 0 
L -38 331 
L 372 331 
L 2034 4666 
L 2559 4666 
L 4225 331 
L 4684 331 
L 4684 0 
L 2988 0 
L 2988 331 
L 3506 331 
L 3116 1356 
L 1153 1356 
L 763 331 
L 1275 331 
L 1275 0 
L -38 0 
z
" transform="scale(0.015625)"/>
       <path id="DejaVuSerif-76" d="M 1581 0 
L 359 2988 
L -19 2988 
L -19 3322 
L 1509 3322 
L 1509 2988 
L 978 2988 
L 1913 703 
L 2847 2988 
L 2350 2988 
L 2350 3322 
L 3597 3322 
L 3597 2988 
L 3225 2988 
L 2003 0 
L 1581 0 
z
" transform="scale(0.015625)"/>
       <path id="DejaVuSerif-65" d="M 3469 1600 
L 991 1600 
L 991 1575 
Q 991 903 1244 561 
Q 1497 219 1991 219 
Q 2369 219 2611 417 
Q 2853 616 2950 1006 
L 3413 1006 
Q 3275 459 2904 184 
Q 2534 -91 1931 -91 
Q 1203 -91 761 389 
Q 319 869 319 1663 
Q 319 2450 753 2931 
Q 1188 3413 1894 3413 
Q 2647 3413 3050 2948 
Q 3453 2484 3469 1600 
z
M 2791 1931 
Q 2772 2513 2545 2808 
Q 2319 3103 1894 3103 
Q 1497 3103 1269 2806 
Q 1041 2509 991 1931 
L 2791 1931 
z
" transform="scale(0.015625)"/>
       <path id="DejaVuSerif-72" d="M 3059 3328 
L 3059 2497 
L 2728 2497 
Q 2713 2744 2591 2866 
Q 2469 2988 2234 2988 
Q 1809 2988 1582 2694 
Q 1356 2400 1356 1850 
L 1356 331 
L 2022 331 
L 2022 0 
L 263 0 
L 263 331 
L 781 331 
L 781 2994 
L 231 2994 
L 231 3322 
L 1356 3322 
L 1356 2731 
Q 1525 3078 1790 3245 
Q 2056 3413 2438 3413 
Q 2578 3413 2733 3391 
Q 2888 3369 3059 3328 
z
" transform="scale(0.015625)"/>
       <path id="DejaVuSerif-61" d="M 2547 1044 
L 2547 1747 
L 1806 1747 
Q 1378 1747 1168 1562 
Q 959 1378 959 997 
Q 959 650 1171 447 
Q 1384 244 1747 244 
Q 2106 244 2326 466 
Q 2547 688 2547 1044 
z
M 3122 2075 
L 3122 331 
L 3634 331 
L 3634 0 
L 2547 0 
L 2547 359 
Q 2356 128 2106 18 
Q 1856 -91 1522 -91 
Q 969 -91 644 203 
Q 319 497 319 997 
Q 319 1513 691 1797 
Q 1063 2081 1741 2081 
L 2547 2081 
L 2547 2309 
Q 2547 2688 2317 2895 
Q 2088 3103 1672 3103 
Q 1328 3103 1125 2947 
Q 922 2791 872 2484 
L 575 2484 
L 575 3156 
Q 875 3284 1158 3348 
Q 1441 3413 1709 3413 
Q 2400 3413 2761 3070 
Q 3122 2728 3122 2075 
z
" transform="scale(0.015625)"/>
       <path id="DejaVuSerif-67" d="M 3359 2988 
L 3359 72 
Q 3359 -644 2965 -1033 
Q 2572 -1422 1844 -1422 
Q 1516 -1422 1216 -1362 
Q 916 -1303 641 -1184 
L 641 -488 
L 941 -488 
Q 997 -813 1206 -963 
Q 1416 -1113 1806 -1113 
Q 2313 -1113 2548 -827 
Q 2784 -541 2784 72 
L 2784 519 
Q 2616 206 2355 57 
Q 2094 -91 1709 -91 
Q 1097 -91 708 395 
Q 319 881 319 1663 
Q 319 2444 706 2928 
Q 1094 3413 1709 3413 
Q 2094 3413 2355 3264 
Q 2616 3116 2784 2803 
L 2784 3322 
L 3909 3322 
L 3909 2988 
L 3359 2988 
z
M 2784 1825 
Q 2784 2422 2554 2737 
Q 2325 3053 1888 3053 
Q 1444 3053 1217 2703 
Q 991 2353 991 1663 
Q 991 975 1217 622 
Q 1444 269 1888 269 
Q 2325 269 2554 583 
Q 2784 897 2784 1497 
L 2784 1825 
z
" transform="scale(0.015625)"/>
       <path id="DejaVuSerif-20" transform="scale(0.015625)"/>
       <path id="DejaVuSerif-49" d="M 1581 331 
L 2175 331 
L 2175 0 
L 353 0 
L 353 331 
L 947 331 
L 947 4331 
L 353 4331 
L 353 4666 
L 2175 4666 
L 2175 4331 
L 1581 4331 
L 1581 331 
z
" transform="scale(0.015625)"/>
       <path id="DejaVuSerif-73" d="M 359 184 
L 359 959 
L 691 959 
Q 703 588 923 403 
Q 1144 219 1575 219 
Q 1963 219 2166 364 
Q 2369 509 2369 788 
Q 2369 1006 2220 1140 
Q 2072 1275 1594 1428 
L 1178 1569 
Q 750 1706 558 1912 
Q 366 2119 366 2438 
Q 366 2894 700 3153 
Q 1034 3413 1625 3413 
Q 1888 3413 2178 3344 
Q 2469 3275 2778 3144 
L 2778 2419 
L 2447 2419 
Q 2434 2741 2221 2922 
Q 2009 3103 1644 3103 
Q 1281 3103 1095 2975 
Q 909 2847 909 2591 
Q 909 2381 1050 2254 
Q 1191 2128 1613 1997 
L 2069 1856 
Q 2541 1709 2748 1489 
Q 2956 1269 2956 922 
Q 2956 450 2595 179 
Q 2234 -91 1600 -91 
Q 1278 -91 972 -22 
Q 666 47 359 184 
z
" transform="scale(0.015625)"/>
       <path id="DejaVuSerif-6f" d="M 1925 219 
Q 2388 219 2623 584 
Q 2859 950 2859 1663 
Q 2859 2375 2623 2739 
Q 2388 3103 1925 3103 
Q 1463 3103 1227 2739 
Q 991 2375 991 1663 
Q 991 950 1228 584 
Q 1466 219 1925 219 
z
M 1925 -91 
Q 1200 -91 759 389 
Q 319 869 319 1663 
Q 319 2456 758 2934 
Q 1197 3413 1925 3413 
Q 2653 3413 3092 2934 
Q 3531 2456 3531 1663 
Q 3531 869 3092 389 
Q 2653 -91 1925 -91 
z
" transform="scale(0.015625)"/>
       <path id="DejaVuSerif-6c" d="M 1313 331 
L 1856 331 
L 1856 0 
L 184 0 
L 184 331 
L 738 331 
L 738 4531 
L 184 4531 
L 184 4863 
L 1313 4863 
L 1313 331 
z
" transform="scale(0.015625)"/>
       <path id="DejaVuSerif-74" d="M 691 2988 
L 184 2988 
L 184 3322 
L 691 3322 
L 691 4353 
L 1269 4353 
L 1269 3322 
L 2350 3322 
L 2350 2988 
L 1269 2988 
L 1269 878 
Q 1269 456 1350 337 
Q 1431 219 1650 219 
Q 1875 219 1978 351 
Q 2081 484 2088 781 
L 2522 781 
Q 2497 328 2275 118 
Q 2053 -91 1600 -91 
Q 1103 -91 897 129 
Q 691 350 691 878 
L 691 2988 
z
" transform="scale(0.015625)"/>
       <path id="DejaVuSerif-69" d="M 622 4353 
Q 622 4497 726 4603 
Q 831 4709 978 4709 
Q 1122 4709 1226 4603 
Q 1331 4497 1331 4353 
Q 1331 4206 1228 4103 
Q 1125 4000 978 4000 
Q 831 4000 726 4103 
Q 622 4206 622 4353 
z
M 1356 331 
L 1900 331 
L 1900 0 
L 231 0 
L 231 331 
L 781 331 
L 781 2988 
L 231 2988 
L 231 3322 
L 1356 3322 
L 1356 331 
z
" transform="scale(0.015625)"/>
       <path id="DejaVuSerif-6e" d="M 263 0 
L 263 331 
L 781 331 
L 781 2988 
L 231 2988 
L 231 3322 
L 1356 3322 
L 1356 2731 
Q 1516 3069 1770 3241 
Q 2025 3413 2363 3413 
Q 2913 3413 3172 3097 
Q 3431 2781 3431 2113 
L 3431 331 
L 3944 331 
L 3944 0 
L 2356 0 
L 2356 331 
L 2853 331 
L 2853 1931 
Q 2853 2541 2703 2767 
Q 2553 2994 2175 2994 
Q 1775 2994 1565 2701 
Q 1356 2409 1356 1850 
L 1356 331 
L 1856 331 
L 1856 0 
L 263 0 
z
" transform="scale(0.015625)"/>
       <path id="DejaVuSerif-4c" d="M 353 0 
L 353 331 
L 947 331 
L 947 4331 
L 353 4331 
L 353 4666 
L 2175 4666 
L 2175 4331 
L 1581 4331 
L 1581 384 
L 3713 384 
L 3713 1166 
L 4097 1166 
L 4097 0 
L 353 0 
z
" transform="scale(0.015625)"/>
      </defs>
      <use xlink:href="#DejaVuSerif-41"/>
      <use xlink:href="#DejaVuSerif-76" x="68.216797"/>
      <use xlink:href="#DejaVuSerif-65" x="124.710938"/>
      <use xlink:href="#DejaVuSerif-72" x="183.890625"/>
      <use xlink:href="#DejaVuSerif-61" x="231.693359"/>
      <use xlink:href="#DejaVuSerif-67" x="291.3125"/>
      <use xlink:href="#DejaVuSerif-65" x="355.326172"/>
      <use xlink:href="#DejaVuSerif-20" x="414.505859"/>
      <use xlink:href="#DejaVuSerif-49" x="446.292969"/>
      <use xlink:href="#DejaVuSerif-73" x="485.794922"/>
      <use xlink:href="#DejaVuSerif-6f" x="537.113281"/>
      <use xlink:href="#DejaVuSerif-6c" x="597.318359"/>
      <use xlink:href="#DejaVuSerif-61" x="629.300781"/>
      <use xlink:href="#DejaVuSerif-74" x="688.919922"/>
      <use xlink:href="#DejaVuSerif-69" x="729.105469"/>
      <use xlink:href="#DejaVuSerif-6f" x="761.087891"/>
      <use xlink:href="#DejaVuSerif-6e" x="821.292969"/>
      <use xlink:href="#DejaVuSerif-20" x="885.697266"/>
      <use xlink:href="#DejaVuSerif-4c" x="917.484375"/>
      <use xlink:href="#DejaVuSerif-65" x="983.890625"/>
      <use xlink:href="#DejaVuSerif-76" x="1043.070312"/>
      <use xlink:href="#DejaVuSerif-65" x="1099.564453"/>
      <use xlink:href="#DejaVuSerif-6c" x="1158.744141"/>
     </g>
    </g>
   </g>
   <g id="line2d_17">
    <path d="M 97.231818 352.645455 
L 110.426176 319.536364 
L 123.620533 319.536364 
L 136.81489 319.536364 
L 150.009248 319.536364 
L 163.203605 314.018182 
L 176.397962 319.536364 
L 189.59232 319.536364 
L 202.786677 319.536364 
L 215.981034 319.536364 
L 229.175392 322.546281 
L 242.369749 314.018182 
L 255.564107 309.348951 
L 268.758464 305.346753 
L 281.952821 304.085455 
L 295.147179 307.120455 
L 308.341536 307.850802 
L 321.535893 308.5 
L 334.730251 310.823445 
L 347.924608 309.603636 
L 361.118966 308.5 
L 374.313323 307.496694 
L 387.50768 309.459684 
L 400.702038 311.259091 
L 413.896395 310.265818 
L 427.090752 309.348951 
L 440.28511 307.273737 
L 453.479467 308.894156 
L 466.673824 310.402821 
L 479.868182 311.810909 
" clip-path="url(#p9ee6b7c57d)" style="fill: none; stroke: #118811; stroke-width: 5; stroke-linecap: square"/>
    <defs>
     <path id="m0f7bfce7cd" d="M 0 8.5 
C 2.254226 8.5 4.416429 7.604386 6.010408 6.010408 
C 7.604386 4.416429 8.5 2.254226 8.5 0 
C 8.5 -2.254226 7.604386 -4.416429 6.010408 -6.010408 
C 4.416429 -7.604386 2.254226 -8.5 0 -8.5 
C -2.254226 -8.5 -4.416429 -7.604386 -6.010408 -6.010408 
C -7.604386 -4.416429 -8.5 -2.254226 -8.5 0 
C -8.5 2.254226 -7.604386 4.416429 -6.010408 6.010408 
C -4.416429 7.604386 -2.254226 8.5 0 8.5 
z
" style="stroke: #118811; stroke-width: 4"/>
    </defs>
    <g clip-path="url(#p9ee6b7c57d)">
     <use xlink:href="#m0f7bfce7cd" x="97.231818" y="352.645455" style="fill-opacity: 0; stroke: #118811; stroke-width: 4"/>
     <use xlink:href="#m0f7bfce7cd" x="229.175392" y="322.546281" style="fill-opacity: 0; stroke: #118811; stroke-width: 4"/>
     <use xlink:href="#m0f7bfce7cd" x="361.118966" y="308.5" style="fill-opacity: 0; stroke: #118811; stroke-width: 4"/>
    </g>
   </g>
   <g id="line2d_18">
    <path d="M 97.231818 352.645455 
L 110.426176 352.645455 
L 123.620533 352.645455 
L 136.81489 352.645455 
L 150.009248 352.645455 
L 163.203605 352.645455 
L 176.397962 352.645455 
L 189.59232 352.645455 
L 202.786677 352.645455 
L 215.981034 352.645455 
L 229.175392 352.645455 
L 242.369749 352.645455 
L 255.564107 352.645455 
L 268.758464 352.645455 
L 281.952821 352.645455 
L 295.147179 352.645455 
L 308.341536 352.645455 
L 321.535893 352.645455 
L 334.730251 352.645455 
L 347.924608 352.645455 
L 361.118966 352.645455 
L 374.313323 352.645455 
L 387.50768 352.645455 
L 400.702038 352.645455 
L 413.896395 352.645455 
L 427.090752 352.645455 
L 440.28511 352.645455 
L 453.479467 352.645455 
L 466.673824 352.645455 
L 479.868182 352.645455 
" clip-path="url(#p9ee6b7c57d)" style="fill: none; stroke-dasharray: 18.5,8; stroke-dashoffset: 0; stroke: #eeee00; stroke-width: 5"/>
    <defs>
     <path id="ma27e5da0a9" d="M 8.5 0 
L -8.5 -8.5 
L -8.5 8.5 
z
" style="stroke: #eeee00; stroke-width: 4; stroke-linejoin: miter"/>
    </defs>
    <g clip-path="url(#p9ee6b7c57d)">
     <use xlink:href="#ma27e5da0a9" x="97.231818" y="352.645455" style="fill-opacity: 0; stroke: #eeee00; stroke-width: 4; stroke-linejoin: miter"/>
     <use xlink:href="#ma27e5da0a9" x="229.175392" y="352.645455" style="fill-opacity: 0; stroke: #eeee00; stroke-width: 4; stroke-linejoin: miter"/>
     <use xlink:href="#ma27e5da0a9" x="361.118966" y="352.645455" style="fill-opacity: 0; stroke: #eeee00; stroke-width: 4; stroke-linejoin: miter"/>
    </g>
   </g>
   <g id="line2d_19">
    <path d="M 97.231818 21.554545 
L 110.426176 21.554545 
L 123.620533 21.554545 
L 136.81489 21.554545 
L 150.009248 21.554545 
L 163.203605 21.554545 
L 176.397962 21.554545 
L 189.59232 21.554545 
L 202.786677 21.554545 
L 215.981034 21.554545 
L 229.175392 21.554545 
L 242.369749 21.554545 
L 255.564107 21.554545 
L 268.758464 21.554545 
L 281.952821 21.554545 
L 295.147179 21.554545 
L 308.341536 21.554545 
L 321.535893 21.554545 
L 334.730251 21.554545 
L 347.924608 21.554545 
L 361.118966 21.554545 
L 374.313323 21.554545 
L 387.50768 21.554545 
L 400.702038 21.554545 
L 413.896395 21.554545 
L 427.090752 21.554545 
L 440.28511 21.554545 
L 453.479467 21.554545 
L 466.673824 21.554545 
L 479.868182 21.554545 
" clip-path="url(#p9ee6b7c57d)" style="fill: none; stroke-dasharray: 18.5,8; stroke-dashoffset: 0; stroke: #00eeee; stroke-width: 5"/>
    <defs>
     <path id="m0c9e95ba92" d="M -8.5 -0 
L 8.5 8.5 
L 8.5 -8.5 
z
" style="stroke: #00eeee; stroke-width: 4; stroke-linejoin: miter"/>
    </defs>
    <g clip-path="url(#p9ee6b7c57d)">
     <use xlink:href="#m0c9e95ba92" x="97.231818" y="21.554545" style="fill-opacity: 0; stroke: #00eeee; stroke-width: 4; stroke-linejoin: miter"/>
     <use xlink:href="#m0c9e95ba92" x="229.175392" y="21.554545" style="fill-opacity: 0; stroke: #00eeee; stroke-width: 4; stroke-linejoin: miter"/>
     <use xlink:href="#m0c9e95ba92" x="361.118966" y="21.554545" style="fill-opacity: 0; stroke: #00eeee; stroke-width: 4; stroke-linejoin: miter"/>
    </g>
   </g>
   <g id="patch_3">
    <path d="M 78.1 369.2 
L 78.1 5 
" style="fill: none; stroke: #000000; stroke-width: 0.8; stroke-linejoin: miter; stroke-linecap: square"/>
   </g>
   <g id="patch_4">
    <path d="M 499 369.2 
L 499 5 
" style="fill: none; stroke: #000000; stroke-width: 0.8; stroke-linejoin: miter; stroke-linecap: square"/>
   </g>
   <g id="patch_5">
    <path d="M 78.1 369.2 
L 499 369.2 
" style="fill: none; stroke: #000000; stroke-width: 0.8; stroke-linejoin: miter; stroke-linecap: square"/>
   </g>
   <g id="patch_6">
    <path d="M 78.1 5 
L 499 5 
" style="fill: none; stroke: #000000; stroke-width: 0.8; stroke-linejoin: miter; stroke-linecap: square"/>
   </g>
   <g id="legend_1">
    <g id="patch_7">
     <path d="M 287.494375 229.430937 
L 486.4 229.430937 
Q 490 229.430937 490 225.830938 
L 490 148.369063 
Q 490 144.769063 486.4 144.769063 
L 287.494375 144.769063 
Q 283.894375 144.769063 283.894375 148.369063 
L 283.894375 225.830938 
Q 283.894375 229.430937 287.494375 229.430937 
z
" style="fill: #ffffff; opacity: 0.8; stroke: #cccccc; stroke-linejoin: miter"/>
    </g>
    <g id="line2d_20">
     <path d="M 291.094375 159.34625 
L 327.094375 159.34625 
" style="fill: none; stroke: #118811; stroke-width: 5; stroke-linecap: square"/>
    </g>
    <g id="line2d_21">
     <g>
      <use xlink:href="#m0f7bfce7cd" x="309.094375" y="159.34625" style="fill-opacity: 0; stroke: #118811; stroke-width: 4"/>
     </g>
    </g>
    <g id="text_11">
     <!-- Isolation-aware -->
     <g transform="translate(341.494375 165.64625) scale(0.18 -0.18)">
      <defs>
       <path id="DejaVuSerif-2d" d="M 281 1959 
L 1881 1959 
L 1881 1472 
L 281 1472 
L 281 1959 
z
" transform="scale(0.015625)"/>
       <path id="DejaVuSerif-77" d="M 3072 3322 
L 3922 728 
L 4672 2988 
L 4191 2988 
L 4191 3322 
L 5394 3322 
L 5394 2988 
L 5025 2988 
L 4038 0 
L 3559 0 
L 2741 2484 
L 1919 0 
L 1459 0 
L 475 2988 
L 103 2988 
L 103 3322 
L 1606 3322 
L 1606 2988 
L 1069 2988 
L 1813 728 
L 2669 3322 
L 3072 3322 
z
" transform="scale(0.015625)"/>
      </defs>
      <use xlink:href="#DejaVuSerif-49"/>
      <use xlink:href="#DejaVuSerif-73" x="39.501953"/>
      <use xlink:href="#DejaVuSerif-6f" x="90.820312"/>
      <use xlink:href="#DejaVuSerif-6c" x="151.025391"/>
      <use xlink:href="#DejaVuSerif-61" x="183.007812"/>
      <use xlink:href="#DejaVuSerif-74" x="242.626953"/>
      <use xlink:href="#DejaVuSerif-69" x="282.8125"/>
      <use xlink:href="#DejaVuSerif-6f" x="314.794922"/>
      <use xlink:href="#DejaVuSerif-6e" x="375"/>
      <use xlink:href="#DejaVuSerif-2d" x="439.404297"/>
      <use xlink:href="#DejaVuSerif-61" x="473.193359"/>
      <use xlink:href="#DejaVuSerif-77" x="532.8125"/>
      <use xlink:href="#DejaVuSerif-61" x="618.408203"/>
      <use xlink:href="#DejaVuSerif-72" x="678.027344"/>
      <use xlink:href="#DejaVuSerif-65" x="725.830078"/>
     </g>
    </g>
    <g id="line2d_22">
     <path d="M 291.094375 185.766875 
L 327.094375 185.766875 
" style="fill: none; stroke-dasharray: 18.5,8; stroke-dashoffset: 0; stroke: #eeee00; stroke-width: 5"/>
    </g>
    <g id="line2d_23">
     <g>
      <use xlink:href="#ma27e5da0a9" x="309.094375" y="185.766875" style="fill-opacity: 0; stroke: #eeee00; stroke-width: 4; stroke-linejoin: miter"/>
     </g>
    </g>
    <g id="text_12">
     <!-- OPT-NIS -->
     <g transform="translate(341.494375 192.066875) scale(0.18 -0.18)">
      <defs>
       <path id="DejaVuSerif-4f" d="M 2625 244 
Q 3391 244 3781 770 
Q 4172 1297 4172 2328 
Q 4172 3363 3781 3889 
Q 3391 4416 2625 4416 
Q 1856 4416 1465 3889 
Q 1075 3363 1075 2328 
Q 1075 1297 1465 770 
Q 1856 244 2625 244 
z
M 2625 -91 
Q 2150 -91 1751 65 
Q 1353 222 1050 525 
Q 700 875 529 1319 
Q 359 1763 359 2328 
Q 359 2894 529 3339 
Q 700 3784 1050 4134 
Q 1356 4441 1750 4595 
Q 2144 4750 2625 4750 
Q 3641 4750 4266 4084 
Q 4891 3419 4891 2328 
Q 4891 1769 4719 1320 
Q 4547 872 4197 525 
Q 3891 219 3497 64 
Q 3103 -91 2625 -91 
z
" transform="scale(0.015625)"/>
       <path id="DejaVuSerif-50" d="M 1581 2375 
L 2406 2375 
Q 2872 2375 3115 2626 
Q 3359 2878 3359 3353 
Q 3359 3831 3115 4081 
Q 2872 4331 2406 4331 
L 1581 4331 
L 1581 2375 
z
M 353 0 
L 353 331 
L 947 331 
L 947 4331 
L 353 4331 
L 353 4666 
L 2559 4666 
Q 3259 4666 3668 4311 
Q 4078 3956 4078 3353 
Q 4078 2753 3668 2397 
Q 3259 2041 2559 2041 
L 1581 2041 
L 1581 331 
L 2303 331 
L 2303 0 
L 353 0 
z
" transform="scale(0.015625)"/>
       <path id="DejaVuSerif-54" d="M 1222 0 
L 1222 331 
L 1819 331 
L 1819 4294 
L 447 4294 
L 447 3566 
L 63 3566 
L 63 4666 
L 4206 4666 
L 4206 3566 
L 3822 3566 
L 3822 4294 
L 2450 4294 
L 2450 331 
L 3047 331 
L 3047 0 
L 1222 0 
z
" transform="scale(0.015625)"/>
       <path id="DejaVuSerif-4e" d="M 313 0 
L 313 331 
L 941 331 
L 941 4331 
L 313 4331 
L 313 4666 
L 1509 4666 
L 4306 984 
L 4306 4331 
L 3681 4331 
L 3681 4666 
L 5319 4666 
L 5319 4331 
L 4691 4331 
L 4691 -91 
L 4313 -91 
L 1325 3841 
L 1325 331 
L 1953 331 
L 1953 0 
L 313 0 
z
" transform="scale(0.015625)"/>
       <path id="DejaVuSerif-53" d="M 594 225 
L 594 1288 
L 953 1284 
Q 969 753 1261 498 
Q 1553 244 2150 244 
Q 2706 244 2998 464 
Q 3291 684 3291 1106 
Q 3291 1444 3114 1625 
Q 2938 1806 2369 1978 
L 1753 2163 
Q 1084 2366 811 2669 
Q 538 2972 538 3500 
Q 538 4094 959 4422 
Q 1381 4750 2144 4750 
Q 2469 4750 2856 4679 
Q 3244 4609 3681 4475 
L 3681 3481 
L 3328 3481 
Q 3275 3975 2998 4195 
Q 2722 4416 2156 4416 
Q 1663 4416 1405 4214 
Q 1147 4013 1147 3628 
Q 1147 3294 1340 3103 
Q 1534 2913 2163 2725 
L 2741 2553 
Q 3375 2363 3645 2067 
Q 3916 1772 3916 1275 
Q 3916 597 3481 253 
Q 3047 -91 2188 -91 
Q 1803 -91 1404 -12 
Q 1006 66 594 225 
z
" transform="scale(0.015625)"/>
      </defs>
      <use xlink:href="#DejaVuSerif-4f"/>
      <use xlink:href="#DejaVuSerif-50" x="81.982422"/>
      <use xlink:href="#DejaVuSerif-54" x="149.267578"/>
      <use xlink:href="#DejaVuSerif-2d" x="203.091797"/>
      <use xlink:href="#DejaVuSerif-4e" x="236.880859"/>
      <use xlink:href="#DejaVuSerif-49" x="324.380859"/>
      <use xlink:href="#DejaVuSerif-53" x="363.882812"/>
     </g>
    </g>
    <g id="line2d_24">
     <path d="M 291.094375 212.1875 
L 327.094375 212.1875 
" style="fill: none; stroke-dasharray: 18.5,8; stroke-dashoffset: 0; stroke: #00eeee; stroke-width: 5"/>
    </g>
    <g id="line2d_25">
     <g>
      <use xlink:href="#m0c9e95ba92" x="309.094375" y="212.1875" style="fill-opacity: 0; stroke: #00eeee; stroke-width: 4; stroke-linejoin: miter"/>
     </g>
    </g>
    <g id="text_13">
     <!-- OPT-CIS -->
     <g transform="translate(341.494375 218.4875) scale(0.18 -0.18)">
      <defs>
       <path id="DejaVuSerif-43" d="M 4513 1234 
Q 4306 581 3820 245 
Q 3334 -91 2591 -91 
Q 2134 -91 1743 65 
Q 1353 222 1050 525 
Q 700 875 529 1320 
Q 359 1766 359 2328 
Q 359 3416 987 4083 
Q 1616 4750 2644 4750 
Q 3025 4750 3456 4650 
Q 3888 4550 4384 4347 
L 4384 3272 
L 4031 3272 
Q 3916 3859 3567 4137 
Q 3219 4416 2591 4416 
Q 1844 4416 1459 3886 
Q 1075 3356 1075 2328 
Q 1075 1303 1459 773 
Q 1844 244 2591 244 
Q 3113 244 3450 492 
Q 3788 741 3938 1234 
L 4513 1234 
z
" transform="scale(0.015625)"/>
      </defs>
      <use xlink:href="#DejaVuSerif-4f"/>
      <use xlink:href="#DejaVuSerif-50" x="81.982422"/>
      <use xlink:href="#DejaVuSerif-54" x="149.267578"/>
      <use xlink:href="#DejaVuSerif-2d" x="203.091797"/>
      <use xlink:href="#DejaVuSerif-43" x="236.880859"/>
      <use xlink:href="#DejaVuSerif-49" x="313.394531"/>
      <use xlink:href="#DejaVuSerif-53" x="352.896484"/>
     </g>
    </g>
   </g>
  </g>
 </g>
 <defs>
  <clipPath id="p9ee6b7c57d">
   <rect x="78.1" y="5" width="420.9" height="364.2"/>
  </clipPath>
 </defs>
</svg>
