<?xml version="1.0" encoding="utf-8" standalone="no"?>
<!DOCTYPE svg PUBLIC "-//W3C//DTD SVG 1.1//EN"
  "http://www.w3.org/Graphics/SVG/1.1/DTD/svg11.dtd">
<svg xmlns:xlink="http://www.w3.org/1999/xlink" width="504pt" height="432pt" viewBox="0 0 504 432" xmlns="http://www.w3.org/2000/svg" version="1.1">
 <metadata>
  <rdf:RDF xmlns:dc="http://purl.org/dc/elements/1.1/" xmlns:cc="http://creativecommons.org/ns#" xmlns:rdf="http://www.w3.org/1999/02/22-rdf-syntax-ns#">
   <cc:Work>
    <dc:type rdf:resource="http://purl.org/dc/dcmitype/StillImage"/>
    <dc:date>2025-02-25T18:57:51.530570</dc:date>
    <dc:format>image/svg+xml</dc:format>
    <dc:creator>
     <cc:Agent>
      <dc:title>Matplotlib v3.8.0, https://matplotlib.org/</dc:title>
     </cc:Agent>
    </dc:creator>
   </cc:Work>
  </rdf:RDF>
 </metadata>
 <defs>
  <style type="text/css">*{stroke-linejoin: round; stroke-linecap: butt}</style>
 </defs>
 <g id="figure_1">
  <g id="patch_1">
   <path d="M 0 432 
L 504 432 
L 504 0 
L 0 0 
z
" style="fill: #ffffff"/>
  </g>
  <g id="axes_1">
   <g id="patch_2">
    <path d="M 70.3375 369.2 
L 499 369.2 
L 499 5 
L 70.3375 5 
z
" style="fill: #ffffff"/>
   </g>
   <g id="PolyCollection_1">
    <defs>
     <path id="m48bc084e9b" d="M 89.822159 -332.283552 
L 89.822159 -146.396273 
L 103.259855 -87.093216 
L 116.697551 -86.020871 
L 130.135247 -87.354058 
L 143.572943 -88.670391 
L 157.010639 -89.970254 
L 170.448335 -91.254019 
L 183.886031 -103.015531 
L 197.323726 -104.252587 
L 210.761422 -93.155619 
L 224.199118 -92.085099 
L 237.636814 -92.97682 
L 251.07451 -93.861204 
L 264.512206 -93.822696 
L 277.949902 -93.822696 
L 291.387598 -93.822696 
L 304.825294 -93.822696 
L 318.26299 -94.626799 
L 331.700686 -95.424995 
L 345.138382 -96.217358 
L 358.576078 -100.36412 
L 372.013774 -101.133169 
L 385.451469 -101.904043 
L 398.889165 -102.660573 
L 412.326861 -103.402102 
L 425.764557 -104.154978 
L 439.202253 -104.154978 
L 452.639949 -104.893035 
L 466.077645 -108.775187 
L 479.515341 -109.502016 
L 479.515341 -232.081451 
L 479.515341 -232.081451 
L 466.077645 -230.726251 
L 452.639949 -229.318451 
L 439.202253 -227.853211 
L 425.764557 -226.32497 
L 412.326861 -224.727297 
L 398.889165 -223.052716 
L 385.451469 -221.292465 
L 372.013774 -219.436207 
L 358.576078 -217.471645 
L 345.138382 -217.471645 
L 331.700686 -217.471645 
L 318.26299 -215.384019 
L 304.825294 -235.625432 
L 291.387598 -232.806909 
L 277.949902 -230.160636 
L 264.512206 -223.047818 
L 251.07451 -220.148973 
L 237.636814 -216.985131 
L 224.199118 -213.49806 
L 210.761422 -209.608831 
L 197.323726 -205.207487 
L 183.886031 -200.135808 
L 170.448335 -206.70411 
L 157.010639 -212.785954 
L 143.572943 -205.881297 
L 130.135247 -347.595664 
L 116.697551 -344.157966 
L 103.259855 -338.545262 
L 89.822159 -332.283552 
z
" style="stroke: #646464; stroke-opacity: 0.1"/>
    </defs>
    <g clip-path="url(#p969785c49d)">
     <use xlink:href="#m48bc084e9b" x="0" y="432" style="fill: #646464; fill-opacity: 0.1; stroke: #646464; stroke-opacity: 0.1"/>
    </g>
   </g>
   <g id="PolyCollection_2">
    <defs>
     <path id="m2c44f7c313" d="M 89.822159 -332.283552 
L 89.822159 -146.396273 
L 103.259855 -87.093216 
L 116.697551 -86.020871 
L 130.135247 -87.354058 
L 143.572943 -88.670391 
L 157.010639 -89.970254 
L 170.448335 -91.254019 
L 183.886031 -103.015531 
L 197.323726 -104.252587 
L 210.761422 -93.155619 
L 224.199118 -92.085099 
L 237.636814 -92.97682 
L 251.07451 -93.861204 
L 264.512206 -93.822696 
L 277.949902 -93.822696 
L 291.387598 -93.822696 
L 304.825294 -93.822696 
L 318.26299 -94.626799 
L 331.700686 -95.424995 
L 345.138382 -96.217358 
L 358.576078 -100.36412 
L 372.013774 -101.133169 
L 385.451469 -101.904043 
L 398.889165 -102.660573 
L 412.326861 -103.402102 
L 425.764557 -104.154978 
L 439.202253 -104.154978 
L 452.639949 -104.893035 
L 466.077645 -107.78633 
L 479.515341 -108.495338 
L 479.515341 -232.081451 
L 479.515341 -232.081451 
L 466.077645 -230.726251 
L 452.639949 -229.318451 
L 439.202253 -227.853211 
L 425.764557 -226.32497 
L 412.326861 -224.727297 
L 398.889165 -223.052716 
L 385.451469 -221.292465 
L 372.013774 -219.436207 
L 358.576078 -217.471645 
L 345.138382 -217.471645 
L 331.700686 -217.471645 
L 318.26299 -215.384019 
L 304.825294 -235.625432 
L 291.387598 -232.806909 
L 277.949902 -230.160636 
L 264.512206 -223.047818 
L 251.07451 -220.148973 
L 237.636814 -216.985131 
L 224.199118 -213.49806 
L 210.761422 -209.608831 
L 197.323726 -205.207487 
L 183.886031 -200.135808 
L 170.448335 -206.70411 
L 157.010639 -212.785954 
L 143.572943 -205.881297 
L 130.135247 -347.595664 
L 116.697551 -344.157966 
L 103.259855 -338.545262 
L 89.822159 -332.283552 
z
" style="stroke: #ee0000; stroke-opacity: 0.1"/>
    </defs>
    <g clip-path="url(#p969785c49d)">
     <use xlink:href="#m2c44f7c313" x="0" y="432" style="fill: #ee0000; fill-opacity: 0.1; stroke: #ee0000; stroke-opacity: 0.1"/>
    </g>
   </g>
   <g id="PolyCollection_3">
    <defs>
     <path id="m9fffeb19fc" d="M 89.822159 -332.20319 
L 89.822159 -146.396273 
L 103.259855 -87.084095 
L 116.697551 -86.011994 
L 130.135247 -87.333354 
L 143.572943 -88.635072 
L 157.010639 -89.917683 
L 170.448335 -91.181706 
L 183.886031 -102.933794 
L 197.323726 -104.147658 
L 210.761422 -93.05657 
L 224.199118 -93.05657 
L 237.636814 -94.095114 
L 251.07451 -95.121247 
L 264.512206 -95.121247 
L 277.949902 -95.121247 
L 291.387598 -95.121247 
L 304.825294 -95.121247 
L 318.26299 -96.135239 
L 331.700686 -97.137353 
L 345.138382 -98.127846 
L 358.576078 -105.333267 
L 372.013774 -106.298162 
L 385.451469 -107.252079 
L 398.889165 -108.195247 
L 412.326861 -109.127888 
L 425.764557 -110.050219 
L 439.202253 -110.050219 
L 452.639949 -110.962448 
L 466.077645 -116.251138 
L 479.515341 -117.327054 
L 479.515341 -247.887457 
L 479.515341 -247.887457 
L 466.077645 -245.65263 
L 452.639949 -245.65263 
L 439.202253 -243.373199 
L 425.764557 -243.373199 
L 412.326861 -243.373199 
L 398.889165 -241.043086 
L 385.451469 -241.043086 
L 372.013774 -232.964573 
L 358.576078 -230.567656 
L 345.138382 -228.104116 
L 331.700686 -231.046904 
L 318.26299 -228.319286 
L 304.825294 -228.319286 
L 291.387598 -225.465929 
L 277.949902 -222.46166 
L 264.512206 -222.46166 
L 251.07451 -219.542772 
L 237.636814 -216.46771 
L 224.199118 -213.065277 
L 210.761422 -209.256004 
L 197.323726 -204.929336 
L 183.886031 -199.926388 
L 170.448335 -206.149018 
L 157.010639 -212.431393 
L 143.572943 -205.639527 
L 130.135247 -346.873391 
L 116.697551 -343.587872 
L 103.259855 -338.260887 
L 89.822159 -332.20319 
z
" style="stroke: #6e8ee6; stroke-opacity: 0.1"/>
    </defs>
    <g clip-path="url(#p969785c49d)">
     <use xlink:href="#m9fffeb19fc" x="0" y="432" style="fill: #6e8ee6; fill-opacity: 0.1; stroke: #6e8ee6; stroke-opacity: 0.1"/>
    </g>
   </g>
   <g id="PolyCollection_4">
    <defs>
     <path id="m02d19960c2" d="M 89.822159 -332.283552 
L 89.822159 -146.396273 
L 103.259855 -87.093216 
L 116.697551 -86.020871 
L 130.135247 -87.354058 
L 143.572943 -88.670391 
L 157.010639 -89.970254 
L 170.448335 -91.254019 
L 183.886031 -103.015531 
L 197.323726 -104.252587 
L 210.761422 -93.155619 
L 224.199118 -93.155619 
L 237.636814 -94.215246 
L 251.07451 -95.263957 
L 264.512206 -95.263957 
L 277.949902 -95.263957 
L 291.387598 -95.263957 
L 304.825294 -95.263957 
L 318.26299 -96.301951 
L 331.700686 -97.329425 
L 345.138382 -98.346567 
L 358.576078 -105.56432 
L 372.013774 -105.56432 
L 385.451469 -105.56432 
L 398.889165 -105.56432 
L 412.326861 -105.56432 
L 425.764557 -105.56432 
L 439.202253 -105.56432 
L 452.639949 -105.56432 
L 466.077645 -105.56432 
L 479.515341 -105.56432 
L 479.515341 -230.160636 
L 479.515341 -230.160636 
L 466.077645 -230.160636 
L 452.639949 -230.160636 
L 439.202253 -230.160636 
L 425.764557 -230.160636 
L 412.326861 -230.160636 
L 398.889165 -230.160636 
L 385.451469 -230.160636 
L 372.013774 -230.160636 
L 358.576078 -230.160636 
L 345.138382 -230.160636 
L 331.700686 -230.160636 
L 318.26299 -230.160636 
L 304.825294 -230.160636 
L 291.387598 -230.160636 
L 277.949902 -230.160636 
L 264.512206 -223.047818 
L 251.07451 -220.148973 
L 237.636814 -216.985131 
L 224.199118 -213.49806 
L 210.761422 -209.608831 
L 197.323726 -205.207487 
L 183.886031 -200.135808 
L 170.448335 -206.70411 
L 157.010639 -212.785954 
L 143.572943 -205.881297 
L 130.135247 -347.595664 
L 116.697551 -344.157966 
L 103.259855 -338.545262 
L 89.822159 -332.283552 
z
" style="stroke: #21cd7d; stroke-opacity: 0.1"/>
    </defs>
    <g clip-path="url(#p969785c49d)">
     <use xlink:href="#m02d19960c2" x="0" y="432" style="fill: #21cd7d; fill-opacity: 0.1; stroke: #21cd7d; stroke-opacity: 0.1"/>
    </g>
   </g>
   <g id="PolyCollection_5">
    <defs>
     <path id="m2ddcab1089" d="M 89.822159 -332.283552 
L 89.822159 -146.396273 
L 103.259855 -87.093216 
L 116.697551 -86.020871 
L 130.135247 -87.354058 
L 143.572943 -88.670391 
L 157.010639 -89.970254 
L 170.448335 -91.254019 
L 183.886031 -103.015531 
L 197.323726 -104.252587 
L 210.761422 -93.155619 
L 224.199118 -93.155619 
L 237.636814 -94.215246 
L 251.07451 -95.263957 
L 264.512206 -95.263957 
L 277.949902 -95.263957 
L 291.387598 -95.263957 
L 304.825294 -95.263957 
L 318.26299 -96.301951 
L 331.700686 -97.329425 
L 345.138382 -98.346567 
L 358.576078 -98.346567 
L 372.013774 -98.346567 
L 385.451469 -98.346567 
L 398.889165 -98.346567 
L 412.326861 -98.346567 
L 425.764557 -98.346567 
L 439.202253 -98.346567 
L 452.639949 -98.346567 
L 466.077645 -98.346567 
L 479.515341 -98.346567 
L 479.515341 -180.188079 
L 479.515341 -180.188079 
L 466.077645 -180.188079 
L 452.639949 -180.188079 
L 439.202253 -180.188079 
L 425.764557 -180.188079 
L 412.326861 -180.188079 
L 398.889165 -180.188079 
L 385.451469 -184.690704 
L 372.013774 -184.690704 
L 358.576078 -181.698678 
L 345.138382 -181.698678 
L 331.700686 -201.513118 
L 318.26299 -201.513118 
L 304.825294 -201.513118 
L 291.387598 -201.513118 
L 277.949902 -201.513118 
L 264.512206 -201.513118 
L 251.07451 -201.513118 
L 237.636814 -201.513118 
L 224.199118 -201.513118 
L 210.761422 -201.513118 
L 197.323726 -197.071975 
L 183.886031 -192.39752 
L 170.448335 -206.70411 
L 157.010639 -212.785954 
L 143.572943 -205.881297 
L 130.135247 -347.595664 
L 116.697551 -344.157966 
L 103.259855 -338.545262 
L 89.822159 -332.283552 
z
" style="stroke: #00ff00; stroke-opacity: 0.1"/>
    </defs>
    <g clip-path="url(#p969785c49d)">
     <use xlink:href="#m2ddcab1089" x="0" y="432" style="fill: #00ff00; fill-opacity: 0.1; stroke: #00ff00; stroke-opacity: 0.1"/>
    </g>
   </g>
   <g id="PolyCollection_6">
    <defs>
     <path id="maeb8fc8aac" d="M 89.822159 -336.53549 
L 89.822159 -332.283552 
L 103.259855 -338.561426 
L 116.697551 -344.201609 
L 130.135247 -347.653868 
L 143.572943 -355.349384 
L 157.010639 -359.441073 
L 170.448335 -364.374333 
L 183.886031 -367.734002 
L 197.323726 -370.838873 
L 210.761422 -373.716873 
L 224.199118 -376.391991 
L 237.636814 -378.884949 
L 251.07451 -381.213742 
L 264.512206 -383.394068 
L 277.949902 -384.772003 
L 291.387598 -386.734635 
L 304.825294 -388.581947 
L 318.26299 -391.43085 
L 331.700686 -393.016004 
L 345.138382 -395.474323 
L 358.576078 -397.727976 
L 372.013774 -398.992302 
L 385.451469 -399.8015 
L 398.889165 -401.715662 
L 412.326861 -402.795136 
L 425.764557 -403.488154 
L 439.202253 -405.134141 
L 452.639949 -406.066528 
L 466.077645 -406.666701 
L 479.515341 -407.536571 
L 479.515341 -410.445455 
L 479.515341 -410.445455 
L 466.077645 -409.692777 
L 452.639949 -409.174712 
L 439.202253 -408.371902 
L 425.764557 -406.960627 
L 412.326861 -406.066528 
L 398.889165 -405.134141 
L 385.451469 -404.160954 
L 372.013774 -403.144229 
L 358.576078 -402.080976 
L 345.138382 -401.34469 
L 331.700686 -400.196475 
L 318.26299 -398.992302 
L 304.825294 -397.727976 
L 291.387598 -395.474323 
L 277.949902 -393.016004 
L 264.512206 -391.43085 
L 251.07451 -389.754344 
L 237.636814 -386.734635 
L 224.199118 -383.394068 
L 210.761422 -379.678636 
L 197.323726 -374.630036 
L 183.886031 -371.822155 
L 170.448335 -369.830415 
L 157.010639 -366.643931 
L 143.572943 -363.192325 
L 130.135247 -359.441073 
L 116.697551 -355.349384 
L 103.259855 -347.637208 
L 89.822159 -336.53549 
z
" style="stroke: #eeee00; stroke-opacity: 0.1"/>
    </defs>
    <g clip-path="url(#p969785c49d)">
     <use xlink:href="#maeb8fc8aac" x="0" y="432" style="fill: #eeee00; fill-opacity: 0.1; stroke: #eeee00; stroke-opacity: 0.1"/>
    </g>
   </g>
   <g id="PolyCollection_7">
    <defs>
     <path id="m5a40643935" d="M 89.822159 -84.11986 
L 89.822159 -79.354545 
L 103.259855 -79.354545 
L 116.697551 -79.354545 
L 130.135247 -79.354545 
L 143.572943 -79.354545 
L 157.010639 -79.354545 
L 170.448335 -79.354545 
L 183.886031 -79.354545 
L 197.323726 -79.354545 
L 210.761422 -79.354545 
L 224.199118 -79.354545 
L 237.636814 -79.354545 
L 251.07451 -79.354545 
L 264.512206 -79.354545 
L 277.949902 -79.354545 
L 291.387598 -79.354545 
L 304.825294 -79.354545 
L 318.26299 -79.354545 
L 331.700686 -79.354545 
L 345.138382 -79.354545 
L 358.576078 -79.354545 
L 372.013774 -79.354545 
L 385.451469 -79.354545 
L 398.889165 -79.354545 
L 412.326861 -79.354545 
L 425.764557 -79.354545 
L 439.202253 -79.354545 
L 452.639949 -79.354545 
L 466.077645 -79.354545 
L 479.515341 -79.354545 
L 479.515341 -103.519997 
L 479.515341 -103.519997 
L 466.077645 -103.519997 
L 452.639949 -103.519997 
L 439.202253 -103.519997 
L 425.764557 -103.519997 
L 412.326861 -103.519997 
L 398.889165 -103.519997 
L 385.451469 -103.519997 
L 372.013774 -103.519997 
L 358.576078 -103.519997 
L 345.138382 -103.519997 
L 331.700686 -103.519997 
L 318.26299 -103.519997 
L 304.825294 -103.519997 
L 291.387598 -103.519997 
L 277.949902 -103.519997 
L 264.512206 -103.519997 
L 251.07451 -103.519997 
L 237.636814 -103.519997 
L 224.199118 -103.519997 
L 210.761422 -103.519997 
L 197.323726 -103.519997 
L 183.886031 -103.519997 
L 170.448335 -103.519997 
L 157.010639 -103.519997 
L 143.572943 -103.519997 
L 130.135247 -103.519997 
L 116.697551 -103.519997 
L 103.259855 -103.519997 
L 89.822159 -84.11986 
z
" style="stroke: #00eeee; stroke-opacity: 0.1"/>
    </defs>
    <g clip-path="url(#p969785c49d)">
     <use xlink:href="#m5a40643935" x="0" y="432" style="fill: #00eeee; fill-opacity: 0.1; stroke: #00eeee; stroke-opacity: 0.1"/>
    </g>
   </g>
   <g id="matplotlib.axis_1">
    <g id="xtick_1">
     <g id="line2d_1">
      <path d="M 89.822159 369.2 
L 89.822159 5 
" clip-path="url(#p969785c49d)" style="fill: none; stroke: #b0b0b0; stroke-width: 0.8; stroke-linecap: square"/>
     </g>
     <g id="line2d_2">
      <defs>
       <path id="m9626fa17ac" d="M 0 0 
L 0 3.5 
" style="stroke: #000000; stroke-width: 0.8"/>
      </defs>
      <g>
       <use xlink:href="#m9626fa17ac" x="89.822159" y="369.2" style="stroke: #000000; stroke-width: 0.8"/>
      </g>
     </g>
     <g id="text_1">
      <!-- 0 -->
      <g transform="translate(81.869034 395.196094) scale(0.25 -0.25)">
       <defs>
        <path id="DejaVuSerif-30" d="M 2034 219 
Q 2513 219 2750 744 
Q 2988 1269 2988 2328 
Q 2988 3391 2750 3916 
Q 2513 4441 2034 4441 
Q 1556 4441 1318 3916 
Q 1081 3391 1081 2328 
Q 1081 1269 1318 744 
Q 1556 219 2034 219 
z
M 2034 -91 
Q 1275 -91 848 546 
Q 422 1184 422 2328 
Q 422 3475 848 4112 
Q 1275 4750 2034 4750 
Q 2797 4750 3222 4112 
Q 3647 3475 3647 2328 
Q 3647 1184 3222 546 
Q 2797 -91 2034 -91 
z
" transform="scale(0.015625)"/>
       </defs>
       <use xlink:href="#DejaVuSerif-30"/>
      </g>
     </g>
    </g>
    <g id="xtick_2">
     <g id="line2d_3">
      <path d="M 224.199118 369.2 
L 224.199118 5 
" clip-path="url(#p969785c49d)" style="fill: none; stroke: #b0b0b0; stroke-width: 0.8; stroke-linecap: square"/>
     </g>
     <g id="line2d_4">
      <g>
       <use xlink:href="#m9626fa17ac" x="224.199118" y="369.2" style="stroke: #000000; stroke-width: 0.8"/>
      </g>
     </g>
     <g id="text_2">
      <!-- 10 -->
      <g transform="translate(208.292868 395.196094) scale(0.25 -0.25)">
       <defs>
        <path id="DejaVuSerif-31" d="M 909 0 
L 909 331 
L 1722 331 
L 1722 4213 
L 781 3603 
L 781 4013 
L 1919 4750 
L 2350 4750 
L 2350 331 
L 3163 331 
L 3163 0 
L 909 0 
z
" transform="scale(0.015625)"/>
       </defs>
       <use xlink:href="#DejaVuSerif-31"/>
       <use xlink:href="#DejaVuSerif-30" x="63.623047"/>
      </g>
     </g>
    </g>
    <g id="xtick_3">
     <g id="line2d_5">
      <path d="M 358.576078 369.2 
L 358.576078 5 
" clip-path="url(#p969785c49d)" style="fill: none; stroke: #b0b0b0; stroke-width: 0.8; stroke-linecap: square"/>
     </g>
     <g id="line2d_6">
      <g>
       <use xlink:href="#m9626fa17ac" x="358.576078" y="369.2" style="stroke: #000000; stroke-width: 0.8"/>
      </g>
     </g>
     <g id="text_3">
      <!-- 20 -->
      <g transform="translate(342.669828 395.196094) scale(0.25 -0.25)">
       <defs>
        <path id="DejaVuSerif-32" d="M 819 3553 
L 469 3553 
L 469 4384 
Q 803 4563 1142 4656 
Q 1481 4750 1806 4750 
Q 2534 4750 2956 4397 
Q 3378 4044 3378 3438 
Q 3378 2753 2422 1800 
Q 2347 1728 2309 1691 
L 1131 513 
L 3078 513 
L 3078 1088 
L 3444 1088 
L 3444 0 
L 434 0 
L 434 341 
L 1850 1753 
Q 2319 2222 2519 2614 
Q 2719 3006 2719 3438 
Q 2719 3909 2473 4175 
Q 2228 4441 1797 4441 
Q 1350 4441 1106 4219 
Q 863 3997 819 3553 
z
" transform="scale(0.015625)"/>
       </defs>
       <use xlink:href="#DejaVuSerif-32"/>
       <use xlink:href="#DejaVuSerif-30" x="63.623047"/>
      </g>
     </g>
    </g>
    <g id="text_4">
     <!-- $\it{t}$ -->
     <g transform="translate(280.06875 421.871719) scale(0.23 -0.23)">
      <defs>
       <path id="DejaVuSans-Oblique-74" d="M 2706 3500 
L 2619 3053 
L 1472 3053 
L 1100 1153 
Q 1081 1047 1072 975 
Q 1063 903 1063 863 
Q 1063 663 1183 572 
Q 1303 481 1569 481 
L 2150 481 
L 2053 0 
L 1503 0 
Q 991 0 739 200 
Q 488 400 488 806 
Q 488 878 497 964 
Q 506 1050 525 1153 
L 897 3053 
L 409 3053 
L 500 3500 
L 978 3500 
L 1172 4494 
L 1747 4494 
L 1556 3500 
L 2706 3500 
z
" transform="scale(0.015625)"/>
      </defs>
      <use xlink:href="#DejaVuSans-Oblique-74" transform="translate(0 0.78125)"/>
     </g>
    </g>
   </g>
   <g id="matplotlib.axis_2">
    <g id="ytick_1">
     <g id="line2d_7">
      <path d="M 70.3375 354.844551 
L 499 354.844551 
" clip-path="url(#p969785c49d)" style="fill: none; stroke: #b0b0b0; stroke-width: 0.8; stroke-linecap: square"/>
     </g>
     <g id="line2d_8">
      <defs>
       <path id="m4c93e4bb2e" d="M 0 0 
L -3.5 0 
" style="stroke: #000000; stroke-width: 0.8"/>
      </defs>
      <g>
       <use xlink:href="#m4c93e4bb2e" x="70.3375" y="354.844551" style="stroke: #000000; stroke-width: 0.8"/>
      </g>
     </g>
     <g id="text_5">
      <!-- 0 -->
      <g transform="translate(47.43125 364.342598) scale(0.25 -0.25)">
       <use xlink:href="#DejaVuSerif-30"/>
      </g>
     </g>
    </g>
    <g id="ytick_2">
     <g id="line2d_9">
      <path d="M 70.3375 280.228639 
L 499 280.228639 
" clip-path="url(#p969785c49d)" style="fill: none; stroke: #b0b0b0; stroke-width: 0.8; stroke-linecap: square"/>
     </g>
     <g id="line2d_10">
      <g>
       <use xlink:href="#m4c93e4bb2e" x="70.3375" y="280.228639" style="stroke: #000000; stroke-width: 0.8"/>
      </g>
     </g>
     <g id="text_6">
      <!-- 20 -->
      <g transform="translate(31.525 289.726685) scale(0.25 -0.25)">
       <use xlink:href="#DejaVuSerif-32"/>
       <use xlink:href="#DejaVuSerif-30" x="63.623047"/>
      </g>
     </g>
    </g>
    <g id="ytick_3">
     <g id="line2d_11">
      <path d="M 70.3375 205.612726 
L 499 205.612726 
" clip-path="url(#p969785c49d)" style="fill: none; stroke: #b0b0b0; stroke-width: 0.8; stroke-linecap: square"/>
     </g>
     <g id="line2d_12">
      <g>
       <use xlink:href="#m4c93e4bb2e" x="70.3375" y="205.612726" style="stroke: #000000; stroke-width: 0.8"/>
      </g>
     </g>
     <g id="text_7">
      <!-- 40 -->
      <g transform="translate(31.525 215.110773) scale(0.25 -0.25)">
       <defs>
        <path id="DejaVuSerif-34" d="M 2234 1581 
L 2234 4063 
L 641 1581 
L 2234 1581 
z
M 3609 0 
L 1484 0 
L 1484 331 
L 2234 331 
L 2234 1247 
L 197 1247 
L 197 1588 
L 2241 4750 
L 2859 4750 
L 2859 1581 
L 3750 1581 
L 3750 1247 
L 2859 1247 
L 2859 331 
L 3609 331 
L 3609 0 
z
" transform="scale(0.015625)"/>
       </defs>
       <use xlink:href="#DejaVuSerif-34"/>
       <use xlink:href="#DejaVuSerif-30" x="63.623047"/>
      </g>
     </g>
    </g>
    <g id="ytick_4">
     <g id="line2d_13">
      <path d="M 70.3375 130.996813 
L 499 130.996813 
" clip-path="url(#p969785c49d)" style="fill: none; stroke: #b0b0b0; stroke-width: 0.8; stroke-linecap: square"/>
     </g>
     <g id="line2d_14">
      <g>
       <use xlink:href="#m4c93e4bb2e" x="70.3375" y="130.996813" style="stroke: #000000; stroke-width: 0.8"/>
      </g>
     </g>
     <g id="text_8">
      <!-- 60 -->
      <g transform="translate(31.525 140.49486) scale(0.25 -0.25)">
       <defs>
        <path id="DejaVuSerif-36" d="M 2094 219 
Q 2534 219 2771 542 
Q 3009 866 3009 1472 
Q 3009 2078 2771 2401 
Q 2534 2725 2094 2725 
Q 1647 2725 1412 2412 
Q 1178 2100 1178 1509 
Q 1178 888 1415 553 
Q 1653 219 2094 219 
z
M 1075 2569 
Q 1288 2803 1556 2918 
Q 1825 3034 2163 3034 
Q 2859 3034 3264 2615 
Q 3669 2197 3669 1472 
Q 3669 763 3233 336 
Q 2797 -91 2069 -91 
Q 1278 -91 853 498 
Q 428 1088 428 2181 
Q 428 3406 931 4078 
Q 1434 4750 2350 4750 
Q 2597 4750 2869 4703 
Q 3141 4656 3425 4563 
L 3425 3794 
L 3072 3794 
Q 3034 4109 2831 4275 
Q 2628 4441 2284 4441 
Q 1678 4441 1381 3981 
Q 1084 3522 1075 2569 
z
" transform="scale(0.015625)"/>
       </defs>
       <use xlink:href="#DejaVuSerif-36"/>
       <use xlink:href="#DejaVuSerif-30" x="63.623047"/>
      </g>
     </g>
    </g>
    <g id="ytick_5">
     <g id="line2d_15">
      <path d="M 70.3375 56.3809 
L 499 56.3809 
" clip-path="url(#p969785c49d)" style="fill: none; stroke: #b0b0b0; stroke-width: 0.8; stroke-linecap: square"/>
     </g>
     <g id="line2d_16">
      <g>
       <use xlink:href="#m4c93e4bb2e" x="70.3375" y="56.3809" style="stroke: #000000; stroke-width: 0.8"/>
      </g>
     </g>
     <g id="text_9">
      <!-- 80 -->
      <g transform="translate(31.525 65.878947) scale(0.25 -0.25)">
       <defs>
        <path id="DejaVuSerif-38" d="M 2981 1275 
Q 2981 1775 2732 2051 
Q 2484 2328 2034 2328 
Q 1584 2328 1336 2051 
Q 1088 1775 1088 1275 
Q 1088 772 1336 495 
Q 1584 219 2034 219 
Q 2484 219 2732 495 
Q 2981 772 2981 1275 
z
M 2853 3541 
Q 2853 3966 2637 4203 
Q 2422 4441 2034 4441 
Q 1650 4441 1433 4203 
Q 1216 3966 1216 3541 
Q 1216 3113 1433 2875 
Q 1650 2638 2034 2638 
Q 2422 2638 2637 2875 
Q 2853 3113 2853 3541 
z
M 2516 2484 
Q 3047 2413 3344 2092 
Q 3641 1772 3641 1275 
Q 3641 619 3225 264 
Q 2809 -91 2034 -91 
Q 1263 -91 845 264 
Q 428 619 428 1275 
Q 428 1772 725 2092 
Q 1022 2413 1556 2484 
Q 1084 2569 832 2842 
Q 581 3116 581 3541 
Q 581 4103 968 4426 
Q 1356 4750 2034 4750 
Q 2713 4750 3100 4426 
Q 3488 4103 3488 3541 
Q 3488 3116 3236 2842 
Q 2984 2569 2516 2484 
z
" transform="scale(0.015625)"/>
       </defs>
       <use xlink:href="#DejaVuSerif-38"/>
       <use xlink:href="#DejaVuSerif-30" x="63.623047"/>
      </g>
     </g>
    </g>
    <g id="text_10">
     <!-- Resource Efficiency (%) -->
     <g transform="translate(22.414688 326.605781) rotate(-90) scale(0.23 -0.23)">
      <defs>
       <path id="DejaVuSerif-52" d="M 3066 2316 
Q 3284 2256 3442 2114 
Q 3600 1972 3725 1716 
L 4403 331 
L 4972 331 
L 4972 0 
L 3872 0 
L 3144 1484 
Q 2934 1916 2759 2042 
Q 2584 2169 2278 2169 
L 1581 2169 
L 1581 331 
L 2241 331 
L 2241 0 
L 353 0 
L 353 331 
L 947 331 
L 947 4331 
L 353 4331 
L 353 4666 
L 2719 4666 
Q 3400 4666 3770 4341 
Q 4141 4016 4141 3419 
Q 4141 2938 3870 2661 
Q 3600 2384 3066 2316 
z
M 1581 2503 
L 2503 2503 
Q 2975 2503 3200 2726 
Q 3425 2950 3425 3419 
Q 3425 3888 3200 4109 
Q 2975 4331 2503 4331 
L 1581 4331 
L 1581 2503 
z
" transform="scale(0.015625)"/>
       <path id="DejaVuSerif-65" d="M 3469 1600 
L 991 1600 
L 991 1575 
Q 991 903 1244 561 
Q 1497 219 1991 219 
Q 2369 219 2611 417 
Q 2853 616 2950 1006 
L 3413 1006 
Q 3275 459 2904 184 
Q 2534 -91 1931 -91 
Q 1203 -91 761 389 
Q 319 869 319 1663 
Q 319 2450 753 2931 
Q 1188 3413 1894 3413 
Q 2647 3413 3050 2948 
Q 3453 2484 3469 1600 
z
M 2791 1931 
Q 2772 2513 2545 2808 
Q 2319 3103 1894 3103 
Q 1497 3103 1269 2806 
Q 1041 2509 991 1931 
L 2791 1931 
z
" transform="scale(0.015625)"/>
       <path id="DejaVuSerif-73" d="M 359 184 
L 359 959 
L 691 959 
Q 703 588 923 403 
Q 1144 219 1575 219 
Q 1963 219 2166 364 
Q 2369 509 2369 788 
Q 2369 1006 2220 1140 
Q 2072 1275 1594 1428 
L 1178 1569 
Q 750 1706 558 1912 
Q 366 2119 366 2438 
Q 366 2894 700 3153 
Q 1034 3413 1625 3413 
Q 1888 3413 2178 3344 
Q 2469 3275 2778 3144 
L 2778 2419 
L 2447 2419 
Q 2434 2741 2221 2922 
Q 2009 3103 1644 3103 
Q 1281 3103 1095 2975 
Q 909 2847 909 2591 
Q 909 2381 1050 2254 
Q 1191 2128 1613 1997 
L 2069 1856 
Q 2541 1709 2748 1489 
Q 2956 1269 2956 922 
Q 2956 450 2595 179 
Q 2234 -91 1600 -91 
Q 1278 -91 972 -22 
Q 666 47 359 184 
z
" transform="scale(0.015625)"/>
       <path id="DejaVuSerif-6f" d="M 1925 219 
Q 2388 219 2623 584 
Q 2859 950 2859 1663 
Q 2859 2375 2623 2739 
Q 2388 3103 1925 3103 
Q 1463 3103 1227 2739 
Q 991 2375 991 1663 
Q 991 950 1228 584 
Q 1466 219 1925 219 
z
M 1925 -91 
Q 1200 -91 759 389 
Q 319 869 319 1663 
Q 319 2456 758 2934 
Q 1197 3413 1925 3413 
Q 2653 3413 3092 2934 
Q 3531 2456 3531 1663 
Q 3531 869 3092 389 
Q 2653 -91 1925 -91 
z
" transform="scale(0.015625)"/>
       <path id="DejaVuSerif-75" d="M 2266 3322 
L 3341 3322 
L 3341 331 
L 3884 331 
L 3884 0 
L 2766 0 
L 2766 588 
Q 2606 256 2353 82 
Q 2100 -91 1766 -91 
Q 1213 -91 952 223 
Q 691 538 691 1209 
L 691 2988 
L 172 2988 
L 172 3322 
L 1269 3322 
L 1269 1388 
Q 1269 781 1417 556 
Q 1566 331 1947 331 
Q 2347 331 2556 625 
Q 2766 919 2766 1478 
L 2766 2988 
L 2266 2988 
L 2266 3322 
z
" transform="scale(0.015625)"/>
       <path id="DejaVuSerif-72" d="M 3059 3328 
L 3059 2497 
L 2728 2497 
Q 2713 2744 2591 2866 
Q 2469 2988 2234 2988 
Q 1809 2988 1582 2694 
Q 1356 2400 1356 1850 
L 1356 331 
L 2022 331 
L 2022 0 
L 263 0 
L 263 331 
L 781 331 
L 781 2994 
L 231 2994 
L 231 3322 
L 1356 3322 
L 1356 2731 
Q 1525 3078 1790 3245 
Q 2056 3413 2438 3413 
Q 2578 3413 2733 3391 
Q 2888 3369 3059 3328 
z
" transform="scale(0.015625)"/>
       <path id="DejaVuSerif-63" d="M 3291 997 
Q 3169 466 2822 187 
Q 2475 -91 1925 -91 
Q 1200 -91 759 389 
Q 319 869 319 1663 
Q 319 2459 759 2936 
Q 1200 3413 1925 3413 
Q 2241 3413 2553 3339 
Q 2866 3266 3181 3116 
L 3181 2266 
L 2847 2266 
Q 2781 2703 2561 2903 
Q 2341 3103 1931 3103 
Q 1466 3103 1228 2742 
Q 991 2381 991 1663 
Q 991 944 1227 581 
Q 1463 219 1931 219 
Q 2303 219 2525 412 
Q 2747 606 2828 997 
L 3291 997 
z
" transform="scale(0.015625)"/>
       <path id="DejaVuSerif-20" transform="scale(0.015625)"/>
       <path id="DejaVuSerif-45" d="M 353 0 
L 353 331 
L 947 331 
L 947 4331 
L 353 4331 
L 353 4666 
L 4109 4666 
L 4109 3628 
L 3725 3628 
L 3725 4281 
L 1581 4281 
L 1581 2719 
L 3109 2719 
L 3109 3303 
L 3494 3303 
L 3494 1753 
L 3109 1753 
L 3109 2338 
L 1581 2338 
L 1581 384 
L 3775 384 
L 3775 1038 
L 4159 1038 
L 4159 0 
L 353 0 
z
" transform="scale(0.015625)"/>
       <path id="DejaVuSerif-66" d="M 2753 4078 
L 2450 4078 
Q 2447 4313 2317 4434 
Q 2188 4556 1941 4556 
Q 1619 4556 1487 4379 
Q 1356 4203 1356 3750 
L 1356 3322 
L 2284 3322 
L 2284 2988 
L 1356 2988 
L 1356 331 
L 2094 331 
L 2094 0 
L 231 0 
L 231 331 
L 781 331 
L 781 2988 
L 231 2988 
L 231 3322 
L 781 3322 
L 781 3738 
Q 781 4294 1070 4578 
Q 1359 4863 1919 4863 
Q 2128 4863 2337 4825 
Q 2547 4788 2753 4709 
L 2753 4078 
z
" transform="scale(0.015625)"/>
       <path id="DejaVuSerif-69" d="M 622 4353 
Q 622 4497 726 4603 
Q 831 4709 978 4709 
Q 1122 4709 1226 4603 
Q 1331 4497 1331 4353 
Q 1331 4206 1228 4103 
Q 1125 4000 978 4000 
Q 831 4000 726 4103 
Q 622 4206 622 4353 
z
M 1356 331 
L 1900 331 
L 1900 0 
L 231 0 
L 231 331 
L 781 331 
L 781 2988 
L 231 2988 
L 231 3322 
L 1356 3322 
L 1356 331 
z
" transform="scale(0.015625)"/>
       <path id="DejaVuSerif-6e" d="M 263 0 
L 263 331 
L 781 331 
L 781 2988 
L 231 2988 
L 231 3322 
L 1356 3322 
L 1356 2731 
Q 1516 3069 1770 3241 
Q 2025 3413 2363 3413 
Q 2913 3413 3172 3097 
Q 3431 2781 3431 2113 
L 3431 331 
L 3944 331 
L 3944 0 
L 2356 0 
L 2356 331 
L 2853 331 
L 2853 1931 
Q 2853 2541 2703 2767 
Q 2553 2994 2175 2994 
Q 1775 2994 1565 2701 
Q 1356 2409 1356 1850 
L 1356 331 
L 1856 331 
L 1856 0 
L 263 0 
z
" transform="scale(0.015625)"/>
       <path id="DejaVuSerif-79" d="M 1381 -609 
L 1600 -56 
L 359 2988 
L -19 2988 
L -19 3322 
L 1509 3322 
L 1509 2988 
L 978 2988 
L 1913 703 
L 2847 2988 
L 2350 2988 
L 2350 3322 
L 3597 3322 
L 3597 2988 
L 3225 2988 
L 1703 -750 
Q 1547 -1138 1356 -1280 
Q 1166 -1422 819 -1422 
Q 672 -1422 517 -1397 
Q 363 -1372 206 -1325 
L 206 -691 
L 500 -691 
Q 519 -903 608 -995 
Q 697 -1088 884 -1088 
Q 1056 -1088 1161 -992 
Q 1266 -897 1381 -609 
z
" transform="scale(0.015625)"/>
       <path id="DejaVuSerif-28" d="M 2041 -997 
Q 1281 -656 893 83 
Q 506 822 506 1931 
Q 506 3044 893 3783 
Q 1281 4522 2041 4863 
L 2041 4556 
Q 1559 4225 1350 3623 
Q 1141 3022 1141 1931 
Q 1141 844 1350 242 
Q 1559 -359 2041 -691 
L 2041 -997 
z
" transform="scale(0.015625)"/>
       <path id="DejaVuSerif-25" d="M 1434 4459 
Q 1159 4459 1004 4200 
Q 850 3941 850 3475 
Q 850 3016 1008 2753 
Q 1166 2491 1434 2491 
Q 1700 2491 1854 2752 
Q 2009 3013 2009 3475 
Q 2009 3938 1854 4198 
Q 1700 4459 1434 4459 
z
M 4653 2169 
Q 4381 2169 4226 1906 
Q 4072 1644 4072 1178 
Q 4072 719 4228 458 
Q 4384 197 4653 197 
Q 4922 197 5075 458 
Q 5228 719 5228 1178 
Q 5228 1641 5073 1905 
Q 4919 2169 4653 2169 
z
M 4653 2450 
Q 5147 2450 5437 2106 
Q 5728 1763 5728 1178 
Q 5728 594 5436 251 
Q 5144 -91 4653 -91 
Q 4153 -91 3862 251 
Q 3572 594 3572 1178 
Q 3572 1766 3864 2108 
Q 4156 2450 4653 2450 
z
M 4263 4750 
L 4738 4750 
L 1819 -91 
L 1344 -91 
L 4263 4750 
z
M 1428 4750 
Q 1922 4750 2215 4408 
Q 2509 4066 2509 3481 
Q 2509 2891 2217 2550 
Q 1925 2209 1428 2209 
Q 931 2209 642 2551 
Q 353 2894 353 3481 
Q 353 4063 643 4406 
Q 934 4750 1428 4750 
z
" transform="scale(0.015625)"/>
       <path id="DejaVuSerif-29" d="M 453 -997 
L 453 -691 
Q 934 -359 1145 242 
Q 1356 844 1356 1931 
Q 1356 3022 1145 3623 
Q 934 4225 453 4556 
L 453 4863 
Q 1216 4522 1603 3783 
Q 1991 3044 1991 1931 
Q 1991 822 1603 83 
Q 1216 -656 453 -997 
z
" transform="scale(0.015625)"/>
      </defs>
      <use xlink:href="#DejaVuSerif-52"/>
      <use xlink:href="#DejaVuSerif-65" x="75.292969"/>
      <use xlink:href="#DejaVuSerif-73" x="134.472656"/>
      <use xlink:href="#DejaVuSerif-6f" x="185.791016"/>
      <use xlink:href="#DejaVuSerif-75" x="245.996094"/>
      <use xlink:href="#DejaVuSerif-72" x="310.400391"/>
      <use xlink:href="#DejaVuSerif-63" x="358.203125"/>
      <use xlink:href="#DejaVuSerif-65" x="414.208984"/>
      <use xlink:href="#DejaVuSerif-20" x="473.388672"/>
      <use xlink:href="#DejaVuSerif-45" x="505.175781"/>
      <use xlink:href="#DejaVuSerif-66" x="578.173828"/>
      <use xlink:href="#DejaVuSerif-66" x="615.185547"/>
      <use xlink:href="#DejaVuSerif-69" x="652.197266"/>
      <use xlink:href="#DejaVuSerif-63" x="684.179688"/>
      <use xlink:href="#DejaVuSerif-69" x="740.185547"/>
      <use xlink:href="#DejaVuSerif-65" x="772.167969"/>
      <use xlink:href="#DejaVuSerif-6e" x="831.347656"/>
      <use xlink:href="#DejaVuSerif-63" x="895.751953"/>
      <use xlink:href="#DejaVuSerif-79" x="951.757812"/>
      <use xlink:href="#DejaVuSerif-20" x="1008.251953"/>
      <use xlink:href="#DejaVuSerif-28" x="1040.039062"/>
      <use xlink:href="#DejaVuSerif-25" x="1079.052734"/>
      <use xlink:href="#DejaVuSerif-29" x="1174.072266"/>
     </g>
    </g>
   </g>
   <g id="line2d_17">
    <path d="M 89.822159 136.893904 
L 103.259855 212.996117 
L 116.697551 241.095795 
L 130.135247 233.950407 
L 143.572943 276.47988 
L 157.010639 277.288755 
L 170.448335 278.966933 
L 183.886031 276.288056 
L 197.323726 273.64898 
L 210.761422 293.450031 
L 224.199118 291.808992 
L 237.636814 289.573324 
L 251.07451 289.166752 
L 264.512206 285.980689 
L 277.949902 282.930274 
L 291.387598 281.550055 
L 304.825294 280.167712 
L 318.26299 283.663903 
L 331.700686 282.300646 
L 345.138382 281.382608 
L 358.576078 280.027726 
L 372.013774 280.862727 
L 385.451469 279.062023 
L 398.889165 280.220321 
L 412.326861 279.438084 
L 425.764557 278.147169 
L 439.202253 277.503992 
L 452.639949 276.438327 
L 466.077645 274.275151 
L 479.515341 273.254438 
" clip-path="url(#p969785c49d)" style="fill: none; stroke: #646464; stroke-width: 5; stroke-linecap: square"/>
    <defs>
     <path id="m8e2f8660ff" d="M 0 8.5 
C 2.254226 8.5 4.416429 7.604386 6.010408 6.010408 
C 7.604386 4.416429 8.5 2.254226 8.5 0 
C 8.5 -2.254226 7.604386 -4.416429 6.010408 -6.010408 
C 4.416429 -7.604386 2.254226 -8.5 0 -8.5 
C -2.254226 -8.5 -4.416429 -7.604386 -6.010408 -6.010408 
C -7.604386 -4.416429 -8.5 -2.254226 -8.5 0 
C -8.5 2.254226 -7.604386 4.416429 -6.010408 6.010408 
C -4.416429 7.604386 -2.254226 8.5 0 8.5 
z
" style="stroke: #646464; stroke-width: 4"/>
    </defs>
    <g clip-path="url(#p969785c49d)">
     <use xlink:href="#m8e2f8660ff" x="89.822159" y="136.893904" style="fill-opacity: 0; stroke: #646464; stroke-width: 4"/>
     <use xlink:href="#m8e2f8660ff" x="224.199118" y="291.808992" style="fill-opacity: 0; stroke: #646464; stroke-width: 4"/>
     <use xlink:href="#m8e2f8660ff" x="358.576078" y="280.027726" style="fill-opacity: 0; stroke: #646464; stroke-width: 4"/>
    </g>
   </g>
   <g id="line2d_18">
    <path d="M 89.822159 136.893904 
L 103.259855 212.996117 
L 116.697551 241.095795 
L 130.135247 233.950407 
L 143.572943 276.805797 
L 157.010639 277.288755 
L 170.448335 278.966933 
L 183.886031 276.721204 
L 197.323726 273.64898 
L 210.761422 293.450031 
L 224.199118 291.808992 
L 237.636814 290.123761 
L 251.07451 289.166752 
L 264.512206 285.980689 
L 277.949902 282.930274 
L 291.387598 281.550055 
L 304.825294 280.167712 
L 318.26299 285.173984 
L 331.700686 283.835406 
L 345.138382 282.9332 
L 358.576078 281.596922 
L 372.013774 282.79672 
L 385.451469 281.233676 
L 398.889165 282.244454 
L 412.326861 281.127889 
L 425.764557 280.356969 
L 439.202253 280.839317 
L 452.639949 279.807688 
L 466.077645 277.875284 
L 479.515341 276.88449 
" clip-path="url(#p969785c49d)" style="fill: none; stroke: #ee0000; stroke-width: 5; stroke-linecap: square"/>
    <defs>
     <path id="m56efd086d8" d="M -0 8.5 
L 8.5 -8.5 
L -8.5 -8.5 
z
" style="stroke: #ee0000; stroke-width: 4; stroke-linejoin: miter"/>
    </defs>
    <g clip-path="url(#p969785c49d)">
     <use xlink:href="#m56efd086d8" x="89.822159" y="136.893904" style="fill-opacity: 0; stroke: #ee0000; stroke-width: 4; stroke-linejoin: miter"/>
     <use xlink:href="#m56efd086d8" x="224.199118" y="291.808992" style="fill-opacity: 0; stroke: #ee0000; stroke-width: 4; stroke-linejoin: miter"/>
     <use xlink:href="#m56efd086d8" x="358.576078" y="281.596922" style="fill-opacity: 0; stroke: #ee0000; stroke-width: 4; stroke-linejoin: miter"/>
    </g>
   </g>
   <g id="line2d_19">
    <path d="M 89.822159 136.958194 
L 103.259855 213.122537 
L 116.697551 241.252382 
L 130.135247 234.180632 
L 143.572943 275.615564 
L 157.010639 275.849233 
L 170.448335 277.323884 
L 183.886031 274.886684 
L 197.323726 271.739208 
L 210.761422 291.411477 
L 224.199118 289.509878 
L 237.636814 287.758474 
L 251.07451 286.132502 
L 264.512206 282.854552 
L 277.949902 280.606114 
L 291.387598 279.014497 
L 304.825294 277.483462 
L 318.26299 276.852106 
L 331.700686 275.152868 
L 345.138382 297.675517 
L 358.576078 295.524921 
L 372.013774 296.245977 
L 385.451469 294.036947 
L 398.889165 293.448052 
L 412.326861 292.184958 
L 425.764557 291.820448 
L 439.202253 291.214257 
L 452.639949 289.972052 
L 466.077645 288.086113 
L 479.515341 286.837435 
" clip-path="url(#p969785c49d)" style="fill: none; stroke: #6e8ee6; stroke-width: 5; stroke-linecap: square"/>
    <defs>
     <path id="mb0b1f9c6e7" d="M 0 -8.5 
L -7.361216 -4.25 
L -7.361216 4.25 
L -0 8.5 
L 7.361216 4.25 
L 7.361216 -4.25 
z
" style="stroke: #6e8ee6; stroke-width: 4; stroke-linejoin: miter"/>
    </defs>
    <g clip-path="url(#p969785c49d)">
     <use xlink:href="#mb0b1f9c6e7" x="89.822159" y="136.958194" style="fill-opacity: 0; stroke: #6e8ee6; stroke-width: 4; stroke-linejoin: miter"/>
     <use xlink:href="#mb0b1f9c6e7" x="224.199118" y="289.509878" style="fill-opacity: 0; stroke: #6e8ee6; stroke-width: 4; stroke-linejoin: miter"/>
     <use xlink:href="#mb0b1f9c6e7" x="358.576078" y="295.524921" style="fill-opacity: 0; stroke: #6e8ee6; stroke-width: 4; stroke-linejoin: miter"/>
    </g>
   </g>
   <g id="line2d_20">
    <path d="M 89.822159 136.893904 
L 103.259855 212.996117 
L 116.697551 241.095795 
L 130.135247 233.950407 
L 143.572943 275.476467 
L 157.010639 275.651954 
L 170.448335 277.112712 
L 183.886031 274.70442 
L 197.323726 271.504635 
L 210.761422 291.201385 
L 224.199118 289.257983 
L 237.636814 287.462368 
L 251.07451 285.789878 
L 264.512206 282.501879 
L 277.949902 278.860126 
L 291.387598 277.925229 
L 304.825294 277.49971 
L 318.26299 276.871186 
L 331.700686 276.447938 
L 345.138382 276.029206 
L 358.576078 274.585655 
L 372.013774 274.585655 
L 385.451469 274.585655 
L 398.889165 274.585655 
L 412.326861 274.372752 
L 425.764557 274.372752 
L 439.202253 274.162202 
L 452.639949 273.953957 
L 466.077645 273.747973 
L 479.515341 273.544204 
" clip-path="url(#p969785c49d)" style="fill: none; stroke: #21cd7d; stroke-width: 5; stroke-linecap: square"/>
    <defs>
     <path id="mc7b989ca84" d="M 0 -8.5 
L -8.5 8.5 
L 8.5 8.5 
z
" style="stroke: #21cd7d; stroke-width: 4; stroke-linejoin: miter"/>
    </defs>
    <g clip-path="url(#p969785c49d)">
     <use xlink:href="#mc7b989ca84" x="89.822159" y="136.893904" style="fill-opacity: 0; stroke: #21cd7d; stroke-width: 4; stroke-linejoin: miter"/>
     <use xlink:href="#mc7b989ca84" x="224.199118" y="289.257983" style="fill-opacity: 0; stroke: #21cd7d; stroke-width: 4; stroke-linejoin: miter"/>
     <use xlink:href="#mc7b989ca84" x="358.576078" y="274.585655" style="fill-opacity: 0; stroke: #21cd7d; stroke-width: 4; stroke-linejoin: miter"/>
    </g>
   </g>
   <g id="line2d_21">
    <path d="M 89.822159 136.893904 
L 103.259855 212.996117 
L 116.697551 241.095795 
L 130.135247 233.950407 
L 143.572943 276.47988 
L 157.010639 276.925124 
L 170.448335 278.567582 
L 183.886031 277.923405 
L 197.323726 275.612176 
L 210.761422 296.33918 
L 224.199118 296.33918 
L 237.636814 295.326073 
L 251.07451 295.11633 
L 264.512206 294.905079 
L 277.949902 294.905079 
L 291.387598 294.696022 
L 304.825294 294.48912 
L 318.26299 295.39463 
L 331.700686 294.984349 
L 345.138382 314.551481 
L 358.576078 314.551481 
L 372.013774 313.538916 
L 385.451469 313.338246 
L 398.889165 314.238771 
L 412.326861 314.029517 
L 425.764557 314.029517 
L 439.202253 314.029517 
L 452.639949 314.029517 
L 466.077645 314.029517 
L 479.515341 314.029517 
" clip-path="url(#p969785c49d)" style="fill: none; stroke: #00ff00; stroke-width: 5; stroke-linecap: square"/>
    <defs>
     <path id="mdb27d0ab05" d="M 0 12.020815 
L 12.020815 0 
L 0 -12.020815 
L -12.020815 0 
z
" style="stroke: #00ff00; stroke-width: 4; stroke-linejoin: miter"/>
    </defs>
    <g clip-path="url(#p969785c49d)">
     <use xlink:href="#mdb27d0ab05" x="89.822159" y="136.893904" style="fill-opacity: 0; stroke: #00ff00; stroke-width: 4; stroke-linejoin: miter"/>
     <use xlink:href="#mdb27d0ab05" x="224.199118" y="296.33918" style="fill-opacity: 0; stroke: #00ff00; stroke-width: 4; stroke-linejoin: miter"/>
     <use xlink:href="#mdb27d0ab05" x="358.576078" y="314.551481" style="fill-opacity: 0; stroke: #00ff00; stroke-width: 4; stroke-linejoin: miter"/>
    </g>
   </g>
   <g id="line2d_22">
    <path d="M 89.822159 98.866061 
L 103.259855 90.474361 
L 116.697551 83.200453 
L 130.135247 78.85562 
L 143.572943 72.657244 
L 157.010639 68.42779 
L 170.448335 64.535841 
L 183.886031 61.393824 
L 197.323726 58.497965 
L 210.761422 54.646998 
L 224.199118 51.928586 
L 237.636814 49.005627 
L 251.07451 46.69773 
L 264.512206 44.663565 
L 277.949902 42.894115 
L 291.387598 40.985261 
L 304.825294 39.19688 
L 318.26299 37.252359 
L 331.700686 35.836844 
L 345.138382 34.02624 
L 358.576078 32.006869 
L 372.013774 30.693975 
L 385.451469 29.747379 
L 398.889165 28.612066 
L 412.326861 27.605199 
L 425.764557 26.654844 
L 439.202253 25.49091 
L 452.639949 24.613955 
L 466.077645 23.881603 
L 479.515341 23.068352 
" clip-path="url(#p969785c49d)" style="fill: none; stroke-dasharray: 18.5,8; stroke-dashoffset: 0; stroke: #eeee00; stroke-width: 5"/>
    <defs>
     <path id="m0c72cafa1b" d="M 8.5 0 
L -8.5 -8.5 
L -8.5 8.5 
z
" style="stroke: #eeee00; stroke-width: 4; stroke-linejoin: miter"/>
    </defs>
    <g clip-path="url(#p969785c49d)">
     <use xlink:href="#m0c72cafa1b" x="89.822159" y="98.866061" style="fill-opacity: 0; stroke: #eeee00; stroke-width: 4; stroke-linejoin: miter"/>
     <use xlink:href="#m0c72cafa1b" x="224.199118" y="51.928586" style="fill-opacity: 0; stroke: #eeee00; stroke-width: 4; stroke-linejoin: miter"/>
     <use xlink:href="#m0c72cafa1b" x="358.576078" y="32.006869" style="fill-opacity: 0; stroke: #eeee00; stroke-width: 4; stroke-linejoin: miter"/>
    </g>
   </g>
   <g id="line2d_23">
    <path d="M 89.822159 351.692392 
L 103.259855 346.684187 
L 116.697551 346.684187 
L 130.135247 346.684187 
L 143.572943 346.684187 
L 157.010639 346.684187 
L 170.448335 346.684187 
L 183.886031 346.684187 
L 197.323726 346.684187 
L 210.761422 346.684187 
L 224.199118 346.684187 
L 237.636814 346.684187 
L 251.07451 346.684187 
L 264.512206 346.684187 
L 277.949902 346.684187 
L 291.387598 346.684187 
L 304.825294 346.684187 
L 318.26299 346.684187 
L 331.700686 346.684187 
L 345.138382 346.684187 
L 358.576078 346.684187 
L 372.013774 346.684187 
L 385.451469 346.684187 
L 398.889165 346.684187 
L 412.326861 346.684187 
L 425.764557 346.684187 
L 439.202253 346.684187 
L 452.639949 346.684187 
L 466.077645 346.684187 
L 479.515341 346.684187 
" clip-path="url(#p969785c49d)" style="fill: none; stroke-dasharray: 18.5,8; stroke-dashoffset: 0; stroke: #00eeee; stroke-width: 5"/>
    <defs>
     <path id="mbbe0c78bdf" d="M -8.5 -0 
L 8.5 8.5 
L 8.5 -8.5 
z
" style="stroke: #00eeee; stroke-width: 4; stroke-linejoin: miter"/>
    </defs>
    <g clip-path="url(#p969785c49d)">
     <use xlink:href="#mbbe0c78bdf" x="89.822159" y="351.692392" style="fill-opacity: 0; stroke: #00eeee; stroke-width: 4; stroke-linejoin: miter"/>
     <use xlink:href="#mbbe0c78bdf" x="224.199118" y="346.684187" style="fill-opacity: 0; stroke: #00eeee; stroke-width: 4; stroke-linejoin: miter"/>
     <use xlink:href="#mbbe0c78bdf" x="358.576078" y="346.684187" style="fill-opacity: 0; stroke: #00eeee; stroke-width: 4; stroke-linejoin: miter"/>
    </g>
   </g>
   <g id="patch_3">
    <path d="M 70.3375 369.2 
L 70.3375 5 
" style="fill: none; stroke: #000000; stroke-width: 0.8; stroke-linejoin: miter; stroke-linecap: square"/>
   </g>
   <g id="patch_4">
    <path d="M 499 369.2 
L 499 5 
" style="fill: none; stroke: #000000; stroke-width: 0.8; stroke-linejoin: miter; stroke-linecap: square"/>
   </g>
   <g id="patch_5">
    <path d="M 70.3375 369.2 
L 499 369.2 
" style="fill: none; stroke: #000000; stroke-width: 0.8; stroke-linejoin: miter; stroke-linecap: square"/>
   </g>
   <g id="patch_6">
    <path d="M 70.3375 5 
L 499 5 
" style="fill: none; stroke: #000000; stroke-width: 0.8; stroke-linejoin: miter; stroke-linecap: square"/>
   </g>
   <g id="legend_1">
    <g id="patch_7">
     <path d="M 350.969687 204.344375 
L 486.4 204.344375 
Q 490 204.344375 490 200.744375 
L 490 17.6 
Q 490 14 486.4 14 
L 350.969687 14 
Q 347.369687 14 347.369687 17.6 
L 347.369687 200.744375 
Q 347.369687 204.344375 350.969687 204.344375 
z
" style="fill: #ffffff; opacity: 0.8; stroke: #cccccc; stroke-linejoin: miter"/>
    </g>
    <g id="line2d_24">
     <path d="M 354.569687 28.577187 
L 390.569687 28.577187 
" style="fill: none; stroke: #646464; stroke-width: 5; stroke-linecap: square"/>
    </g>
    <g id="line2d_25">
     <g>
      <use xlink:href="#m8e2f8660ff" x="372.569687" y="28.577187" style="fill-opacity: 0; stroke: #646464; stroke-width: 4"/>
     </g>
    </g>
    <g id="text_11">
     <!-- 5Guard -->
     <g transform="translate(404.969687 34.877187) scale(0.18 -0.18)">
      <defs>
       <path id="DejaVuSerif-35" d="M 3219 4666 
L 3219 4153 
L 1081 4153 
L 1081 2816 
Q 1244 2928 1461 2984 
Q 1678 3041 1947 3041 
Q 2703 3041 3140 2622 
Q 3578 2203 3578 1478 
Q 3578 738 3136 323 
Q 2694 -91 1894 -91 
Q 1572 -91 1234 -12 
Q 897 66 544 225 
L 544 1131 
L 897 1131 
Q 925 688 1179 453 
Q 1434 219 1894 219 
Q 2388 219 2653 544 
Q 2919 869 2919 1478 
Q 2919 2084 2655 2407 
Q 2391 2731 1894 2731 
Q 1613 2731 1398 2631 
Q 1184 2531 1019 2322 
L 750 2322 
L 750 4666 
L 3219 4666 
z
" transform="scale(0.015625)"/>
       <path id="DejaVuSerif-47" d="M 4097 3272 
Q 3988 3856 3641 4136 
Q 3294 4416 2675 4416 
Q 1869 4416 1472 3897 
Q 1075 3378 1075 2328 
Q 1075 1300 1484 772 
Q 1894 244 2688 244 
Q 3041 244 3362 331 
Q 3684 419 3975 594 
L 3975 1797 
L 3097 1797 
L 3097 2131 
L 4609 2131 
L 4609 391 
Q 4194 150 3714 29 
Q 3234 -91 2688 -91 
Q 1631 -91 995 570 
Q 359 1231 359 2328 
Q 359 3434 996 4092 
Q 1634 4750 2713 4750 
Q 3113 4750 3539 4658 
Q 3966 4566 4447 4378 
L 4447 3272 
L 4097 3272 
z
" transform="scale(0.015625)"/>
       <path id="DejaVuSerif-61" d="M 2547 1044 
L 2547 1747 
L 1806 1747 
Q 1378 1747 1168 1562 
Q 959 1378 959 997 
Q 959 650 1171 447 
Q 1384 244 1747 244 
Q 2106 244 2326 466 
Q 2547 688 2547 1044 
z
M 3122 2075 
L 3122 331 
L 3634 331 
L 3634 0 
L 2547 0 
L 2547 359 
Q 2356 128 2106 18 
Q 1856 -91 1522 -91 
Q 969 -91 644 203 
Q 319 497 319 997 
Q 319 1513 691 1797 
Q 1063 2081 1741 2081 
L 2547 2081 
L 2547 2309 
Q 2547 2688 2317 2895 
Q 2088 3103 1672 3103 
Q 1328 3103 1125 2947 
Q 922 2791 872 2484 
L 575 2484 
L 575 3156 
Q 875 3284 1158 3348 
Q 1441 3413 1709 3413 
Q 2400 3413 2761 3070 
Q 3122 2728 3122 2075 
z
" transform="scale(0.015625)"/>
       <path id="DejaVuSerif-64" d="M 3359 331 
L 3909 331 
L 3909 0 
L 2784 0 
L 2784 519 
Q 2616 206 2355 57 
Q 2094 -91 1709 -91 
Q 1097 -91 708 395 
Q 319 881 319 1663 
Q 319 2444 706 2928 
Q 1094 3413 1709 3413 
Q 2094 3413 2355 3264 
Q 2616 3116 2784 2803 
L 2784 4531 
L 2241 4531 
L 2241 4863 
L 3359 4863 
L 3359 331 
z
M 2784 1497 
L 2784 1825 
Q 2784 2422 2554 2737 
Q 2325 3053 1888 3053 
Q 1444 3053 1217 2703 
Q 991 2353 991 1663 
Q 991 975 1217 622 
Q 1444 269 1888 269 
Q 2325 269 2554 583 
Q 2784 897 2784 1497 
z
" transform="scale(0.015625)"/>
      </defs>
      <use xlink:href="#DejaVuSerif-35"/>
      <use xlink:href="#DejaVuSerif-47" x="63.623047"/>
      <use xlink:href="#DejaVuSerif-75" x="143.505859"/>
      <use xlink:href="#DejaVuSerif-61" x="207.910156"/>
      <use xlink:href="#DejaVuSerif-72" x="267.529297"/>
      <use xlink:href="#DejaVuSerif-64" x="315.332031"/>
     </g>
    </g>
    <g id="line2d_26">
     <path d="M 354.569687 54.997812 
L 390.569687 54.997812 
" style="fill: none; stroke: #ee0000; stroke-width: 5; stroke-linecap: square"/>
    </g>
    <g id="line2d_27">
     <g>
      <use xlink:href="#m56efd086d8" x="372.569687" y="54.997812" style="fill-opacity: 0; stroke: #ee0000; stroke-width: 4; stroke-linejoin: miter"/>
     </g>
    </g>
    <g id="text_12">
     <!-- OPT -->
     <g transform="translate(404.969687 61.297812) scale(0.18 -0.18)">
      <defs>
       <path id="DejaVuSerif-4f" d="M 2625 244 
Q 3391 244 3781 770 
Q 4172 1297 4172 2328 
Q 4172 3363 3781 3889 
Q 3391 4416 2625 4416 
Q 1856 4416 1465 3889 
Q 1075 3363 1075 2328 
Q 1075 1297 1465 770 
Q 1856 244 2625 244 
z
M 2625 -91 
Q 2150 -91 1751 65 
Q 1353 222 1050 525 
Q 700 875 529 1319 
Q 359 1763 359 2328 
Q 359 2894 529 3339 
Q 700 3784 1050 4134 
Q 1356 4441 1750 4595 
Q 2144 4750 2625 4750 
Q 3641 4750 4266 4084 
Q 4891 3419 4891 2328 
Q 4891 1769 4719 1320 
Q 4547 872 4197 525 
Q 3891 219 3497 64 
Q 3103 -91 2625 -91 
z
" transform="scale(0.015625)"/>
       <path id="DejaVuSerif-50" d="M 1581 2375 
L 2406 2375 
Q 2872 2375 3115 2626 
Q 3359 2878 3359 3353 
Q 3359 3831 3115 4081 
Q 2872 4331 2406 4331 
L 1581 4331 
L 1581 2375 
z
M 353 0 
L 353 331 
L 947 331 
L 947 4331 
L 353 4331 
L 353 4666 
L 2559 4666 
Q 3259 4666 3668 4311 
Q 4078 3956 4078 3353 
Q 4078 2753 3668 2397 
Q 3259 2041 2559 2041 
L 1581 2041 
L 1581 331 
L 2303 331 
L 2303 0 
L 353 0 
z
" transform="scale(0.015625)"/>
       <path id="DejaVuSerif-54" d="M 1222 0 
L 1222 331 
L 1819 331 
L 1819 4294 
L 447 4294 
L 447 3566 
L 63 3566 
L 63 4666 
L 4206 4666 
L 4206 3566 
L 3822 3566 
L 3822 4294 
L 2450 4294 
L 2450 331 
L 3047 331 
L 3047 0 
L 1222 0 
z
" transform="scale(0.015625)"/>
      </defs>
      <use xlink:href="#DejaVuSerif-4f"/>
      <use xlink:href="#DejaVuSerif-50" x="81.982422"/>
      <use xlink:href="#DejaVuSerif-54" x="149.267578"/>
     </g>
    </g>
    <g id="line2d_28">
     <path d="M 354.569687 81.418437 
L 390.569687 81.418437 
" style="fill: none; stroke: #6e8ee6; stroke-width: 5; stroke-linecap: square"/>
    </g>
    <g id="line2d_29">
     <g>
      <use xlink:href="#mb0b1f9c6e7" x="372.569687" y="81.418437" style="fill-opacity: 0; stroke: #6e8ee6; stroke-width: 4; stroke-linejoin: miter"/>
     </g>
    </g>
    <g id="text_13">
     <!-- IAR -->
     <g transform="translate(404.969687 87.718437) scale(0.18 -0.18)">
      <defs>
       <path id="DejaVuSerif-49" d="M 1581 331 
L 2175 331 
L 2175 0 
L 353 0 
L 353 331 
L 947 331 
L 947 4331 
L 353 4331 
L 353 4666 
L 2175 4666 
L 2175 4331 
L 1581 4331 
L 1581 331 
z
" transform="scale(0.015625)"/>
       <path id="DejaVuSerif-41" d="M 1281 1691 
L 2994 1691 
L 2138 3909 
L 1281 1691 
z
M -38 0 
L -38 331 
L 372 331 
L 2034 4666 
L 2559 4666 
L 4225 331 
L 4684 331 
L 4684 0 
L 2988 0 
L 2988 331 
L 3506 331 
L 3116 1356 
L 1153 1356 
L 763 331 
L 1275 331 
L 1275 0 
L -38 0 
z
" transform="scale(0.015625)"/>
      </defs>
      <use xlink:href="#DejaVuSerif-49"/>
      <use xlink:href="#DejaVuSerif-41" x="39.501953"/>
      <use xlink:href="#DejaVuSerif-52" x="111.71875"/>
     </g>
    </g>
    <g id="line2d_30">
     <path d="M 354.569687 107.839062 
L 390.569687 107.839062 
" style="fill: none; stroke: #21cd7d; stroke-width: 5; stroke-linecap: square"/>
    </g>
    <g id="line2d_31">
     <g>
      <use xlink:href="#mc7b989ca84" x="372.569687" y="107.839062" style="fill-opacity: 0; stroke: #21cd7d; stroke-width: 4; stroke-linejoin: miter"/>
     </g>
    </g>
    <g id="text_14">
     <!-- DTR -->
     <g transform="translate(404.969687 114.139062) scale(0.18 -0.18)">
      <defs>
       <path id="DejaVuSerif-44" d="M 1581 331 
L 2163 331 
Q 3072 331 3558 850 
Q 4044 1369 4044 2338 
Q 4044 3306 3559 3818 
Q 3075 4331 2163 4331 
L 1581 4331 
L 1581 331 
z
M 353 0 
L 353 331 
L 947 331 
L 947 4331 
L 353 4331 
L 353 4666 
L 2209 4666 
Q 3416 4666 4089 4050 
Q 4763 3434 4763 2338 
Q 4763 1238 4088 619 
Q 3413 0 2209 0 
L 353 0 
z
" transform="scale(0.015625)"/>
      </defs>
      <use xlink:href="#DejaVuSerif-44"/>
      <use xlink:href="#DejaVuSerif-54" x="80.175781"/>
      <use xlink:href="#DejaVuSerif-52" x="146.875"/>
     </g>
    </g>
    <g id="line2d_32">
     <path d="M 354.569687 134.259687 
L 390.569687 134.259687 
" style="fill: none; stroke: #00ff00; stroke-width: 5; stroke-linecap: square"/>
    </g>
    <g id="line2d_33">
     <g>
      <use xlink:href="#mdb27d0ab05" x="372.569687" y="134.259687" style="fill-opacity: 0; stroke: #00ff00; stroke-width: 4; stroke-linejoin: miter"/>
     </g>
    </g>
    <g id="text_15">
     <!-- RNR -->
     <g transform="translate(404.969687 140.559687) scale(0.18 -0.18)">
      <defs>
       <path id="DejaVuSerif-4e" d="M 313 0 
L 313 331 
L 941 331 
L 941 4331 
L 313 4331 
L 313 4666 
L 1509 4666 
L 4306 984 
L 4306 4331 
L 3681 4331 
L 3681 4666 
L 5319 4666 
L 5319 4331 
L 4691 4331 
L 4691 -91 
L 4313 -91 
L 1325 3841 
L 1325 331 
L 1953 331 
L 1953 0 
L 313 0 
z
" transform="scale(0.015625)"/>
      </defs>
      <use xlink:href="#DejaVuSerif-52"/>
      <use xlink:href="#DejaVuSerif-4e" x="75.292969"/>
      <use xlink:href="#DejaVuSerif-52" x="162.792969"/>
     </g>
    </g>
    <g id="line2d_34">
     <path d="M 354.569687 160.680312 
L 390.569687 160.680312 
" style="fill: none; stroke-dasharray: 18.5,8; stroke-dashoffset: 0; stroke: #eeee00; stroke-width: 5"/>
    </g>
    <g id="line2d_35">
     <g>
      <use xlink:href="#m0c72cafa1b" x="372.569687" y="160.680312" style="fill-opacity: 0; stroke: #eeee00; stroke-width: 4; stroke-linejoin: miter"/>
     </g>
    </g>
    <g id="text_16">
     <!-- OPT-NIS -->
     <g transform="translate(404.969687 166.980312) scale(0.18 -0.18)">
      <defs>
       <path id="DejaVuSerif-2d" d="M 281 1959 
L 1881 1959 
L 1881 1472 
L 281 1472 
L 281 1959 
z
" transform="scale(0.015625)"/>
       <path id="DejaVuSerif-53" d="M 594 225 
L 594 1288 
L 953 1284 
Q 969 753 1261 498 
Q 1553 244 2150 244 
Q 2706 244 2998 464 
Q 3291 684 3291 1106 
Q 3291 1444 3114 1625 
Q 2938 1806 2369 1978 
L 1753 2163 
Q 1084 2366 811 2669 
Q 538 2972 538 3500 
Q 538 4094 959 4422 
Q 1381 4750 2144 4750 
Q 2469 4750 2856 4679 
Q 3244 4609 3681 4475 
L 3681 3481 
L 3328 3481 
Q 3275 3975 2998 4195 
Q 2722 4416 2156 4416 
Q 1663 4416 1405 4214 
Q 1147 4013 1147 3628 
Q 1147 3294 1340 3103 
Q 1534 2913 2163 2725 
L 2741 2553 
Q 3375 2363 3645 2067 
Q 3916 1772 3916 1275 
Q 3916 597 3481 253 
Q 3047 -91 2188 -91 
Q 1803 -91 1404 -12 
Q 1006 66 594 225 
z
" transform="scale(0.015625)"/>
      </defs>
      <use xlink:href="#DejaVuSerif-4f"/>
      <use xlink:href="#DejaVuSerif-50" x="81.982422"/>
      <use xlink:href="#DejaVuSerif-54" x="149.267578"/>
      <use xlink:href="#DejaVuSerif-2d" x="203.091797"/>
      <use xlink:href="#DejaVuSerif-4e" x="236.880859"/>
      <use xlink:href="#DejaVuSerif-49" x="324.380859"/>
      <use xlink:href="#DejaVuSerif-53" x="363.882812"/>
     </g>
    </g>
    <g id="line2d_36">
     <path d="M 354.569687 187.100937 
L 390.569687 187.100937 
" style="fill: none; stroke-dasharray: 18.5,8; stroke-dashoffset: 0; stroke: #00eeee; stroke-width: 5"/>
    </g>
    <g id="line2d_37">
     <g>
      <use xlink:href="#mbbe0c78bdf" x="372.569687" y="187.100937" style="fill-opacity: 0; stroke: #00eeee; stroke-width: 4; stroke-linejoin: miter"/>
     </g>
    </g>
    <g id="text_17">
     <!-- OPT-CIS -->
     <g transform="translate(404.969687 193.400937) scale(0.18 -0.18)">
      <defs>
       <path id="DejaVuSerif-43" d="M 4513 1234 
Q 4306 581 3820 245 
Q 3334 -91 2591 -91 
Q 2134 -91 1743 65 
Q 1353 222 1050 525 
Q 700 875 529 1320 
Q 359 1766 359 2328 
Q 359 3416 987 4083 
Q 1616 4750 2644 4750 
Q 3025 4750 3456 4650 
Q 3888 4550 4384 4347 
L 4384 3272 
L 4031 3272 
Q 3916 3859 3567 4137 
Q 3219 4416 2591 4416 
Q 1844 4416 1459 3886 
Q 1075 3356 1075 2328 
Q 1075 1303 1459 773 
Q 1844 244 2591 244 
Q 3113 244 3450 492 
Q 3788 741 3938 1234 
L 4513 1234 
z
" transform="scale(0.015625)"/>
      </defs>
      <use xlink:href="#DejaVuSerif-4f"/>
      <use xlink:href="#DejaVuSerif-50" x="81.982422"/>
      <use xlink:href="#DejaVuSerif-54" x="149.267578"/>
      <use xlink:href="#DejaVuSerif-2d" x="203.091797"/>
      <use xlink:href="#DejaVuSerif-43" x="236.880859"/>
      <use xlink:href="#DejaVuSerif-49" x="313.394531"/>
      <use xlink:href="#DejaVuSerif-53" x="352.896484"/>
     </g>
    </g>
   </g>
  </g>
 </g>
 <defs>
  <clipPath id="p969785c49d">
   <rect x="70.3375" y="5" width="428.6625" height="364.2"/>
  </clipPath>
 </defs>
</svg>
