<?xml version="1.0" encoding="utf-8" standalone="no"?>
<!DOCTYPE svg PUBLIC "-//W3C//DTD SVG 1.1//EN"
  "http://www.w3.org/Graphics/SVG/1.1/DTD/svg11.dtd">
<svg xmlns:xlink="http://www.w3.org/1999/xlink" width="504pt" height="432pt" viewBox="0 0 504 432" xmlns="http://www.w3.org/2000/svg" version="1.1">
 <metadata>
  <rdf:RDF xmlns:dc="http://purl.org/dc/elements/1.1/" xmlns:cc="http://creativecommons.org/ns#" xmlns:rdf="http://www.w3.org/1999/02/22-rdf-syntax-ns#">
   <cc:Work>
    <dc:type rdf:resource="http://purl.org/dc/dcmitype/StillImage"/>
    <dc:date>2025-02-25T18:57:17.422424</dc:date>
    <dc:format>image/svg+xml</dc:format>
    <dc:creator>
     <cc:Agent>
      <dc:title>Matplotlib v3.8.0, https://matplotlib.org/</dc:title>
     </cc:Agent>
    </dc:creator>
   </cc:Work>
  </rdf:RDF>
 </metadata>
 <defs>
  <style type="text/css">*{stroke-linejoin: round; stroke-linecap: butt}</style>
 </defs>
 <g id="figure_1">
  <g id="patch_1">
   <path d="M 0 432 
L 504 432 
L 504 0 
L 0 0 
z
" style="fill: #ffffff"/>
  </g>
  <g id="axes_1">
   <g id="patch_2">
    <path d="M 75.377522 369.2 
L 499 369.2 
L 499 24.704 
L 75.377522 24.704 
z
" style="fill: #ffffff"/>
   </g>
   <g id="PolyCollection_1">
    <defs>
     <path id="m180aa31f4e" d="M 94.633089 -235.048 
L 94.633089 -235.048 
L 107.912791 -235.048 
L 121.192492 -235.048 
L 134.472194 -235.048 
L 147.751895 -235.048 
L 161.031597 -235.048 
L 174.311298 -235.048 
L 187.591 -235.048 
L 200.870701 -235.048 
L 214.150403 -235.048 
L 227.430104 -235.048 
L 240.709806 -235.048 
L 253.989507 -235.048 
L 267.269209 -235.048 
L 280.54891 -235.048 
L 293.828612 -235.048 
L 307.108313 -235.048 
L 320.388015 -235.048 
L 333.667716 -235.048 
L 346.947418 -235.048 
L 360.227119 -235.048 
L 373.506821 -235.048 
L 386.786522 -235.048 
L 400.066224 -235.048 
L 413.345925 -235.048 
L 426.625627 -235.048 
L 439.905328 -235.048 
L 453.18503 -235.048 
L 466.464731 -235.048 
L 479.744433 -235.048 
L 479.744433 -235.048 
L 479.744433 -235.048 
L 466.464731 -235.048 
L 453.18503 -235.048 
L 439.905328 -235.048 
L 426.625627 -235.048 
L 413.345925 -235.048 
L 400.066224 -235.048 
L 386.786522 -235.048 
L 373.506821 -235.048 
L 360.227119 -235.048 
L 346.947418 -235.048 
L 333.667716 -235.048 
L 320.388015 -235.048 
L 307.108313 -235.048 
L 293.828612 -235.048 
L 280.54891 -235.048 
L 267.269209 -235.048 
L 253.989507 -235.048 
L 240.709806 -235.048 
L 227.430104 -235.048 
L 214.150403 -235.048 
L 200.870701 -235.048 
L 187.591 -235.048 
L 174.311298 -235.048 
L 161.031597 -235.048 
L 147.751895 -235.048 
L 134.472194 -235.048 
L 121.192492 -235.048 
L 107.912791 -235.048 
L 94.633089 -235.048 
z
" style="stroke: #646464; stroke-opacity: 0.1"/>
    </defs>
    <g clip-path="url(#pd9e0c29665)">
     <use xlink:href="#m180aa31f4e" x="0" y="432" style="fill: #646464; fill-opacity: 0.1; stroke: #646464; stroke-opacity: 0.1"/>
    </g>
   </g>
   <g id="PolyCollection_2">
    <defs>
     <path id="m5610b100a0" d="M 94.633089 -235.048 
L 94.633089 -235.048 
L 107.912791 -235.048 
L 121.192492 -235.048 
L 134.472194 -235.048 
L 147.751895 -235.048 
L 161.031597 -235.048 
L 174.311298 -235.048 
L 187.591 -235.048 
L 200.870701 -235.048 
L 214.150403 -235.048 
L 227.430104 -235.048 
L 240.709806 -235.048 
L 253.989507 -235.048 
L 267.269209 -235.048 
L 280.54891 -235.048 
L 293.828612 -235.048 
L 307.108313 -235.048 
L 320.388015 -235.048 
L 333.667716 -235.048 
L 346.947418 -235.048 
L 360.227119 -235.048 
L 373.506821 -235.048 
L 386.786522 -235.048 
L 400.066224 -235.048 
L 413.345925 -235.048 
L 426.625627 -235.048 
L 439.905328 -235.048 
L 453.18503 -235.048 
L 466.464731 -235.048 
L 479.744433 -235.048 
L 479.744433 -235.048 
L 479.744433 -235.048 
L 466.464731 -235.048 
L 453.18503 -235.048 
L 439.905328 -235.048 
L 426.625627 -235.048 
L 413.345925 -235.048 
L 400.066224 -235.048 
L 386.786522 -235.048 
L 373.506821 -235.048 
L 360.227119 -235.048 
L 346.947418 -235.048 
L 333.667716 -235.048 
L 320.388015 -235.048 
L 307.108313 -235.048 
L 293.828612 -235.048 
L 280.54891 -235.048 
L 267.269209 -235.048 
L 253.989507 -235.048 
L 240.709806 -235.048 
L 227.430104 -235.048 
L 214.150403 -235.048 
L 200.870701 -235.048 
L 187.591 -235.048 
L 174.311298 -235.048 
L 161.031597 -235.048 
L 147.751895 -235.048 
L 134.472194 -235.048 
L 121.192492 -235.048 
L 107.912791 -235.048 
L 94.633089 -235.048 
z
" style="stroke: #ee0000; stroke-opacity: 0.1"/>
    </defs>
    <g clip-path="url(#pd9e0c29665)">
     <use xlink:href="#m5610b100a0" x="0" y="432" style="fill: #ee0000; fill-opacity: 0.1; stroke: #ee0000; stroke-opacity: 0.1"/>
    </g>
   </g>
   <g id="PolyCollection_3">
    <defs>
     <path id="m418db22a6c" d="M 94.633089 -235.048 
L 94.633089 -235.048 
L 107.912791 -235.048 
L 121.192492 -235.048 
L 134.472194 -235.048 
L 147.751895 -235.048 
L 161.031597 -235.048 
L 174.311298 -235.048 
L 187.591 -235.048 
L 200.870701 -235.048 
L 214.150403 -235.048 
L 227.430104 -235.048 
L 240.709806 -235.048 
L 253.989507 -235.048 
L 267.269209 -235.048 
L 280.54891 -235.048 
L 293.828612 -235.048 
L 307.108313 -235.048 
L 320.388015 -235.048 
L 333.667716 -235.048 
L 346.947418 -235.048 
L 360.227119 -235.048 
L 373.506821 -235.048 
L 386.786522 -235.048 
L 400.066224 -235.048 
L 413.345925 -235.048 
L 426.625627 -235.048 
L 439.905328 -235.048 
L 453.18503 -235.048 
L 466.464731 -235.048 
L 479.744433 -235.048 
L 479.744433 -235.048 
L 479.744433 -235.048 
L 466.464731 -235.048 
L 453.18503 -235.048 
L 439.905328 -235.048 
L 426.625627 -235.048 
L 413.345925 -235.048 
L 400.066224 -235.048 
L 386.786522 -235.048 
L 373.506821 -235.048 
L 360.227119 -235.048 
L 346.947418 -235.048 
L 333.667716 -235.048 
L 320.388015 -235.048 
L 307.108313 -235.048 
L 293.828612 -235.048 
L 280.54891 -235.048 
L 267.269209 -235.048 
L 253.989507 -235.048 
L 240.709806 -235.048 
L 227.430104 -235.048 
L 214.150403 -235.048 
L 200.870701 -235.048 
L 187.591 -235.048 
L 174.311298 -235.048 
L 161.031597 -235.048 
L 147.751895 -235.048 
L 134.472194 -235.048 
L 121.192492 -235.048 
L 107.912791 -235.048 
L 94.633089 -235.048 
z
" style="stroke: #6e8ee6; stroke-opacity: 0.1"/>
    </defs>
    <g clip-path="url(#pd9e0c29665)">
     <use xlink:href="#m418db22a6c" x="0" y="432" style="fill: #6e8ee6; fill-opacity: 0.1; stroke: #6e8ee6; stroke-opacity: 0.1"/>
    </g>
   </g>
   <g id="PolyCollection_4">
    <defs>
     <path id="m2ad1447159" d="M 94.633089 -235.048 
L 94.633089 -235.048 
L 107.912791 -235.048 
L 121.192492 -235.048 
L 134.472194 -235.048 
L 147.751895 -235.048 
L 161.031597 -235.048 
L 174.311298 -235.048 
L 187.591 -235.048 
L 200.870701 -235.048 
L 214.150403 -235.048 
L 227.430104 -235.048 
L 240.709806 -235.048 
L 253.989507 -235.048 
L 267.269209 -235.048 
L 280.54891 -235.048 
L 293.828612 -235.048 
L 307.108313 -235.048 
L 320.388015 -235.048 
L 333.667716 -235.048 
L 346.947418 -235.048 
L 360.227119 -235.048 
L 373.506821 -235.048 
L 386.786522 -235.048 
L 400.066224 -235.048 
L 413.345925 -235.048 
L 426.625627 -235.048 
L 439.905328 -235.048 
L 453.18503 -235.048 
L 466.464731 -235.048 
L 479.744433 -235.048 
L 479.744433 -235.048 
L 479.744433 -235.048 
L 466.464731 -235.048 
L 453.18503 -235.048 
L 439.905328 -235.048 
L 426.625627 -235.048 
L 413.345925 -235.048 
L 400.066224 -235.048 
L 386.786522 -235.048 
L 373.506821 -235.048 
L 360.227119 -235.048 
L 346.947418 -235.048 
L 333.667716 -235.048 
L 320.388015 -235.048 
L 307.108313 -235.048 
L 293.828612 -235.048 
L 280.54891 -235.048 
L 267.269209 -235.048 
L 253.989507 -235.048 
L 240.709806 -235.048 
L 227.430104 -235.048 
L 214.150403 -235.048 
L 200.870701 -235.048 
L 187.591 -235.048 
L 174.311298 -235.048 
L 161.031597 -235.048 
L 147.751895 -235.048 
L 134.472194 -235.048 
L 121.192492 -235.048 
L 107.912791 -235.048 
L 94.633089 -235.048 
z
" style="stroke: #21cd7d; stroke-opacity: 0.1"/>
    </defs>
    <g clip-path="url(#pd9e0c29665)">
     <use xlink:href="#m2ad1447159" x="0" y="432" style="fill: #21cd7d; fill-opacity: 0.1; stroke: #21cd7d; stroke-opacity: 0.1"/>
    </g>
   </g>
   <g id="PolyCollection_5">
    <defs>
     <path id="mbe9d8a12d3" d="M 94.633089 -235.048 
L 94.633089 -235.048 
L 107.912791 -235.048 
L 121.192492 -235.048 
L 134.472194 -235.048 
L 147.751895 -235.048 
L 161.031597 -235.048 
L 174.311298 -235.048 
L 187.591 -235.048 
L 200.870701 -235.048 
L 214.150403 -235.048 
L 227.430104 -235.048 
L 240.709806 -235.048 
L 253.989507 -235.048 
L 267.269209 -235.048 
L 280.54891 -235.048 
L 293.828612 -235.048 
L 307.108313 -235.048 
L 320.388015 -235.048 
L 333.667716 -235.048 
L 346.947418 -235.048 
L 360.227119 -235.048 
L 373.506821 -235.048 
L 386.786522 -235.048 
L 400.066224 -235.048 
L 413.345925 -235.048 
L 426.625627 -235.048 
L 439.905328 -235.048 
L 453.18503 -235.048 
L 466.464731 -235.048 
L 479.744433 -235.048 
L 479.744433 -235.048 
L 479.744433 -235.048 
L 466.464731 -235.048 
L 453.18503 -235.048 
L 439.905328 -235.048 
L 426.625627 -235.048 
L 413.345925 -235.048 
L 400.066224 -235.048 
L 386.786522 -235.048 
L 373.506821 -235.048 
L 360.227119 -235.048 
L 346.947418 -235.048 
L 333.667716 -235.048 
L 320.388015 -235.048 
L 307.108313 -235.048 
L 293.828612 -235.048 
L 280.54891 -235.048 
L 267.269209 -235.048 
L 253.989507 -235.048 
L 240.709806 -235.048 
L 227.430104 -235.048 
L 214.150403 -235.048 
L 200.870701 -235.048 
L 187.591 -235.048 
L 174.311298 -235.048 
L 161.031597 -235.048 
L 147.751895 -235.048 
L 134.472194 -235.048 
L 121.192492 -235.048 
L 107.912791 -235.048 
L 94.633089 -235.048 
z
" style="stroke: #00ff00; stroke-opacity: 0.1"/>
    </defs>
    <g clip-path="url(#pd9e0c29665)">
     <use xlink:href="#mbe9d8a12d3" x="0" y="432" style="fill: #00ff00; fill-opacity: 0.1; stroke: #00ff00; stroke-opacity: 0.1"/>
    </g>
   </g>
   <g id="PolyCollection_6">
    <defs>
     <path id="m8a2be11d81" d="M 94.633089 -235.048 
L 94.633089 -235.048 
L 107.912791 -235.048 
L 121.192492 -235.048 
L 134.472194 -235.048 
L 147.751895 -235.048 
L 161.031597 -235.048 
L 174.311298 -235.048 
L 187.591 -235.048 
L 200.870701 -235.048 
L 214.150403 -235.048 
L 227.430104 -235.048 
L 240.709806 -235.048 
L 253.989507 -235.048 
L 267.269209 -235.048 
L 280.54891 -235.048 
L 293.828612 -235.048 
L 307.108313 -235.048 
L 320.388015 -235.048 
L 333.667716 -235.048 
L 346.947418 -235.048 
L 360.227119 -235.048 
L 373.506821 -235.048 
L 386.786522 -235.048 
L 400.066224 -235.048 
L 413.345925 -235.048 
L 426.625627 -235.048 
L 439.905328 -235.048 
L 453.18503 -235.048 
L 466.464731 -235.048 
L 479.744433 -235.048 
L 479.744433 -235.048 
L 479.744433 -235.048 
L 466.464731 -235.048 
L 453.18503 -235.048 
L 439.905328 -235.048 
L 426.625627 -235.048 
L 413.345925 -235.048 
L 400.066224 -235.048 
L 386.786522 -235.048 
L 373.506821 -235.048 
L 360.227119 -235.048 
L 346.947418 -235.048 
L 333.667716 -235.048 
L 320.388015 -235.048 
L 307.108313 -235.048 
L 293.828612 -235.048 
L 280.54891 -235.048 
L 267.269209 -235.048 
L 253.989507 -235.048 
L 240.709806 -235.048 
L 227.430104 -235.048 
L 214.150403 -235.048 
L 200.870701 -235.048 
L 187.591 -235.048 
L 174.311298 -235.048 
L 161.031597 -235.048 
L 147.751895 -235.048 
L 134.472194 -235.048 
L 121.192492 -235.048 
L 107.912791 -235.048 
L 94.633089 -235.048 
z
" style="stroke: #eeee00; stroke-opacity: 0.1"/>
    </defs>
    <g clip-path="url(#pd9e0c29665)">
     <use xlink:href="#m8a2be11d81" x="0" y="432" style="fill: #eeee00; fill-opacity: 0.1; stroke: #eeee00; stroke-opacity: 0.1"/>
    </g>
   </g>
   <g id="PolyCollection_7">
    <defs>
     <path id="md2bee66a5a" d="M 94.633089 -235.048 
L 94.633089 -235.048 
L 107.912791 -235.048 
L 121.192492 -235.048 
L 134.472194 -235.048 
L 147.751895 -235.048 
L 161.031597 -235.048 
L 174.311298 -235.048 
L 187.591 -235.048 
L 200.870701 -235.048 
L 214.150403 -235.048 
L 227.430104 -235.048 
L 240.709806 -235.048 
L 253.989507 -235.048 
L 267.269209 -235.048 
L 280.54891 -235.048 
L 293.828612 -235.048 
L 307.108313 -235.048 
L 320.388015 -235.048 
L 333.667716 -235.048 
L 346.947418 -235.048 
L 360.227119 -235.048 
L 373.506821 -235.048 
L 386.786522 -235.048 
L 400.066224 -235.048 
L 413.345925 -235.048 
L 426.625627 -235.048 
L 439.905328 -235.048 
L 453.18503 -235.048 
L 466.464731 -235.048 
L 479.744433 -235.048 
L 479.744433 -235.048 
L 479.744433 -235.048 
L 466.464731 -235.048 
L 453.18503 -235.048 
L 439.905328 -235.048 
L 426.625627 -235.048 
L 413.345925 -235.048 
L 400.066224 -235.048 
L 386.786522 -235.048 
L 373.506821 -235.048 
L 360.227119 -235.048 
L 346.947418 -235.048 
L 333.667716 -235.048 
L 320.388015 -235.048 
L 307.108313 -235.048 
L 293.828612 -235.048 
L 280.54891 -235.048 
L 267.269209 -235.048 
L 253.989507 -235.048 
L 240.709806 -235.048 
L 227.430104 -235.048 
L 214.150403 -235.048 
L 200.870701 -235.048 
L 187.591 -235.048 
L 174.311298 -235.048 
L 161.031597 -235.048 
L 147.751895 -235.048 
L 134.472194 -235.048 
L 121.192492 -235.048 
L 107.912791 -235.048 
L 94.633089 -235.048 
z
" style="stroke: #00eeee; stroke-opacity: 0.1"/>
    </defs>
    <g clip-path="url(#pd9e0c29665)">
     <use xlink:href="#md2bee66a5a" x="0" y="432" style="fill: #00eeee; fill-opacity: 0.1; stroke: #00eeee; stroke-opacity: 0.1"/>
    </g>
   </g>
   <g id="matplotlib.axis_1">
    <g id="xtick_1">
     <g id="line2d_1">
      <path d="M 94.633089 369.2 
L 94.633089 24.704 
" clip-path="url(#pd9e0c29665)" style="fill: none; stroke: #b0b0b0; stroke-width: 0.8; stroke-linecap: square"/>
     </g>
     <g id="line2d_2">
      <defs>
       <path id="maee5010b68" d="M 0 0 
L 0 3.5 
" style="stroke: #000000; stroke-width: 0.8"/>
      </defs>
      <g>
       <use xlink:href="#maee5010b68" x="94.633089" y="369.2" style="stroke: #000000; stroke-width: 0.8"/>
      </g>
     </g>
     <g id="text_1">
      <!-- 0 -->
      <g transform="translate(86.679964 395.196094) scale(0.25 -0.25)">
       <defs>
        <path id="DejaVuSerif-30" d="M 2034 219 
Q 2513 219 2750 744 
Q 2988 1269 2988 2328 
Q 2988 3391 2750 3916 
Q 2513 4441 2034 4441 
Q 1556 4441 1318 3916 
Q 1081 3391 1081 2328 
Q 1081 1269 1318 744 
Q 1556 219 2034 219 
z
M 2034 -91 
Q 1275 -91 848 546 
Q 422 1184 422 2328 
Q 422 3475 848 4112 
Q 1275 4750 2034 4750 
Q 2797 4750 3222 4112 
Q 3647 3475 3647 2328 
Q 3647 1184 3222 546 
Q 2797 -91 2034 -91 
z
" transform="scale(0.015625)"/>
       </defs>
       <use xlink:href="#DejaVuSerif-30"/>
      </g>
     </g>
    </g>
    <g id="xtick_2">
     <g id="line2d_3">
      <path d="M 227.430104 369.2 
L 227.430104 24.704 
" clip-path="url(#pd9e0c29665)" style="fill: none; stroke: #b0b0b0; stroke-width: 0.8; stroke-linecap: square"/>
     </g>
     <g id="line2d_4">
      <g>
       <use xlink:href="#maee5010b68" x="227.430104" y="369.2" style="stroke: #000000; stroke-width: 0.8"/>
      </g>
     </g>
     <g id="text_2">
      <!-- 10 -->
      <g transform="translate(211.523854 395.196094) scale(0.25 -0.25)">
       <defs>
        <path id="DejaVuSerif-31" d="M 909 0 
L 909 331 
L 1722 331 
L 1722 4213 
L 781 3603 
L 781 4013 
L 1919 4750 
L 2350 4750 
L 2350 331 
L 3163 331 
L 3163 0 
L 909 0 
z
" transform="scale(0.015625)"/>
       </defs>
       <use xlink:href="#DejaVuSerif-31"/>
       <use xlink:href="#DejaVuSerif-30" x="63.623047"/>
      </g>
     </g>
    </g>
    <g id="xtick_3">
     <g id="line2d_5">
      <path d="M 360.227119 369.2 
L 360.227119 24.704 
" clip-path="url(#pd9e0c29665)" style="fill: none; stroke: #b0b0b0; stroke-width: 0.8; stroke-linecap: square"/>
     </g>
     <g id="line2d_6">
      <g>
       <use xlink:href="#maee5010b68" x="360.227119" y="369.2" style="stroke: #000000; stroke-width: 0.8"/>
      </g>
     </g>
     <g id="text_3">
      <!-- 20 -->
      <g transform="translate(344.320869 395.196094) scale(0.25 -0.25)">
       <defs>
        <path id="DejaVuSerif-32" d="M 819 3553 
L 469 3553 
L 469 4384 
Q 803 4563 1142 4656 
Q 1481 4750 1806 4750 
Q 2534 4750 2956 4397 
Q 3378 4044 3378 3438 
Q 3378 2753 2422 1800 
Q 2347 1728 2309 1691 
L 1131 513 
L 3078 513 
L 3078 1088 
L 3444 1088 
L 3444 0 
L 434 0 
L 434 341 
L 1850 1753 
Q 2319 2222 2519 2614 
Q 2719 3006 2719 3438 
Q 2719 3909 2473 4175 
Q 2228 4441 1797 4441 
Q 1350 4441 1106 4219 
Q 863 3997 819 3553 
z
" transform="scale(0.015625)"/>
       </defs>
       <use xlink:href="#DejaVuSerif-32"/>
       <use xlink:href="#DejaVuSerif-30" x="63.623047"/>
      </g>
     </g>
    </g>
    <g id="text_4">
     <!-- $\it{t}$ -->
     <g transform="translate(282.588761 421.871719) scale(0.23 -0.23)">
      <defs>
       <path id="DejaVuSans-Oblique-74" d="M 2706 3500 
L 2619 3053 
L 1472 3053 
L 1100 1153 
Q 1081 1047 1072 975 
Q 1063 903 1063 863 
Q 1063 663 1183 572 
Q 1303 481 1569 481 
L 2150 481 
L 2053 0 
L 1503 0 
Q 991 0 739 200 
Q 488 400 488 806 
Q 488 878 497 964 
Q 506 1050 525 1153 
L 897 3053 
L 409 3053 
L 500 3500 
L 978 3500 
L 1172 4494 
L 1747 4494 
L 1556 3500 
L 2706 3500 
z
" transform="scale(0.015625)"/>
      </defs>
      <use xlink:href="#DejaVuSans-Oblique-74" transform="translate(0 0.78125)"/>
     </g>
    </g>
   </g>
   <g id="matplotlib.axis_2">
    <g id="ytick_1">
     <g id="line2d_7">
      <path d="M 75.377522 322.223273 
L 499 322.223273 
" clip-path="url(#pd9e0c29665)" style="fill: none; stroke: #b0b0b0; stroke-width: 0.8; stroke-linecap: square"/>
     </g>
     <g id="line2d_8">
      <defs>
       <path id="m7adc4ee8de" d="M 0 0 
L -3.5 0 
" style="stroke: #000000; stroke-width: 0.8"/>
      </defs>
      <g>
       <use xlink:href="#m7adc4ee8de" x="75.377522" y="322.223273" style="stroke: #000000; stroke-width: 0.8"/>
      </g>
     </g>
     <g id="text_5">
      <!-- $\mathdefault{−4}$ -->
      <g transform="translate(31.377522 331.72132) scale(0.25 -0.25)">
       <defs>
        <path id="DejaVuSerif-2212" d="M 678 2259 
L 4684 2259 
L 4684 1753 
L 678 1753 
L 678 2259 
z
" transform="scale(0.015625)"/>
        <path id="DejaVuSerif-34" d="M 2234 1581 
L 2234 4063 
L 641 1581 
L 2234 1581 
z
M 3609 0 
L 1484 0 
L 1484 331 
L 2234 331 
L 2234 1247 
L 197 1247 
L 197 1588 
L 2241 4750 
L 2859 4750 
L 2859 1581 
L 3750 1581 
L 3750 1247 
L 2859 1247 
L 2859 331 
L 3609 331 
L 3609 0 
z
" transform="scale(0.015625)"/>
       </defs>
       <use xlink:href="#DejaVuSerif-2212" transform="translate(0 0.78125)"/>
       <use xlink:href="#DejaVuSerif-34" transform="translate(83.789062 0.78125)"/>
      </g>
     </g>
    </g>
    <g id="ytick_2">
     <g id="line2d_9">
      <path d="M 75.377522 259.587636 
L 499 259.587636 
" clip-path="url(#pd9e0c29665)" style="fill: none; stroke: #b0b0b0; stroke-width: 0.8; stroke-linecap: square"/>
     </g>
     <g id="line2d_10">
      <g>
       <use xlink:href="#m7adc4ee8de" x="75.377522" y="259.587636" style="stroke: #000000; stroke-width: 0.8"/>
      </g>
     </g>
     <g id="text_6">
      <!-- $\mathdefault{−2}$ -->
      <g transform="translate(31.377522 269.085683) scale(0.25 -0.25)">
       <use xlink:href="#DejaVuSerif-2212" transform="translate(0 0.78125)"/>
       <use xlink:href="#DejaVuSerif-32" transform="translate(83.789062 0.78125)"/>
      </g>
     </g>
    </g>
    <g id="ytick_3">
     <g id="line2d_11">
      <path d="M 75.377522 196.952 
L 499 196.952 
" clip-path="url(#pd9e0c29665)" style="fill: none; stroke: #b0b0b0; stroke-width: 0.8; stroke-linecap: square"/>
     </g>
     <g id="line2d_12">
      <g>
       <use xlink:href="#m7adc4ee8de" x="75.377522" y="196.952" style="stroke: #000000; stroke-width: 0.8"/>
      </g>
     </g>
     <g id="text_7">
      <!-- $\mathdefault{0}$ -->
      <g transform="translate(52.377522 206.450047) scale(0.25 -0.25)">
       <use xlink:href="#DejaVuSerif-30" transform="translate(0 0.78125)"/>
      </g>
     </g>
    </g>
    <g id="ytick_4">
     <g id="line2d_13">
      <path d="M 75.377522 134.316364 
L 499 134.316364 
" clip-path="url(#pd9e0c29665)" style="fill: none; stroke: #b0b0b0; stroke-width: 0.8; stroke-linecap: square"/>
     </g>
     <g id="line2d_14">
      <g>
       <use xlink:href="#m7adc4ee8de" x="75.377522" y="134.316364" style="stroke: #000000; stroke-width: 0.8"/>
      </g>
     </g>
     <g id="text_8">
      <!-- $\mathdefault{2}$ -->
      <g transform="translate(52.377522 143.814411) scale(0.25 -0.25)">
       <use xlink:href="#DejaVuSerif-32" transform="translate(0 0.78125)"/>
      </g>
     </g>
    </g>
    <g id="ytick_5">
     <g id="line2d_15">
      <path d="M 75.377522 71.680727 
L 499 71.680727 
" clip-path="url(#pd9e0c29665)" style="fill: none; stroke: #b0b0b0; stroke-width: 0.8; stroke-linecap: square"/>
     </g>
     <g id="line2d_16">
      <g>
       <use xlink:href="#m7adc4ee8de" x="75.377522" y="71.680727" style="stroke: #000000; stroke-width: 0.8"/>
      </g>
     </g>
     <g id="text_9">
      <!-- $\mathdefault{4}$ -->
      <g transform="translate(52.377522 81.178774) scale(0.25 -0.25)">
       <use xlink:href="#DejaVuSerif-34" transform="translate(0 0.78125)"/>
      </g>
     </g>
    </g>
    <g id="text_10">
     <!-- Cumulative Migration -->
     <g transform="translate(22.267209 325.062) rotate(-90) scale(0.23 -0.23)">
      <defs>
       <path id="DejaVuSerif-43" d="M 4513 1234 
Q 4306 581 3820 245 
Q 3334 -91 2591 -91 
Q 2134 -91 1743 65 
Q 1353 222 1050 525 
Q 700 875 529 1320 
Q 359 1766 359 2328 
Q 359 3416 987 4083 
Q 1616 4750 2644 4750 
Q 3025 4750 3456 4650 
Q 3888 4550 4384 4347 
L 4384 3272 
L 4031 3272 
Q 3916 3859 3567 4137 
Q 3219 4416 2591 4416 
Q 1844 4416 1459 3886 
Q 1075 3356 1075 2328 
Q 1075 1303 1459 773 
Q 1844 244 2591 244 
Q 3113 244 3450 492 
Q 3788 741 3938 1234 
L 4513 1234 
z
" transform="scale(0.015625)"/>
       <path id="DejaVuSerif-75" d="M 2266 3322 
L 3341 3322 
L 3341 331 
L 3884 331 
L 3884 0 
L 2766 0 
L 2766 588 
Q 2606 256 2353 82 
Q 2100 -91 1766 -91 
Q 1213 -91 952 223 
Q 691 538 691 1209 
L 691 2988 
L 172 2988 
L 172 3322 
L 1269 3322 
L 1269 1388 
Q 1269 781 1417 556 
Q 1566 331 1947 331 
Q 2347 331 2556 625 
Q 2766 919 2766 1478 
L 2766 2988 
L 2266 2988 
L 2266 3322 
z
" transform="scale(0.015625)"/>
       <path id="DejaVuSerif-6d" d="M 3316 2675 
Q 3481 3041 3739 3227 
Q 3997 3413 4341 3413 
Q 4863 3413 5119 3089 
Q 5375 2766 5375 2113 
L 5375 331 
L 5894 331 
L 5894 0 
L 4300 0 
L 4300 331 
L 4800 331 
L 4800 2047 
Q 4800 2556 4650 2772 
Q 4500 2988 4153 2988 
Q 3769 2988 3567 2697 
Q 3366 2406 3366 1850 
L 3366 331 
L 3866 331 
L 3866 0 
L 2291 0 
L 2291 331 
L 2791 331 
L 2791 2069 
Q 2791 2566 2641 2777 
Q 2491 2988 2144 2988 
Q 1759 2988 1557 2697 
Q 1356 2406 1356 1850 
L 1356 331 
L 1856 331 
L 1856 0 
L 263 0 
L 263 331 
L 781 331 
L 781 2994 
L 231 2994 
L 231 3322 
L 1356 3322 
L 1356 2731 
Q 1516 3063 1762 3238 
Q 2009 3413 2322 3413 
Q 2709 3413 2968 3220 
Q 3228 3028 3316 2675 
z
" transform="scale(0.015625)"/>
       <path id="DejaVuSerif-6c" d="M 1313 331 
L 1856 331 
L 1856 0 
L 184 0 
L 184 331 
L 738 331 
L 738 4531 
L 184 4531 
L 184 4863 
L 1313 4863 
L 1313 331 
z
" transform="scale(0.015625)"/>
       <path id="DejaVuSerif-61" d="M 2547 1044 
L 2547 1747 
L 1806 1747 
Q 1378 1747 1168 1562 
Q 959 1378 959 997 
Q 959 650 1171 447 
Q 1384 244 1747 244 
Q 2106 244 2326 466 
Q 2547 688 2547 1044 
z
M 3122 2075 
L 3122 331 
L 3634 331 
L 3634 0 
L 2547 0 
L 2547 359 
Q 2356 128 2106 18 
Q 1856 -91 1522 -91 
Q 969 -91 644 203 
Q 319 497 319 997 
Q 319 1513 691 1797 
Q 1063 2081 1741 2081 
L 2547 2081 
L 2547 2309 
Q 2547 2688 2317 2895 
Q 2088 3103 1672 3103 
Q 1328 3103 1125 2947 
Q 922 2791 872 2484 
L 575 2484 
L 575 3156 
Q 875 3284 1158 3348 
Q 1441 3413 1709 3413 
Q 2400 3413 2761 3070 
Q 3122 2728 3122 2075 
z
" transform="scale(0.015625)"/>
       <path id="DejaVuSerif-74" d="M 691 2988 
L 184 2988 
L 184 3322 
L 691 3322 
L 691 4353 
L 1269 4353 
L 1269 3322 
L 2350 3322 
L 2350 2988 
L 1269 2988 
L 1269 878 
Q 1269 456 1350 337 
Q 1431 219 1650 219 
Q 1875 219 1978 351 
Q 2081 484 2088 781 
L 2522 781 
Q 2497 328 2275 118 
Q 2053 -91 1600 -91 
Q 1103 -91 897 129 
Q 691 350 691 878 
L 691 2988 
z
" transform="scale(0.015625)"/>
       <path id="DejaVuSerif-69" d="M 622 4353 
Q 622 4497 726 4603 
Q 831 4709 978 4709 
Q 1122 4709 1226 4603 
Q 1331 4497 1331 4353 
Q 1331 4206 1228 4103 
Q 1125 4000 978 4000 
Q 831 4000 726 4103 
Q 622 4206 622 4353 
z
M 1356 331 
L 1900 331 
L 1900 0 
L 231 0 
L 231 331 
L 781 331 
L 781 2988 
L 231 2988 
L 231 3322 
L 1356 3322 
L 1356 331 
z
" transform="scale(0.015625)"/>
       <path id="DejaVuSerif-76" d="M 1581 0 
L 359 2988 
L -19 2988 
L -19 3322 
L 1509 3322 
L 1509 2988 
L 978 2988 
L 1913 703 
L 2847 2988 
L 2350 2988 
L 2350 3322 
L 3597 3322 
L 3597 2988 
L 3225 2988 
L 2003 0 
L 1581 0 
z
" transform="scale(0.015625)"/>
       <path id="DejaVuSerif-65" d="M 3469 1600 
L 991 1600 
L 991 1575 
Q 991 903 1244 561 
Q 1497 219 1991 219 
Q 2369 219 2611 417 
Q 2853 616 2950 1006 
L 3413 1006 
Q 3275 459 2904 184 
Q 2534 -91 1931 -91 
Q 1203 -91 761 389 
Q 319 869 319 1663 
Q 319 2450 753 2931 
Q 1188 3413 1894 3413 
Q 2647 3413 3050 2948 
Q 3453 2484 3469 1600 
z
M 2791 1931 
Q 2772 2513 2545 2808 
Q 2319 3103 1894 3103 
Q 1497 3103 1269 2806 
Q 1041 2509 991 1931 
L 2791 1931 
z
" transform="scale(0.015625)"/>
       <path id="DejaVuSerif-20" transform="scale(0.015625)"/>
       <path id="DejaVuSerif-4d" d="M 353 0 
L 353 331 
L 947 331 
L 947 4331 
L 319 4331 
L 319 4666 
L 1678 4666 
L 3316 1344 
L 4953 4666 
L 6228 4666 
L 6228 4331 
L 5606 4331 
L 5606 331 
L 6203 331 
L 6203 0 
L 4378 0 
L 4378 331 
L 4972 331 
L 4972 3938 
L 3372 684 
L 2931 684 
L 1331 3938 
L 1331 331 
L 1925 331 
L 1925 0 
L 353 0 
z
" transform="scale(0.015625)"/>
       <path id="DejaVuSerif-67" d="M 3359 2988 
L 3359 72 
Q 3359 -644 2965 -1033 
Q 2572 -1422 1844 -1422 
Q 1516 -1422 1216 -1362 
Q 916 -1303 641 -1184 
L 641 -488 
L 941 -488 
Q 997 -813 1206 -963 
Q 1416 -1113 1806 -1113 
Q 2313 -1113 2548 -827 
Q 2784 -541 2784 72 
L 2784 519 
Q 2616 206 2355 57 
Q 2094 -91 1709 -91 
Q 1097 -91 708 395 
Q 319 881 319 1663 
Q 319 2444 706 2928 
Q 1094 3413 1709 3413 
Q 2094 3413 2355 3264 
Q 2616 3116 2784 2803 
L 2784 3322 
L 3909 3322 
L 3909 2988 
L 3359 2988 
z
M 2784 1825 
Q 2784 2422 2554 2737 
Q 2325 3053 1888 3053 
Q 1444 3053 1217 2703 
Q 991 2353 991 1663 
Q 991 975 1217 622 
Q 1444 269 1888 269 
Q 2325 269 2554 583 
Q 2784 897 2784 1497 
L 2784 1825 
z
" transform="scale(0.015625)"/>
       <path id="DejaVuSerif-72" d="M 3059 3328 
L 3059 2497 
L 2728 2497 
Q 2713 2744 2591 2866 
Q 2469 2988 2234 2988 
Q 1809 2988 1582 2694 
Q 1356 2400 1356 1850 
L 1356 331 
L 2022 331 
L 2022 0 
L 263 0 
L 263 331 
L 781 331 
L 781 2994 
L 231 2994 
L 231 3322 
L 1356 3322 
L 1356 2731 
Q 1525 3078 1790 3245 
Q 2056 3413 2438 3413 
Q 2578 3413 2733 3391 
Q 2888 3369 3059 3328 
z
" transform="scale(0.015625)"/>
       <path id="DejaVuSerif-6f" d="M 1925 219 
Q 2388 219 2623 584 
Q 2859 950 2859 1663 
Q 2859 2375 2623 2739 
Q 2388 3103 1925 3103 
Q 1463 3103 1227 2739 
Q 991 2375 991 1663 
Q 991 950 1228 584 
Q 1466 219 1925 219 
z
M 1925 -91 
Q 1200 -91 759 389 
Q 319 869 319 1663 
Q 319 2456 758 2934 
Q 1197 3413 1925 3413 
Q 2653 3413 3092 2934 
Q 3531 2456 3531 1663 
Q 3531 869 3092 389 
Q 2653 -91 1925 -91 
z
" transform="scale(0.015625)"/>
       <path id="DejaVuSerif-6e" d="M 263 0 
L 263 331 
L 781 331 
L 781 2988 
L 231 2988 
L 231 3322 
L 1356 3322 
L 1356 2731 
Q 1516 3069 1770 3241 
Q 2025 3413 2363 3413 
Q 2913 3413 3172 3097 
Q 3431 2781 3431 2113 
L 3431 331 
L 3944 331 
L 3944 0 
L 2356 0 
L 2356 331 
L 2853 331 
L 2853 1931 
Q 2853 2541 2703 2767 
Q 2553 2994 2175 2994 
Q 1775 2994 1565 2701 
Q 1356 2409 1356 1850 
L 1356 331 
L 1856 331 
L 1856 0 
L 263 0 
z
" transform="scale(0.015625)"/>
      </defs>
      <use xlink:href="#DejaVuSerif-43"/>
      <use xlink:href="#DejaVuSerif-75" x="76.513672"/>
      <use xlink:href="#DejaVuSerif-6d" x="140.917969"/>
      <use xlink:href="#DejaVuSerif-75" x="235.742188"/>
      <use xlink:href="#DejaVuSerif-6c" x="300.146484"/>
      <use xlink:href="#DejaVuSerif-61" x="332.128906"/>
      <use xlink:href="#DejaVuSerif-74" x="391.748047"/>
      <use xlink:href="#DejaVuSerif-69" x="431.933594"/>
      <use xlink:href="#DejaVuSerif-76" x="463.916016"/>
      <use xlink:href="#DejaVuSerif-65" x="520.410156"/>
      <use xlink:href="#DejaVuSerif-20" x="579.589844"/>
      <use xlink:href="#DejaVuSerif-4d" x="611.376953"/>
      <use xlink:href="#DejaVuSerif-69" x="713.769531"/>
      <use xlink:href="#DejaVuSerif-67" x="745.751953"/>
      <use xlink:href="#DejaVuSerif-72" x="809.765625"/>
      <use xlink:href="#DejaVuSerif-61" x="857.568359"/>
      <use xlink:href="#DejaVuSerif-74" x="917.1875"/>
      <use xlink:href="#DejaVuSerif-69" x="957.373047"/>
      <use xlink:href="#DejaVuSerif-6f" x="989.355469"/>
      <use xlink:href="#DejaVuSerif-6e" x="1049.560547"/>
     </g>
    </g>
    <g id="text_11">
     <!-- $\times\mathdefault{10^{−2}}\mathdefault{}$ -->
     <g transform="translate(75.377522 21.704) scale(0.2 -0.2)">
      <defs>
       <path id="DejaVuSans-d7" d="M 4488 3438 
L 3059 2003 
L 4488 575 
L 4116 197 
L 2681 1631 
L 1247 197 
L 878 575 
L 2303 2003 
L 878 3438 
L 1247 3816 
L 2681 2381 
L 4116 3816 
L 4488 3438 
z
" transform="scale(0.015625)"/>
      </defs>
      <use xlink:href="#DejaVuSans-d7" transform="translate(0 0.7125)"/>
      <use xlink:href="#DejaVuSerif-31" transform="translate(83.789062 0.7125)"/>
      <use xlink:href="#DejaVuSerif-30" transform="translate(147.412109 0.7125)"/>
      <use xlink:href="#DejaVuSerif-2212" transform="translate(211.943516 37.046875) scale(0.7)"/>
      <use xlink:href="#DejaVuSerif-32" transform="translate(270.595859 37.046875) scale(0.7)"/>
     </g>
    </g>
   </g>
   <g id="line2d_17">
    <path d="M 94.633089 196.952 
L 107.912791 196.952 
L 121.192492 196.952 
L 134.472194 196.952 
L 147.751895 196.952 
L 161.031597 196.952 
L 174.311298 196.952 
L 187.591 196.952 
L 200.870701 196.952 
L 214.150403 196.952 
L 227.430104 196.952 
L 240.709806 196.952 
L 253.989507 196.952 
L 267.269209 196.952 
L 280.54891 196.952 
L 293.828612 196.952 
L 307.108313 196.952 
L 320.388015 196.952 
L 333.667716 196.952 
L 346.947418 196.952 
L 360.227119 196.952 
L 373.506821 196.952 
L 386.786522 196.952 
L 400.066224 196.952 
L 413.345925 196.952 
L 426.625627 196.952 
L 439.905328 196.952 
L 453.18503 196.952 
L 466.464731 196.952 
L 479.744433 196.952 
" clip-path="url(#pd9e0c29665)" style="fill: none; stroke: #646464; stroke-width: 5; stroke-linecap: square"/>
    <defs>
     <path id="m0c8e67235f" d="M 0 8.5 
C 2.254226 8.5 4.416429 7.604386 6.010408 6.010408 
C 7.604386 4.416429 8.5 2.254226 8.5 0 
C 8.5 -2.254226 7.604386 -4.416429 6.010408 -6.010408 
C 4.416429 -7.604386 2.254226 -8.5 0 -8.5 
C -2.254226 -8.5 -4.416429 -7.604386 -6.010408 -6.010408 
C -7.604386 -4.416429 -8.5 -2.254226 -8.5 0 
C -8.5 2.254226 -7.604386 4.416429 -6.010408 6.010408 
C -4.416429 7.604386 -2.254226 8.5 0 8.5 
z
" style="stroke: #646464; stroke-width: 4"/>
    </defs>
    <g clip-path="url(#pd9e0c29665)">
     <use xlink:href="#m0c8e67235f" x="94.633089" y="196.952" style="fill-opacity: 0; stroke: #646464; stroke-width: 4"/>
     <use xlink:href="#m0c8e67235f" x="227.430104" y="196.952" style="fill-opacity: 0; stroke: #646464; stroke-width: 4"/>
     <use xlink:href="#m0c8e67235f" x="360.227119" y="196.952" style="fill-opacity: 0; stroke: #646464; stroke-width: 4"/>
    </g>
   </g>
   <g id="line2d_18">
    <path d="M 94.633089 196.952 
L 107.912791 196.952 
L 121.192492 196.952 
L 134.472194 196.952 
L 147.751895 196.952 
L 161.031597 196.952 
L 174.311298 196.952 
L 187.591 196.952 
L 200.870701 196.952 
L 214.150403 196.952 
L 227.430104 196.952 
L 240.709806 196.952 
L 253.989507 196.952 
L 267.269209 196.952 
L 280.54891 196.952 
L 293.828612 196.952 
L 307.108313 196.952 
L 320.388015 196.952 
L 333.667716 196.952 
L 346.947418 196.952 
L 360.227119 196.952 
L 373.506821 196.952 
L 386.786522 196.952 
L 400.066224 196.952 
L 413.345925 196.952 
L 426.625627 196.952 
L 439.905328 196.952 
L 453.18503 196.952 
L 466.464731 196.952 
L 479.744433 196.952 
" clip-path="url(#pd9e0c29665)" style="fill: none; stroke: #ee0000; stroke-width: 5; stroke-linecap: square"/>
    <defs>
     <path id="mf6b3fa459f" d="M -0 8.5 
L 8.5 -8.5 
L -8.5 -8.5 
z
" style="stroke: #ee0000; stroke-width: 4; stroke-linejoin: miter"/>
    </defs>
    <g clip-path="url(#pd9e0c29665)">
     <use xlink:href="#mf6b3fa459f" x="94.633089" y="196.952" style="fill-opacity: 0; stroke: #ee0000; stroke-width: 4; stroke-linejoin: miter"/>
     <use xlink:href="#mf6b3fa459f" x="227.430104" y="196.952" style="fill-opacity: 0; stroke: #ee0000; stroke-width: 4; stroke-linejoin: miter"/>
     <use xlink:href="#mf6b3fa459f" x="360.227119" y="196.952" style="fill-opacity: 0; stroke: #ee0000; stroke-width: 4; stroke-linejoin: miter"/>
    </g>
   </g>
   <g id="line2d_19">
    <path d="M 94.633089 196.952 
L 107.912791 196.952 
L 121.192492 196.952 
L 134.472194 196.952 
L 147.751895 196.952 
L 161.031597 196.952 
L 174.311298 196.952 
L 187.591 196.952 
L 200.870701 196.952 
L 214.150403 196.952 
L 227.430104 196.952 
L 240.709806 196.952 
L 253.989507 196.952 
L 267.269209 196.952 
L 280.54891 196.952 
L 293.828612 196.952 
L 307.108313 196.952 
L 320.388015 196.952 
L 333.667716 196.952 
L 346.947418 196.952 
L 360.227119 196.952 
L 373.506821 196.952 
L 386.786522 196.952 
L 400.066224 196.952 
L 413.345925 196.952 
L 426.625627 196.952 
L 439.905328 196.952 
L 453.18503 196.952 
L 466.464731 196.952 
L 479.744433 196.952 
" clip-path="url(#pd9e0c29665)" style="fill: none; stroke: #6e8ee6; stroke-width: 5; stroke-linecap: square"/>
    <defs>
     <path id="m7e84cf474a" d="M 0 -8.5 
L -7.361216 -4.25 
L -7.361216 4.25 
L -0 8.5 
L 7.361216 4.25 
L 7.361216 -4.25 
z
" style="stroke: #6e8ee6; stroke-width: 4; stroke-linejoin: miter"/>
    </defs>
    <g clip-path="url(#pd9e0c29665)">
     <use xlink:href="#m7e84cf474a" x="94.633089" y="196.952" style="fill-opacity: 0; stroke: #6e8ee6; stroke-width: 4; stroke-linejoin: miter"/>
     <use xlink:href="#m7e84cf474a" x="227.430104" y="196.952" style="fill-opacity: 0; stroke: #6e8ee6; stroke-width: 4; stroke-linejoin: miter"/>
     <use xlink:href="#m7e84cf474a" x="360.227119" y="196.952" style="fill-opacity: 0; stroke: #6e8ee6; stroke-width: 4; stroke-linejoin: miter"/>
    </g>
   </g>
   <g id="line2d_20">
    <path d="M 94.633089 196.952 
L 107.912791 196.952 
L 121.192492 196.952 
L 134.472194 196.952 
L 147.751895 196.952 
L 161.031597 196.952 
L 174.311298 196.952 
L 187.591 196.952 
L 200.870701 196.952 
L 214.150403 196.952 
L 227.430104 196.952 
L 240.709806 196.952 
L 253.989507 196.952 
L 267.269209 196.952 
L 280.54891 196.952 
L 293.828612 196.952 
L 307.108313 196.952 
L 320.388015 196.952 
L 333.667716 196.952 
L 346.947418 196.952 
L 360.227119 196.952 
L 373.506821 196.952 
L 386.786522 196.952 
L 400.066224 196.952 
L 413.345925 196.952 
L 426.625627 196.952 
L 439.905328 196.952 
L 453.18503 196.952 
L 466.464731 196.952 
L 479.744433 196.952 
" clip-path="url(#pd9e0c29665)" style="fill: none; stroke: #21cd7d; stroke-width: 5; stroke-linecap: square"/>
    <defs>
     <path id="m8fa15c11fd" d="M 0 -8.5 
L -8.5 8.5 
L 8.5 8.5 
z
" style="stroke: #21cd7d; stroke-width: 4; stroke-linejoin: miter"/>
    </defs>
    <g clip-path="url(#pd9e0c29665)">
     <use xlink:href="#m8fa15c11fd" x="94.633089" y="196.952" style="fill-opacity: 0; stroke: #21cd7d; stroke-width: 4; stroke-linejoin: miter"/>
     <use xlink:href="#m8fa15c11fd" x="227.430104" y="196.952" style="fill-opacity: 0; stroke: #21cd7d; stroke-width: 4; stroke-linejoin: miter"/>
     <use xlink:href="#m8fa15c11fd" x="360.227119" y="196.952" style="fill-opacity: 0; stroke: #21cd7d; stroke-width: 4; stroke-linejoin: miter"/>
    </g>
   </g>
   <g id="line2d_21">
    <path d="M 94.633089 196.952 
L 107.912791 196.952 
L 121.192492 196.952 
L 134.472194 196.952 
L 147.751895 196.952 
L 161.031597 196.952 
L 174.311298 196.952 
L 187.591 196.952 
L 200.870701 196.952 
L 214.150403 196.952 
L 227.430104 196.952 
L 240.709806 196.952 
L 253.989507 196.952 
L 267.269209 196.952 
L 280.54891 196.952 
L 293.828612 196.952 
L 307.108313 196.952 
L 320.388015 196.952 
L 333.667716 196.952 
L 346.947418 196.952 
L 360.227119 196.952 
L 373.506821 196.952 
L 386.786522 196.952 
L 400.066224 196.952 
L 413.345925 196.952 
L 426.625627 196.952 
L 439.905328 196.952 
L 453.18503 196.952 
L 466.464731 196.952 
L 479.744433 196.952 
" clip-path="url(#pd9e0c29665)" style="fill: none; stroke: #00ff00; stroke-width: 5; stroke-linecap: square"/>
    <defs>
     <path id="m8b7400c5e3" d="M 0 12.020815 
L 12.020815 0 
L 0 -12.020815 
L -12.020815 0 
z
" style="stroke: #00ff00; stroke-width: 4; stroke-linejoin: miter"/>
    </defs>
    <g clip-path="url(#pd9e0c29665)">
     <use xlink:href="#m8b7400c5e3" x="94.633089" y="196.952" style="fill-opacity: 0; stroke: #00ff00; stroke-width: 4; stroke-linejoin: miter"/>
     <use xlink:href="#m8b7400c5e3" x="227.430104" y="196.952" style="fill-opacity: 0; stroke: #00ff00; stroke-width: 4; stroke-linejoin: miter"/>
     <use xlink:href="#m8b7400c5e3" x="360.227119" y="196.952" style="fill-opacity: 0; stroke: #00ff00; stroke-width: 4; stroke-linejoin: miter"/>
    </g>
   </g>
   <g id="line2d_22">
    <path d="M 94.633089 196.952 
L 107.912791 196.952 
L 121.192492 196.952 
L 134.472194 196.952 
L 147.751895 196.952 
L 161.031597 196.952 
L 174.311298 196.952 
L 187.591 196.952 
L 200.870701 196.952 
L 214.150403 196.952 
L 227.430104 196.952 
L 240.709806 196.952 
L 253.989507 196.952 
L 267.269209 196.952 
L 280.54891 196.952 
L 293.828612 196.952 
L 307.108313 196.952 
L 320.388015 196.952 
L 333.667716 196.952 
L 346.947418 196.952 
L 360.227119 196.952 
L 373.506821 196.952 
L 386.786522 196.952 
L 400.066224 196.952 
L 413.345925 196.952 
L 426.625627 196.952 
L 439.905328 196.952 
L 453.18503 196.952 
L 466.464731 196.952 
L 479.744433 196.952 
" clip-path="url(#pd9e0c29665)" style="fill: none; stroke-dasharray: 18.5,8; stroke-dashoffset: 0; stroke: #eeee00; stroke-width: 5"/>
    <defs>
     <path id="m08810d26b0" d="M 8.5 0 
L -8.5 -8.5 
L -8.5 8.5 
z
" style="stroke: #eeee00; stroke-width: 4; stroke-linejoin: miter"/>
    </defs>
    <g clip-path="url(#pd9e0c29665)">
     <use xlink:href="#m08810d26b0" x="94.633089" y="196.952" style="fill-opacity: 0; stroke: #eeee00; stroke-width: 4; stroke-linejoin: miter"/>
     <use xlink:href="#m08810d26b0" x="227.430104" y="196.952" style="fill-opacity: 0; stroke: #eeee00; stroke-width: 4; stroke-linejoin: miter"/>
     <use xlink:href="#m08810d26b0" x="360.227119" y="196.952" style="fill-opacity: 0; stroke: #eeee00; stroke-width: 4; stroke-linejoin: miter"/>
    </g>
   </g>
   <g id="line2d_23">
    <path d="M 94.633089 196.952 
L 107.912791 196.952 
L 121.192492 196.952 
L 134.472194 196.952 
L 147.751895 196.952 
L 161.031597 196.952 
L 174.311298 196.952 
L 187.591 196.952 
L 200.870701 196.952 
L 214.150403 196.952 
L 227.430104 196.952 
L 240.709806 196.952 
L 253.989507 196.952 
L 267.269209 196.952 
L 280.54891 196.952 
L 293.828612 196.952 
L 307.108313 196.952 
L 320.388015 196.952 
L 333.667716 196.952 
L 346.947418 196.952 
L 360.227119 196.952 
L 373.506821 196.952 
L 386.786522 196.952 
L 400.066224 196.952 
L 413.345925 196.952 
L 426.625627 196.952 
L 439.905328 196.952 
L 453.18503 196.952 
L 466.464731 196.952 
L 479.744433 196.952 
" clip-path="url(#pd9e0c29665)" style="fill: none; stroke-dasharray: 18.5,8; stroke-dashoffset: 0; stroke: #00eeee; stroke-width: 5"/>
    <defs>
     <path id="m6178cf1964" d="M -8.5 -0 
L 8.5 8.5 
L 8.5 -8.5 
z
" style="stroke: #00eeee; stroke-width: 4; stroke-linejoin: miter"/>
    </defs>
    <g clip-path="url(#pd9e0c29665)">
     <use xlink:href="#m6178cf1964" x="94.633089" y="196.952" style="fill-opacity: 0; stroke: #00eeee; stroke-width: 4; stroke-linejoin: miter"/>
     <use xlink:href="#m6178cf1964" x="227.430104" y="196.952" style="fill-opacity: 0; stroke: #00eeee; stroke-width: 4; stroke-linejoin: miter"/>
     <use xlink:href="#m6178cf1964" x="360.227119" y="196.952" style="fill-opacity: 0; stroke: #00eeee; stroke-width: 4; stroke-linejoin: miter"/>
    </g>
   </g>
   <g id="patch_3">
    <path d="M 75.377522 369.2 
L 75.377522 24.704 
" style="fill: none; stroke: #000000; stroke-width: 0.8; stroke-linejoin: miter; stroke-linecap: square"/>
   </g>
   <g id="patch_4">
    <path d="M 499 369.2 
L 499 24.704 
" style="fill: none; stroke: #000000; stroke-width: 0.8; stroke-linejoin: miter; stroke-linecap: square"/>
   </g>
   <g id="patch_5">
    <path d="M 75.377522 369.2 
L 499 369.2 
" style="fill: none; stroke: #000000; stroke-width: 0.8; stroke-linejoin: miter; stroke-linecap: square"/>
   </g>
   <g id="patch_6">
    <path d="M 75.377522 24.704 
L 499 24.704 
" style="fill: none; stroke: #000000; stroke-width: 0.8; stroke-linejoin: miter; stroke-linecap: square"/>
   </g>
   <g id="legend_1">
    <g id="patch_7">
     <path d="M 350.969687 224.048375 
L 486.4 224.048375 
Q 490 224.048375 490 220.448375 
L 490 37.304 
Q 490 33.704 486.4 33.704 
L 350.969687 33.704 
Q 347.369687 33.704 347.369687 37.304 
L 347.369687 220.448375 
Q 347.369687 224.048375 350.969687 224.048375 
z
" style="fill: #ffffff; opacity: 0.8; stroke: #cccccc; stroke-linejoin: miter"/>
    </g>
    <g id="line2d_24">
     <path d="M 354.569687 48.281188 
L 390.569687 48.281188 
" style="fill: none; stroke: #646464; stroke-width: 5; stroke-linecap: square"/>
    </g>
    <g id="line2d_25">
     <g>
      <use xlink:href="#m0c8e67235f" x="372.569687" y="48.281188" style="fill-opacity: 0; stroke: #646464; stroke-width: 4"/>
     </g>
    </g>
    <g id="text_12">
     <!-- 5Guard -->
     <g transform="translate(404.969687 54.581187) scale(0.18 -0.18)">
      <defs>
       <path id="DejaVuSerif-35" d="M 3219 4666 
L 3219 4153 
L 1081 4153 
L 1081 2816 
Q 1244 2928 1461 2984 
Q 1678 3041 1947 3041 
Q 2703 3041 3140 2622 
Q 3578 2203 3578 1478 
Q 3578 738 3136 323 
Q 2694 -91 1894 -91 
Q 1572 -91 1234 -12 
Q 897 66 544 225 
L 544 1131 
L 897 1131 
Q 925 688 1179 453 
Q 1434 219 1894 219 
Q 2388 219 2653 544 
Q 2919 869 2919 1478 
Q 2919 2084 2655 2407 
Q 2391 2731 1894 2731 
Q 1613 2731 1398 2631 
Q 1184 2531 1019 2322 
L 750 2322 
L 750 4666 
L 3219 4666 
z
" transform="scale(0.015625)"/>
       <path id="DejaVuSerif-47" d="M 4097 3272 
Q 3988 3856 3641 4136 
Q 3294 4416 2675 4416 
Q 1869 4416 1472 3897 
Q 1075 3378 1075 2328 
Q 1075 1300 1484 772 
Q 1894 244 2688 244 
Q 3041 244 3362 331 
Q 3684 419 3975 594 
L 3975 1797 
L 3097 1797 
L 3097 2131 
L 4609 2131 
L 4609 391 
Q 4194 150 3714 29 
Q 3234 -91 2688 -91 
Q 1631 -91 995 570 
Q 359 1231 359 2328 
Q 359 3434 996 4092 
Q 1634 4750 2713 4750 
Q 3113 4750 3539 4658 
Q 3966 4566 4447 4378 
L 4447 3272 
L 4097 3272 
z
" transform="scale(0.015625)"/>
       <path id="DejaVuSerif-64" d="M 3359 331 
L 3909 331 
L 3909 0 
L 2784 0 
L 2784 519 
Q 2616 206 2355 57 
Q 2094 -91 1709 -91 
Q 1097 -91 708 395 
Q 319 881 319 1663 
Q 319 2444 706 2928 
Q 1094 3413 1709 3413 
Q 2094 3413 2355 3264 
Q 2616 3116 2784 2803 
L 2784 4531 
L 2241 4531 
L 2241 4863 
L 3359 4863 
L 3359 331 
z
M 2784 1497 
L 2784 1825 
Q 2784 2422 2554 2737 
Q 2325 3053 1888 3053 
Q 1444 3053 1217 2703 
Q 991 2353 991 1663 
Q 991 975 1217 622 
Q 1444 269 1888 269 
Q 2325 269 2554 583 
Q 2784 897 2784 1497 
z
" transform="scale(0.015625)"/>
      </defs>
      <use xlink:href="#DejaVuSerif-35"/>
      <use xlink:href="#DejaVuSerif-47" x="63.623047"/>
      <use xlink:href="#DejaVuSerif-75" x="143.505859"/>
      <use xlink:href="#DejaVuSerif-61" x="207.910156"/>
      <use xlink:href="#DejaVuSerif-72" x="267.529297"/>
      <use xlink:href="#DejaVuSerif-64" x="315.332031"/>
     </g>
    </g>
    <g id="line2d_26">
     <path d="M 354.569687 74.701813 
L 390.569687 74.701813 
" style="fill: none; stroke: #ee0000; stroke-width: 5; stroke-linecap: square"/>
    </g>
    <g id="line2d_27">
     <g>
      <use xlink:href="#mf6b3fa459f" x="372.569687" y="74.701813" style="fill-opacity: 0; stroke: #ee0000; stroke-width: 4; stroke-linejoin: miter"/>
     </g>
    </g>
    <g id="text_13">
     <!-- OPT -->
     <g transform="translate(404.969687 81.001813) scale(0.18 -0.18)">
      <defs>
       <path id="DejaVuSerif-4f" d="M 2625 244 
Q 3391 244 3781 770 
Q 4172 1297 4172 2328 
Q 4172 3363 3781 3889 
Q 3391 4416 2625 4416 
Q 1856 4416 1465 3889 
Q 1075 3363 1075 2328 
Q 1075 1297 1465 770 
Q 1856 244 2625 244 
z
M 2625 -91 
Q 2150 -91 1751 65 
Q 1353 222 1050 525 
Q 700 875 529 1319 
Q 359 1763 359 2328 
Q 359 2894 529 3339 
Q 700 3784 1050 4134 
Q 1356 4441 1750 4595 
Q 2144 4750 2625 4750 
Q 3641 4750 4266 4084 
Q 4891 3419 4891 2328 
Q 4891 1769 4719 1320 
Q 4547 872 4197 525 
Q 3891 219 3497 64 
Q 3103 -91 2625 -91 
z
" transform="scale(0.015625)"/>
       <path id="DejaVuSerif-50" d="M 1581 2375 
L 2406 2375 
Q 2872 2375 3115 2626 
Q 3359 2878 3359 3353 
Q 3359 3831 3115 4081 
Q 2872 4331 2406 4331 
L 1581 4331 
L 1581 2375 
z
M 353 0 
L 353 331 
L 947 331 
L 947 4331 
L 353 4331 
L 353 4666 
L 2559 4666 
Q 3259 4666 3668 4311 
Q 4078 3956 4078 3353 
Q 4078 2753 3668 2397 
Q 3259 2041 2559 2041 
L 1581 2041 
L 1581 331 
L 2303 331 
L 2303 0 
L 353 0 
z
" transform="scale(0.015625)"/>
       <path id="DejaVuSerif-54" d="M 1222 0 
L 1222 331 
L 1819 331 
L 1819 4294 
L 447 4294 
L 447 3566 
L 63 3566 
L 63 4666 
L 4206 4666 
L 4206 3566 
L 3822 3566 
L 3822 4294 
L 2450 4294 
L 2450 331 
L 3047 331 
L 3047 0 
L 1222 0 
z
" transform="scale(0.015625)"/>
      </defs>
      <use xlink:href="#DejaVuSerif-4f"/>
      <use xlink:href="#DejaVuSerif-50" x="81.982422"/>
      <use xlink:href="#DejaVuSerif-54" x="149.267578"/>
     </g>
    </g>
    <g id="line2d_28">
     <path d="M 354.569687 101.122438 
L 390.569687 101.122438 
" style="fill: none; stroke: #6e8ee6; stroke-width: 5; stroke-linecap: square"/>
    </g>
    <g id="line2d_29">
     <g>
      <use xlink:href="#m7e84cf474a" x="372.569687" y="101.122438" style="fill-opacity: 0; stroke: #6e8ee6; stroke-width: 4; stroke-linejoin: miter"/>
     </g>
    </g>
    <g id="text_14">
     <!-- IAR -->
     <g transform="translate(404.969687 107.422438) scale(0.18 -0.18)">
      <defs>
       <path id="DejaVuSerif-49" d="M 1581 331 
L 2175 331 
L 2175 0 
L 353 0 
L 353 331 
L 947 331 
L 947 4331 
L 353 4331 
L 353 4666 
L 2175 4666 
L 2175 4331 
L 1581 4331 
L 1581 331 
z
" transform="scale(0.015625)"/>
       <path id="DejaVuSerif-41" d="M 1281 1691 
L 2994 1691 
L 2138 3909 
L 1281 1691 
z
M -38 0 
L -38 331 
L 372 331 
L 2034 4666 
L 2559 4666 
L 4225 331 
L 4684 331 
L 4684 0 
L 2988 0 
L 2988 331 
L 3506 331 
L 3116 1356 
L 1153 1356 
L 763 331 
L 1275 331 
L 1275 0 
L -38 0 
z
" transform="scale(0.015625)"/>
       <path id="DejaVuSerif-52" d="M 3066 2316 
Q 3284 2256 3442 2114 
Q 3600 1972 3725 1716 
L 4403 331 
L 4972 331 
L 4972 0 
L 3872 0 
L 3144 1484 
Q 2934 1916 2759 2042 
Q 2584 2169 2278 2169 
L 1581 2169 
L 1581 331 
L 2241 331 
L 2241 0 
L 353 0 
L 353 331 
L 947 331 
L 947 4331 
L 353 4331 
L 353 4666 
L 2719 4666 
Q 3400 4666 3770 4341 
Q 4141 4016 4141 3419 
Q 4141 2938 3870 2661 
Q 3600 2384 3066 2316 
z
M 1581 2503 
L 2503 2503 
Q 2975 2503 3200 2726 
Q 3425 2950 3425 3419 
Q 3425 3888 3200 4109 
Q 2975 4331 2503 4331 
L 1581 4331 
L 1581 2503 
z
" transform="scale(0.015625)"/>
      </defs>
      <use xlink:href="#DejaVuSerif-49"/>
      <use xlink:href="#DejaVuSerif-41" x="39.501953"/>
      <use xlink:href="#DejaVuSerif-52" x="111.71875"/>
     </g>
    </g>
    <g id="line2d_30">
     <path d="M 354.569687 127.543062 
L 390.569687 127.543062 
" style="fill: none; stroke: #21cd7d; stroke-width: 5; stroke-linecap: square"/>
    </g>
    <g id="line2d_31">
     <g>
      <use xlink:href="#m8fa15c11fd" x="372.569687" y="127.543062" style="fill-opacity: 0; stroke: #21cd7d; stroke-width: 4; stroke-linejoin: miter"/>
     </g>
    </g>
    <g id="text_15">
     <!-- DTR -->
     <g transform="translate(404.969687 133.843062) scale(0.18 -0.18)">
      <defs>
       <path id="DejaVuSerif-44" d="M 1581 331 
L 2163 331 
Q 3072 331 3558 850 
Q 4044 1369 4044 2338 
Q 4044 3306 3559 3818 
Q 3075 4331 2163 4331 
L 1581 4331 
L 1581 331 
z
M 353 0 
L 353 331 
L 947 331 
L 947 4331 
L 353 4331 
L 353 4666 
L 2209 4666 
Q 3416 4666 4089 4050 
Q 4763 3434 4763 2338 
Q 4763 1238 4088 619 
Q 3413 0 2209 0 
L 353 0 
z
" transform="scale(0.015625)"/>
      </defs>
      <use xlink:href="#DejaVuSerif-44"/>
      <use xlink:href="#DejaVuSerif-54" x="80.175781"/>
      <use xlink:href="#DejaVuSerif-52" x="146.875"/>
     </g>
    </g>
    <g id="line2d_32">
     <path d="M 354.569687 153.963687 
L 390.569687 153.963687 
" style="fill: none; stroke: #00ff00; stroke-width: 5; stroke-linecap: square"/>
    </g>
    <g id="line2d_33">
     <g>
      <use xlink:href="#m8b7400c5e3" x="372.569687" y="153.963687" style="fill-opacity: 0; stroke: #00ff00; stroke-width: 4; stroke-linejoin: miter"/>
     </g>
    </g>
    <g id="text_16">
     <!-- RNR -->
     <g transform="translate(404.969687 160.263688) scale(0.18 -0.18)">
      <defs>
       <path id="DejaVuSerif-4e" d="M 313 0 
L 313 331 
L 941 331 
L 941 4331 
L 313 4331 
L 313 4666 
L 1509 4666 
L 4306 984 
L 4306 4331 
L 3681 4331 
L 3681 4666 
L 5319 4666 
L 5319 4331 
L 4691 4331 
L 4691 -91 
L 4313 -91 
L 1325 3841 
L 1325 331 
L 1953 331 
L 1953 0 
L 313 0 
z
" transform="scale(0.015625)"/>
      </defs>
      <use xlink:href="#DejaVuSerif-52"/>
      <use xlink:href="#DejaVuSerif-4e" x="75.292969"/>
      <use xlink:href="#DejaVuSerif-52" x="162.792969"/>
     </g>
    </g>
    <g id="line2d_34">
     <path d="M 354.569687 180.384312 
L 390.569687 180.384312 
" style="fill: none; stroke-dasharray: 18.5,8; stroke-dashoffset: 0; stroke: #eeee00; stroke-width: 5"/>
    </g>
    <g id="line2d_35">
     <g>
      <use xlink:href="#m08810d26b0" x="372.569687" y="180.384312" style="fill-opacity: 0; stroke: #eeee00; stroke-width: 4; stroke-linejoin: miter"/>
     </g>
    </g>
    <g id="text_17">
     <!-- OPT-NIS -->
     <g transform="translate(404.969687 186.684312) scale(0.18 -0.18)">
      <defs>
       <path id="DejaVuSerif-2d" d="M 281 1959 
L 1881 1959 
L 1881 1472 
L 281 1472 
L 281 1959 
z
" transform="scale(0.015625)"/>
       <path id="DejaVuSerif-53" d="M 594 225 
L 594 1288 
L 953 1284 
Q 969 753 1261 498 
Q 1553 244 2150 244 
Q 2706 244 2998 464 
Q 3291 684 3291 1106 
Q 3291 1444 3114 1625 
Q 2938 1806 2369 1978 
L 1753 2163 
Q 1084 2366 811 2669 
Q 538 2972 538 3500 
Q 538 4094 959 4422 
Q 1381 4750 2144 4750 
Q 2469 4750 2856 4679 
Q 3244 4609 3681 4475 
L 3681 3481 
L 3328 3481 
Q 3275 3975 2998 4195 
Q 2722 4416 2156 4416 
Q 1663 4416 1405 4214 
Q 1147 4013 1147 3628 
Q 1147 3294 1340 3103 
Q 1534 2913 2163 2725 
L 2741 2553 
Q 3375 2363 3645 2067 
Q 3916 1772 3916 1275 
Q 3916 597 3481 253 
Q 3047 -91 2188 -91 
Q 1803 -91 1404 -12 
Q 1006 66 594 225 
z
" transform="scale(0.015625)"/>
      </defs>
      <use xlink:href="#DejaVuSerif-4f"/>
      <use xlink:href="#DejaVuSerif-50" x="81.982422"/>
      <use xlink:href="#DejaVuSerif-54" x="149.267578"/>
      <use xlink:href="#DejaVuSerif-2d" x="203.091797"/>
      <use xlink:href="#DejaVuSerif-4e" x="236.880859"/>
      <use xlink:href="#DejaVuSerif-49" x="324.380859"/>
      <use xlink:href="#DejaVuSerif-53" x="363.882812"/>
     </g>
    </g>
    <g id="line2d_36">
     <path d="M 354.569687 206.804937 
L 390.569687 206.804937 
" style="fill: none; stroke-dasharray: 18.5,8; stroke-dashoffset: 0; stroke: #00eeee; stroke-width: 5"/>
    </g>
    <g id="line2d_37">
     <g>
      <use xlink:href="#m6178cf1964" x="372.569687" y="206.804937" style="fill-opacity: 0; stroke: #00eeee; stroke-width: 4; stroke-linejoin: miter"/>
     </g>
    </g>
    <g id="text_18">
     <!-- OPT-CIS -->
     <g transform="translate(404.969687 213.104937) scale(0.18 -0.18)">
      <use xlink:href="#DejaVuSerif-4f"/>
      <use xlink:href="#DejaVuSerif-50" x="81.982422"/>
      <use xlink:href="#DejaVuSerif-54" x="149.267578"/>
      <use xlink:href="#DejaVuSerif-2d" x="203.091797"/>
      <use xlink:href="#DejaVuSerif-43" x="236.880859"/>
      <use xlink:href="#DejaVuSerif-49" x="313.394531"/>
      <use xlink:href="#DejaVuSerif-53" x="352.896484"/>
     </g>
    </g>
   </g>
  </g>
 </g>
 <defs>
  <clipPath id="pd9e0c29665">
   <rect x="75.377522" y="24.704" width="423.622478" height="344.496"/>
  </clipPath>
 </defs>
</svg>
