<?xml version="1.0" encoding="utf-8" standalone="no"?>
<!DOCTYPE svg PUBLIC "-//W3C//DTD SVG 1.1//EN"
  "http://www.w3.org/Graphics/SVG/1.1/DTD/svg11.dtd">
<svg xmlns:xlink="http://www.w3.org/1999/xlink" width="504pt" height="432pt" viewBox="0 0 504 432" xmlns="http://www.w3.org/2000/svg" version="1.1">
 <metadata>
  <rdf:RDF xmlns:dc="http://purl.org/dc/elements/1.1/" xmlns:cc="http://creativecommons.org/ns#" xmlns:rdf="http://www.w3.org/1999/02/22-rdf-syntax-ns#">
   <cc:Work>
    <dc:type rdf:resource="http://purl.org/dc/dcmitype/StillImage"/>
    <dc:date>2025-02-25T18:57:17.132998</dc:date>
    <dc:format>image/svg+xml</dc:format>
    <dc:creator>
     <cc:Agent>
      <dc:title>Matplotlib v3.8.0, https://matplotlib.org/</dc:title>
     </cc:Agent>
    </dc:creator>
   </cc:Work>
  </rdf:RDF>
 </metadata>
 <defs>
  <style type="text/css">*{stroke-linejoin: round; stroke-linecap: butt}</style>
 </defs>
 <g id="figure_1">
  <g id="patch_1">
   <path d="M 0 432 
L 504 432 
L 504 0 
L 0 0 
z
" style="fill: #ffffff"/>
  </g>
  <g id="axes_1">
   <g id="patch_2">
    <path d="M 77.844073 369.2 
L 499 369.2 
L 499 24.704 
L 77.844073 24.704 
z
" style="fill: #ffffff"/>
   </g>
   <g id="PolyCollection_1">
    <defs>
     <path id="meeb7d43cb7" d="M 96.987525 -88.813464 
L 96.987525 -78.506972 
L 110.189905 -86.113536 
L 123.392285 -93.720099 
L 136.594665 -99.958229 
L 149.797045 -117.871284 
L 162.999425 -125.477848 
L 176.201806 -134.452845 
L 189.404186 -149.629749 
L 202.606566 -157.236313 
L 215.808946 -164.842876 
L 229.011326 -172.44944 
L 242.213706 -180.056004 
L 255.416086 -187.662567 
L 268.618467 -195.269131 
L 281.820847 -201.507977 
L 295.023227 -209.11454 
L 308.225607 -215.915468 
L 321.427987 -228.187564 
L 334.630367 -235.794128 
L 347.832747 -240.665256 
L 361.035128 -240.665256 
L 374.237508 -248.27182 
L 387.439888 -255.878383 
L 400.642268 -263.484947 
L 413.844648 -271.091511 
L 427.047028 -278.698074 
L 440.249408 -286.304638 
L 453.451789 -293.911201 
L 466.654169 -301.517765 
L 479.856549 -309.124328 
L 479.856549 -373.917388 
L 479.856549 -373.917388 
L 466.654169 -366.31727 
L 453.451789 -358.710706 
L 440.249408 -351.104143 
L 427.047028 -346.113721 
L 413.844648 -343.497579 
L 400.642268 -335.891016 
L 387.439888 -328.284452 
L 374.237508 -320.677888 
L 361.035128 -313.071325 
L 347.832747 -305.458316 
L 334.630367 -297.858198 
L 321.427987 -290.251634 
L 308.225607 -282.645071 
L 295.023227 -279.106868 
L 281.820847 -279.106868 
L 268.618467 -279.106868 
L 255.416086 -261.193813 
L 242.213706 -253.58725 
L 229.011326 -245.980686 
L 215.808946 -229.643098 
L 202.606566 -210.361609 
L 189.404186 -202.755045 
L 176.201806 -196.516915 
L 162.999425 -188.910352 
L 149.797045 -181.303788 
L 136.594665 -173.697224 
L 123.392285 -166.090661 
L 110.189905 -148.177606 
L 96.987525 -88.813464 
z
" style="stroke: #646464; stroke-opacity: 0.1"/>
    </defs>
    <g clip-path="url(#pd85a6b6c45)">
     <use xlink:href="#meeb7d43cb7" x="0" y="432" style="fill: #646464; fill-opacity: 0.1; stroke: #646464; stroke-opacity: 0.1"/>
    </g>
   </g>
   <g id="PolyCollection_2">
    <defs>
     <path id="m97cea8ed5b" d="M 96.987525 -88.813464 
L 96.987525 -78.506972 
L 110.189905 -86.113536 
L 123.392285 -93.720099 
L 136.594665 -99.958229 
L 149.797045 -117.871284 
L 162.999425 -125.477848 
L 176.201806 -134.452845 
L 189.404186 -149.629749 
L 202.606566 -157.236313 
L 215.808946 -164.842876 
L 229.011326 -172.44944 
L 242.213706 -180.056004 
L 255.416086 -187.662567 
L 268.618467 -195.269131 
L 281.820847 -201.507977 
L 295.023227 -209.11454 
L 308.225607 -215.915468 
L 321.427987 -233.058693 
L 334.630367 -240.665256 
L 347.832747 -240.665256 
L 361.035128 -240.665256 
L 374.237508 -248.27182 
L 387.439888 -255.878383 
L 400.642268 -263.484947 
L 413.844648 -271.091511 
L 427.047028 -278.698074 
L 440.249408 -286.304638 
L 453.451789 -293.911201 
L 466.654169 -301.517765 
L 479.856549 -309.124328 
L 479.856549 -391.637091 
L 479.856549 -391.637091 
L 466.654169 -384.049863 
L 453.451789 -376.449744 
L 440.249408 -368.862516 
L 427.047028 -361.288178 
L 413.844648 -343.497579 
L 400.642268 -335.891016 
L 387.439888 -328.284452 
L 374.237508 -320.677888 
L 361.035128 -313.071325 
L 347.832747 -305.458316 
L 334.630367 -297.858198 
L 321.427987 -290.251634 
L 308.225607 -282.645071 
L 295.023227 -279.106868 
L 281.820847 -279.106868 
L 268.618467 -279.106868 
L 255.416086 -261.193813 
L 242.213706 -253.58725 
L 229.011326 -245.980686 
L 215.808946 -229.643098 
L 202.606566 -210.361609 
L 189.404186 -202.755045 
L 176.201806 -196.516915 
L 162.999425 -188.910352 
L 149.797045 -181.303788 
L 136.594665 -173.697224 
L 123.392285 -166.090661 
L 110.189905 -148.177606 
L 96.987525 -88.813464 
z
" style="stroke: #ee0000; stroke-opacity: 0.1"/>
    </defs>
    <g clip-path="url(#pd85a6b6c45)">
     <use xlink:href="#m97cea8ed5b" x="0" y="432" style="fill: #ee0000; fill-opacity: 0.1; stroke: #ee0000; stroke-opacity: 0.1"/>
    </g>
   </g>
   <g id="PolyCollection_3">
    <defs>
     <path id="mb2e982e2cd" d="M 96.987525 -88.813464 
L 96.987525 -78.487637 
L 110.189905 -86.074865 
L 123.392285 -93.662093 
L 136.594665 -99.893778 
L 149.797045 -117.806833 
L 162.999425 -125.394062 
L 176.201806 -134.336833 
L 189.404186 -144.66266 
L 202.606566 -152.249889 
L 215.808946 -159.837117 
L 229.011326 -167.424345 
L 242.213706 -175.011574 
L 255.416086 -182.598802 
L 268.618467 -190.044238 
L 281.820847 -194.772859 
L 295.023227 -201.315982 
L 308.225607 -207.859106 
L 321.427987 -207.859106 
L 334.630367 -214.40223 
L 347.832747 -221.816799 
L 361.035128 -228.359922 
L 374.237508 -234.903046 
L 387.439888 -240.574724 
L 400.642268 -240.574724 
L 413.844648 -247.117848 
L 427.047028 -247.117848 
L 440.249408 -247.117848 
L 453.451789 -253.660971 
L 466.654169 -253.660971 
L 479.856549 -260.204095 
L 479.856549 -355.786706 
L 479.856549 -355.786706 
L 466.654169 -348.199478 
L 453.451789 -340.61225 
L 440.249408 -333.025022 
L 427.047028 -325.437793 
L 413.844648 -318.510679 
L 400.642268 -311.967555 
L 387.439888 -306.821658 
L 374.237508 -306.821658 
L 361.035128 -292.350281 
L 347.832747 -292.350281 
L 334.630367 -284.763053 
L 321.427987 -277.175825 
L 308.225607 -269.588596 
L 295.023227 -262.001368 
L 281.820847 -254.41414 
L 268.618467 -246.826912 
L 255.416086 -244.682207 
L 242.213706 -237.094979 
L 229.011326 -235.739436 
L 215.808946 -229.507751 
L 202.606566 -210.239152 
L 189.404186 -202.651924 
L 176.201806 -196.420239 
L 162.999425 -188.833011 
L 149.797045 -181.245782 
L 136.594665 -173.658554 
L 123.392285 -166.071326 
L 110.189905 -148.15827 
L 96.987525 -88.813464 
z
" style="stroke: #6e8ee6; stroke-opacity: 0.1"/>
    </defs>
    <g clip-path="url(#pd85a6b6c45)">
     <use xlink:href="#mb2e982e2cd" x="0" y="432" style="fill: #6e8ee6; fill-opacity: 0.1; stroke: #6e8ee6; stroke-opacity: 0.1"/>
    </g>
   </g>
   <g id="PolyCollection_4">
    <defs>
     <path id="m160fd294e4" d="M 96.987525 -88.813464 
L 96.987525 -78.506972 
L 110.189905 -86.113536 
L 123.392285 -93.720099 
L 136.594665 -99.958229 
L 149.797045 -117.871284 
L 162.999425 -125.477848 
L 176.201806 -134.452845 
L 189.404186 -144.759337 
L 202.606566 -152.3659 
L 215.808946 -159.972464 
L 229.011326 -167.579027 
L 242.213706 -175.185591 
L 255.416086 -182.792155 
L 268.618467 -190.398718 
L 281.820847 -196.636848 
L 295.023227 -201.507977 
L 308.225607 -201.507977 
L 321.427987 -201.507977 
L 334.630367 -201.507977 
L 347.832747 -201.507977 
L 361.035128 -201.507977 
L 374.237508 -201.507977 
L 387.439888 -201.507977 
L 400.642268 -201.507977 
L 413.844648 -201.507977 
L 427.047028 -201.507977 
L 440.249408 -201.507977 
L 453.451789 -201.507977 
L 466.654169 -201.507977 
L 479.856549 -201.507977 
L 479.856549 -330.698909 
L 479.856549 -330.698909 
L 466.654169 -323.092345 
L 453.451789 -315.485782 
L 440.249408 -307.879218 
L 427.047028 -300.272654 
L 413.844648 -300.272654 
L 400.642268 -292.666091 
L 387.439888 -292.666091 
L 374.237508 -292.666091 
L 361.035128 -292.666091 
L 347.832747 -292.666091 
L 334.630367 -285.059527 
L 321.427987 -277.452964 
L 308.225607 -269.8464 
L 295.023227 -262.239836 
L 281.820847 -254.633273 
L 268.618467 -247.026709 
L 255.416086 -244.856225 
L 242.213706 -237.249661 
L 229.011326 -235.881228 
L 215.808946 -229.643098 
L 202.606566 -210.361609 
L 189.404186 -202.755045 
L 176.201806 -196.516915 
L 162.999425 -188.910352 
L 149.797045 -181.303788 
L 136.594665 -173.697224 
L 123.392285 -166.090661 
L 110.189905 -148.177606 
L 96.987525 -88.813464 
z
" style="stroke: #21cd7d; stroke-opacity: 0.1"/>
    </defs>
    <g clip-path="url(#pd85a6b6c45)">
     <use xlink:href="#m160fd294e4" x="0" y="432" style="fill: #21cd7d; fill-opacity: 0.1; stroke: #21cd7d; stroke-opacity: 0.1"/>
    </g>
   </g>
   <g id="PolyCollection_5">
    <defs>
     <path id="me5052be5cc" d="M 96.987525 -88.813464 
L 96.987525 -78.506972 
L 110.189905 -86.113536 
L 123.392285 -93.720099 
L 136.594665 -99.958229 
L 149.797045 -117.871284 
L 162.999425 -125.477848 
L 176.201806 -134.452845 
L 189.404186 -143.390903 
L 202.606566 -150.997467 
L 215.808946 -158.60403 
L 229.011326 -158.60403 
L 242.213706 -158.60403 
L 255.416086 -158.60403 
L 268.618467 -158.60403 
L 281.820847 -158.60403 
L 295.023227 -158.60403 
L 308.225607 -158.60403 
L 321.427987 -158.60403 
L 334.630367 -158.60403 
L 347.832747 -195.752408 
L 361.035128 -195.752408 
L 374.237508 -203.351468 
L 387.439888 -203.351468 
L 400.642268 -204.688526 
L 413.844648 -210.361609 
L 427.047028 -210.361609 
L 440.249408 -210.361609 
L 453.451789 -210.361609 
L 466.654169 -210.361609 
L 479.856549 -210.361609 
L 479.856549 -273.91403 
L 479.856549 -273.91403 
L 466.654169 -273.91403 
L 453.451789 -273.91403 
L 440.249408 -273.91403 
L 427.047028 -273.91403 
L 413.844648 -273.91403 
L 400.642268 -273.91403 
L 387.439888 -273.91403 
L 374.237508 -267.675916 
L 361.035128 -267.675916 
L 347.832747 -267.675916 
L 334.630367 -260.069352 
L 321.427987 -252.462788 
L 308.225607 -251.094339 
L 295.023227 -244.856225 
L 281.820847 -244.856225 
L 268.618467 -244.856225 
L 255.416086 -244.856225 
L 242.213706 -237.249661 
L 229.011326 -229.643098 
L 215.808946 -229.643098 
L 202.606566 -210.361609 
L 189.404186 -202.755045 
L 176.201806 -196.516915 
L 162.999425 -188.910352 
L 149.797045 -181.303788 
L 136.594665 -173.697224 
L 123.392285 -166.090661 
L 110.189905 -148.177606 
L 96.987525 -88.813464 
z
" style="stroke: #00ff00; stroke-opacity: 0.1"/>
    </defs>
    <g clip-path="url(#pd85a6b6c45)">
     <use xlink:href="#me5052be5cc" x="0" y="432" style="fill: #00ff00; fill-opacity: 0.1; stroke: #00ff00; stroke-opacity: 0.1"/>
    </g>
   </g>
   <g id="PolyCollection_6">
    <defs>
     <path id="m79fb0862f5" d="M 96.987525 -78.506972 
L 96.987525 -78.458909 
L 110.189905 -84.697755 
L 123.392285 -92.306467 
L 136.594665 -99.915179 
L 149.797045 -107.271183 
L 162.999425 -114.833264 
L 176.201806 -122.441976 
L 189.404186 -128.93353 
L 202.606566 -136.542242 
L 215.808946 -144.150954 
L 229.011326 -151.759666 
L 242.213706 -159.368378 
L 255.416086 -166.97709 
L 268.618467 -174.333094 
L 281.820847 -180.824648 
L 295.023227 -188.43336 
L 308.225607 -196.042072 
L 321.427987 -203.604153 
L 334.630367 -211.212865 
L 347.832747 -218.522239 
L 361.035128 -225.831612 
L 374.237508 -233.440324 
L 387.439888 -241.049036 
L 400.642268 -247.334513 
L 413.844648 -254.943225 
L 427.047028 -257.920855 
L 440.249408 -265.529567 
L 453.451789 -273.138279 
L 466.654169 -281.062084 
L 479.856549 -288.828343 
L 479.856549 -297.003121 
L 479.856549 -297.003121 
L 466.654169 -289.394409 
L 453.451789 -281.898513 
L 440.249408 -274.289801 
L 427.047028 -266.72772 
L 413.844648 -259.119008 
L 400.642268 -251.510296 
L 387.439888 -243.901584 
L 374.237508 -236.732102 
L 361.035128 -229.12339 
L 347.832747 -222.445314 
L 334.630367 -214.836602 
L 321.427987 -207.22789 
L 308.225607 -199.619178 
L 295.023227 -192.057096 
L 281.820847 -184.495015 
L 268.618467 -177.278903 
L 255.416086 -169.670191 
L 242.213706 -162.061479 
L 229.011326 -154.452767 
L 215.808946 -146.844055 
L 202.606566 -139.281974 
L 189.404186 -131.673262 
L 176.201806 -124.111181 
L 162.999425 -116.502469 
L 149.797045 -108.893757 
L 136.594665 -101.285045 
L 123.392285 -93.724396 
L 110.189905 -86.115684 
L 96.987525 -78.506972 
z
" style="stroke: #eeee00; stroke-opacity: 0.1"/>
    </defs>
    <g clip-path="url(#pd85a6b6c45)">
     <use xlink:href="#m79fb0862f5" x="0" y="432" style="fill: #eeee00; fill-opacity: 0.1; stroke: #eeee00; stroke-opacity: 0.1"/>
    </g>
   </g>
   <g id="PolyCollection_7">
    <defs>
     <path id="m75d96c574c" d="M 96.987525 -142.146509 
L 96.987525 -142.146509 
L 110.189905 -211.817143 
L 123.392285 -211.817143 
L 136.594665 -211.817143 
L 149.797045 -211.817143 
L 162.999425 -211.817143 
L 176.201806 -211.817143 
L 189.404186 -211.817143 
L 202.606566 -211.817143 
L 215.808946 -211.817143 
L 229.011326 -211.817143 
L 242.213706 -211.817143 
L 255.416086 -211.817143 
L 268.618467 -211.817143 
L 281.820847 -211.817143 
L 295.023227 -211.817143 
L 308.225607 -211.817143 
L 321.427987 -211.817143 
L 334.630367 -211.817143 
L 347.832747 -211.817143 
L 361.035128 -211.817143 
L 374.237508 -211.817143 
L 387.439888 -211.817143 
L 400.642268 -211.817143 
L 413.844648 -211.817143 
L 427.047028 -211.817143 
L 440.249408 -211.817143 
L 453.451789 -211.817143 
L 466.654169 -211.817143 
L 479.856549 -211.817143 
L 479.856549 -285.864072 
L 479.856549 -285.864072 
L 466.654169 -285.864072 
L 453.451789 -285.864072 
L 440.249408 -285.864072 
L 427.047028 -285.864072 
L 413.844648 -285.864072 
L 400.642268 -285.864072 
L 387.439888 -285.864072 
L 374.237508 -285.864072 
L 361.035128 -285.864072 
L 347.832747 -285.864072 
L 334.630367 -285.864072 
L 321.427987 -285.864072 
L 308.225607 -285.864072 
L 295.023227 -285.864072 
L 281.820847 -285.864072 
L 268.618467 -285.864072 
L 255.416086 -285.864072 
L 242.213706 -285.864072 
L 229.011326 -285.864072 
L 215.808946 -285.864072 
L 202.606566 -285.864072 
L 189.404186 -285.864072 
L 176.201806 -285.864072 
L 162.999425 -285.864072 
L 149.797045 -285.864072 
L 136.594665 -285.864072 
L 123.392285 -285.864072 
L 110.189905 -285.864072 
L 96.987525 -142.146509 
z
" style="stroke: #00eeee; stroke-opacity: 0.1"/>
    </defs>
    <g clip-path="url(#pd85a6b6c45)">
     <use xlink:href="#m75d96c574c" x="0" y="432" style="fill: #00eeee; fill-opacity: 0.1; stroke: #00eeee; stroke-opacity: 0.1"/>
    </g>
   </g>
   <g id="matplotlib.axis_1">
    <g id="xtick_1">
     <g id="line2d_1">
      <path d="M 96.987525 369.2 
L 96.987525 24.704 
" clip-path="url(#pd85a6b6c45)" style="fill: none; stroke: #b0b0b0; stroke-width: 0.8; stroke-linecap: square"/>
     </g>
     <g id="line2d_2">
      <defs>
       <path id="m08dbabc3a1" d="M 0 0 
L 0 3.5 
" style="stroke: #000000; stroke-width: 0.8"/>
      </defs>
      <g>
       <use xlink:href="#m08dbabc3a1" x="96.987525" y="369.2" style="stroke: #000000; stroke-width: 0.8"/>
      </g>
     </g>
     <g id="text_1">
      <!-- 0 -->
      <g transform="translate(89.0344 395.196094) scale(0.25 -0.25)">
       <defs>
        <path id="DejaVuSerif-30" d="M 2034 219 
Q 2513 219 2750 744 
Q 2988 1269 2988 2328 
Q 2988 3391 2750 3916 
Q 2513 4441 2034 4441 
Q 1556 4441 1318 3916 
Q 1081 3391 1081 2328 
Q 1081 1269 1318 744 
Q 1556 219 2034 219 
z
M 2034 -91 
Q 1275 -91 848 546 
Q 422 1184 422 2328 
Q 422 3475 848 4112 
Q 1275 4750 2034 4750 
Q 2797 4750 3222 4112 
Q 3647 3475 3647 2328 
Q 3647 1184 3222 546 
Q 2797 -91 2034 -91 
z
" transform="scale(0.015625)"/>
       </defs>
       <use xlink:href="#DejaVuSerif-30"/>
      </g>
     </g>
    </g>
    <g id="xtick_2">
     <g id="line2d_3">
      <path d="M 229.011326 369.2 
L 229.011326 24.704 
" clip-path="url(#pd85a6b6c45)" style="fill: none; stroke: #b0b0b0; stroke-width: 0.8; stroke-linecap: square"/>
     </g>
     <g id="line2d_4">
      <g>
       <use xlink:href="#m08dbabc3a1" x="229.011326" y="369.2" style="stroke: #000000; stroke-width: 0.8"/>
      </g>
     </g>
     <g id="text_2">
      <!-- 10 -->
      <g transform="translate(213.105076 395.196094) scale(0.25 -0.25)">
       <defs>
        <path id="DejaVuSerif-31" d="M 909 0 
L 909 331 
L 1722 331 
L 1722 4213 
L 781 3603 
L 781 4013 
L 1919 4750 
L 2350 4750 
L 2350 331 
L 3163 331 
L 3163 0 
L 909 0 
z
" transform="scale(0.015625)"/>
       </defs>
       <use xlink:href="#DejaVuSerif-31"/>
       <use xlink:href="#DejaVuSerif-30" x="63.623047"/>
      </g>
     </g>
    </g>
    <g id="xtick_3">
     <g id="line2d_5">
      <path d="M 361.035128 369.2 
L 361.035128 24.704 
" clip-path="url(#pd85a6b6c45)" style="fill: none; stroke: #b0b0b0; stroke-width: 0.8; stroke-linecap: square"/>
     </g>
     <g id="line2d_6">
      <g>
       <use xlink:href="#m08dbabc3a1" x="361.035128" y="369.2" style="stroke: #000000; stroke-width: 0.8"/>
      </g>
     </g>
     <g id="text_3">
      <!-- 20 -->
      <g transform="translate(345.128878 395.196094) scale(0.25 -0.25)">
       <defs>
        <path id="DejaVuSerif-32" d="M 819 3553 
L 469 3553 
L 469 4384 
Q 803 4563 1142 4656 
Q 1481 4750 1806 4750 
Q 2534 4750 2956 4397 
Q 3378 4044 3378 3438 
Q 3378 2753 2422 1800 
Q 2347 1728 2309 1691 
L 1131 513 
L 3078 513 
L 3078 1088 
L 3444 1088 
L 3444 0 
L 434 0 
L 434 341 
L 1850 1753 
Q 2319 2222 2519 2614 
Q 2719 3006 2719 3438 
Q 2719 3909 2473 4175 
Q 2228 4441 1797 4441 
Q 1350 4441 1106 4219 
Q 863 3997 819 3553 
z
" transform="scale(0.015625)"/>
       </defs>
       <use xlink:href="#DejaVuSerif-32"/>
       <use xlink:href="#DejaVuSerif-30" x="63.623047"/>
      </g>
     </g>
    </g>
    <g id="text_4">
     <!-- $\it{t}$ -->
     <g transform="translate(283.822037 421.871719) scale(0.23 -0.23)">
      <defs>
       <path id="DejaVuSans-Oblique-74" d="M 2706 3500 
L 2619 3053 
L 1472 3053 
L 1100 1153 
Q 1081 1047 1072 975 
Q 1063 903 1063 863 
Q 1063 663 1183 572 
Q 1303 481 1569 481 
L 2150 481 
L 2053 0 
L 1503 0 
Q 991 0 739 200 
Q 488 400 488 806 
Q 488 878 497 964 
Q 506 1050 525 1153 
L 897 3053 
L 409 3053 
L 500 3500 
L 978 3500 
L 1172 4494 
L 1747 4494 
L 1556 3500 
L 2706 3500 
z
" transform="scale(0.015625)"/>
      </defs>
      <use xlink:href="#DejaVuSans-Oblique-74" transform="translate(0 0.78125)"/>
     </g>
    </g>
   </g>
   <g id="matplotlib.axis_2">
    <g id="ytick_1">
     <g id="line2d_7">
      <path d="M 77.844073 359.524125 
L 499 359.524125 
" clip-path="url(#pd85a6b6c45)" style="fill: none; stroke: #b0b0b0; stroke-width: 0.8; stroke-linecap: square"/>
     </g>
     <g id="line2d_8">
      <defs>
       <path id="me3909b7ca9" d="M 0 0 
L -3.5 0 
" style="stroke: #000000; stroke-width: 0.8"/>
      </defs>
      <g>
       <use xlink:href="#me3909b7ca9" x="77.844073" y="359.524125" style="stroke: #000000; stroke-width: 0.8"/>
      </g>
     </g>
     <g id="text_5">
      <!-- $\mathdefault{0.0}$ -->
      <g transform="translate(30.844073 369.022172) scale(0.25 -0.25)">
       <defs>
        <path id="DejaVuSerif-2e" d="M 603 325 
Q 603 500 722 622 
Q 841 744 1019 744 
Q 1191 744 1312 622 
Q 1434 500 1434 325 
Q 1434 153 1312 31 
Q 1191 -91 1019 -91 
Q 841 -91 722 29 
Q 603 150 603 325 
z
" transform="scale(0.015625)"/>
       </defs>
       <use xlink:href="#DejaVuSerif-30" transform="translate(0 0.78125)"/>
       <use xlink:href="#DejaVuSerif-2e" transform="translate(63.623047 0.78125)"/>
       <use xlink:href="#DejaVuSerif-30" transform="translate(95.410156 0.78125)"/>
      </g>
     </g>
    </g>
    <g id="ytick_2">
     <g id="line2d_9">
      <path d="M 77.844073 280.750795 
L 499 280.750795 
" clip-path="url(#pd85a6b6c45)" style="fill: none; stroke: #b0b0b0; stroke-width: 0.8; stroke-linecap: square"/>
     </g>
     <g id="line2d_10">
      <g>
       <use xlink:href="#me3909b7ca9" x="77.844073" y="280.750795" style="stroke: #000000; stroke-width: 0.8"/>
      </g>
     </g>
     <g id="text_6">
      <!-- $\mathdefault{0.5}$ -->
      <g transform="translate(30.844073 290.248842) scale(0.25 -0.25)">
       <defs>
        <path id="DejaVuSerif-35" d="M 3219 4666 
L 3219 4153 
L 1081 4153 
L 1081 2816 
Q 1244 2928 1461 2984 
Q 1678 3041 1947 3041 
Q 2703 3041 3140 2622 
Q 3578 2203 3578 1478 
Q 3578 738 3136 323 
Q 2694 -91 1894 -91 
Q 1572 -91 1234 -12 
Q 897 66 544 225 
L 544 1131 
L 897 1131 
Q 925 688 1179 453 
Q 1434 219 1894 219 
Q 2388 219 2653 544 
Q 2919 869 2919 1478 
Q 2919 2084 2655 2407 
Q 2391 2731 1894 2731 
Q 1613 2731 1398 2631 
Q 1184 2531 1019 2322 
L 750 2322 
L 750 4666 
L 3219 4666 
z
" transform="scale(0.015625)"/>
       </defs>
       <use xlink:href="#DejaVuSerif-30" transform="translate(0 0.78125)"/>
       <use xlink:href="#DejaVuSerif-2e" transform="translate(63.623047 0.78125)"/>
       <use xlink:href="#DejaVuSerif-35" transform="translate(95.410156 0.78125)"/>
      </g>
     </g>
    </g>
    <g id="ytick_3">
     <g id="line2d_11">
      <path d="M 77.844073 201.977466 
L 499 201.977466 
" clip-path="url(#pd85a6b6c45)" style="fill: none; stroke: #b0b0b0; stroke-width: 0.8; stroke-linecap: square"/>
     </g>
     <g id="line2d_12">
      <g>
       <use xlink:href="#me3909b7ca9" x="77.844073" y="201.977466" style="stroke: #000000; stroke-width: 0.8"/>
      </g>
     </g>
     <g id="text_7">
      <!-- $\mathdefault{1.0}$ -->
      <g transform="translate(30.844073 211.475513) scale(0.25 -0.25)">
       <use xlink:href="#DejaVuSerif-31" transform="translate(0 0.78125)"/>
       <use xlink:href="#DejaVuSerif-2e" transform="translate(63.623047 0.78125)"/>
       <use xlink:href="#DejaVuSerif-30" transform="translate(95.410156 0.78125)"/>
      </g>
     </g>
    </g>
    <g id="ytick_4">
     <g id="line2d_13">
      <path d="M 77.844073 123.204136 
L 499 123.204136 
" clip-path="url(#pd85a6b6c45)" style="fill: none; stroke: #b0b0b0; stroke-width: 0.8; stroke-linecap: square"/>
     </g>
     <g id="line2d_14">
      <g>
       <use xlink:href="#me3909b7ca9" x="77.844073" y="123.204136" style="stroke: #000000; stroke-width: 0.8"/>
      </g>
     </g>
     <g id="text_8">
      <!-- $\mathdefault{1.5}$ -->
      <g transform="translate(30.844073 132.702183) scale(0.25 -0.25)">
       <use xlink:href="#DejaVuSerif-31" transform="translate(0 0.78125)"/>
       <use xlink:href="#DejaVuSerif-2e" transform="translate(63.623047 0.78125)"/>
       <use xlink:href="#DejaVuSerif-35" transform="translate(95.410156 0.78125)"/>
      </g>
     </g>
    </g>
    <g id="ytick_5">
     <g id="line2d_15">
      <path d="M 77.844073 44.430806 
L 499 44.430806 
" clip-path="url(#pd85a6b6c45)" style="fill: none; stroke: #b0b0b0; stroke-width: 0.8; stroke-linecap: square"/>
     </g>
     <g id="line2d_16">
      <g>
       <use xlink:href="#me3909b7ca9" x="77.844073" y="44.430806" style="stroke: #000000; stroke-width: 0.8"/>
      </g>
     </g>
     <g id="text_9">
      <!-- $\mathdefault{2.0}$ -->
      <g transform="translate(30.844073 53.928853) scale(0.25 -0.25)">
       <use xlink:href="#DejaVuSerif-32" transform="translate(0 0.78125)"/>
       <use xlink:href="#DejaVuSerif-2e" transform="translate(63.623047 0.78125)"/>
       <use xlink:href="#DejaVuSerif-30" transform="translate(95.410156 0.78125)"/>
      </g>
     </g>
    </g>
    <g id="text_10">
     <!-- Profit -->
     <g transform="translate(22.060792 229.665906) rotate(-90) scale(0.23 -0.23)">
      <defs>
       <path id="DejaVuSerif-50" d="M 1581 2375 
L 2406 2375 
Q 2872 2375 3115 2626 
Q 3359 2878 3359 3353 
Q 3359 3831 3115 4081 
Q 2872 4331 2406 4331 
L 1581 4331 
L 1581 2375 
z
M 353 0 
L 353 331 
L 947 331 
L 947 4331 
L 353 4331 
L 353 4666 
L 2559 4666 
Q 3259 4666 3668 4311 
Q 4078 3956 4078 3353 
Q 4078 2753 3668 2397 
Q 3259 2041 2559 2041 
L 1581 2041 
L 1581 331 
L 2303 331 
L 2303 0 
L 353 0 
z
" transform="scale(0.015625)"/>
       <path id="DejaVuSerif-72" d="M 3059 3328 
L 3059 2497 
L 2728 2497 
Q 2713 2744 2591 2866 
Q 2469 2988 2234 2988 
Q 1809 2988 1582 2694 
Q 1356 2400 1356 1850 
L 1356 331 
L 2022 331 
L 2022 0 
L 263 0 
L 263 331 
L 781 331 
L 781 2994 
L 231 2994 
L 231 3322 
L 1356 3322 
L 1356 2731 
Q 1525 3078 1790 3245 
Q 2056 3413 2438 3413 
Q 2578 3413 2733 3391 
Q 2888 3369 3059 3328 
z
" transform="scale(0.015625)"/>
       <path id="DejaVuSerif-6f" d="M 1925 219 
Q 2388 219 2623 584 
Q 2859 950 2859 1663 
Q 2859 2375 2623 2739 
Q 2388 3103 1925 3103 
Q 1463 3103 1227 2739 
Q 991 2375 991 1663 
Q 991 950 1228 584 
Q 1466 219 1925 219 
z
M 1925 -91 
Q 1200 -91 759 389 
Q 319 869 319 1663 
Q 319 2456 758 2934 
Q 1197 3413 1925 3413 
Q 2653 3413 3092 2934 
Q 3531 2456 3531 1663 
Q 3531 869 3092 389 
Q 2653 -91 1925 -91 
z
" transform="scale(0.015625)"/>
       <path id="DejaVuSerif-66" d="M 2753 4078 
L 2450 4078 
Q 2447 4313 2317 4434 
Q 2188 4556 1941 4556 
Q 1619 4556 1487 4379 
Q 1356 4203 1356 3750 
L 1356 3322 
L 2284 3322 
L 2284 2988 
L 1356 2988 
L 1356 331 
L 2094 331 
L 2094 0 
L 231 0 
L 231 331 
L 781 331 
L 781 2988 
L 231 2988 
L 231 3322 
L 781 3322 
L 781 3738 
Q 781 4294 1070 4578 
Q 1359 4863 1919 4863 
Q 2128 4863 2337 4825 
Q 2547 4788 2753 4709 
L 2753 4078 
z
" transform="scale(0.015625)"/>
       <path id="DejaVuSerif-69" d="M 622 4353 
Q 622 4497 726 4603 
Q 831 4709 978 4709 
Q 1122 4709 1226 4603 
Q 1331 4497 1331 4353 
Q 1331 4206 1228 4103 
Q 1125 4000 978 4000 
Q 831 4000 726 4103 
Q 622 4206 622 4353 
z
M 1356 331 
L 1900 331 
L 1900 0 
L 231 0 
L 231 331 
L 781 331 
L 781 2988 
L 231 2988 
L 231 3322 
L 1356 3322 
L 1356 331 
z
" transform="scale(0.015625)"/>
       <path id="DejaVuSerif-74" d="M 691 2988 
L 184 2988 
L 184 3322 
L 691 3322 
L 691 4353 
L 1269 4353 
L 1269 3322 
L 2350 3322 
L 2350 2988 
L 1269 2988 
L 1269 878 
Q 1269 456 1350 337 
Q 1431 219 1650 219 
Q 1875 219 1978 351 
Q 2081 484 2088 781 
L 2522 781 
Q 2497 328 2275 118 
Q 2053 -91 1600 -91 
Q 1103 -91 897 129 
Q 691 350 691 878 
L 691 2988 
z
" transform="scale(0.015625)"/>
      </defs>
      <use xlink:href="#DejaVuSerif-50"/>
      <use xlink:href="#DejaVuSerif-72" x="67.285156"/>
      <use xlink:href="#DejaVuSerif-6f" x="115.087891"/>
      <use xlink:href="#DejaVuSerif-66" x="175.292969"/>
      <use xlink:href="#DejaVuSerif-69" x="212.304688"/>
      <use xlink:href="#DejaVuSerif-74" x="244.287109"/>
     </g>
    </g>
    <g id="text_11">
     <!-- $\times\mathdefault{10^{4}}\mathdefault{}$ -->
     <g transform="translate(77.844073 21.704) scale(0.2 -0.2)">
      <defs>
       <path id="DejaVuSans-d7" d="M 4488 3438 
L 3059 2003 
L 4488 575 
L 4116 197 
L 2681 1631 
L 1247 197 
L 878 575 
L 2303 2003 
L 878 3438 
L 1247 3816 
L 2681 2381 
L 4116 3816 
L 4488 3438 
z
" transform="scale(0.015625)"/>
       <path id="DejaVuSerif-34" d="M 2234 1581 
L 2234 4063 
L 641 1581 
L 2234 1581 
z
M 3609 0 
L 1484 0 
L 1484 331 
L 2234 331 
L 2234 1247 
L 197 1247 
L 197 1588 
L 2241 4750 
L 2859 4750 
L 2859 1581 
L 3750 1581 
L 3750 1247 
L 2859 1247 
L 2859 331 
L 3609 331 
L 3609 0 
z
" transform="scale(0.015625)"/>
      </defs>
      <use xlink:href="#DejaVuSans-d7" transform="translate(0 0.7125)"/>
      <use xlink:href="#DejaVuSerif-31" transform="translate(83.789062 0.7125)"/>
      <use xlink:href="#DejaVuSerif-30" transform="translate(147.412109 0.7125)"/>
      <use xlink:href="#DejaVuSerif-34" transform="translate(211.943516 37.046875) scale(0.7)"/>
     </g>
    </g>
   </g>
   <g id="line2d_17">
    <path d="M 96.987525 351.43173 
L 110.189905 329.62474 
L 123.392285 315.834282 
L 136.594665 308.501405 
L 149.797045 286.421735 
L 162.999425 277.067961 
L 176.201806 267.400099 
L 189.404186 257.967466 
L 202.606566 250.672903 
L 215.808946 228.592227 
L 229.011326 219.239459 
L 242.213706 212.845962 
L 255.416086 203.801439 
L 268.618467 194.407121 
L 281.820847 188.8691 
L 295.023227 182.783849 
L 308.225607 176.859726 
L 321.427987 168.867143 
L 334.630367 161.260579 
L 347.832747 155.176617 
L 361.035128 150.885077 
L 374.237508 141.97258 
L 387.439888 136.162161 
L 400.642268 128.036236 
L 413.844648 120.003581 
L 427.047028 115.714475 
L 440.249408 111.150537 
L 453.451789 103.551707 
L 466.654169 96.492231 
L 479.856549 88.89469 
" clip-path="url(#pd85a6b6c45)" style="fill: none; stroke: #646464; stroke-width: 5; stroke-linecap: square"/>
    <defs>
     <path id="mccc4656fb0" d="M 0 8.5 
C 2.254226 8.5 4.416429 7.604386 6.010408 6.010408 
C 7.604386 4.416429 8.5 2.254226 8.5 0 
C 8.5 -2.254226 7.604386 -4.416429 6.010408 -6.010408 
C 4.416429 -7.604386 2.254226 -8.5 0 -8.5 
C -2.254226 -8.5 -4.416429 -7.604386 -6.010408 -6.010408 
C -7.604386 -4.416429 -8.5 -2.254226 -8.5 0 
C -8.5 2.254226 -7.604386 4.416429 -6.010408 6.010408 
C -4.416429 7.604386 -2.254226 8.5 0 8.5 
z
" style="stroke: #646464; stroke-width: 4"/>
    </defs>
    <g clip-path="url(#pd85a6b6c45)">
     <use xlink:href="#mccc4656fb0" x="96.987525" y="351.43173" style="fill-opacity: 0; stroke: #646464; stroke-width: 4"/>
     <use xlink:href="#mccc4656fb0" x="229.011326" y="219.239459" style="fill-opacity: 0; stroke: #646464; stroke-width: 4"/>
     <use xlink:href="#mccc4656fb0" x="361.035128" y="150.885077" style="fill-opacity: 0; stroke: #646464; stroke-width: 4"/>
    </g>
   </g>
   <g id="line2d_18">
    <path d="M 96.987525 351.43173 
L 110.189905 329.62474 
L 123.392285 315.834282 
L 136.594665 308.501405 
L 149.797045 286.735822 
L 162.999425 277.067961 
L 176.201806 267.400099 
L 189.404186 258.279467 
L 202.606566 250.672903 
L 215.808946 228.592227 
L 229.011326 219.239459 
L 242.213706 213.154208 
L 255.416086 203.801439 
L 268.618467 194.407121 
L 281.820847 188.8691 
L 295.023227 182.783849 
L 308.225607 176.859726 
L 321.427987 165.285821 
L 334.630367 157.685702 
L 347.832747 151.603029 
L 361.035128 147.315356 
L 374.237508 137.970322 
L 387.439888 132.159903 
L 400.642268 124.315557 
L 413.844648 116.715439 
L 427.047028 108.868213 
L 440.249408 100.752601 
L 453.451789 93.153771 
L 466.654169 86.099451 
L 479.856549 78.500621 
" clip-path="url(#pd85a6b6c45)" style="fill: none; stroke: #ee0000; stroke-width: 5; stroke-linecap: square"/>
    <defs>
     <path id="mc68a30959a" d="M -0 8.5 
L 8.5 -8.5 
L -8.5 -8.5 
z
" style="stroke: #ee0000; stroke-width: 4; stroke-linejoin: miter"/>
    </defs>
    <g clip-path="url(#pd85a6b6c45)">
     <use xlink:href="#mc68a30959a" x="96.987525" y="351.43173" style="fill-opacity: 0; stroke: #ee0000; stroke-width: 4; stroke-linejoin: miter"/>
     <use xlink:href="#mc68a30959a" x="229.011326" y="219.239459" style="fill-opacity: 0; stroke: #ee0000; stroke-width: 4; stroke-linejoin: miter"/>
     <use xlink:href="#mc68a30959a" x="361.035128" y="147.315356" style="fill-opacity: 0; stroke: #ee0000; stroke-width: 4; stroke-linejoin: miter"/>
    </g>
   </g>
   <g id="line2d_19">
    <path d="M 96.987525 351.447198 
L 110.189905 329.649232 
L 123.392285 315.866507 
L 136.594665 308.550388 
L 149.797045 290.063924 
L 162.999425 280.41153 
L 176.201806 270.759137 
L 189.404186 261.647528 
L 202.606566 254.0603 
L 215.808946 231.991225 
L 229.011326 225.921442 
L 242.213706 219.85166 
L 255.416086 213.781877 
L 268.618467 208.069424 
L 281.820847 203.91452 
L 295.023227 198.262379 
L 308.225607 192.610238 
L 321.427987 188.251254 
L 334.630367 181.290488 
L 347.832747 161.018463 
L 361.035128 157.154877 
L 374.237508 148.60846 
L 387.439888 143.130609 
L 400.642268 138.787093 
L 413.844648 131.826327 
L 427.047028 128.791436 
L 440.249408 124.656741 
L 453.451789 117.695975 
L 466.654169 112.313511 
L 479.856549 105.533208 
" clip-path="url(#pd85a6b6c45)" style="fill: none; stroke: #6e8ee6; stroke-width: 5; stroke-linecap: square"/>
    <defs>
     <path id="m2f302ca775" d="M 0 -8.5 
L -7.361216 -4.25 
L -7.361216 4.25 
L -0 8.5 
L 7.361216 4.25 
L 7.361216 -4.25 
z
" style="stroke: #6e8ee6; stroke-width: 4; stroke-linejoin: miter"/>
    </defs>
    <g clip-path="url(#pd85a6b6c45)">
     <use xlink:href="#m2f302ca775" x="96.987525" y="351.447198" style="fill-opacity: 0; stroke: #6e8ee6; stroke-width: 4; stroke-linejoin: miter"/>
     <use xlink:href="#m2f302ca775" x="229.011326" y="225.921442" style="fill-opacity: 0; stroke: #6e8ee6; stroke-width: 4; stroke-linejoin: miter"/>
     <use xlink:href="#m2f302ca775" x="361.035128" y="157.154877" style="fill-opacity: 0; stroke: #6e8ee6; stroke-width: 4; stroke-linejoin: miter"/>
    </g>
   </g>
   <g id="line2d_20">
    <path d="M 96.987525 351.43173 
L 110.189905 329.62474 
L 123.392285 315.834282 
L 136.594665 308.501405 
L 149.797045 290.00334 
L 162.999425 280.335478 
L 176.201806 270.667616 
L 189.404186 261.546985 
L 202.606566 253.940421 
L 215.808946 231.859745 
L 229.011326 225.774494 
L 242.213706 219.689243 
L 255.416086 213.603993 
L 268.618467 207.792285 
L 281.820847 202.254265 
L 295.023227 197.690326 
L 308.225607 194.647701 
L 321.427987 190.083763 
L 334.630367 187.041137 
L 347.832747 183.998512 
L 361.035128 182.750886 
L 374.237508 182.750886 
L 387.439888 182.750886 
L 400.642268 182.750886 
L 413.844648 181.229573 
L 427.047028 181.229573 
L 440.249408 179.70826 
L 453.451789 178.186948 
L 466.654169 176.665635 
L 479.856549 175.144322 
" clip-path="url(#pd85a6b6c45)" style="fill: none; stroke: #21cd7d; stroke-width: 5; stroke-linecap: square"/>
    <defs>
     <path id="ma9494a55b8" d="M 0 -8.5 
L -8.5 8.5 
L 8.5 8.5 
z
" style="stroke: #21cd7d; stroke-width: 4; stroke-linejoin: miter"/>
    </defs>
    <g clip-path="url(#pd85a6b6c45)">
     <use xlink:href="#ma9494a55b8" x="96.987525" y="351.43173" style="fill-opacity: 0; stroke: #21cd7d; stroke-width: 4; stroke-linejoin: miter"/>
     <use xlink:href="#ma9494a55b8" x="229.011326" y="225.774494" style="fill-opacity: 0; stroke: #21cd7d; stroke-width: 4; stroke-linejoin: miter"/>
     <use xlink:href="#ma9494a55b8" x="361.035128" y="182.750886" style="fill-opacity: 0; stroke: #21cd7d; stroke-width: 4; stroke-linejoin: miter"/>
    </g>
   </g>
   <g id="line2d_21">
    <path d="M 96.987525 351.43173 
L 110.189905 329.62474 
L 123.392285 315.834282 
L 136.594665 308.501405 
L 149.797045 286.421735 
L 162.999425 276.754494 
L 176.201806 267.087329 
L 189.404186 259.215236 
L 202.606566 253.129985 
L 215.808946 234.091937 
L 229.011326 234.091937 
L 242.213706 231.050151 
L 255.416086 229.528838 
L 268.618467 228.007526 
L 281.820847 228.007526 
L 295.023227 226.486213 
L 308.225607 224.9649 
L 321.427987 219.86482 
L 334.630367 216.822195 
L 347.832747 206.085437 
L 361.035128 206.085437 
L 374.237508 201.523003 
L 387.439888 200.00169 
L 400.642268 196.422389 
L 413.844648 194.901079 
L 427.047028 194.901079 
L 440.249408 194.901079 
L 453.451789 194.901079 
L 466.654169 194.901079 
L 479.856549 194.901079 
" clip-path="url(#pd85a6b6c45)" style="fill: none; stroke: #00ff00; stroke-width: 5; stroke-linecap: square"/>
    <defs>
     <path id="m82b2a05662" d="M 0 12.020815 
L 12.020815 0 
L 0 -12.020815 
L -12.020815 0 
z
" style="stroke: #00ff00; stroke-width: 4; stroke-linejoin: miter"/>
    </defs>
    <g clip-path="url(#pd85a6b6c45)">
     <use xlink:href="#m82b2a05662" x="96.987525" y="351.43173" style="fill-opacity: 0; stroke: #00ff00; stroke-width: 4; stroke-linejoin: miter"/>
     <use xlink:href="#m82b2a05662" x="229.011326" y="234.091937" style="fill-opacity: 0; stroke: #00ff00; stroke-width: 4; stroke-linejoin: miter"/>
     <use xlink:href="#m82b2a05662" x="361.035128" y="206.085437" style="fill-opacity: 0; stroke: #00ff00; stroke-width: 4; stroke-linejoin: miter"/>
    </g>
   </g>
   <g id="line2d_22">
    <path d="M 96.987525 353.502641 
L 110.189905 346.237669 
L 123.392285 338.657221 
L 136.594665 331.322483 
L 149.797045 323.783251 
L 162.999425 316.183865 
L 176.201806 308.584479 
L 189.404186 301.53304 
L 202.606566 293.924328 
L 215.808946 286.38481 
L 229.011326 278.785424 
L 242.213706 271.23658 
L 255.416086 263.637194 
L 268.618467 256.311781 
L 281.820847 249.260342 
L 295.023227 241.660956 
L 308.225607 234.06157 
L 321.427987 226.47151 
L 334.630367 218.862799 
L 347.832747 211.313954 
L 361.035128 204.098951 
L 374.237508 196.499565 
L 387.439888 189.4388 
L 400.642268 182.113387 
L 413.844648 174.504675 
L 427.047028 168.105479 
L 440.249408 160.515419 
L 453.451789 152.906707 
L 466.654169 145.782923 
L 479.856549 138.142701 
" clip-path="url(#pd85a6b6c45)" style="fill: none; stroke-dasharray: 18.5,8; stroke-dashoffset: 0; stroke: #eeee00; stroke-width: 5"/>
    <defs>
     <path id="m74f32e38c7" d="M 8.5 0 
L -8.5 -8.5 
L -8.5 8.5 
z
" style="stroke: #eeee00; stroke-width: 4; stroke-linejoin: miter"/>
    </defs>
    <g clip-path="url(#pd85a6b6c45)">
     <use xlink:href="#m74f32e38c7" x="96.987525" y="353.502641" style="fill-opacity: 0; stroke: #eeee00; stroke-width: 4; stroke-linejoin: miter"/>
     <use xlink:href="#m74f32e38c7" x="229.011326" y="278.785424" style="fill-opacity: 0; stroke: #eeee00; stroke-width: 4; stroke-linejoin: miter"/>
     <use xlink:href="#m74f32e38c7" x="361.035128" y="204.098951" style="fill-opacity: 0; stroke: #eeee00; stroke-width: 4; stroke-linejoin: miter"/>
    </g>
   </g>
   <g id="line2d_23">
    <path d="M 96.987525 289.853491 
L 110.189905 205.373472 
L 123.392285 205.373472 
L 136.594665 205.373472 
L 149.797045 205.373472 
L 162.999425 205.373472 
L 176.201806 205.373472 
L 189.404186 205.373472 
L 202.606566 205.373472 
L 215.808946 205.373472 
L 229.011326 205.373472 
L 242.213706 205.373472 
L 255.416086 205.373472 
L 268.618467 205.373472 
L 281.820847 205.373472 
L 295.023227 205.373472 
L 308.225607 205.373472 
L 321.427987 205.373472 
L 334.630367 205.373472 
L 347.832747 205.373472 
L 361.035128 205.373472 
L 374.237508 205.373472 
L 387.439888 205.373472 
L 400.642268 205.373472 
L 413.844648 205.373472 
L 427.047028 205.373472 
L 440.249408 205.373472 
L 453.451789 205.373472 
L 466.654169 205.373472 
L 479.856549 205.373472 
" clip-path="url(#pd85a6b6c45)" style="fill: none; stroke-dasharray: 18.5,8; stroke-dashoffset: 0; stroke: #00eeee; stroke-width: 5"/>
    <defs>
     <path id="me9f9150a00" d="M -8.5 -0 
L 8.5 8.5 
L 8.5 -8.5 
z
" style="stroke: #00eeee; stroke-width: 4; stroke-linejoin: miter"/>
    </defs>
    <g clip-path="url(#pd85a6b6c45)">
     <use xlink:href="#me9f9150a00" x="96.987525" y="289.853491" style="fill-opacity: 0; stroke: #00eeee; stroke-width: 4; stroke-linejoin: miter"/>
     <use xlink:href="#me9f9150a00" x="229.011326" y="205.373472" style="fill-opacity: 0; stroke: #00eeee; stroke-width: 4; stroke-linejoin: miter"/>
     <use xlink:href="#me9f9150a00" x="361.035128" y="205.373472" style="fill-opacity: 0; stroke: #00eeee; stroke-width: 4; stroke-linejoin: miter"/>
    </g>
   </g>
   <g id="patch_3">
    <path d="M 77.844073 369.2 
L 77.844073 24.704 
" style="fill: none; stroke: #000000; stroke-width: 0.8; stroke-linejoin: miter; stroke-linecap: square"/>
   </g>
   <g id="patch_4">
    <path d="M 499 369.2 
L 499 24.704 
" style="fill: none; stroke: #000000; stroke-width: 0.8; stroke-linejoin: miter; stroke-linecap: square"/>
   </g>
   <g id="patch_5">
    <path d="M 77.844073 369.2 
L 499 369.2 
" style="fill: none; stroke: #000000; stroke-width: 0.8; stroke-linejoin: miter; stroke-linecap: square"/>
   </g>
   <g id="patch_6">
    <path d="M 77.844073 24.704 
L 499 24.704 
" style="fill: none; stroke: #000000; stroke-width: 0.8; stroke-linejoin: miter; stroke-linecap: square"/>
   </g>
   <g id="legend_1">
    <g id="patch_7">
     <path d="M 90.444073 224.048375 
L 225.874386 224.048375 
Q 229.474386 224.048375 229.474386 220.448375 
L 229.474386 37.304 
Q 229.474386 33.704 225.874386 33.704 
L 90.444073 33.704 
Q 86.844073 33.704 86.844073 37.304 
L 86.844073 220.448375 
Q 86.844073 224.048375 90.444073 224.048375 
z
" style="fill: #ffffff; opacity: 0.8; stroke: #cccccc; stroke-linejoin: miter"/>
    </g>
    <g id="line2d_24">
     <path d="M 94.044073 48.281188 
L 130.044073 48.281188 
" style="fill: none; stroke: #646464; stroke-width: 5; stroke-linecap: square"/>
    </g>
    <g id="line2d_25">
     <g>
      <use xlink:href="#mccc4656fb0" x="112.044073" y="48.281188" style="fill-opacity: 0; stroke: #646464; stroke-width: 4"/>
     </g>
    </g>
    <g id="text_12">
     <!-- 5Guard -->
     <g transform="translate(144.444073 54.581187) scale(0.18 -0.18)">
      <defs>
       <path id="DejaVuSerif-47" d="M 4097 3272 
Q 3988 3856 3641 4136 
Q 3294 4416 2675 4416 
Q 1869 4416 1472 3897 
Q 1075 3378 1075 2328 
Q 1075 1300 1484 772 
Q 1894 244 2688 244 
Q 3041 244 3362 331 
Q 3684 419 3975 594 
L 3975 1797 
L 3097 1797 
L 3097 2131 
L 4609 2131 
L 4609 391 
Q 4194 150 3714 29 
Q 3234 -91 2688 -91 
Q 1631 -91 995 570 
Q 359 1231 359 2328 
Q 359 3434 996 4092 
Q 1634 4750 2713 4750 
Q 3113 4750 3539 4658 
Q 3966 4566 4447 4378 
L 4447 3272 
L 4097 3272 
z
" transform="scale(0.015625)"/>
       <path id="DejaVuSerif-75" d="M 2266 3322 
L 3341 3322 
L 3341 331 
L 3884 331 
L 3884 0 
L 2766 0 
L 2766 588 
Q 2606 256 2353 82 
Q 2100 -91 1766 -91 
Q 1213 -91 952 223 
Q 691 538 691 1209 
L 691 2988 
L 172 2988 
L 172 3322 
L 1269 3322 
L 1269 1388 
Q 1269 781 1417 556 
Q 1566 331 1947 331 
Q 2347 331 2556 625 
Q 2766 919 2766 1478 
L 2766 2988 
L 2266 2988 
L 2266 3322 
z
" transform="scale(0.015625)"/>
       <path id="DejaVuSerif-61" d="M 2547 1044 
L 2547 1747 
L 1806 1747 
Q 1378 1747 1168 1562 
Q 959 1378 959 997 
Q 959 650 1171 447 
Q 1384 244 1747 244 
Q 2106 244 2326 466 
Q 2547 688 2547 1044 
z
M 3122 2075 
L 3122 331 
L 3634 331 
L 3634 0 
L 2547 0 
L 2547 359 
Q 2356 128 2106 18 
Q 1856 -91 1522 -91 
Q 969 -91 644 203 
Q 319 497 319 997 
Q 319 1513 691 1797 
Q 1063 2081 1741 2081 
L 2547 2081 
L 2547 2309 
Q 2547 2688 2317 2895 
Q 2088 3103 1672 3103 
Q 1328 3103 1125 2947 
Q 922 2791 872 2484 
L 575 2484 
L 575 3156 
Q 875 3284 1158 3348 
Q 1441 3413 1709 3413 
Q 2400 3413 2761 3070 
Q 3122 2728 3122 2075 
z
" transform="scale(0.015625)"/>
       <path id="DejaVuSerif-64" d="M 3359 331 
L 3909 331 
L 3909 0 
L 2784 0 
L 2784 519 
Q 2616 206 2355 57 
Q 2094 -91 1709 -91 
Q 1097 -91 708 395 
Q 319 881 319 1663 
Q 319 2444 706 2928 
Q 1094 3413 1709 3413 
Q 2094 3413 2355 3264 
Q 2616 3116 2784 2803 
L 2784 4531 
L 2241 4531 
L 2241 4863 
L 3359 4863 
L 3359 331 
z
M 2784 1497 
L 2784 1825 
Q 2784 2422 2554 2737 
Q 2325 3053 1888 3053 
Q 1444 3053 1217 2703 
Q 991 2353 991 1663 
Q 991 975 1217 622 
Q 1444 269 1888 269 
Q 2325 269 2554 583 
Q 2784 897 2784 1497 
z
" transform="scale(0.015625)"/>
      </defs>
      <use xlink:href="#DejaVuSerif-35"/>
      <use xlink:href="#DejaVuSerif-47" x="63.623047"/>
      <use xlink:href="#DejaVuSerif-75" x="143.505859"/>
      <use xlink:href="#DejaVuSerif-61" x="207.910156"/>
      <use xlink:href="#DejaVuSerif-72" x="267.529297"/>
      <use xlink:href="#DejaVuSerif-64" x="315.332031"/>
     </g>
    </g>
    <g id="line2d_26">
     <path d="M 94.044073 74.701813 
L 130.044073 74.701813 
" style="fill: none; stroke: #ee0000; stroke-width: 5; stroke-linecap: square"/>
    </g>
    <g id="line2d_27">
     <g>
      <use xlink:href="#mc68a30959a" x="112.044073" y="74.701813" style="fill-opacity: 0; stroke: #ee0000; stroke-width: 4; stroke-linejoin: miter"/>
     </g>
    </g>
    <g id="text_13">
     <!-- OPT -->
     <g transform="translate(144.444073 81.001813) scale(0.18 -0.18)">
      <defs>
       <path id="DejaVuSerif-4f" d="M 2625 244 
Q 3391 244 3781 770 
Q 4172 1297 4172 2328 
Q 4172 3363 3781 3889 
Q 3391 4416 2625 4416 
Q 1856 4416 1465 3889 
Q 1075 3363 1075 2328 
Q 1075 1297 1465 770 
Q 1856 244 2625 244 
z
M 2625 -91 
Q 2150 -91 1751 65 
Q 1353 222 1050 525 
Q 700 875 529 1319 
Q 359 1763 359 2328 
Q 359 2894 529 3339 
Q 700 3784 1050 4134 
Q 1356 4441 1750 4595 
Q 2144 4750 2625 4750 
Q 3641 4750 4266 4084 
Q 4891 3419 4891 2328 
Q 4891 1769 4719 1320 
Q 4547 872 4197 525 
Q 3891 219 3497 64 
Q 3103 -91 2625 -91 
z
" transform="scale(0.015625)"/>
       <path id="DejaVuSerif-54" d="M 1222 0 
L 1222 331 
L 1819 331 
L 1819 4294 
L 447 4294 
L 447 3566 
L 63 3566 
L 63 4666 
L 4206 4666 
L 4206 3566 
L 3822 3566 
L 3822 4294 
L 2450 4294 
L 2450 331 
L 3047 331 
L 3047 0 
L 1222 0 
z
" transform="scale(0.015625)"/>
      </defs>
      <use xlink:href="#DejaVuSerif-4f"/>
      <use xlink:href="#DejaVuSerif-50" x="81.982422"/>
      <use xlink:href="#DejaVuSerif-54" x="149.267578"/>
     </g>
    </g>
    <g id="line2d_28">
     <path d="M 94.044073 101.122438 
L 130.044073 101.122438 
" style="fill: none; stroke: #6e8ee6; stroke-width: 5; stroke-linecap: square"/>
    </g>
    <g id="line2d_29">
     <g>
      <use xlink:href="#m2f302ca775" x="112.044073" y="101.122438" style="fill-opacity: 0; stroke: #6e8ee6; stroke-width: 4; stroke-linejoin: miter"/>
     </g>
    </g>
    <g id="text_14">
     <!-- IAR -->
     <g transform="translate(144.444073 107.422438) scale(0.18 -0.18)">
      <defs>
       <path id="DejaVuSerif-49" d="M 1581 331 
L 2175 331 
L 2175 0 
L 353 0 
L 353 331 
L 947 331 
L 947 4331 
L 353 4331 
L 353 4666 
L 2175 4666 
L 2175 4331 
L 1581 4331 
L 1581 331 
z
" transform="scale(0.015625)"/>
       <path id="DejaVuSerif-41" d="M 1281 1691 
L 2994 1691 
L 2138 3909 
L 1281 1691 
z
M -38 0 
L -38 331 
L 372 331 
L 2034 4666 
L 2559 4666 
L 4225 331 
L 4684 331 
L 4684 0 
L 2988 0 
L 2988 331 
L 3506 331 
L 3116 1356 
L 1153 1356 
L 763 331 
L 1275 331 
L 1275 0 
L -38 0 
z
" transform="scale(0.015625)"/>
       <path id="DejaVuSerif-52" d="M 3066 2316 
Q 3284 2256 3442 2114 
Q 3600 1972 3725 1716 
L 4403 331 
L 4972 331 
L 4972 0 
L 3872 0 
L 3144 1484 
Q 2934 1916 2759 2042 
Q 2584 2169 2278 2169 
L 1581 2169 
L 1581 331 
L 2241 331 
L 2241 0 
L 353 0 
L 353 331 
L 947 331 
L 947 4331 
L 353 4331 
L 353 4666 
L 2719 4666 
Q 3400 4666 3770 4341 
Q 4141 4016 4141 3419 
Q 4141 2938 3870 2661 
Q 3600 2384 3066 2316 
z
M 1581 2503 
L 2503 2503 
Q 2975 2503 3200 2726 
Q 3425 2950 3425 3419 
Q 3425 3888 3200 4109 
Q 2975 4331 2503 4331 
L 1581 4331 
L 1581 2503 
z
" transform="scale(0.015625)"/>
      </defs>
      <use xlink:href="#DejaVuSerif-49"/>
      <use xlink:href="#DejaVuSerif-41" x="39.501953"/>
      <use xlink:href="#DejaVuSerif-52" x="111.71875"/>
     </g>
    </g>
    <g id="line2d_30">
     <path d="M 94.044073 127.543062 
L 130.044073 127.543062 
" style="fill: none; stroke: #21cd7d; stroke-width: 5; stroke-linecap: square"/>
    </g>
    <g id="line2d_31">
     <g>
      <use xlink:href="#ma9494a55b8" x="112.044073" y="127.543062" style="fill-opacity: 0; stroke: #21cd7d; stroke-width: 4; stroke-linejoin: miter"/>
     </g>
    </g>
    <g id="text_15">
     <!-- DTR -->
     <g transform="translate(144.444073 133.843062) scale(0.18 -0.18)">
      <defs>
       <path id="DejaVuSerif-44" d="M 1581 331 
L 2163 331 
Q 3072 331 3558 850 
Q 4044 1369 4044 2338 
Q 4044 3306 3559 3818 
Q 3075 4331 2163 4331 
L 1581 4331 
L 1581 331 
z
M 353 0 
L 353 331 
L 947 331 
L 947 4331 
L 353 4331 
L 353 4666 
L 2209 4666 
Q 3416 4666 4089 4050 
Q 4763 3434 4763 2338 
Q 4763 1238 4088 619 
Q 3413 0 2209 0 
L 353 0 
z
" transform="scale(0.015625)"/>
      </defs>
      <use xlink:href="#DejaVuSerif-44"/>
      <use xlink:href="#DejaVuSerif-54" x="80.175781"/>
      <use xlink:href="#DejaVuSerif-52" x="146.875"/>
     </g>
    </g>
    <g id="line2d_32">
     <path d="M 94.044073 153.963687 
L 130.044073 153.963687 
" style="fill: none; stroke: #00ff00; stroke-width: 5; stroke-linecap: square"/>
    </g>
    <g id="line2d_33">
     <g>
      <use xlink:href="#m82b2a05662" x="112.044073" y="153.963687" style="fill-opacity: 0; stroke: #00ff00; stroke-width: 4; stroke-linejoin: miter"/>
     </g>
    </g>
    <g id="text_16">
     <!-- RNR -->
     <g transform="translate(144.444073 160.263688) scale(0.18 -0.18)">
      <defs>
       <path id="DejaVuSerif-4e" d="M 313 0 
L 313 331 
L 941 331 
L 941 4331 
L 313 4331 
L 313 4666 
L 1509 4666 
L 4306 984 
L 4306 4331 
L 3681 4331 
L 3681 4666 
L 5319 4666 
L 5319 4331 
L 4691 4331 
L 4691 -91 
L 4313 -91 
L 1325 3841 
L 1325 331 
L 1953 331 
L 1953 0 
L 313 0 
z
" transform="scale(0.015625)"/>
      </defs>
      <use xlink:href="#DejaVuSerif-52"/>
      <use xlink:href="#DejaVuSerif-4e" x="75.292969"/>
      <use xlink:href="#DejaVuSerif-52" x="162.792969"/>
     </g>
    </g>
    <g id="line2d_34">
     <path d="M 94.044073 180.384312 
L 130.044073 180.384312 
" style="fill: none; stroke-dasharray: 18.5,8; stroke-dashoffset: 0; stroke: #eeee00; stroke-width: 5"/>
    </g>
    <g id="line2d_35">
     <g>
      <use xlink:href="#m74f32e38c7" x="112.044073" y="180.384312" style="fill-opacity: 0; stroke: #eeee00; stroke-width: 4; stroke-linejoin: miter"/>
     </g>
    </g>
    <g id="text_17">
     <!-- OPT-NIS -->
     <g transform="translate(144.444073 186.684312) scale(0.18 -0.18)">
      <defs>
       <path id="DejaVuSerif-2d" d="M 281 1959 
L 1881 1959 
L 1881 1472 
L 281 1472 
L 281 1959 
z
" transform="scale(0.015625)"/>
       <path id="DejaVuSerif-53" d="M 594 225 
L 594 1288 
L 953 1284 
Q 969 753 1261 498 
Q 1553 244 2150 244 
Q 2706 244 2998 464 
Q 3291 684 3291 1106 
Q 3291 1444 3114 1625 
Q 2938 1806 2369 1978 
L 1753 2163 
Q 1084 2366 811 2669 
Q 538 2972 538 3500 
Q 538 4094 959 4422 
Q 1381 4750 2144 4750 
Q 2469 4750 2856 4679 
Q 3244 4609 3681 4475 
L 3681 3481 
L 3328 3481 
Q 3275 3975 2998 4195 
Q 2722 4416 2156 4416 
Q 1663 4416 1405 4214 
Q 1147 4013 1147 3628 
Q 1147 3294 1340 3103 
Q 1534 2913 2163 2725 
L 2741 2553 
Q 3375 2363 3645 2067 
Q 3916 1772 3916 1275 
Q 3916 597 3481 253 
Q 3047 -91 2188 -91 
Q 1803 -91 1404 -12 
Q 1006 66 594 225 
z
" transform="scale(0.015625)"/>
      </defs>
      <use xlink:href="#DejaVuSerif-4f"/>
      <use xlink:href="#DejaVuSerif-50" x="81.982422"/>
      <use xlink:href="#DejaVuSerif-54" x="149.267578"/>
      <use xlink:href="#DejaVuSerif-2d" x="203.091797"/>
      <use xlink:href="#DejaVuSerif-4e" x="236.880859"/>
      <use xlink:href="#DejaVuSerif-49" x="324.380859"/>
      <use xlink:href="#DejaVuSerif-53" x="363.882812"/>
     </g>
    </g>
    <g id="line2d_36">
     <path d="M 94.044073 206.804937 
L 130.044073 206.804937 
" style="fill: none; stroke-dasharray: 18.5,8; stroke-dashoffset: 0; stroke: #00eeee; stroke-width: 5"/>
    </g>
    <g id="line2d_37">
     <g>
      <use xlink:href="#me9f9150a00" x="112.044073" y="206.804937" style="fill-opacity: 0; stroke: #00eeee; stroke-width: 4; stroke-linejoin: miter"/>
     </g>
    </g>
    <g id="text_18">
     <!-- OPT-CIS -->
     <g transform="translate(144.444073 213.104937) scale(0.18 -0.18)">
      <defs>
       <path id="DejaVuSerif-43" d="M 4513 1234 
Q 4306 581 3820 245 
Q 3334 -91 2591 -91 
Q 2134 -91 1743 65 
Q 1353 222 1050 525 
Q 700 875 529 1320 
Q 359 1766 359 2328 
Q 359 3416 987 4083 
Q 1616 4750 2644 4750 
Q 3025 4750 3456 4650 
Q 3888 4550 4384 4347 
L 4384 3272 
L 4031 3272 
Q 3916 3859 3567 4137 
Q 3219 4416 2591 4416 
Q 1844 4416 1459 3886 
Q 1075 3356 1075 2328 
Q 1075 1303 1459 773 
Q 1844 244 2591 244 
Q 3113 244 3450 492 
Q 3788 741 3938 1234 
L 4513 1234 
z
" transform="scale(0.015625)"/>
      </defs>
      <use xlink:href="#DejaVuSerif-4f"/>
      <use xlink:href="#DejaVuSerif-50" x="81.982422"/>
      <use xlink:href="#DejaVuSerif-54" x="149.267578"/>
      <use xlink:href="#DejaVuSerif-2d" x="203.091797"/>
      <use xlink:href="#DejaVuSerif-43" x="236.880859"/>
      <use xlink:href="#DejaVuSerif-49" x="313.394531"/>
      <use xlink:href="#DejaVuSerif-53" x="352.896484"/>
     </g>
    </g>
   </g>
  </g>
 </g>
 <defs>
  <clipPath id="pd85a6b6c45">
   <rect x="77.844073" y="24.704" width="421.155927" height="344.496"/>
  </clipPath>
 </defs>
</svg>
