<?xml version="1.0" encoding="utf-8" standalone="no"?>
<!DOCTYPE svg PUBLIC "-//W3C//DTD SVG 1.1//EN"
  "http://www.w3.org/Graphics/SVG/1.1/DTD/svg11.dtd">
<svg xmlns:xlink="http://www.w3.org/1999/xlink" width="432pt" height="432pt" viewBox="0 0 432 432" xmlns="http://www.w3.org/2000/svg" version="1.1">
 <metadata>
  <rdf:RDF xmlns:dc="http://purl.org/dc/elements/1.1/" xmlns:cc="http://creativecommons.org/ns#" xmlns:rdf="http://www.w3.org/1999/02/22-rdf-syntax-ns#">
   <cc:Work>
    <dc:type rdf:resource="http://purl.org/dc/dcmitype/StillImage"/>
    <dc:date>2025-03-26T11:06:50.299337</dc:date>
    <dc:format>image/svg+xml</dc:format>
    <dc:creator>
     <cc:Agent>
      <dc:title>Matplotlib v3.8.0, https://matplotlib.org/</dc:title>
     </cc:Agent>
    </dc:creator>
   </cc:Work>
  </rdf:RDF>
 </metadata>
 <defs>
  <style type="text/css">*{stroke-linejoin: round; stroke-linecap: butt}</style>
 </defs>
 <g id="figure_1">
  <g id="patch_1">
   <path d="M 0 432 
L 432 432 
L 432 0 
L 0 0 
z
" style="fill: #ffffff"/>
  </g>
  <g id="axes_1">
   <g id="patch_2">
    <path d="M 48.58 377.12 
L 427 377.12 
L 427 24.704 
L 48.58 24.704 
z
" style="fill: #ffffff"/>
   </g>
   <g id="matplotlib.axis_1">
    <g id="xtick_1">
     <g id="line2d_1">
      <path d="M 65.780909 377.12 
L 65.780909 24.704 
" clip-path="url(#pff9a242d1a)" style="fill: none; stroke: #b0b0b0; stroke-width: 0.8; stroke-linecap: square"/>
     </g>
     <g id="line2d_2">
      <defs>
       <path id="me410cfa9ac" d="M 0 0 
L 0 3.5 
" style="stroke: #000000; stroke-width: 0.8"/>
      </defs>
      <g>
       <use xlink:href="#me410cfa9ac" x="65.780909" y="377.12" style="stroke: #000000; stroke-width: 0.8"/>
      </g>
     </g>
     <g id="text_1">
      <!-- 0 -->
      <g transform="translate(59.418409 399.316875) scale(0.2 -0.2)">
       <defs>
        <path id="DejaVuSerif-30" d="M 2034 219 
Q 2513 219 2750 744 
Q 2988 1269 2988 2328 
Q 2988 3391 2750 3916 
Q 2513 4441 2034 4441 
Q 1556 4441 1318 3916 
Q 1081 3391 1081 2328 
Q 1081 1269 1318 744 
Q 1556 219 2034 219 
z
M 2034 -91 
Q 1275 -91 848 546 
Q 422 1184 422 2328 
Q 422 3475 848 4112 
Q 1275 4750 2034 4750 
Q 2797 4750 3222 4112 
Q 3647 3475 3647 2328 
Q 3647 1184 3222 546 
Q 2797 -91 2034 -91 
z
" transform="scale(0.015625)"/>
       </defs>
       <use xlink:href="#DejaVuSerif-30"/>
      </g>
     </g>
    </g>
    <g id="text_2">
     <!-- $\it{t}$ -->
     <g transform="translate(233.79 422.673125) scale(0.2 -0.2)">
      <defs>
       <path id="DejaVuSans-Oblique-74" d="M 2706 3500 
L 2619 3053 
L 1472 3053 
L 1100 1153 
Q 1081 1047 1072 975 
Q 1063 903 1063 863 
Q 1063 663 1183 572 
Q 1303 481 1569 481 
L 2150 481 
L 2053 0 
L 1503 0 
Q 991 0 739 200 
Q 488 400 488 806 
Q 488 878 497 964 
Q 506 1050 525 1153 
L 897 3053 
L 409 3053 
L 500 3500 
L 978 3500 
L 1172 4494 
L 1747 4494 
L 1556 3500 
L 2706 3500 
z
" transform="scale(0.015625)"/>
      </defs>
      <use xlink:href="#DejaVuSans-Oblique-74" transform="translate(0 0.78125)"/>
     </g>
    </g>
   </g>
   <g id="matplotlib.axis_2">
    <g id="ytick_1">
     <g id="line2d_3">
      <path d="M 48.58 361.101091 
L 427 361.101091 
" clip-path="url(#pff9a242d1a)" style="fill: none; stroke: #b0b0b0; stroke-width: 0.8; stroke-linecap: square"/>
     </g>
     <g id="line2d_4">
      <defs>
       <path id="m08cdce1fc0" d="M 0 0 
L -3.5 0 
" style="stroke: #000000; stroke-width: 0.8"/>
      </defs>
      <g>
       <use xlink:href="#m08cdce1fc0" x="48.58" y="361.101091" style="stroke: #000000; stroke-width: 0.8"/>
      </g>
     </g>
     <g id="text_3">
      <!-- $\mathdefault{0}$ -->
      <g transform="translate(28.78 368.699528) scale(0.2 -0.2)">
       <use xlink:href="#DejaVuSerif-30" transform="translate(0 0.78125)"/>
      </g>
     </g>
    </g>
    <g id="ytick_2">
     <g id="line2d_5">
      <path d="M 48.58 316.712011 
L 427 316.712011 
" clip-path="url(#pff9a242d1a)" style="fill: none; stroke: #b0b0b0; stroke-width: 0.8; stroke-linecap: square"/>
     </g>
     <g id="line2d_6">
      <g>
       <use xlink:href="#m08cdce1fc0" x="48.58" y="316.712011" style="stroke: #000000; stroke-width: 0.8"/>
      </g>
     </g>
     <g id="text_4">
      <!-- $\mathdefault{1}$ -->
      <g transform="translate(28.78 324.310449) scale(0.2 -0.2)">
       <defs>
        <path id="DejaVuSerif-31" d="M 909 0 
L 909 331 
L 1722 331 
L 1722 4213 
L 781 3603 
L 781 4013 
L 1919 4750 
L 2350 4750 
L 2350 331 
L 3163 331 
L 3163 0 
L 909 0 
z
" transform="scale(0.015625)"/>
       </defs>
       <use xlink:href="#DejaVuSerif-31" transform="translate(0 0.78125)"/>
      </g>
     </g>
    </g>
    <g id="ytick_3">
     <g id="line2d_7">
      <path d="M 48.58 272.322932 
L 427 272.322932 
" clip-path="url(#pff9a242d1a)" style="fill: none; stroke: #b0b0b0; stroke-width: 0.8; stroke-linecap: square"/>
     </g>
     <g id="line2d_8">
      <g>
       <use xlink:href="#m08cdce1fc0" x="48.58" y="272.322932" style="stroke: #000000; stroke-width: 0.8"/>
      </g>
     </g>
     <g id="text_5">
      <!-- $\mathdefault{2}$ -->
      <g transform="translate(28.78 279.921369) scale(0.2 -0.2)">
       <defs>
        <path id="DejaVuSerif-32" d="M 819 3553 
L 469 3553 
L 469 4384 
Q 803 4563 1142 4656 
Q 1481 4750 1806 4750 
Q 2534 4750 2956 4397 
Q 3378 4044 3378 3438 
Q 3378 2753 2422 1800 
Q 2347 1728 2309 1691 
L 1131 513 
L 3078 513 
L 3078 1088 
L 3444 1088 
L 3444 0 
L 434 0 
L 434 341 
L 1850 1753 
Q 2319 2222 2519 2614 
Q 2719 3006 2719 3438 
Q 2719 3909 2473 4175 
Q 2228 4441 1797 4441 
Q 1350 4441 1106 4219 
Q 863 3997 819 3553 
z
" transform="scale(0.015625)"/>
       </defs>
       <use xlink:href="#DejaVuSerif-32" transform="translate(0 0.78125)"/>
      </g>
     </g>
    </g>
    <g id="ytick_4">
     <g id="line2d_9">
      <path d="M 48.58 227.933852 
L 427 227.933852 
" clip-path="url(#pff9a242d1a)" style="fill: none; stroke: #b0b0b0; stroke-width: 0.8; stroke-linecap: square"/>
     </g>
     <g id="line2d_10">
      <g>
       <use xlink:href="#m08cdce1fc0" x="48.58" y="227.933852" style="stroke: #000000; stroke-width: 0.8"/>
      </g>
     </g>
     <g id="text_6">
      <!-- $\mathdefault{3}$ -->
      <g transform="translate(28.78 235.53229) scale(0.2 -0.2)">
       <defs>
        <path id="DejaVuSerif-33" d="M 622 4469 
Q 988 4606 1323 4678 
Q 1659 4750 1953 4750 
Q 2638 4750 3022 4454 
Q 3406 4159 3406 3634 
Q 3406 3213 3140 2930 
Q 2875 2647 2388 2547 
Q 2963 2466 3280 2130 
Q 3597 1794 3597 1259 
Q 3597 606 3158 257 
Q 2719 -91 1894 -91 
Q 1528 -91 1179 -12 
Q 831 66 488 225 
L 488 1131 
L 838 1131 
Q 869 681 1141 450 
Q 1413 219 1906 219 
Q 2384 219 2661 495 
Q 2938 772 2938 1253 
Q 2938 1803 2653 2086 
Q 2369 2369 1819 2369 
L 1522 2369 
L 1522 2688 
L 1678 2688 
Q 2225 2688 2498 2914 
Q 2772 3141 2772 3597 
Q 2772 4006 2547 4223 
Q 2322 4441 1900 4441 
Q 1478 4441 1245 4241 
Q 1013 4041 972 3647 
L 622 3647 
L 622 4469 
z
" transform="scale(0.015625)"/>
       </defs>
       <use xlink:href="#DejaVuSerif-33" transform="translate(0 0.78125)"/>
      </g>
     </g>
    </g>
    <g id="ytick_5">
     <g id="line2d_11">
      <path d="M 48.58 183.544773 
L 427 183.544773 
" clip-path="url(#pff9a242d1a)" style="fill: none; stroke: #b0b0b0; stroke-width: 0.8; stroke-linecap: square"/>
     </g>
     <g id="line2d_12">
      <g>
       <use xlink:href="#m08cdce1fc0" x="48.58" y="183.544773" style="stroke: #000000; stroke-width: 0.8"/>
      </g>
     </g>
     <g id="text_7">
      <!-- $\mathdefault{4}$ -->
      <g transform="translate(28.78 191.14321) scale(0.2 -0.2)">
       <defs>
        <path id="DejaVuSerif-34" d="M 2234 1581 
L 2234 4063 
L 641 1581 
L 2234 1581 
z
M 3609 0 
L 1484 0 
L 1484 331 
L 2234 331 
L 2234 1247 
L 197 1247 
L 197 1588 
L 2241 4750 
L 2859 4750 
L 2859 1581 
L 3750 1581 
L 3750 1247 
L 2859 1247 
L 2859 331 
L 3609 331 
L 3609 0 
z
" transform="scale(0.015625)"/>
       </defs>
       <use xlink:href="#DejaVuSerif-34" transform="translate(0 0.78125)"/>
      </g>
     </g>
    </g>
    <g id="ytick_6">
     <g id="line2d_13">
      <path d="M 48.58 139.155693 
L 427 139.155693 
" clip-path="url(#pff9a242d1a)" style="fill: none; stroke: #b0b0b0; stroke-width: 0.8; stroke-linecap: square"/>
     </g>
     <g id="line2d_14">
      <g>
       <use xlink:href="#m08cdce1fc0" x="48.58" y="139.155693" style="stroke: #000000; stroke-width: 0.8"/>
      </g>
     </g>
     <g id="text_8">
      <!-- $\mathdefault{5}$ -->
      <g transform="translate(28.78 146.754131) scale(0.2 -0.2)">
       <defs>
        <path id="DejaVuSerif-35" d="M 3219 4666 
L 3219 4153 
L 1081 4153 
L 1081 2816 
Q 1244 2928 1461 2984 
Q 1678 3041 1947 3041 
Q 2703 3041 3140 2622 
Q 3578 2203 3578 1478 
Q 3578 738 3136 323 
Q 2694 -91 1894 -91 
Q 1572 -91 1234 -12 
Q 897 66 544 225 
L 544 1131 
L 897 1131 
Q 925 688 1179 453 
Q 1434 219 1894 219 
Q 2388 219 2653 544 
Q 2919 869 2919 1478 
Q 2919 2084 2655 2407 
Q 2391 2731 1894 2731 
Q 1613 2731 1398 2631 
Q 1184 2531 1019 2322 
L 750 2322 
L 750 4666 
L 3219 4666 
z
" transform="scale(0.015625)"/>
       </defs>
       <use xlink:href="#DejaVuSerif-35" transform="translate(0 0.09375)"/>
      </g>
     </g>
    </g>
    <g id="ytick_7">
     <g id="line2d_15">
      <path d="M 48.58 94.766613 
L 427 94.766613 
" clip-path="url(#pff9a242d1a)" style="fill: none; stroke: #b0b0b0; stroke-width: 0.8; stroke-linecap: square"/>
     </g>
     <g id="line2d_16">
      <g>
       <use xlink:href="#m08cdce1fc0" x="48.58" y="94.766613" style="stroke: #000000; stroke-width: 0.8"/>
      </g>
     </g>
     <g id="text_9">
      <!-- $\mathdefault{6}$ -->
      <g transform="translate(28.78 102.365051) scale(0.2 -0.2)">
       <defs>
        <path id="DejaVuSerif-36" d="M 2094 219 
Q 2534 219 2771 542 
Q 3009 866 3009 1472 
Q 3009 2078 2771 2401 
Q 2534 2725 2094 2725 
Q 1647 2725 1412 2412 
Q 1178 2100 1178 1509 
Q 1178 888 1415 553 
Q 1653 219 2094 219 
z
M 1075 2569 
Q 1288 2803 1556 2918 
Q 1825 3034 2163 3034 
Q 2859 3034 3264 2615 
Q 3669 2197 3669 1472 
Q 3669 763 3233 336 
Q 2797 -91 2069 -91 
Q 1278 -91 853 498 
Q 428 1088 428 2181 
Q 428 3406 931 4078 
Q 1434 4750 2350 4750 
Q 2597 4750 2869 4703 
Q 3141 4656 3425 4563 
L 3425 3794 
L 3072 3794 
Q 3034 4109 2831 4275 
Q 2628 4441 2284 4441 
Q 1678 4441 1381 3981 
Q 1084 3522 1075 2569 
z
" transform="scale(0.015625)"/>
       </defs>
       <use xlink:href="#DejaVuSerif-36" transform="translate(0 0.78125)"/>
      </g>
     </g>
    </g>
    <g id="ytick_8">
     <g id="line2d_17">
      <path d="M 48.58 50.377534 
L 427 50.377534 
" clip-path="url(#pff9a242d1a)" style="fill: none; stroke: #b0b0b0; stroke-width: 0.8; stroke-linecap: square"/>
     </g>
     <g id="line2d_18">
      <g>
       <use xlink:href="#m08cdce1fc0" x="48.58" y="50.377534" style="stroke: #000000; stroke-width: 0.8"/>
      </g>
     </g>
     <g id="text_10">
      <!-- $\mathdefault{7}$ -->
      <g transform="translate(28.78 57.975971) scale(0.2 -0.2)">
       <defs>
        <path id="DejaVuSerif-37" d="M 3609 4347 
L 1784 0 
L 1319 0 
L 3059 4153 
L 903 4153 
L 903 3578 
L 538 3578 
L 538 4666 
L 3609 4666 
L 3609 4347 
z
" transform="scale(0.015625)"/>
       </defs>
       <use xlink:href="#DejaVuSerif-37" transform="translate(0 0.09375)"/>
      </g>
     </g>
    </g>
    <g id="text_11">
     <!-- Total Overhead Cost -->
     <g transform="translate(20.620625 304.45575) rotate(-90) scale(0.2 -0.2)">
      <defs>
       <path id="DejaVuSerif-54" d="M 1222 0 
L 1222 331 
L 1819 331 
L 1819 4294 
L 447 4294 
L 447 3566 
L 63 3566 
L 63 4666 
L 4206 4666 
L 4206 3566 
L 3822 3566 
L 3822 4294 
L 2450 4294 
L 2450 331 
L 3047 331 
L 3047 0 
L 1222 0 
z
" transform="scale(0.015625)"/>
       <path id="DejaVuSerif-6f" d="M 1925 219 
Q 2388 219 2623 584 
Q 2859 950 2859 1663 
Q 2859 2375 2623 2739 
Q 2388 3103 1925 3103 
Q 1463 3103 1227 2739 
Q 991 2375 991 1663 
Q 991 950 1228 584 
Q 1466 219 1925 219 
z
M 1925 -91 
Q 1200 -91 759 389 
Q 319 869 319 1663 
Q 319 2456 758 2934 
Q 1197 3413 1925 3413 
Q 2653 3413 3092 2934 
Q 3531 2456 3531 1663 
Q 3531 869 3092 389 
Q 2653 -91 1925 -91 
z
" transform="scale(0.015625)"/>
       <path id="DejaVuSerif-74" d="M 691 2988 
L 184 2988 
L 184 3322 
L 691 3322 
L 691 4353 
L 1269 4353 
L 1269 3322 
L 2350 3322 
L 2350 2988 
L 1269 2988 
L 1269 878 
Q 1269 456 1350 337 
Q 1431 219 1650 219 
Q 1875 219 1978 351 
Q 2081 484 2088 781 
L 2522 781 
Q 2497 328 2275 118 
Q 2053 -91 1600 -91 
Q 1103 -91 897 129 
Q 691 350 691 878 
L 691 2988 
z
" transform="scale(0.015625)"/>
       <path id="DejaVuSerif-61" d="M 2547 1044 
L 2547 1747 
L 1806 1747 
Q 1378 1747 1168 1562 
Q 959 1378 959 997 
Q 959 650 1171 447 
Q 1384 244 1747 244 
Q 2106 244 2326 466 
Q 2547 688 2547 1044 
z
M 3122 2075 
L 3122 331 
L 3634 331 
L 3634 0 
L 2547 0 
L 2547 359 
Q 2356 128 2106 18 
Q 1856 -91 1522 -91 
Q 969 -91 644 203 
Q 319 497 319 997 
Q 319 1513 691 1797 
Q 1063 2081 1741 2081 
L 2547 2081 
L 2547 2309 
Q 2547 2688 2317 2895 
Q 2088 3103 1672 3103 
Q 1328 3103 1125 2947 
Q 922 2791 872 2484 
L 575 2484 
L 575 3156 
Q 875 3284 1158 3348 
Q 1441 3413 1709 3413 
Q 2400 3413 2761 3070 
Q 3122 2728 3122 2075 
z
" transform="scale(0.015625)"/>
       <path id="DejaVuSerif-6c" d="M 1313 331 
L 1856 331 
L 1856 0 
L 184 0 
L 184 331 
L 738 331 
L 738 4531 
L 184 4531 
L 184 4863 
L 1313 4863 
L 1313 331 
z
" transform="scale(0.015625)"/>
       <path id="DejaVuSerif-20" transform="scale(0.015625)"/>
       <path id="DejaVuSerif-4f" d="M 2625 244 
Q 3391 244 3781 770 
Q 4172 1297 4172 2328 
Q 4172 3363 3781 3889 
Q 3391 4416 2625 4416 
Q 1856 4416 1465 3889 
Q 1075 3363 1075 2328 
Q 1075 1297 1465 770 
Q 1856 244 2625 244 
z
M 2625 -91 
Q 2150 -91 1751 65 
Q 1353 222 1050 525 
Q 700 875 529 1319 
Q 359 1763 359 2328 
Q 359 2894 529 3339 
Q 700 3784 1050 4134 
Q 1356 4441 1750 4595 
Q 2144 4750 2625 4750 
Q 3641 4750 4266 4084 
Q 4891 3419 4891 2328 
Q 4891 1769 4719 1320 
Q 4547 872 4197 525 
Q 3891 219 3497 64 
Q 3103 -91 2625 -91 
z
" transform="scale(0.015625)"/>
       <path id="DejaVuSerif-76" d="M 1581 0 
L 359 2988 
L -19 2988 
L -19 3322 
L 1509 3322 
L 1509 2988 
L 978 2988 
L 1913 703 
L 2847 2988 
L 2350 2988 
L 2350 3322 
L 3597 3322 
L 3597 2988 
L 3225 2988 
L 2003 0 
L 1581 0 
z
" transform="scale(0.015625)"/>
       <path id="DejaVuSerif-65" d="M 3469 1600 
L 991 1600 
L 991 1575 
Q 991 903 1244 561 
Q 1497 219 1991 219 
Q 2369 219 2611 417 
Q 2853 616 2950 1006 
L 3413 1006 
Q 3275 459 2904 184 
Q 2534 -91 1931 -91 
Q 1203 -91 761 389 
Q 319 869 319 1663 
Q 319 2450 753 2931 
Q 1188 3413 1894 3413 
Q 2647 3413 3050 2948 
Q 3453 2484 3469 1600 
z
M 2791 1931 
Q 2772 2513 2545 2808 
Q 2319 3103 1894 3103 
Q 1497 3103 1269 2806 
Q 1041 2509 991 1931 
L 2791 1931 
z
" transform="scale(0.015625)"/>
       <path id="DejaVuSerif-72" d="M 3059 3328 
L 3059 2497 
L 2728 2497 
Q 2713 2744 2591 2866 
Q 2469 2988 2234 2988 
Q 1809 2988 1582 2694 
Q 1356 2400 1356 1850 
L 1356 331 
L 2022 331 
L 2022 0 
L 263 0 
L 263 331 
L 781 331 
L 781 2994 
L 231 2994 
L 231 3322 
L 1356 3322 
L 1356 2731 
Q 1525 3078 1790 3245 
Q 2056 3413 2438 3413 
Q 2578 3413 2733 3391 
Q 2888 3369 3059 3328 
z
" transform="scale(0.015625)"/>
       <path id="DejaVuSerif-68" d="M 263 0 
L 263 331 
L 781 331 
L 781 4531 
L 231 4531 
L 231 4863 
L 1356 4863 
L 1356 2731 
Q 1516 3069 1770 3241 
Q 2025 3413 2363 3413 
Q 2913 3413 3172 3097 
Q 3431 2781 3431 2113 
L 3431 331 
L 3944 331 
L 3944 0 
L 2356 0 
L 2356 331 
L 2853 331 
L 2853 1931 
Q 2853 2541 2704 2764 
Q 2556 2988 2175 2988 
Q 1775 2988 1565 2697 
Q 1356 2406 1356 1850 
L 1356 331 
L 1856 331 
L 1856 0 
L 263 0 
z
" transform="scale(0.015625)"/>
       <path id="DejaVuSerif-64" d="M 3359 331 
L 3909 331 
L 3909 0 
L 2784 0 
L 2784 519 
Q 2616 206 2355 57 
Q 2094 -91 1709 -91 
Q 1097 -91 708 395 
Q 319 881 319 1663 
Q 319 2444 706 2928 
Q 1094 3413 1709 3413 
Q 2094 3413 2355 3264 
Q 2616 3116 2784 2803 
L 2784 4531 
L 2241 4531 
L 2241 4863 
L 3359 4863 
L 3359 331 
z
M 2784 1497 
L 2784 1825 
Q 2784 2422 2554 2737 
Q 2325 3053 1888 3053 
Q 1444 3053 1217 2703 
Q 991 2353 991 1663 
Q 991 975 1217 622 
Q 1444 269 1888 269 
Q 2325 269 2554 583 
Q 2784 897 2784 1497 
z
" transform="scale(0.015625)"/>
       <path id="DejaVuSerif-43" d="M 4513 1234 
Q 4306 581 3820 245 
Q 3334 -91 2591 -91 
Q 2134 -91 1743 65 
Q 1353 222 1050 525 
Q 700 875 529 1320 
Q 359 1766 359 2328 
Q 359 3416 987 4083 
Q 1616 4750 2644 4750 
Q 3025 4750 3456 4650 
Q 3888 4550 4384 4347 
L 4384 3272 
L 4031 3272 
Q 3916 3859 3567 4137 
Q 3219 4416 2591 4416 
Q 1844 4416 1459 3886 
Q 1075 3356 1075 2328 
Q 1075 1303 1459 773 
Q 1844 244 2591 244 
Q 3113 244 3450 492 
Q 3788 741 3938 1234 
L 4513 1234 
z
" transform="scale(0.015625)"/>
       <path id="DejaVuSerif-73" d="M 359 184 
L 359 959 
L 691 959 
Q 703 588 923 403 
Q 1144 219 1575 219 
Q 1963 219 2166 364 
Q 2369 509 2369 788 
Q 2369 1006 2220 1140 
Q 2072 1275 1594 1428 
L 1178 1569 
Q 750 1706 558 1912 
Q 366 2119 366 2438 
Q 366 2894 700 3153 
Q 1034 3413 1625 3413 
Q 1888 3413 2178 3344 
Q 2469 3275 2778 3144 
L 2778 2419 
L 2447 2419 
Q 2434 2741 2221 2922 
Q 2009 3103 1644 3103 
Q 1281 3103 1095 2975 
Q 909 2847 909 2591 
Q 909 2381 1050 2254 
Q 1191 2128 1613 1997 
L 2069 1856 
Q 2541 1709 2748 1489 
Q 2956 1269 2956 922 
Q 2956 450 2595 179 
Q 2234 -91 1600 -91 
Q 1278 -91 972 -22 
Q 666 47 359 184 
z
" transform="scale(0.015625)"/>
      </defs>
      <use xlink:href="#DejaVuSerif-54"/>
      <use xlink:href="#DejaVuSerif-6f" x="58.949219"/>
      <use xlink:href="#DejaVuSerif-74" x="119.154297"/>
      <use xlink:href="#DejaVuSerif-61" x="159.339844"/>
      <use xlink:href="#DejaVuSerif-6c" x="218.958984"/>
      <use xlink:href="#DejaVuSerif-20" x="250.941406"/>
      <use xlink:href="#DejaVuSerif-4f" x="282.728516"/>
      <use xlink:href="#DejaVuSerif-76" x="364.710938"/>
      <use xlink:href="#DejaVuSerif-65" x="421.205078"/>
      <use xlink:href="#DejaVuSerif-72" x="480.384766"/>
      <use xlink:href="#DejaVuSerif-68" x="528.1875"/>
      <use xlink:href="#DejaVuSerif-65" x="592.591797"/>
      <use xlink:href="#DejaVuSerif-61" x="651.771484"/>
      <use xlink:href="#DejaVuSerif-64" x="711.390625"/>
      <use xlink:href="#DejaVuSerif-20" x="775.404297"/>
      <use xlink:href="#DejaVuSerif-43" x="807.191406"/>
      <use xlink:href="#DejaVuSerif-6f" x="883.705078"/>
      <use xlink:href="#DejaVuSerif-73" x="943.910156"/>
      <use xlink:href="#DejaVuSerif-74" x="995.228516"/>
     </g>
    </g>
    <g id="text_12">
     <!-- $\times\mathdefault{10^{2}}\mathdefault{}$ -->
     <g transform="translate(48.58 21.704) scale(0.2 -0.2)">
      <defs>
       <path id="DejaVuSans-d7" d="M 4488 3438 
L 3059 2003 
L 4488 575 
L 4116 197 
L 2681 1631 
L 1247 197 
L 878 575 
L 2303 2003 
L 878 3438 
L 1247 3816 
L 2681 2381 
L 4116 3816 
L 4488 3438 
z
" transform="scale(0.015625)"/>
      </defs>
      <use xlink:href="#DejaVuSans-d7" transform="translate(0 0.7125)"/>
      <use xlink:href="#DejaVuSerif-31" transform="translate(83.789062 0.7125)"/>
      <use xlink:href="#DejaVuSerif-30" transform="translate(147.412109 0.7125)"/>
      <use xlink:href="#DejaVuSerif-32" transform="translate(211.943516 37.046875) scale(0.7)"/>
     </g>
    </g>
   </g>
   <g id="LineCollection_1">
    <path d="M 65.780909 354.442729 
L 65.780909 354.442729 
" clip-path="url(#pff9a242d1a)" style="fill: none; stroke: #e4ac3e; stroke-width: 2"/>
    <path clip-path="url(#pff9a242d1a)" style="fill: none; stroke: #e4ac3e; stroke-width: 2"/>
    <path clip-path="url(#pff9a242d1a)" style="fill: none; stroke: #e4ac3e; stroke-width: 2"/>
    <path clip-path="url(#pff9a242d1a)" style="fill: none; stroke: #e4ac3e; stroke-width: 2"/>
    <path clip-path="url(#pff9a242d1a)" style="fill: none; stroke: #e4ac3e; stroke-width: 2"/>
   </g>
   <g id="line2d_19">
    <defs>
     <path id="ma67f38ab16" d="M 4 0 
L -4 -0 
" style="stroke: #e4ac3e; stroke-width: 2"/>
    </defs>
    <g clip-path="url(#pff9a242d1a)">
     <use xlink:href="#ma67f38ab16" x="65.780909" y="354.442729" style="fill: #e4ac3e; stroke: #e4ac3e; stroke-width: 2"/>
    </g>
   </g>
   <g id="line2d_20">
    <g clip-path="url(#pff9a242d1a)">
     <use xlink:href="#ma67f38ab16" x="65.780909" y="354.442729" style="fill: #e4ac3e; stroke: #e4ac3e; stroke-width: 2"/>
    </g>
   </g>
   <g id="LineCollection_2">
    <path d="M 65.780909 354.442729 
L 65.780909 354.442729 
" clip-path="url(#pff9a242d1a)" style="fill: none; stroke: #416fbd; stroke-width: 2"/>
    <path clip-path="url(#pff9a242d1a)" style="fill: none; stroke: #416fbd; stroke-width: 2"/>
    <path clip-path="url(#pff9a242d1a)" style="fill: none; stroke: #416fbd; stroke-width: 2"/>
    <path clip-path="url(#pff9a242d1a)" style="fill: none; stroke: #416fbd; stroke-width: 2"/>
    <path clip-path="url(#pff9a242d1a)" style="fill: none; stroke: #416fbd; stroke-width: 2"/>
   </g>
   <g id="line2d_21">
    <defs>
     <path id="m1c0b6080f0" d="M 4 0 
L -4 -0 
" style="stroke: #416fbd; stroke-width: 2"/>
    </defs>
    <g clip-path="url(#pff9a242d1a)">
     <use xlink:href="#m1c0b6080f0" x="65.780909" y="354.442729" style="fill: #416fbd; stroke: #416fbd; stroke-width: 2"/>
    </g>
   </g>
   <g id="line2d_22">
    <g clip-path="url(#pff9a242d1a)">
     <use xlink:href="#m1c0b6080f0" x="65.780909" y="354.442729" style="fill: #416fbd; stroke: #416fbd; stroke-width: 2"/>
    </g>
   </g>
   <g id="LineCollection_3">
    <path d="M 65.780909 354.442729 
L 65.780909 354.442729 
" clip-path="url(#pff9a242d1a)" style="fill: none; stroke: #64b749; stroke-width: 2"/>
    <path clip-path="url(#pff9a242d1a)" style="fill: none; stroke: #64b749; stroke-width: 2"/>
    <path clip-path="url(#pff9a242d1a)" style="fill: none; stroke: #64b749; stroke-width: 2"/>
    <path clip-path="url(#pff9a242d1a)" style="fill: none; stroke: #64b749; stroke-width: 2"/>
    <path clip-path="url(#pff9a242d1a)" style="fill: none; stroke: #64b749; stroke-width: 2"/>
   </g>
   <g id="line2d_23">
    <defs>
     <path id="m652b378c3d" d="M 4 0 
L -4 -0 
" style="stroke: #64b749; stroke-width: 2"/>
    </defs>
    <g clip-path="url(#pff9a242d1a)">
     <use xlink:href="#m652b378c3d" x="65.780909" y="354.442729" style="fill: #64b749; stroke: #64b749; stroke-width: 2"/>
    </g>
   </g>
   <g id="line2d_24">
    <g clip-path="url(#pff9a242d1a)">
     <use xlink:href="#m652b378c3d" x="65.780909" y="354.442729" style="fill: #64b749; stroke: #64b749; stroke-width: 2"/>
    </g>
   </g>
   <g id="LineCollection_4">
    <path d="M 65.780909 354.442729 
L 65.780909 354.442729 
" clip-path="url(#pff9a242d1a)" style="fill: none; stroke: #742993; stroke-width: 2"/>
    <path clip-path="url(#pff9a242d1a)" style="fill: none; stroke: #742993; stroke-width: 2"/>
    <path clip-path="url(#pff9a242d1a)" style="fill: none; stroke: #742993; stroke-width: 2"/>
    <path clip-path="url(#pff9a242d1a)" style="fill: none; stroke: #742993; stroke-width: 2"/>
    <path clip-path="url(#pff9a242d1a)" style="fill: none; stroke: #742993; stroke-width: 2"/>
   </g>
   <g id="line2d_25">
    <defs>
     <path id="mabaa7eb9a4" d="M 4 0 
L -4 -0 
" style="stroke: #742993; stroke-width: 2"/>
    </defs>
    <g clip-path="url(#pff9a242d1a)">
     <use xlink:href="#mabaa7eb9a4" x="65.780909" y="354.442729" style="fill: #742993; stroke: #742993; stroke-width: 2"/>
    </g>
   </g>
   <g id="line2d_26">
    <g clip-path="url(#pff9a242d1a)">
     <use xlink:href="#mabaa7eb9a4" x="65.780909" y="354.442729" style="fill: #742993; stroke: #742993; stroke-width: 2"/>
    </g>
   </g>
   <g id="LineCollection_5">
    <path d="M 65.780909 354.442729 
L 65.780909 354.442729 
" clip-path="url(#pff9a242d1a)" style="fill: none; stroke: #9d2136; stroke-width: 2"/>
    <path clip-path="url(#pff9a242d1a)" style="fill: none; stroke: #9d2136; stroke-width: 2"/>
    <path clip-path="url(#pff9a242d1a)" style="fill: none; stroke: #9d2136; stroke-width: 2"/>
    <path clip-path="url(#pff9a242d1a)" style="fill: none; stroke: #9d2136; stroke-width: 2"/>
    <path clip-path="url(#pff9a242d1a)" style="fill: none; stroke: #9d2136; stroke-width: 2"/>
   </g>
   <g id="line2d_27">
    <defs>
     <path id="m351e088c10" d="M 4 0 
L -4 -0 
" style="stroke: #9d2136; stroke-width: 2"/>
    </defs>
    <g clip-path="url(#pff9a242d1a)">
     <use xlink:href="#m351e088c10" x="65.780909" y="354.442729" style="fill: #9d2136; stroke: #9d2136; stroke-width: 2"/>
    </g>
   </g>
   <g id="line2d_28">
    <g clip-path="url(#pff9a242d1a)">
     <use xlink:href="#m351e088c10" x="65.780909" y="354.442729" style="fill: #9d2136; stroke: #9d2136; stroke-width: 2"/>
    </g>
   </g>
   <g id="LineCollection_6">
    <path clip-path="url(#pff9a242d1a)" style="fill: none; stroke: #d9532d; stroke-width: 2"/>
    <path clip-path="url(#pff9a242d1a)" style="fill: none; stroke: #d9532d; stroke-width: 2"/>
    <path clip-path="url(#pff9a242d1a)" style="fill: none; stroke: #d9532d; stroke-width: 2"/>
    <path clip-path="url(#pff9a242d1a)" style="fill: none; stroke: #d9532d; stroke-width: 2"/>
    <path clip-path="url(#pff9a242d1a)" style="fill: none; stroke: #d9532d; stroke-width: 2"/>
   </g>
   <g id="line2d_29">
    <defs>
     <path id="mbd3ca42fa2" d="M 4 0 
L -4 -0 
" style="stroke: #d9532d; stroke-width: 2"/>
    </defs>
    <g clip-path="url(#pff9a242d1a)"/>
   </g>
   <g id="line2d_30">
    <g clip-path="url(#pff9a242d1a)"/>
   </g>
   <g id="LineCollection_7">
    <path d="M 65.780909 354.442729 
L 65.780909 354.442729 
" clip-path="url(#pff9a242d1a)" style="fill: none; stroke: #777777; stroke-width: 2"/>
    <path clip-path="url(#pff9a242d1a)" style="fill: none; stroke: #777777; stroke-width: 2"/>
    <path clip-path="url(#pff9a242d1a)" style="fill: none; stroke: #777777; stroke-width: 2"/>
    <path clip-path="url(#pff9a242d1a)" style="fill: none; stroke: #777777; stroke-width: 2"/>
    <path clip-path="url(#pff9a242d1a)" style="fill: none; stroke: #777777; stroke-width: 2"/>
   </g>
   <g id="line2d_31">
    <defs>
     <path id="meae6ca1cd3" d="M 4 0 
L -4 -0 
" style="stroke: #777777; stroke-width: 2"/>
    </defs>
    <g clip-path="url(#pff9a242d1a)">
     <use xlink:href="#meae6ca1cd3" x="65.780909" y="354.442729" style="fill: #777777; stroke: #777777; stroke-width: 2"/>
    </g>
   </g>
   <g id="line2d_32">
    <g clip-path="url(#pff9a242d1a)">
     <use xlink:href="#meae6ca1cd3" x="65.780909" y="354.442729" style="fill: #777777; stroke: #777777; stroke-width: 2"/>
    </g>
   </g>
   <g id="line2d_33">
    <path d="M 65.780909 354.442729 
L 151.785455 354.442729 
L 237.79 40.722909 
L 323.794545 40.722909 
L 409.799091 40.722909 
" clip-path="url(#pff9a242d1a)" style="fill: none; stroke: #e4ac3e; stroke-width: 2; stroke-linecap: square"/>
    <defs>
     <path id="m33c8f594a2" d="M -0 7.5 
L 7.5 -7.5 
L -7.5 -7.5 
z
" style="stroke: #e4ac3e; stroke-width: 2; stroke-linejoin: miter"/>
    </defs>
    <g clip-path="url(#pff9a242d1a)">
     <use xlink:href="#m33c8f594a2" x="65.780909" y="354.442729" style="fill-opacity: 0; stroke: #e4ac3e; stroke-width: 2; stroke-linejoin: miter"/>
     <use xlink:href="#m33c8f594a2" x="151.785455" y="354.442729" style="fill-opacity: 0; stroke: #e4ac3e; stroke-width: 2; stroke-linejoin: miter"/>
     <use xlink:href="#m33c8f594a2" x="237.79" y="40.722909" style="fill-opacity: 0; stroke: #e4ac3e; stroke-width: 2; stroke-linejoin: miter"/>
     <use xlink:href="#m33c8f594a2" x="323.794545" y="40.722909" style="fill-opacity: 0; stroke: #e4ac3e; stroke-width: 2; stroke-linejoin: miter"/>
     <use xlink:href="#m33c8f594a2" x="409.799091" y="40.722909" style="fill-opacity: 0; stroke: #e4ac3e; stroke-width: 2; stroke-linejoin: miter"/>
    </g>
   </g>
   <g id="line2d_34">
    <path d="M 65.780909 354.442729 
L 151.785455 354.442729 
L 237.79 354.442729 
L 323.794545 347.784367 
L 409.799091 347.784367 
" clip-path="url(#pff9a242d1a)" style="fill: none; stroke: #416fbd; stroke-width: 2; stroke-linecap: square"/>
    <defs>
     <path id="m2236bdb91a" d="M 0 -7.5 
L -6.495191 -3.75 
L -6.495191 3.75 
L -0 7.5 
L 6.495191 3.75 
L 6.495191 -3.75 
z
" style="stroke: #416fbd; stroke-width: 2; stroke-linejoin: miter"/>
    </defs>
    <g clip-path="url(#pff9a242d1a)">
     <use xlink:href="#m2236bdb91a" x="65.780909" y="354.442729" style="fill-opacity: 0; stroke: #416fbd; stroke-width: 2; stroke-linejoin: miter"/>
     <use xlink:href="#m2236bdb91a" x="151.785455" y="354.442729" style="fill-opacity: 0; stroke: #416fbd; stroke-width: 2; stroke-linejoin: miter"/>
     <use xlink:href="#m2236bdb91a" x="237.79" y="354.442729" style="fill-opacity: 0; stroke: #416fbd; stroke-width: 2; stroke-linejoin: miter"/>
     <use xlink:href="#m2236bdb91a" x="323.794545" y="347.784367" style="fill-opacity: 0; stroke: #416fbd; stroke-width: 2; stroke-linejoin: miter"/>
     <use xlink:href="#m2236bdb91a" x="409.799091" y="347.784367" style="fill-opacity: 0; stroke: #416fbd; stroke-width: 2; stroke-linejoin: miter"/>
    </g>
   </g>
   <g id="line2d_35">
    <path d="M 65.780909 354.442729 
L 151.785455 354.442729 
L 237.79 40.722909 
L 323.794545 40.722909 
L 409.799091 40.722909 
" clip-path="url(#pff9a242d1a)" style="fill: none; stroke: #64b749; stroke-width: 2; stroke-linecap: square"/>
    <defs>
     <path id="m0e93226a23" d="M 0 -7.5 
L -7.5 7.5 
L 7.5 7.5 
z
" style="stroke: #64b749; stroke-width: 2; stroke-linejoin: miter"/>
    </defs>
    <g clip-path="url(#pff9a242d1a)">
     <use xlink:href="#m0e93226a23" x="65.780909" y="354.442729" style="fill-opacity: 0; stroke: #64b749; stroke-width: 2; stroke-linejoin: miter"/>
     <use xlink:href="#m0e93226a23" x="151.785455" y="354.442729" style="fill-opacity: 0; stroke: #64b749; stroke-width: 2; stroke-linejoin: miter"/>
     <use xlink:href="#m0e93226a23" x="237.79" y="40.722909" style="fill-opacity: 0; stroke: #64b749; stroke-width: 2; stroke-linejoin: miter"/>
     <use xlink:href="#m0e93226a23" x="323.794545" y="40.722909" style="fill-opacity: 0; stroke: #64b749; stroke-width: 2; stroke-linejoin: miter"/>
     <use xlink:href="#m0e93226a23" x="409.799091" y="40.722909" style="fill-opacity: 0; stroke: #64b749; stroke-width: 2; stroke-linejoin: miter"/>
    </g>
   </g>
   <g id="line2d_36">
    <path d="M 65.780909 354.442729 
L 151.785455 354.442729 
L 237.79 40.722909 
L 323.794545 40.722909 
L 409.799091 40.722909 
" clip-path="url(#pff9a242d1a)" style="fill: none; stroke: #742993; stroke-width: 2; stroke-linecap: square"/>
    <defs>
     <path id="mc6fb9dce82" d="M 0 10.606602 
L 10.606602 0 
L 0 -10.606602 
L -10.606602 0 
z
" style="stroke: #742993; stroke-width: 2; stroke-linejoin: miter"/>
    </defs>
    <g clip-path="url(#pff9a242d1a)">
     <use xlink:href="#mc6fb9dce82" x="65.780909" y="354.442729" style="fill-opacity: 0; stroke: #742993; stroke-width: 2; stroke-linejoin: miter"/>
     <use xlink:href="#mc6fb9dce82" x="151.785455" y="354.442729" style="fill-opacity: 0; stroke: #742993; stroke-width: 2; stroke-linejoin: miter"/>
     <use xlink:href="#mc6fb9dce82" x="237.79" y="40.722909" style="fill-opacity: 0; stroke: #742993; stroke-width: 2; stroke-linejoin: miter"/>
     <use xlink:href="#mc6fb9dce82" x="323.794545" y="40.722909" style="fill-opacity: 0; stroke: #742993; stroke-width: 2; stroke-linejoin: miter"/>
     <use xlink:href="#mc6fb9dce82" x="409.799091" y="40.722909" style="fill-opacity: 0; stroke: #742993; stroke-width: 2; stroke-linejoin: miter"/>
    </g>
   </g>
   <g id="line2d_37">
    <path d="M 65.780909 354.442729 
L 151.785455 354.442729 
L 237.79 354.442729 
L 323.794545 354.442729 
L 409.799091 354.442729 
" clip-path="url(#pff9a242d1a)" style="fill: none; stroke-dasharray: 7.4,3.2; stroke-dashoffset: 0; stroke: #9d2136; stroke-width: 2"/>
    <defs>
     <path id="m26be4ea8d8" d="M 7.5 0 
L -7.5 -7.5 
L -7.5 7.5 
z
" style="stroke: #9d2136; stroke-width: 2; stroke-linejoin: miter"/>
    </defs>
    <g clip-path="url(#pff9a242d1a)">
     <use xlink:href="#m26be4ea8d8" x="65.780909" y="354.442729" style="fill-opacity: 0; stroke: #9d2136; stroke-width: 2; stroke-linejoin: miter"/>
     <use xlink:href="#m26be4ea8d8" x="151.785455" y="354.442729" style="fill-opacity: 0; stroke: #9d2136; stroke-width: 2; stroke-linejoin: miter"/>
     <use xlink:href="#m26be4ea8d8" x="237.79" y="354.442729" style="fill-opacity: 0; stroke: #9d2136; stroke-width: 2; stroke-linejoin: miter"/>
     <use xlink:href="#m26be4ea8d8" x="323.794545" y="354.442729" style="fill-opacity: 0; stroke: #9d2136; stroke-width: 2; stroke-linejoin: miter"/>
     <use xlink:href="#m26be4ea8d8" x="409.799091" y="354.442729" style="fill-opacity: 0; stroke: #9d2136; stroke-width: 2; stroke-linejoin: miter"/>
    </g>
   </g>
   <g id="line2d_38">
    <path d="M 65.780909 361.101091 
L 151.785455 361.101091 
L 237.79 361.101091 
L 323.794545 361.101091 
L 409.799091 361.101091 
" clip-path="url(#pff9a242d1a)" style="fill: none; stroke-dasharray: 7.4,3.2; stroke-dashoffset: 0; stroke: #d9532d; stroke-width: 2"/>
    <defs>
     <path id="m8c48d78269" d="M -7.5 -0 
L 7.5 7.5 
L 7.5 -7.5 
z
" style="stroke: #d9532d; stroke-width: 2; stroke-linejoin: miter"/>
    </defs>
    <g clip-path="url(#pff9a242d1a)">
     <use xlink:href="#m8c48d78269" x="65.780909" y="361.101091" style="fill-opacity: 0; stroke: #d9532d; stroke-width: 2; stroke-linejoin: miter"/>
     <use xlink:href="#m8c48d78269" x="151.785455" y="361.101091" style="fill-opacity: 0; stroke: #d9532d; stroke-width: 2; stroke-linejoin: miter"/>
     <use xlink:href="#m8c48d78269" x="237.79" y="361.101091" style="fill-opacity: 0; stroke: #d9532d; stroke-width: 2; stroke-linejoin: miter"/>
     <use xlink:href="#m8c48d78269" x="323.794545" y="361.101091" style="fill-opacity: 0; stroke: #d9532d; stroke-width: 2; stroke-linejoin: miter"/>
     <use xlink:href="#m8c48d78269" x="409.799091" y="361.101091" style="fill-opacity: 0; stroke: #d9532d; stroke-width: 2; stroke-linejoin: miter"/>
    </g>
   </g>
   <g id="line2d_39">
    <path d="M 65.780909 354.442729 
L 151.785455 354.442729 
L 237.79 40.722909 
L 323.794545 40.722909 
L 409.799091 40.722909 
" clip-path="url(#pff9a242d1a)" style="fill: none; stroke: #777777; stroke-width: 2; stroke-linecap: square"/>
    <defs>
     <path id="mb2be19b940" d="M 0 7.5 
C 1.989023 7.5 3.896849 6.709753 5.303301 5.303301 
C 6.709753 3.896849 7.5 1.989023 7.5 0 
C 7.5 -1.989023 6.709753 -3.896849 5.303301 -5.303301 
C 3.896849 -6.709753 1.989023 -7.5 0 -7.5 
C -1.989023 -7.5 -3.896849 -6.709753 -5.303301 -5.303301 
C -6.709753 -3.896849 -7.5 -1.989023 -7.5 0 
C -7.5 1.989023 -6.709753 3.896849 -5.303301 5.303301 
C -3.896849 6.709753 -1.989023 7.5 0 7.5 
z
" style="stroke: #777777; stroke-width: 2"/>
    </defs>
    <g clip-path="url(#pff9a242d1a)">
     <use xlink:href="#mb2be19b940" x="65.780909" y="354.442729" style="fill-opacity: 0; stroke: #777777; stroke-width: 2"/>
     <use xlink:href="#mb2be19b940" x="151.785455" y="354.442729" style="fill-opacity: 0; stroke: #777777; stroke-width: 2"/>
     <use xlink:href="#mb2be19b940" x="237.79" y="40.722909" style="fill-opacity: 0; stroke: #777777; stroke-width: 2"/>
     <use xlink:href="#mb2be19b940" x="323.794545" y="40.722909" style="fill-opacity: 0; stroke: #777777; stroke-width: 2"/>
     <use xlink:href="#mb2be19b940" x="409.799091" y="40.722909" style="fill-opacity: 0; stroke: #777777; stroke-width: 2"/>
    </g>
   </g>
   <g id="patch_3">
    <path d="M 48.58 377.12 
L 48.58 24.704 
" style="fill: none; stroke: #000000; stroke-width: 0.8; stroke-linejoin: miter; stroke-linecap: square"/>
   </g>
   <g id="patch_4">
    <path d="M 427 377.12 
L 427 24.704 
" style="fill: none; stroke: #000000; stroke-width: 0.8; stroke-linejoin: miter; stroke-linecap: square"/>
   </g>
   <g id="patch_5">
    <path d="M 48.58 377.12 
L 427 377.12 
" style="fill: none; stroke: #000000; stroke-width: 0.8; stroke-linejoin: miter; stroke-linecap: square"/>
   </g>
   <g id="patch_6">
    <path d="M 48.58 24.704 
L 427 24.704 
" style="fill: none; stroke: #000000; stroke-width: 0.8; stroke-linejoin: miter; stroke-linecap: square"/>
   </g>
   <g id="legend_1">
    <g id="patch_7">
     <path d="M 236.882031 242.696375 
L 416.5 242.696375 
Q 419.5 242.696375 419.5 239.696375 
L 419.5 162.127625 
Q 419.5 159.127625 416.5 159.127625 
L 236.882031 159.127625 
Q 233.882031 159.127625 233.882031 162.127625 
L 233.882031 239.696375 
Q 233.882031 242.696375 236.882031 242.696375 
z
" style="fill: #ffffff; stroke: #cccccc; stroke-linejoin: miter"/>
    </g>
    <g id="LineCollection_8">
     <path d="M 254.882031 178.775281 
L 254.882031 163.775281 
" style="fill: none; stroke: #e4ac3e; stroke-width: 2"/>
    </g>
    <g id="line2d_40">
     <g>
      <use xlink:href="#ma67f38ab16" x="254.882031" y="178.775281" style="fill: #e4ac3e; stroke: #e4ac3e; stroke-width: 2"/>
     </g>
    </g>
    <g id="line2d_41">
     <g>
      <use xlink:href="#ma67f38ab16" x="254.882031" y="163.775281" style="fill: #e4ac3e; stroke: #e4ac3e; stroke-width: 2"/>
     </g>
    </g>
    <g id="line2d_42">
     <path d="M 239.882031 171.275281 
L 269.882031 171.275281 
" style="fill: none; stroke: #e4ac3e; stroke-width: 2; stroke-linecap: square"/>
    </g>
    <g id="line2d_43">
     <g>
      <use xlink:href="#m33c8f594a2" x="254.882031" y="171.275281" style="fill-opacity: 0; stroke: #e4ac3e; stroke-width: 2; stroke-linejoin: miter"/>
     </g>
    </g>
    <g id="text_13">
     <!-- OPT -->
     <g transform="translate(275.882031 176.525281) scale(0.15 -0.15)">
      <defs>
       <path id="DejaVuSerif-50" d="M 1581 2375 
L 2406 2375 
Q 2872 2375 3115 2626 
Q 3359 2878 3359 3353 
Q 3359 3831 3115 4081 
Q 2872 4331 2406 4331 
L 1581 4331 
L 1581 2375 
z
M 353 0 
L 353 331 
L 947 331 
L 947 4331 
L 353 4331 
L 353 4666 
L 2559 4666 
Q 3259 4666 3668 4311 
Q 4078 3956 4078 3353 
Q 4078 2753 3668 2397 
Q 3259 2041 2559 2041 
L 1581 2041 
L 1581 331 
L 2303 331 
L 2303 0 
L 353 0 
z
" transform="scale(0.015625)"/>
      </defs>
      <use xlink:href="#DejaVuSerif-4f"/>
      <use xlink:href="#DejaVuSerif-50" x="81.982422"/>
      <use xlink:href="#DejaVuSerif-54" x="149.267578"/>
     </g>
    </g>
    <g id="LineCollection_9">
     <path d="M 254.882031 197.792469 
L 254.882031 182.792469 
" style="fill: none; stroke: #416fbd; stroke-width: 2"/>
    </g>
    <g id="line2d_44">
     <g>
      <use xlink:href="#m1c0b6080f0" x="254.882031" y="197.792469" style="fill: #416fbd; stroke: #416fbd; stroke-width: 2"/>
     </g>
    </g>
    <g id="line2d_45">
     <g>
      <use xlink:href="#m1c0b6080f0" x="254.882031" y="182.792469" style="fill: #416fbd; stroke: #416fbd; stroke-width: 2"/>
     </g>
    </g>
    <g id="line2d_46">
     <path d="M 239.882031 190.292469 
L 269.882031 190.292469 
" style="fill: none; stroke: #416fbd; stroke-width: 2; stroke-linecap: square"/>
    </g>
    <g id="line2d_47">
     <g>
      <use xlink:href="#m2236bdb91a" x="254.882031" y="190.292469" style="fill-opacity: 0; stroke: #416fbd; stroke-width: 2; stroke-linejoin: miter"/>
     </g>
    </g>
    <g id="text_14">
     <!-- IAR -->
     <g transform="translate(275.882031 195.542469) scale(0.15 -0.15)">
      <defs>
       <path id="DejaVuSerif-49" d="M 1581 331 
L 2175 331 
L 2175 0 
L 353 0 
L 353 331 
L 947 331 
L 947 4331 
L 353 4331 
L 353 4666 
L 2175 4666 
L 2175 4331 
L 1581 4331 
L 1581 331 
z
" transform="scale(0.015625)"/>
       <path id="DejaVuSerif-41" d="M 1281 1691 
L 2994 1691 
L 2138 3909 
L 1281 1691 
z
M -38 0 
L -38 331 
L 372 331 
L 2034 4666 
L 2559 4666 
L 4225 331 
L 4684 331 
L 4684 0 
L 2988 0 
L 2988 331 
L 3506 331 
L 3116 1356 
L 1153 1356 
L 763 331 
L 1275 331 
L 1275 0 
L -38 0 
z
" transform="scale(0.015625)"/>
       <path id="DejaVuSerif-52" d="M 3066 2316 
Q 3284 2256 3442 2114 
Q 3600 1972 3725 1716 
L 4403 331 
L 4972 331 
L 4972 0 
L 3872 0 
L 3144 1484 
Q 2934 1916 2759 2042 
Q 2584 2169 2278 2169 
L 1581 2169 
L 1581 331 
L 2241 331 
L 2241 0 
L 353 0 
L 353 331 
L 947 331 
L 947 4331 
L 353 4331 
L 353 4666 
L 2719 4666 
Q 3400 4666 3770 4341 
Q 4141 4016 4141 3419 
Q 4141 2938 3870 2661 
Q 3600 2384 3066 2316 
z
M 1581 2503 
L 2503 2503 
Q 2975 2503 3200 2726 
Q 3425 2950 3425 3419 
Q 3425 3888 3200 4109 
Q 2975 4331 2503 4331 
L 1581 4331 
L 1581 2503 
z
" transform="scale(0.015625)"/>
      </defs>
      <use xlink:href="#DejaVuSerif-49"/>
      <use xlink:href="#DejaVuSerif-41" x="39.501953"/>
      <use xlink:href="#DejaVuSerif-52" x="111.71875"/>
     </g>
    </g>
    <g id="LineCollection_10">
     <path d="M 254.882031 216.809656 
L 254.882031 201.809656 
" style="fill: none; stroke: #64b749; stroke-width: 2"/>
    </g>
    <g id="line2d_48">
     <g>
      <use xlink:href="#m652b378c3d" x="254.882031" y="216.809656" style="fill: #64b749; stroke: #64b749; stroke-width: 2"/>
     </g>
    </g>
    <g id="line2d_49">
     <g>
      <use xlink:href="#m652b378c3d" x="254.882031" y="201.809656" style="fill: #64b749; stroke: #64b749; stroke-width: 2"/>
     </g>
    </g>
    <g id="line2d_50">
     <path d="M 239.882031 209.309656 
L 269.882031 209.309656 
" style="fill: none; stroke: #64b749; stroke-width: 2; stroke-linecap: square"/>
    </g>
    <g id="line2d_51">
     <g>
      <use xlink:href="#m0e93226a23" x="254.882031" y="209.309656" style="fill-opacity: 0; stroke: #64b749; stroke-width: 2; stroke-linejoin: miter"/>
     </g>
    </g>
    <g id="text_15">
     <!-- DTR -->
     <g transform="translate(275.882031 214.559656) scale(0.15 -0.15)">
      <defs>
       <path id="DejaVuSerif-44" d="M 1581 331 
L 2163 331 
Q 3072 331 3558 850 
Q 4044 1369 4044 2338 
Q 4044 3306 3559 3818 
Q 3075 4331 2163 4331 
L 1581 4331 
L 1581 331 
z
M 353 0 
L 353 331 
L 947 331 
L 947 4331 
L 353 4331 
L 353 4666 
L 2209 4666 
Q 3416 4666 4089 4050 
Q 4763 3434 4763 2338 
Q 4763 1238 4088 619 
Q 3413 0 2209 0 
L 353 0 
z
" transform="scale(0.015625)"/>
      </defs>
      <use xlink:href="#DejaVuSerif-44"/>
      <use xlink:href="#DejaVuSerif-54" x="80.175781"/>
      <use xlink:href="#DejaVuSerif-52" x="146.875"/>
     </g>
    </g>
    <g id="LineCollection_11">
     <path d="M 254.882031 235.826844 
L 254.882031 220.826844 
" style="fill: none; stroke: #742993; stroke-width: 2"/>
    </g>
    <g id="line2d_52">
     <g>
      <use xlink:href="#mabaa7eb9a4" x="254.882031" y="235.826844" style="fill: #742993; stroke: #742993; stroke-width: 2"/>
     </g>
    </g>
    <g id="line2d_53">
     <g>
      <use xlink:href="#mabaa7eb9a4" x="254.882031" y="220.826844" style="fill: #742993; stroke: #742993; stroke-width: 2"/>
     </g>
    </g>
    <g id="line2d_54">
     <path d="M 239.882031 228.326844 
L 269.882031 228.326844 
" style="fill: none; stroke: #742993; stroke-width: 2; stroke-linecap: square"/>
    </g>
    <g id="line2d_55">
     <g>
      <use xlink:href="#mc6fb9dce82" x="254.882031" y="228.326844" style="fill-opacity: 0; stroke: #742993; stroke-width: 2; stroke-linejoin: miter"/>
     </g>
    </g>
    <g id="text_16">
     <!-- RNR -->
     <g transform="translate(275.882031 233.576844) scale(0.15 -0.15)">
      <defs>
       <path id="DejaVuSerif-4e" d="M 313 0 
L 313 331 
L 941 331 
L 941 4331 
L 313 4331 
L 313 4666 
L 1509 4666 
L 4306 984 
L 4306 4331 
L 3681 4331 
L 3681 4666 
L 5319 4666 
L 5319 4331 
L 4691 4331 
L 4691 -91 
L 4313 -91 
L 1325 3841 
L 1325 331 
L 1953 331 
L 1953 0 
L 313 0 
z
" transform="scale(0.015625)"/>
      </defs>
      <use xlink:href="#DejaVuSerif-52"/>
      <use xlink:href="#DejaVuSerif-4e" x="75.292969"/>
      <use xlink:href="#DejaVuSerif-52" x="162.792969"/>
     </g>
    </g>
    <g id="LineCollection_12">
     <path d="M 335.596094 178.775281 
L 335.596094 163.775281 
" style="fill: none; stroke: #9d2136; stroke-width: 2"/>
    </g>
    <g id="line2d_56">
     <g>
      <use xlink:href="#m351e088c10" x="335.596094" y="178.775281" style="fill: #9d2136; stroke: #9d2136; stroke-width: 2"/>
     </g>
    </g>
    <g id="line2d_57">
     <g>
      <use xlink:href="#m351e088c10" x="335.596094" y="163.775281" style="fill: #9d2136; stroke: #9d2136; stroke-width: 2"/>
     </g>
    </g>
    <g id="line2d_58">
     <path d="M 320.596094 171.275281 
L 350.596094 171.275281 
" style="fill: none; stroke-dasharray: 7.4,3.2; stroke-dashoffset: 0; stroke: #9d2136; stroke-width: 2"/>
    </g>
    <g id="line2d_59">
     <g>
      <use xlink:href="#m26be4ea8d8" x="335.596094" y="171.275281" style="fill-opacity: 0; stroke: #9d2136; stroke-width: 2; stroke-linejoin: miter"/>
     </g>
    </g>
    <g id="text_17">
     <!-- NIS -->
     <g transform="translate(356.596094 176.525281) scale(0.15 -0.15)">
      <defs>
       <path id="DejaVuSerif-53" d="M 594 225 
L 594 1288 
L 953 1284 
Q 969 753 1261 498 
Q 1553 244 2150 244 
Q 2706 244 2998 464 
Q 3291 684 3291 1106 
Q 3291 1444 3114 1625 
Q 2938 1806 2369 1978 
L 1753 2163 
Q 1084 2366 811 2669 
Q 538 2972 538 3500 
Q 538 4094 959 4422 
Q 1381 4750 2144 4750 
Q 2469 4750 2856 4679 
Q 3244 4609 3681 4475 
L 3681 3481 
L 3328 3481 
Q 3275 3975 2998 4195 
Q 2722 4416 2156 4416 
Q 1663 4416 1405 4214 
Q 1147 4013 1147 3628 
Q 1147 3294 1340 3103 
Q 1534 2913 2163 2725 
L 2741 2553 
Q 3375 2363 3645 2067 
Q 3916 1772 3916 1275 
Q 3916 597 3481 253 
Q 3047 -91 2188 -91 
Q 1803 -91 1404 -12 
Q 1006 66 594 225 
z
" transform="scale(0.015625)"/>
      </defs>
      <use xlink:href="#DejaVuSerif-4e"/>
      <use xlink:href="#DejaVuSerif-49" x="87.5"/>
      <use xlink:href="#DejaVuSerif-53" x="127.001953"/>
     </g>
    </g>
    <g id="LineCollection_13">
     <path d="M 335.596094 197.792469 
L 335.596094 182.792469 
" style="fill: none; stroke: #d9532d; stroke-width: 2"/>
    </g>
    <g id="line2d_60">
     <g>
      <use xlink:href="#mbd3ca42fa2" x="335.596094" y="197.792469" style="fill: #d9532d; stroke: #d9532d; stroke-width: 2"/>
     </g>
    </g>
    <g id="line2d_61">
     <g>
      <use xlink:href="#mbd3ca42fa2" x="335.596094" y="182.792469" style="fill: #d9532d; stroke: #d9532d; stroke-width: 2"/>
     </g>
    </g>
    <g id="line2d_62">
     <path d="M 320.596094 190.292469 
L 350.596094 190.292469 
" style="fill: none; stroke-dasharray: 7.4,3.2; stroke-dashoffset: 0; stroke: #d9532d; stroke-width: 2"/>
    </g>
    <g id="line2d_63">
     <g>
      <use xlink:href="#m8c48d78269" x="335.596094" y="190.292469" style="fill-opacity: 0; stroke: #d9532d; stroke-width: 2; stroke-linejoin: miter"/>
     </g>
    </g>
    <g id="text_18">
     <!-- CIS -->
     <g transform="translate(356.596094 195.542469) scale(0.15 -0.15)">
      <use xlink:href="#DejaVuSerif-43"/>
      <use xlink:href="#DejaVuSerif-49" x="76.513672"/>
      <use xlink:href="#DejaVuSerif-53" x="116.015625"/>
     </g>
    </g>
    <g id="LineCollection_14">
     <path d="M 335.596094 216.809656 
L 335.596094 201.809656 
" style="fill: none; stroke: #777777; stroke-width: 2"/>
    </g>
    <g id="line2d_64">
     <g>
      <use xlink:href="#meae6ca1cd3" x="335.596094" y="216.809656" style="fill: #777777; stroke: #777777; stroke-width: 2"/>
     </g>
    </g>
    <g id="line2d_65">
     <g>
      <use xlink:href="#meae6ca1cd3" x="335.596094" y="201.809656" style="fill: #777777; stroke: #777777; stroke-width: 2"/>
     </g>
    </g>
    <g id="line2d_66">
     <path d="M 320.596094 209.309656 
L 350.596094 209.309656 
" style="fill: none; stroke: #777777; stroke-width: 2; stroke-linecap: square"/>
    </g>
    <g id="line2d_67">
     <g>
      <use xlink:href="#mb2be19b940" x="335.596094" y="209.309656" style="fill-opacity: 0; stroke: #777777; stroke-width: 2"/>
     </g>
    </g>
    <g id="text_19">
     <!-- 5Guard -->
     <g transform="translate(356.596094 214.559656) scale(0.15 -0.15)">
      <defs>
       <path id="DejaVuSerif-47" d="M 4097 3272 
Q 3988 3856 3641 4136 
Q 3294 4416 2675 4416 
Q 1869 4416 1472 3897 
Q 1075 3378 1075 2328 
Q 1075 1300 1484 772 
Q 1894 244 2688 244 
Q 3041 244 3362 331 
Q 3684 419 3975 594 
L 3975 1797 
L 3097 1797 
L 3097 2131 
L 4609 2131 
L 4609 391 
Q 4194 150 3714 29 
Q 3234 -91 2688 -91 
Q 1631 -91 995 570 
Q 359 1231 359 2328 
Q 359 3434 996 4092 
Q 1634 4750 2713 4750 
Q 3113 4750 3539 4658 
Q 3966 4566 4447 4378 
L 4447 3272 
L 4097 3272 
z
" transform="scale(0.015625)"/>
       <path id="DejaVuSerif-75" d="M 2266 3322 
L 3341 3322 
L 3341 331 
L 3884 331 
L 3884 0 
L 2766 0 
L 2766 588 
Q 2606 256 2353 82 
Q 2100 -91 1766 -91 
Q 1213 -91 952 223 
Q 691 538 691 1209 
L 691 2988 
L 172 2988 
L 172 3322 
L 1269 3322 
L 1269 1388 
Q 1269 781 1417 556 
Q 1566 331 1947 331 
Q 2347 331 2556 625 
Q 2766 919 2766 1478 
L 2766 2988 
L 2266 2988 
L 2266 3322 
z
" transform="scale(0.015625)"/>
      </defs>
      <use xlink:href="#DejaVuSerif-35"/>
      <use xlink:href="#DejaVuSerif-47" x="63.623047"/>
      <use xlink:href="#DejaVuSerif-75" x="143.505859"/>
      <use xlink:href="#DejaVuSerif-61" x="207.910156"/>
      <use xlink:href="#DejaVuSerif-72" x="267.529297"/>
      <use xlink:href="#DejaVuSerif-64" x="315.332031"/>
     </g>
    </g>
   </g>
  </g>
 </g>
 <defs>
  <clipPath id="pff9a242d1a">
   <rect x="48.58" y="24.704" width="378.42" height="352.416"/>
  </clipPath>
 </defs>
</svg>
