<?xml version="1.0" encoding="utf-8" standalone="no"?>
<!DOCTYPE svg PUBLIC "-//W3C//DTD SVG 1.1//EN"
  "http://www.w3.org/Graphics/SVG/1.1/DTD/svg11.dtd">
<svg xmlns:xlink="http://www.w3.org/1999/xlink" width="720pt" height="342pt" viewBox="0 0 720 342" xmlns="http://www.w3.org/2000/svg" version="1.1">
 <metadata>
  <rdf:RDF xmlns:dc="http://purl.org/dc/elements/1.1/" xmlns:cc="http://creativecommons.org/ns#" xmlns:rdf="http://www.w3.org/1999/02/22-rdf-syntax-ns#">
   <cc:Work>
    <dc:type rdf:resource="http://purl.org/dc/dcmitype/StillImage"/>
    <dc:date>2025-03-10T15:59:25.887778</dc:date>
    <dc:format>image/svg+xml</dc:format>
    <dc:creator>
     <cc:Agent>
      <dc:title>Matplotlib v3.8.0, https://matplotlib.org/</dc:title>
     </cc:Agent>
    </dc:creator>
   </cc:Work>
  </rdf:RDF>
 </metadata>
 <defs>
  <style type="text/css">*{stroke-linejoin: round; stroke-linecap: butt}</style>
 </defs>
 <g id="figure_1">
  <g id="patch_1">
   <path d="M 0 342 
L 720 342 
L 720 0 
L 0 0 
z
" style="fill: #ffffff"/>
  </g>
  <g id="axes_1">
   <g id="patch_2">
    <path d="M 78.1 279.2 
L 715 279.2 
L 715 5 
L 78.1 5 
z
" style="fill: #ffffff"/>
   </g>
   <g id="PolyCollection_1">
    <defs>
     <path id="m79762648a9" d="M 107.05 -199.9 
L 107.05 -75.263636 
L 116.863559 -75.263636 
L 126.677119 -75.263636 
L 136.490678 -75.263636 
L 146.304237 -75.263636 
L 156.117797 -75.263636 
L 165.931356 -75.263636 
L 175.744915 -75.263636 
L 185.558475 -75.263636 
L 195.372034 -75.263636 
L 205.185593 -75.263636 
L 214.999153 -75.263636 
L 224.812712 -75.263636 
L 234.626271 -75.263636 
L 244.439831 -75.263636 
L 254.25339 -75.263636 
L 264.066949 -75.263636 
L 273.880508 -75.263636 
L 283.694068 -75.263636 
L 293.507627 -75.263636 
L 303.321186 -75.263636 
L 313.134746 -75.263636 
L 322.948305 -75.263636 
L 332.761864 -75.263636 
L 342.575424 -75.263636 
L 352.388983 -75.263636 
L 362.202542 -75.263636 
L 372.016102 -75.263636 
L 381.829661 -75.263636 
L 391.64322 -75.263636 
L 401.45678 -75.263636 
L 411.270339 -75.263636 
L 421.083898 -75.263636 
L 430.897458 -75.263636 
L 440.711017 -75.263636 
L 450.524576 -75.263636 
L 460.338136 -75.263636 
L 470.151695 -75.263636 
L 479.965254 -75.263636 
L 489.778814 -75.263636 
L 499.592373 -75.263636 
L 509.405932 -75.263636 
L 519.219492 -75.263636 
L 529.033051 -75.263636 
L 538.84661 -75.263636 
L 548.660169 -75.263636 
L 558.473729 -75.263636 
L 568.287288 -75.263636 
L 578.100847 -75.263636 
L 587.914407 -75.263636 
L 597.727966 -75.263636 
L 607.541525 -75.263636 
L 617.355085 -75.263636 
L 627.168644 -75.263636 
L 636.982203 -75.263636 
L 646.795763 -75.263636 
L 656.609322 -75.263636 
L 666.422881 -75.263636 
L 676.236441 -75.263636 
L 686.05 -75.263636 
L 686.05 -75.263636 
L 686.05 -75.263636 
L 676.236441 -75.263636 
L 666.422881 -75.263636 
L 656.609322 -75.263636 
L 646.795763 -75.263636 
L 636.982203 -75.263636 
L 627.168644 -199.9 
L 617.355085 -75.263636 
L 607.541525 -199.9 
L 597.727966 -324.536364 
L 587.914407 -75.263636 
L 578.100847 -324.536364 
L 568.287288 -324.536364 
L 558.473729 -324.536364 
L 548.660169 -75.263636 
L 538.84661 -199.9 
L 529.033051 -324.536364 
L 519.219492 -75.263636 
L 509.405932 -324.536364 
L 499.592373 -75.263636 
L 489.778814 -75.263636 
L 479.965254 -199.9 
L 470.151695 -199.9 
L 460.338136 -75.263636 
L 450.524576 -199.9 
L 440.711017 -324.536364 
L 430.897458 -75.263636 
L 421.083898 -75.263636 
L 411.270339 -199.9 
L 401.45678 -199.9 
L 391.64322 -75.263636 
L 381.829661 -199.9 
L 372.016102 -199.9 
L 362.202542 -324.536364 
L 352.388983 -199.9 
L 342.575424 -75.263636 
L 332.761864 -75.263636 
L 322.948305 -75.263636 
L 313.134746 -199.9 
L 303.321186 -199.9 
L 293.507627 -199.9 
L 283.694068 -199.9 
L 273.880508 -199.9 
L 264.066949 -75.263636 
L 254.25339 -75.263636 
L 244.439831 -199.9 
L 234.626271 -75.263636 
L 224.812712 -324.536364 
L 214.999153 -324.536364 
L 205.185593 -324.536364 
L 195.372034 -199.9 
L 185.558475 -75.263636 
L 175.744915 -75.263636 
L 165.931356 -75.263636 
L 156.117797 -199.9 
L 146.304237 -75.263636 
L 136.490678 -199.9 
L 126.677119 -199.9 
L 116.863559 -324.536364 
L 107.05 -199.9 
z
" style="stroke: #118811; stroke-opacity: 0.3"/>
    </defs>
    <g clip-path="url(#p662c81223e)">
     <use xlink:href="#m79762648a9" x="0" y="342" style="fill: #118811; fill-opacity: 0.3; stroke: #118811; stroke-opacity: 0.3"/>
    </g>
   </g>
   <g id="matplotlib.axis_1">
    <g id="xtick_1">
     <g id="line2d_1">
      <path d="M 107.05 279.2 
L 107.05 5 
" clip-path="url(#p662c81223e)" style="fill: none; stroke: #b0b0b0; stroke-width: 0.8; stroke-linecap: square"/>
     </g>
     <g id="line2d_2">
      <defs>
       <path id="m36de2aa09d" d="M 0 0 
L 0 3.5 
" style="stroke: #000000; stroke-width: 0.8"/>
      </defs>
      <g>
       <use xlink:href="#m36de2aa09d" x="107.05" y="279.2" style="stroke: #000000; stroke-width: 0.8"/>
      </g>
     </g>
     <g id="text_1">
      <!-- 0 -->
      <g transform="translate(99.096875 305.196094) scale(0.25 -0.25)">
       <defs>
        <path id="DejaVuSerif-30" d="M 2034 219 
Q 2513 219 2750 744 
Q 2988 1269 2988 2328 
Q 2988 3391 2750 3916 
Q 2513 4441 2034 4441 
Q 1556 4441 1318 3916 
Q 1081 3391 1081 2328 
Q 1081 1269 1318 744 
Q 1556 219 2034 219 
z
M 2034 -91 
Q 1275 -91 848 546 
Q 422 1184 422 2328 
Q 422 3475 848 4112 
Q 1275 4750 2034 4750 
Q 2797 4750 3222 4112 
Q 3647 3475 3647 2328 
Q 3647 1184 3222 546 
Q 2797 -91 2034 -91 
z
" transform="scale(0.015625)"/>
       </defs>
       <use xlink:href="#DejaVuSerif-30"/>
      </g>
     </g>
    </g>
    <g id="xtick_2">
     <g id="line2d_3">
      <path d="M 205.185593 279.2 
L 205.185593 5 
" clip-path="url(#p662c81223e)" style="fill: none; stroke: #b0b0b0; stroke-width: 0.8; stroke-linecap: square"/>
     </g>
     <g id="line2d_4">
      <g>
       <use xlink:href="#m36de2aa09d" x="205.185593" y="279.2" style="stroke: #000000; stroke-width: 0.8"/>
      </g>
     </g>
     <g id="text_2">
      <!-- 10 -->
      <g transform="translate(189.279343 305.196094) scale(0.25 -0.25)">
       <defs>
        <path id="DejaVuSerif-31" d="M 909 0 
L 909 331 
L 1722 331 
L 1722 4213 
L 781 3603 
L 781 4013 
L 1919 4750 
L 2350 4750 
L 2350 331 
L 3163 331 
L 3163 0 
L 909 0 
z
" transform="scale(0.015625)"/>
       </defs>
       <use xlink:href="#DejaVuSerif-31"/>
       <use xlink:href="#DejaVuSerif-30" x="63.623047"/>
      </g>
     </g>
    </g>
    <g id="xtick_3">
     <g id="line2d_5">
      <path d="M 303.321186 279.2 
L 303.321186 5 
" clip-path="url(#p662c81223e)" style="fill: none; stroke: #b0b0b0; stroke-width: 0.8; stroke-linecap: square"/>
     </g>
     <g id="line2d_6">
      <g>
       <use xlink:href="#m36de2aa09d" x="303.321186" y="279.2" style="stroke: #000000; stroke-width: 0.8"/>
      </g>
     </g>
     <g id="text_3">
      <!-- 20 -->
      <g transform="translate(287.414936 305.196094) scale(0.25 -0.25)">
       <defs>
        <path id="DejaVuSerif-32" d="M 819 3553 
L 469 3553 
L 469 4384 
Q 803 4563 1142 4656 
Q 1481 4750 1806 4750 
Q 2534 4750 2956 4397 
Q 3378 4044 3378 3438 
Q 3378 2753 2422 1800 
Q 2347 1728 2309 1691 
L 1131 513 
L 3078 513 
L 3078 1088 
L 3444 1088 
L 3444 0 
L 434 0 
L 434 341 
L 1850 1753 
Q 2319 2222 2519 2614 
Q 2719 3006 2719 3438 
Q 2719 3909 2473 4175 
Q 2228 4441 1797 4441 
Q 1350 4441 1106 4219 
Q 863 3997 819 3553 
z
" transform="scale(0.015625)"/>
       </defs>
       <use xlink:href="#DejaVuSerif-32"/>
       <use xlink:href="#DejaVuSerif-30" x="63.623047"/>
      </g>
     </g>
    </g>
    <g id="xtick_4">
     <g id="line2d_7">
      <path d="M 401.45678 279.2 
L 401.45678 5 
" clip-path="url(#p662c81223e)" style="fill: none; stroke: #b0b0b0; stroke-width: 0.8; stroke-linecap: square"/>
     </g>
     <g id="line2d_8">
      <g>
       <use xlink:href="#m36de2aa09d" x="401.45678" y="279.2" style="stroke: #000000; stroke-width: 0.8"/>
      </g>
     </g>
     <g id="text_4">
      <!-- 30 -->
      <g transform="translate(385.55053 305.196094) scale(0.25 -0.25)">
       <defs>
        <path id="DejaVuSerif-33" d="M 622 4469 
Q 988 4606 1323 4678 
Q 1659 4750 1953 4750 
Q 2638 4750 3022 4454 
Q 3406 4159 3406 3634 
Q 3406 3213 3140 2930 
Q 2875 2647 2388 2547 
Q 2963 2466 3280 2130 
Q 3597 1794 3597 1259 
Q 3597 606 3158 257 
Q 2719 -91 1894 -91 
Q 1528 -91 1179 -12 
Q 831 66 488 225 
L 488 1131 
L 838 1131 
Q 869 681 1141 450 
Q 1413 219 1906 219 
Q 2384 219 2661 495 
Q 2938 772 2938 1253 
Q 2938 1803 2653 2086 
Q 2369 2369 1819 2369 
L 1522 2369 
L 1522 2688 
L 1678 2688 
Q 2225 2688 2498 2914 
Q 2772 3141 2772 3597 
Q 2772 4006 2547 4223 
Q 2322 4441 1900 4441 
Q 1478 4441 1245 4241 
Q 1013 4041 972 3647 
L 622 3647 
L 622 4469 
z
" transform="scale(0.015625)"/>
       </defs>
       <use xlink:href="#DejaVuSerif-33"/>
       <use xlink:href="#DejaVuSerif-30" x="63.623047"/>
      </g>
     </g>
    </g>
    <g id="xtick_5">
     <g id="line2d_9">
      <path d="M 499.592373 279.2 
L 499.592373 5 
" clip-path="url(#p662c81223e)" style="fill: none; stroke: #b0b0b0; stroke-width: 0.8; stroke-linecap: square"/>
     </g>
     <g id="line2d_10">
      <g>
       <use xlink:href="#m36de2aa09d" x="499.592373" y="279.2" style="stroke: #000000; stroke-width: 0.8"/>
      </g>
     </g>
     <g id="text_5">
      <!-- 40 -->
      <g transform="translate(483.686123 305.196094) scale(0.25 -0.25)">
       <defs>
        <path id="DejaVuSerif-34" d="M 2234 1581 
L 2234 4063 
L 641 1581 
L 2234 1581 
z
M 3609 0 
L 1484 0 
L 1484 331 
L 2234 331 
L 2234 1247 
L 197 1247 
L 197 1588 
L 2241 4750 
L 2859 4750 
L 2859 1581 
L 3750 1581 
L 3750 1247 
L 2859 1247 
L 2859 331 
L 3609 331 
L 3609 0 
z
" transform="scale(0.015625)"/>
       </defs>
       <use xlink:href="#DejaVuSerif-34"/>
       <use xlink:href="#DejaVuSerif-30" x="63.623047"/>
      </g>
     </g>
    </g>
    <g id="xtick_6">
     <g id="line2d_11">
      <path d="M 597.727966 279.2 
L 597.727966 5 
" clip-path="url(#p662c81223e)" style="fill: none; stroke: #b0b0b0; stroke-width: 0.8; stroke-linecap: square"/>
     </g>
     <g id="line2d_12">
      <g>
       <use xlink:href="#m36de2aa09d" x="597.727966" y="279.2" style="stroke: #000000; stroke-width: 0.8"/>
      </g>
     </g>
     <g id="text_6">
      <!-- 50 -->
      <g transform="translate(581.821716 305.196094) scale(0.25 -0.25)">
       <defs>
        <path id="DejaVuSerif-35" d="M 3219 4666 
L 3219 4153 
L 1081 4153 
L 1081 2816 
Q 1244 2928 1461 2984 
Q 1678 3041 1947 3041 
Q 2703 3041 3140 2622 
Q 3578 2203 3578 1478 
Q 3578 738 3136 323 
Q 2694 -91 1894 -91 
Q 1572 -91 1234 -12 
Q 897 66 544 225 
L 544 1131 
L 897 1131 
Q 925 688 1179 453 
Q 1434 219 1894 219 
Q 2388 219 2653 544 
Q 2919 869 2919 1478 
Q 2919 2084 2655 2407 
Q 2391 2731 1894 2731 
Q 1613 2731 1398 2631 
Q 1184 2531 1019 2322 
L 750 2322 
L 750 4666 
L 3219 4666 
z
" transform="scale(0.015625)"/>
       </defs>
       <use xlink:href="#DejaVuSerif-35"/>
       <use xlink:href="#DejaVuSerif-30" x="63.623047"/>
      </g>
     </g>
    </g>
    <g id="text_7">
     <!-- $\it{t}$ -->
     <g transform="translate(391.95 331.871719) scale(0.23 -0.23)">
      <defs>
       <path id="DejaVuSans-Oblique-74" d="M 2706 3500 
L 2619 3053 
L 1472 3053 
L 1100 1153 
Q 1081 1047 1072 975 
Q 1063 903 1063 863 
Q 1063 663 1183 572 
Q 1303 481 1569 481 
L 2150 481 
L 2053 0 
L 1503 0 
Q 991 0 739 200 
Q 488 400 488 806 
Q 488 878 497 964 
Q 506 1050 525 1153 
L 897 3053 
L 409 3053 
L 500 3500 
L 978 3500 
L 1172 4494 
L 1747 4494 
L 1556 3500 
L 2706 3500 
z
" transform="scale(0.015625)"/>
      </defs>
      <use xlink:href="#DejaVuSans-Oblique-74" transform="translate(0 0.78125)"/>
     </g>
    </g>
   </g>
   <g id="matplotlib.axis_2">
    <g id="ytick_1">
     <g id="line2d_13">
      <path d="M 78.1 266.736364 
L 715 266.736364 
" clip-path="url(#p662c81223e)" style="fill: none; stroke: #b0b0b0; stroke-width: 0.8; stroke-linecap: square"/>
     </g>
     <g id="line2d_14">
      <defs>
       <path id="m2236f1f9b9" d="M 0 0 
L -3.5 0 
" style="stroke: #000000; stroke-width: 0.8"/>
      </defs>
      <g>
       <use xlink:href="#m2236f1f9b9" x="78.1" y="266.736364" style="stroke: #000000; stroke-width: 0.8"/>
      </g>
     </g>
     <g id="text_8">
      <!-- 0.0 -->
      <g transform="translate(31.342188 276.234411) scale(0.25 -0.25)">
       <defs>
        <path id="DejaVuSerif-2e" d="M 603 325 
Q 603 500 722 622 
Q 841 744 1019 744 
Q 1191 744 1312 622 
Q 1434 500 1434 325 
Q 1434 153 1312 31 
Q 1191 -91 1019 -91 
Q 841 -91 722 29 
Q 603 150 603 325 
z
" transform="scale(0.015625)"/>
       </defs>
       <use xlink:href="#DejaVuSerif-30"/>
       <use xlink:href="#DejaVuSerif-2e" x="63.623047"/>
       <use xlink:href="#DejaVuSerif-30" x="95.410156"/>
      </g>
     </g>
    </g>
    <g id="ytick_2">
     <g id="line2d_15">
      <path d="M 78.1 204.418182 
L 715 204.418182 
" clip-path="url(#p662c81223e)" style="fill: none; stroke: #b0b0b0; stroke-width: 0.8; stroke-linecap: square"/>
     </g>
     <g id="line2d_16">
      <g>
       <use xlink:href="#m2236f1f9b9" x="78.1" y="204.418182" style="stroke: #000000; stroke-width: 0.8"/>
      </g>
     </g>
     <g id="text_9">
      <!-- 0.5 -->
      <g transform="translate(31.342188 213.916229) scale(0.25 -0.25)">
       <use xlink:href="#DejaVuSerif-30"/>
       <use xlink:href="#DejaVuSerif-2e" x="63.623047"/>
       <use xlink:href="#DejaVuSerif-35" x="95.410156"/>
      </g>
     </g>
    </g>
    <g id="ytick_3">
     <g id="line2d_17">
      <path d="M 78.1 142.1 
L 715 142.1 
" clip-path="url(#p662c81223e)" style="fill: none; stroke: #b0b0b0; stroke-width: 0.8; stroke-linecap: square"/>
     </g>
     <g id="line2d_18">
      <g>
       <use xlink:href="#m2236f1f9b9" x="78.1" y="142.1" style="stroke: #000000; stroke-width: 0.8"/>
      </g>
     </g>
     <g id="text_10">
      <!-- 1.0 -->
      <g transform="translate(31.342188 151.598047) scale(0.25 -0.25)">
       <use xlink:href="#DejaVuSerif-31"/>
       <use xlink:href="#DejaVuSerif-2e" x="63.623047"/>
       <use xlink:href="#DejaVuSerif-30" x="95.410156"/>
      </g>
     </g>
    </g>
    <g id="ytick_4">
     <g id="line2d_19">
      <path d="M 78.1 79.781818 
L 715 79.781818 
" clip-path="url(#p662c81223e)" style="fill: none; stroke: #b0b0b0; stroke-width: 0.8; stroke-linecap: square"/>
     </g>
     <g id="line2d_20">
      <g>
       <use xlink:href="#m2236f1f9b9" x="78.1" y="79.781818" style="stroke: #000000; stroke-width: 0.8"/>
      </g>
     </g>
     <g id="text_11">
      <!-- 1.5 -->
      <g transform="translate(31.342188 89.279865) scale(0.25 -0.25)">
       <use xlink:href="#DejaVuSerif-31"/>
       <use xlink:href="#DejaVuSerif-2e" x="63.623047"/>
       <use xlink:href="#DejaVuSerif-35" x="95.410156"/>
      </g>
     </g>
    </g>
    <g id="ytick_5">
     <g id="line2d_21">
      <path d="M 78.1 17.463636 
L 715 17.463636 
" clip-path="url(#p662c81223e)" style="fill: none; stroke: #b0b0b0; stroke-width: 0.8; stroke-linecap: square"/>
     </g>
     <g id="line2d_22">
      <g>
       <use xlink:href="#m2236f1f9b9" x="78.1" y="17.463636" style="stroke: #000000; stroke-width: 0.8"/>
      </g>
     </g>
     <g id="text_12">
      <!-- 2.0 -->
      <g transform="translate(31.342188 26.961683) scale(0.25 -0.25)">
       <use xlink:href="#DejaVuSerif-32"/>
       <use xlink:href="#DejaVuSerif-2e" x="63.623047"/>
       <use xlink:href="#DejaVuSerif-30" x="95.410156"/>
      </g>
     </g>
    </g>
    <g id="text_13">
     <!-- Bandwidth Overhead Cost -->
     <g transform="translate(22.558906 295.303359) rotate(-90) scale(0.23 -0.23)">
      <defs>
       <path id="DejaVuSerif-42" d="M 1581 331 
L 2516 331 
Q 3078 331 3337 575 
Q 3597 819 3597 1350 
Q 3597 1878 3339 2120 
Q 3081 2363 2516 2363 
L 1581 2363 
L 1581 331 
z
M 1581 2694 
L 2375 2694 
Q 2888 2694 3123 2891 
Q 3359 3088 3359 3513 
Q 3359 3941 3123 4136 
Q 2888 4331 2375 4331 
L 1581 4331 
L 1581 2694 
z
M 353 0 
L 353 331 
L 947 331 
L 947 4331 
L 353 4331 
L 353 4666 
L 2656 4666 
Q 3363 4666 3720 4377 
Q 4078 4088 4078 3513 
Q 4078 3097 3829 2850 
Q 3581 2603 3103 2547 
Q 3697 2472 4005 2167 
Q 4313 1863 4313 1350 
Q 4313 656 3875 328 
Q 3438 0 2509 0 
L 353 0 
z
" transform="scale(0.015625)"/>
       <path id="DejaVuSerif-61" d="M 2547 1044 
L 2547 1747 
L 1806 1747 
Q 1378 1747 1168 1562 
Q 959 1378 959 997 
Q 959 650 1171 447 
Q 1384 244 1747 244 
Q 2106 244 2326 466 
Q 2547 688 2547 1044 
z
M 3122 2075 
L 3122 331 
L 3634 331 
L 3634 0 
L 2547 0 
L 2547 359 
Q 2356 128 2106 18 
Q 1856 -91 1522 -91 
Q 969 -91 644 203 
Q 319 497 319 997 
Q 319 1513 691 1797 
Q 1063 2081 1741 2081 
L 2547 2081 
L 2547 2309 
Q 2547 2688 2317 2895 
Q 2088 3103 1672 3103 
Q 1328 3103 1125 2947 
Q 922 2791 872 2484 
L 575 2484 
L 575 3156 
Q 875 3284 1158 3348 
Q 1441 3413 1709 3413 
Q 2400 3413 2761 3070 
Q 3122 2728 3122 2075 
z
" transform="scale(0.015625)"/>
       <path id="DejaVuSerif-6e" d="M 263 0 
L 263 331 
L 781 331 
L 781 2988 
L 231 2988 
L 231 3322 
L 1356 3322 
L 1356 2731 
Q 1516 3069 1770 3241 
Q 2025 3413 2363 3413 
Q 2913 3413 3172 3097 
Q 3431 2781 3431 2113 
L 3431 331 
L 3944 331 
L 3944 0 
L 2356 0 
L 2356 331 
L 2853 331 
L 2853 1931 
Q 2853 2541 2703 2767 
Q 2553 2994 2175 2994 
Q 1775 2994 1565 2701 
Q 1356 2409 1356 1850 
L 1356 331 
L 1856 331 
L 1856 0 
L 263 0 
z
" transform="scale(0.015625)"/>
       <path id="DejaVuSerif-64" d="M 3359 331 
L 3909 331 
L 3909 0 
L 2784 0 
L 2784 519 
Q 2616 206 2355 57 
Q 2094 -91 1709 -91 
Q 1097 -91 708 395 
Q 319 881 319 1663 
Q 319 2444 706 2928 
Q 1094 3413 1709 3413 
Q 2094 3413 2355 3264 
Q 2616 3116 2784 2803 
L 2784 4531 
L 2241 4531 
L 2241 4863 
L 3359 4863 
L 3359 331 
z
M 2784 1497 
L 2784 1825 
Q 2784 2422 2554 2737 
Q 2325 3053 1888 3053 
Q 1444 3053 1217 2703 
Q 991 2353 991 1663 
Q 991 975 1217 622 
Q 1444 269 1888 269 
Q 2325 269 2554 583 
Q 2784 897 2784 1497 
z
" transform="scale(0.015625)"/>
       <path id="DejaVuSerif-77" d="M 3072 3322 
L 3922 728 
L 4672 2988 
L 4191 2988 
L 4191 3322 
L 5394 3322 
L 5394 2988 
L 5025 2988 
L 4038 0 
L 3559 0 
L 2741 2484 
L 1919 0 
L 1459 0 
L 475 2988 
L 103 2988 
L 103 3322 
L 1606 3322 
L 1606 2988 
L 1069 2988 
L 1813 728 
L 2669 3322 
L 3072 3322 
z
" transform="scale(0.015625)"/>
       <path id="DejaVuSerif-69" d="M 622 4353 
Q 622 4497 726 4603 
Q 831 4709 978 4709 
Q 1122 4709 1226 4603 
Q 1331 4497 1331 4353 
Q 1331 4206 1228 4103 
Q 1125 4000 978 4000 
Q 831 4000 726 4103 
Q 622 4206 622 4353 
z
M 1356 331 
L 1900 331 
L 1900 0 
L 231 0 
L 231 331 
L 781 331 
L 781 2988 
L 231 2988 
L 231 3322 
L 1356 3322 
L 1356 331 
z
" transform="scale(0.015625)"/>
       <path id="DejaVuSerif-74" d="M 691 2988 
L 184 2988 
L 184 3322 
L 691 3322 
L 691 4353 
L 1269 4353 
L 1269 3322 
L 2350 3322 
L 2350 2988 
L 1269 2988 
L 1269 878 
Q 1269 456 1350 337 
Q 1431 219 1650 219 
Q 1875 219 1978 351 
Q 2081 484 2088 781 
L 2522 781 
Q 2497 328 2275 118 
Q 2053 -91 1600 -91 
Q 1103 -91 897 129 
Q 691 350 691 878 
L 691 2988 
z
" transform="scale(0.015625)"/>
       <path id="DejaVuSerif-68" d="M 263 0 
L 263 331 
L 781 331 
L 781 4531 
L 231 4531 
L 231 4863 
L 1356 4863 
L 1356 2731 
Q 1516 3069 1770 3241 
Q 2025 3413 2363 3413 
Q 2913 3413 3172 3097 
Q 3431 2781 3431 2113 
L 3431 331 
L 3944 331 
L 3944 0 
L 2356 0 
L 2356 331 
L 2853 331 
L 2853 1931 
Q 2853 2541 2704 2764 
Q 2556 2988 2175 2988 
Q 1775 2988 1565 2697 
Q 1356 2406 1356 1850 
L 1356 331 
L 1856 331 
L 1856 0 
L 263 0 
z
" transform="scale(0.015625)"/>
       <path id="DejaVuSerif-20" transform="scale(0.015625)"/>
       <path id="DejaVuSerif-4f" d="M 2625 244 
Q 3391 244 3781 770 
Q 4172 1297 4172 2328 
Q 4172 3363 3781 3889 
Q 3391 4416 2625 4416 
Q 1856 4416 1465 3889 
Q 1075 3363 1075 2328 
Q 1075 1297 1465 770 
Q 1856 244 2625 244 
z
M 2625 -91 
Q 2150 -91 1751 65 
Q 1353 222 1050 525 
Q 700 875 529 1319 
Q 359 1763 359 2328 
Q 359 2894 529 3339 
Q 700 3784 1050 4134 
Q 1356 4441 1750 4595 
Q 2144 4750 2625 4750 
Q 3641 4750 4266 4084 
Q 4891 3419 4891 2328 
Q 4891 1769 4719 1320 
Q 4547 872 4197 525 
Q 3891 219 3497 64 
Q 3103 -91 2625 -91 
z
" transform="scale(0.015625)"/>
       <path id="DejaVuSerif-76" d="M 1581 0 
L 359 2988 
L -19 2988 
L -19 3322 
L 1509 3322 
L 1509 2988 
L 978 2988 
L 1913 703 
L 2847 2988 
L 2350 2988 
L 2350 3322 
L 3597 3322 
L 3597 2988 
L 3225 2988 
L 2003 0 
L 1581 0 
z
" transform="scale(0.015625)"/>
       <path id="DejaVuSerif-65" d="M 3469 1600 
L 991 1600 
L 991 1575 
Q 991 903 1244 561 
Q 1497 219 1991 219 
Q 2369 219 2611 417 
Q 2853 616 2950 1006 
L 3413 1006 
Q 3275 459 2904 184 
Q 2534 -91 1931 -91 
Q 1203 -91 761 389 
Q 319 869 319 1663 
Q 319 2450 753 2931 
Q 1188 3413 1894 3413 
Q 2647 3413 3050 2948 
Q 3453 2484 3469 1600 
z
M 2791 1931 
Q 2772 2513 2545 2808 
Q 2319 3103 1894 3103 
Q 1497 3103 1269 2806 
Q 1041 2509 991 1931 
L 2791 1931 
z
" transform="scale(0.015625)"/>
       <path id="DejaVuSerif-72" d="M 3059 3328 
L 3059 2497 
L 2728 2497 
Q 2713 2744 2591 2866 
Q 2469 2988 2234 2988 
Q 1809 2988 1582 2694 
Q 1356 2400 1356 1850 
L 1356 331 
L 2022 331 
L 2022 0 
L 263 0 
L 263 331 
L 781 331 
L 781 2994 
L 231 2994 
L 231 3322 
L 1356 3322 
L 1356 2731 
Q 1525 3078 1790 3245 
Q 2056 3413 2438 3413 
Q 2578 3413 2733 3391 
Q 2888 3369 3059 3328 
z
" transform="scale(0.015625)"/>
       <path id="DejaVuSerif-43" d="M 4513 1234 
Q 4306 581 3820 245 
Q 3334 -91 2591 -91 
Q 2134 -91 1743 65 
Q 1353 222 1050 525 
Q 700 875 529 1320 
Q 359 1766 359 2328 
Q 359 3416 987 4083 
Q 1616 4750 2644 4750 
Q 3025 4750 3456 4650 
Q 3888 4550 4384 4347 
L 4384 3272 
L 4031 3272 
Q 3916 3859 3567 4137 
Q 3219 4416 2591 4416 
Q 1844 4416 1459 3886 
Q 1075 3356 1075 2328 
Q 1075 1303 1459 773 
Q 1844 244 2591 244 
Q 3113 244 3450 492 
Q 3788 741 3938 1234 
L 4513 1234 
z
" transform="scale(0.015625)"/>
       <path id="DejaVuSerif-6f" d="M 1925 219 
Q 2388 219 2623 584 
Q 2859 950 2859 1663 
Q 2859 2375 2623 2739 
Q 2388 3103 1925 3103 
Q 1463 3103 1227 2739 
Q 991 2375 991 1663 
Q 991 950 1228 584 
Q 1466 219 1925 219 
z
M 1925 -91 
Q 1200 -91 759 389 
Q 319 869 319 1663 
Q 319 2456 758 2934 
Q 1197 3413 1925 3413 
Q 2653 3413 3092 2934 
Q 3531 2456 3531 1663 
Q 3531 869 3092 389 
Q 2653 -91 1925 -91 
z
" transform="scale(0.015625)"/>
       <path id="DejaVuSerif-73" d="M 359 184 
L 359 959 
L 691 959 
Q 703 588 923 403 
Q 1144 219 1575 219 
Q 1963 219 2166 364 
Q 2369 509 2369 788 
Q 2369 1006 2220 1140 
Q 2072 1275 1594 1428 
L 1178 1569 
Q 750 1706 558 1912 
Q 366 2119 366 2438 
Q 366 2894 700 3153 
Q 1034 3413 1625 3413 
Q 1888 3413 2178 3344 
Q 2469 3275 2778 3144 
L 2778 2419 
L 2447 2419 
Q 2434 2741 2221 2922 
Q 2009 3103 1644 3103 
Q 1281 3103 1095 2975 
Q 909 2847 909 2591 
Q 909 2381 1050 2254 
Q 1191 2128 1613 1997 
L 2069 1856 
Q 2541 1709 2748 1489 
Q 2956 1269 2956 922 
Q 2956 450 2595 179 
Q 2234 -91 1600 -91 
Q 1278 -91 972 -22 
Q 666 47 359 184 
z
" transform="scale(0.015625)"/>
      </defs>
      <use xlink:href="#DejaVuSerif-42"/>
      <use xlink:href="#DejaVuSerif-61" x="73.486328"/>
      <use xlink:href="#DejaVuSerif-6e" x="133.105469"/>
      <use xlink:href="#DejaVuSerif-64" x="197.509766"/>
      <use xlink:href="#DejaVuSerif-77" x="261.523438"/>
      <use xlink:href="#DejaVuSerif-69" x="347.119141"/>
      <use xlink:href="#DejaVuSerif-64" x="379.101562"/>
      <use xlink:href="#DejaVuSerif-74" x="443.115234"/>
      <use xlink:href="#DejaVuSerif-68" x="483.300781"/>
      <use xlink:href="#DejaVuSerif-20" x="547.705078"/>
      <use xlink:href="#DejaVuSerif-4f" x="579.492188"/>
      <use xlink:href="#DejaVuSerif-76" x="661.474609"/>
      <use xlink:href="#DejaVuSerif-65" x="717.96875"/>
      <use xlink:href="#DejaVuSerif-72" x="777.148438"/>
      <use xlink:href="#DejaVuSerif-68" x="824.951172"/>
      <use xlink:href="#DejaVuSerif-65" x="889.355469"/>
      <use xlink:href="#DejaVuSerif-61" x="948.535156"/>
      <use xlink:href="#DejaVuSerif-64" x="1008.154297"/>
      <use xlink:href="#DejaVuSerif-20" x="1072.167969"/>
      <use xlink:href="#DejaVuSerif-43" x="1103.955078"/>
      <use xlink:href="#DejaVuSerif-6f" x="1180.46875"/>
      <use xlink:href="#DejaVuSerif-73" x="1240.673828"/>
      <use xlink:href="#DejaVuSerif-74" x="1291.992188"/>
     </g>
    </g>
   </g>
   <g id="line2d_23">
    <path d="M 107.05 266.736364 
L 116.863559 266.736364 
L 126.677119 266.736364 
L 136.490678 266.736364 
L 146.304237 266.736364 
L 156.117797 266.736364 
L 165.931356 266.736364 
L 175.744915 266.736364 
L 185.558475 266.736364 
L 195.372034 266.736364 
L 205.185593 266.736364 
L 214.999153 266.736364 
L 224.812712 266.736364 
L 234.626271 266.736364 
L 244.439831 266.736364 
L 254.25339 266.736364 
L 264.066949 266.736364 
L 273.880508 266.736364 
L 283.694068 266.736364 
L 293.507627 266.736364 
L 303.321186 266.736364 
L 313.134746 266.736364 
L 322.948305 266.736364 
L 332.761864 266.736364 
L 342.575424 266.736364 
L 352.388983 266.736364 
L 362.202542 266.736364 
L 372.016102 266.736364 
L 381.829661 266.736364 
L 391.64322 266.736364 
L 401.45678 266.736364 
L 411.270339 266.736364 
L 421.083898 266.736364 
L 430.897458 266.736364 
L 440.711017 266.736364 
L 450.524576 266.736364 
L 460.338136 266.736364 
L 470.151695 266.736364 
L 479.965254 266.736364 
L 489.778814 266.736364 
L 499.592373 266.736364 
L 509.405932 266.736364 
L 519.219492 266.736364 
L 529.033051 266.736364 
L 538.84661 266.736364 
L 548.660169 266.736364 
L 558.473729 266.736364 
L 568.287288 266.736364 
L 578.100847 266.736364 
L 587.914407 266.736364 
L 597.727966 266.736364 
L 607.541525 266.736364 
L 617.355085 266.736364 
L 627.168644 266.736364 
L 636.982203 266.736364 
L 646.795763 266.736364 
L 656.609322 266.736364 
L 666.422881 266.736364 
L 676.236441 266.736364 
L 686.05 266.736364 
" clip-path="url(#p662c81223e)" style="fill: none; stroke-dasharray: 18.5,8; stroke-dashoffset: 0; stroke: #00eeee; stroke-width: 5"/>
    <defs>
     <path id="m52d4fd8075" d="M 8.5 0 
L -8.5 -8.5 
L -8.5 8.5 
z
" style="stroke: #00eeee; stroke-width: 4; stroke-linejoin: miter"/>
    </defs>
    <g clip-path="url(#p662c81223e)">
     <use xlink:href="#m52d4fd8075" x="107.05" y="266.736364" style="fill-opacity: 0; stroke: #00eeee; stroke-width: 4; stroke-linejoin: miter"/>
     <use xlink:href="#m52d4fd8075" x="175.744915" y="266.736364" style="fill-opacity: 0; stroke: #00eeee; stroke-width: 4; stroke-linejoin: miter"/>
     <use xlink:href="#m52d4fd8075" x="244.439831" y="266.736364" style="fill-opacity: 0; stroke: #00eeee; stroke-width: 4; stroke-linejoin: miter"/>
     <use xlink:href="#m52d4fd8075" x="313.134746" y="266.736364" style="fill-opacity: 0; stroke: #00eeee; stroke-width: 4; stroke-linejoin: miter"/>
     <use xlink:href="#m52d4fd8075" x="381.829661" y="266.736364" style="fill-opacity: 0; stroke: #00eeee; stroke-width: 4; stroke-linejoin: miter"/>
     <use xlink:href="#m52d4fd8075" x="450.524576" y="266.736364" style="fill-opacity: 0; stroke: #00eeee; stroke-width: 4; stroke-linejoin: miter"/>
     <use xlink:href="#m52d4fd8075" x="519.219492" y="266.736364" style="fill-opacity: 0; stroke: #00eeee; stroke-width: 4; stroke-linejoin: miter"/>
     <use xlink:href="#m52d4fd8075" x="587.914407" y="266.736364" style="fill-opacity: 0; stroke: #00eeee; stroke-width: 4; stroke-linejoin: miter"/>
     <use xlink:href="#m52d4fd8075" x="656.609322" y="266.736364" style="fill-opacity: 0; stroke: #00eeee; stroke-width: 4; stroke-linejoin: miter"/>
    </g>
   </g>
   <g id="line2d_24">
    <path d="M 107.05 17.463636 
L 116.863559 17.463636 
L 126.677119 17.463636 
L 136.490678 17.463636 
L 146.304237 17.463636 
L 156.117797 17.463636 
L 165.931356 17.463636 
L 175.744915 17.463636 
L 185.558475 17.463636 
L 195.372034 17.463636 
L 205.185593 17.463636 
L 214.999153 17.463636 
L 224.812712 17.463636 
L 234.626271 17.463636 
L 244.439831 17.463636 
L 254.25339 17.463636 
L 264.066949 17.463636 
L 273.880508 17.463636 
L 283.694068 17.463636 
L 293.507627 17.463636 
L 303.321186 17.463636 
L 313.134746 17.463636 
L 322.948305 17.463636 
L 332.761864 17.463636 
L 342.575424 17.463636 
L 352.388983 17.463636 
L 362.202542 17.463636 
L 372.016102 17.463636 
L 381.829661 17.463636 
L 391.64322 17.463636 
L 401.45678 17.463636 
L 411.270339 17.463636 
L 421.083898 17.463636 
L 430.897458 17.463636 
L 440.711017 17.463636 
L 450.524576 17.463636 
L 460.338136 17.463636 
L 470.151695 17.463636 
L 479.965254 17.463636 
L 489.778814 17.463636 
L 499.592373 17.463636 
L 509.405932 17.463636 
L 519.219492 17.463636 
L 529.033051 17.463636 
L 538.84661 17.463636 
L 548.660169 17.463636 
L 558.473729 17.463636 
L 568.287288 17.463636 
L 578.100847 17.463636 
L 587.914407 17.463636 
L 597.727966 17.463636 
L 607.541525 17.463636 
L 617.355085 17.463636 
L 627.168644 17.463636 
L 636.982203 17.463636 
L 646.795763 17.463636 
L 656.609322 17.463636 
L 666.422881 17.463636 
L 676.236441 17.463636 
L 686.05 17.463636 
" clip-path="url(#p662c81223e)" style="fill: none; stroke-dasharray: 18.5,8; stroke-dashoffset: 0; stroke: #eeee00; stroke-width: 5"/>
    <defs>
     <path id="m0a74b32be3" d="M -8.5 -0 
L 8.5 8.5 
L 8.5 -8.5 
z
" style="stroke: #eeee00; stroke-width: 4; stroke-linejoin: miter"/>
    </defs>
    <g clip-path="url(#p662c81223e)">
     <use xlink:href="#m0a74b32be3" x="107.05" y="17.463636" style="fill-opacity: 0; stroke: #eeee00; stroke-width: 4; stroke-linejoin: miter"/>
     <use xlink:href="#m0a74b32be3" x="175.744915" y="17.463636" style="fill-opacity: 0; stroke: #eeee00; stroke-width: 4; stroke-linejoin: miter"/>
     <use xlink:href="#m0a74b32be3" x="244.439831" y="17.463636" style="fill-opacity: 0; stroke: #eeee00; stroke-width: 4; stroke-linejoin: miter"/>
     <use xlink:href="#m0a74b32be3" x="313.134746" y="17.463636" style="fill-opacity: 0; stroke: #eeee00; stroke-width: 4; stroke-linejoin: miter"/>
     <use xlink:href="#m0a74b32be3" x="381.829661" y="17.463636" style="fill-opacity: 0; stroke: #eeee00; stroke-width: 4; stroke-linejoin: miter"/>
     <use xlink:href="#m0a74b32be3" x="450.524576" y="17.463636" style="fill-opacity: 0; stroke: #eeee00; stroke-width: 4; stroke-linejoin: miter"/>
     <use xlink:href="#m0a74b32be3" x="519.219492" y="17.463636" style="fill-opacity: 0; stroke: #eeee00; stroke-width: 4; stroke-linejoin: miter"/>
     <use xlink:href="#m0a74b32be3" x="587.914407" y="17.463636" style="fill-opacity: 0; stroke: #eeee00; stroke-width: 4; stroke-linejoin: miter"/>
     <use xlink:href="#m0a74b32be3" x="656.609322" y="17.463636" style="fill-opacity: 0; stroke: #eeee00; stroke-width: 4; stroke-linejoin: miter"/>
    </g>
   </g>
   <g id="line2d_25">
    <path d="M 107.05 241.809091 
L 116.863559 229.345455 
L 126.677119 233.5 
L 136.490678 235.577273 
L 146.304237 241.809091 
L 156.117797 241.809091 
L 165.931356 245.37013 
L 175.744915 248.040909 
L 185.558475 250.118182 
L 195.372034 249.287273 
L 205.185593 246.341322 
L 214.999153 235.577273 
L 224.812712 232.221678 
L 234.626271 234.687013 
L 244.439831 235.161818 
L 254.25339 237.135227 
L 264.066949 238.876471 
L 273.880508 239.039394 
L 283.694068 239.185167 
L 293.507627 236.823636 
L 303.321186 235.874026 
L 313.134746 236.143802 
L 322.948305 237.473913 
L 332.761864 238.693182 
L 342.575424 239.814909 
L 352.388983 239.891608 
L 362.202542 239.039394 
L 372.016102 239.138312 
L 381.829661 239.230408 
L 391.64322 240.147273 
L 401.45678 239.396774 
L 411.270339 239.472159 
L 421.083898 240.298347 
L 430.897458 241.075936 
L 440.711017 240.384675 
L 450.524576 239.039394 
L 460.338136 239.787961 
L 470.151695 239.841148 
L 479.965254 239.891608 
L 489.778814 240.562727 
L 499.592373 241.201109 
L 509.405932 239.435065 
L 519.219492 240.069979 
L 529.033051 239.542975 
L 538.84661 239.593333 
L 548.660169 240.183399 
L 558.473729 239.687621 
L 568.287288 237.654545 
L 578.100847 236.721892 
L 587.914407 237.322182 
L 597.727966 236.43262 
L 607.541525 236.056643 
L 617.355085 236.635506 
L 627.168644 236.731313 
L 636.982203 237.27686 
L 646.795763 237.802922 
L 656.609322 238.310526 
L 666.422881 238.800627 
L 676.236441 239.274114 
L 686.05 239.731818 
" clip-path="url(#p662c81223e)" style="fill: none; stroke: #118811; stroke-width: 5; stroke-linecap: square"/>
    <defs>
     <path id="mc99321029d" d="M 0 8.5 
C 2.254226 8.5 4.416429 7.604386 6.010408 6.010408 
C 7.604386 4.416429 8.5 2.254226 8.5 0 
C 8.5 -2.254226 7.604386 -4.416429 6.010408 -6.010408 
C 4.416429 -7.604386 2.254226 -8.5 0 -8.5 
C -2.254226 -8.5 -4.416429 -7.604386 -6.010408 -6.010408 
C -7.604386 -4.416429 -8.5 -2.254226 -8.5 0 
C -8.5 2.254226 -7.604386 4.416429 -6.010408 6.010408 
C -4.416429 7.604386 -2.254226 8.5 0 8.5 
z
" style="stroke: #118811; stroke-width: 4"/>
    </defs>
    <g clip-path="url(#p662c81223e)">
     <use xlink:href="#mc99321029d" x="107.05" y="241.809091" style="fill-opacity: 0; stroke: #118811; stroke-width: 4"/>
     <use xlink:href="#mc99321029d" x="175.744915" y="248.040909" style="fill-opacity: 0; stroke: #118811; stroke-width: 4"/>
     <use xlink:href="#mc99321029d" x="244.439831" y="235.161818" style="fill-opacity: 0; stroke: #118811; stroke-width: 4"/>
     <use xlink:href="#mc99321029d" x="313.134746" y="236.143802" style="fill-opacity: 0; stroke: #118811; stroke-width: 4"/>
     <use xlink:href="#mc99321029d" x="381.829661" y="239.230408" style="fill-opacity: 0; stroke: #118811; stroke-width: 4"/>
     <use xlink:href="#mc99321029d" x="450.524576" y="239.039394" style="fill-opacity: 0; stroke: #118811; stroke-width: 4"/>
     <use xlink:href="#mc99321029d" x="519.219492" y="240.069979" style="fill-opacity: 0; stroke: #118811; stroke-width: 4"/>
     <use xlink:href="#mc99321029d" x="587.914407" y="237.322182" style="fill-opacity: 0; stroke: #118811; stroke-width: 4"/>
     <use xlink:href="#mc99321029d" x="656.609322" y="238.310526" style="fill-opacity: 0; stroke: #118811; stroke-width: 4"/>
    </g>
   </g>
   <g id="patch_3">
    <path d="M 78.1 279.2 
L 78.1 5 
" style="fill: none; stroke: #000000; stroke-width: 0.8; stroke-linejoin: miter; stroke-linecap: square"/>
   </g>
   <g id="patch_4">
    <path d="M 715 279.2 
L 715 5 
" style="fill: none; stroke: #000000; stroke-width: 0.8; stroke-linejoin: miter; stroke-linecap: square"/>
   </g>
   <g id="patch_5">
    <path d="M 78.1 279.2 
L 715 279.2 
" style="fill: none; stroke: #000000; stroke-width: 0.8; stroke-linejoin: miter; stroke-linecap: square"/>
   </g>
   <g id="patch_6">
    <path d="M 78.1 5 
L 715 5 
" style="fill: none; stroke: #000000; stroke-width: 0.8; stroke-linejoin: miter; stroke-linecap: square"/>
   </g>
   <g id="legend_1">
    <g id="patch_7">
     <path d="M 472.486563 184.430937 
L 702.4 184.430937 
Q 706 184.430937 706 180.830938 
L 706 103.369063 
Q 706 99.769063 702.4 99.769063 
L 472.486563 99.769063 
Q 468.886563 99.769063 468.886563 103.369063 
L 468.886563 180.830938 
Q 468.886563 184.430937 472.486563 184.430937 
z
" style="fill: #ffffff; opacity: 0.8; stroke: #cccccc; stroke-linejoin: miter"/>
    </g>
    <g id="line2d_26">
     <path d="M 476.086563 114.34625 
L 512.086563 114.34625 
" style="fill: none; stroke-dasharray: 18.5,8; stroke-dashoffset: 0; stroke: #00eeee; stroke-width: 5"/>
    </g>
    <g id="line2d_27">
     <g>
      <use xlink:href="#m52d4fd8075" x="494.086563" y="114.34625" style="fill-opacity: 0; stroke: #00eeee; stroke-width: 4; stroke-linejoin: miter"/>
     </g>
    </g>
    <g id="text_14">
     <!-- No Isolation -->
     <g transform="translate(526.486562 120.64625) scale(0.18 -0.18)">
      <defs>
       <path id="DejaVuSerif-4e" d="M 313 0 
L 313 331 
L 941 331 
L 941 4331 
L 313 4331 
L 313 4666 
L 1509 4666 
L 4306 984 
L 4306 4331 
L 3681 4331 
L 3681 4666 
L 5319 4666 
L 5319 4331 
L 4691 4331 
L 4691 -91 
L 4313 -91 
L 1325 3841 
L 1325 331 
L 1953 331 
L 1953 0 
L 313 0 
z
" transform="scale(0.015625)"/>
       <path id="DejaVuSerif-49" d="M 1581 331 
L 2175 331 
L 2175 0 
L 353 0 
L 353 331 
L 947 331 
L 947 4331 
L 353 4331 
L 353 4666 
L 2175 4666 
L 2175 4331 
L 1581 4331 
L 1581 331 
z
" transform="scale(0.015625)"/>
       <path id="DejaVuSerif-6c" d="M 1313 331 
L 1856 331 
L 1856 0 
L 184 0 
L 184 331 
L 738 331 
L 738 4531 
L 184 4531 
L 184 4863 
L 1313 4863 
L 1313 331 
z
" transform="scale(0.015625)"/>
      </defs>
      <use xlink:href="#DejaVuSerif-4e"/>
      <use xlink:href="#DejaVuSerif-6f" x="87.5"/>
      <use xlink:href="#DejaVuSerif-20" x="147.705078"/>
      <use xlink:href="#DejaVuSerif-49" x="179.492188"/>
      <use xlink:href="#DejaVuSerif-73" x="218.994141"/>
      <use xlink:href="#DejaVuSerif-6f" x="270.3125"/>
      <use xlink:href="#DejaVuSerif-6c" x="330.517578"/>
      <use xlink:href="#DejaVuSerif-61" x="362.5"/>
      <use xlink:href="#DejaVuSerif-74" x="422.119141"/>
      <use xlink:href="#DejaVuSerif-69" x="462.304688"/>
      <use xlink:href="#DejaVuSerif-6f" x="494.287109"/>
      <use xlink:href="#DejaVuSerif-6e" x="554.492188"/>
     </g>
    </g>
    <g id="line2d_28">
     <path d="M 476.086563 140.766875 
L 512.086563 140.766875 
" style="fill: none; stroke-dasharray: 18.5,8; stroke-dashoffset: 0; stroke: #eeee00; stroke-width: 5"/>
    </g>
    <g id="line2d_29">
     <g>
      <use xlink:href="#m0a74b32be3" x="494.086563" y="140.766875" style="fill-opacity: 0; stroke: #eeee00; stroke-width: 4; stroke-linejoin: miter"/>
     </g>
    </g>
    <g id="text_15">
     <!-- Complete Isolation -->
     <g transform="translate(526.486562 147.066875) scale(0.18 -0.18)">
      <defs>
       <path id="DejaVuSerif-6d" d="M 3316 2675 
Q 3481 3041 3739 3227 
Q 3997 3413 4341 3413 
Q 4863 3413 5119 3089 
Q 5375 2766 5375 2113 
L 5375 331 
L 5894 331 
L 5894 0 
L 4300 0 
L 4300 331 
L 4800 331 
L 4800 2047 
Q 4800 2556 4650 2772 
Q 4500 2988 4153 2988 
Q 3769 2988 3567 2697 
Q 3366 2406 3366 1850 
L 3366 331 
L 3866 331 
L 3866 0 
L 2291 0 
L 2291 331 
L 2791 331 
L 2791 2069 
Q 2791 2566 2641 2777 
Q 2491 2988 2144 2988 
Q 1759 2988 1557 2697 
Q 1356 2406 1356 1850 
L 1356 331 
L 1856 331 
L 1856 0 
L 263 0 
L 263 331 
L 781 331 
L 781 2994 
L 231 2994 
L 231 3322 
L 1356 3322 
L 1356 2731 
Q 1516 3063 1762 3238 
Q 2009 3413 2322 3413 
Q 2709 3413 2968 3220 
Q 3228 3028 3316 2675 
z
" transform="scale(0.015625)"/>
       <path id="DejaVuSerif-70" d="M 1313 1825 
L 1313 1497 
Q 1313 897 1542 583 
Q 1772 269 2209 269 
Q 2650 269 2876 622 
Q 3103 975 3103 1663 
Q 3103 2353 2876 2703 
Q 2650 3053 2209 3053 
Q 1772 3053 1542 2737 
Q 1313 2422 1313 1825 
z
M 738 2988 
L 184 2988 
L 184 3322 
L 1313 3322 
L 1313 2803 
Q 1481 3116 1742 3264 
Q 2003 3413 2388 3413 
Q 3000 3413 3387 2928 
Q 3775 2444 3775 1663 
Q 3775 881 3387 395 
Q 3000 -91 2388 -91 
Q 2003 -91 1742 57 
Q 1481 206 1313 519 
L 1313 -997 
L 1856 -997 
L 1856 -1331 
L 184 -1331 
L 184 -997 
L 738 -997 
L 738 2988 
z
" transform="scale(0.015625)"/>
      </defs>
      <use xlink:href="#DejaVuSerif-43"/>
      <use xlink:href="#DejaVuSerif-6f" x="76.513672"/>
      <use xlink:href="#DejaVuSerif-6d" x="136.71875"/>
      <use xlink:href="#DejaVuSerif-70" x="231.542969"/>
      <use xlink:href="#DejaVuSerif-6c" x="295.556641"/>
      <use xlink:href="#DejaVuSerif-65" x="327.539062"/>
      <use xlink:href="#DejaVuSerif-74" x="386.71875"/>
      <use xlink:href="#DejaVuSerif-65" x="426.904297"/>
      <use xlink:href="#DejaVuSerif-20" x="486.083984"/>
      <use xlink:href="#DejaVuSerif-49" x="517.871094"/>
      <use xlink:href="#DejaVuSerif-73" x="557.373047"/>
      <use xlink:href="#DejaVuSerif-6f" x="608.691406"/>
      <use xlink:href="#DejaVuSerif-6c" x="668.896484"/>
      <use xlink:href="#DejaVuSerif-61" x="700.878906"/>
      <use xlink:href="#DejaVuSerif-74" x="760.498047"/>
      <use xlink:href="#DejaVuSerif-69" x="800.683594"/>
      <use xlink:href="#DejaVuSerif-6f" x="832.666016"/>
      <use xlink:href="#DejaVuSerif-6e" x="892.871094"/>
     </g>
    </g>
    <g id="line2d_30">
     <path d="M 476.086563 167.1875 
L 512.086563 167.1875 
" style="fill: none; stroke: #118811; stroke-width: 5; stroke-linecap: square"/>
    </g>
    <g id="line2d_31">
     <g>
      <use xlink:href="#mc99321029d" x="494.086563" y="167.1875" style="fill-opacity: 0; stroke: #118811; stroke-width: 4"/>
     </g>
    </g>
    <g id="text_16">
     <!-- Isolation-aware -->
     <g transform="translate(526.486562 173.4875) scale(0.18 -0.18)">
      <defs>
       <path id="DejaVuSerif-2d" d="M 281 1959 
L 1881 1959 
L 1881 1472 
L 281 1472 
L 281 1959 
z
" transform="scale(0.015625)"/>
      </defs>
      <use xlink:href="#DejaVuSerif-49"/>
      <use xlink:href="#DejaVuSerif-73" x="39.501953"/>
      <use xlink:href="#DejaVuSerif-6f" x="90.820312"/>
      <use xlink:href="#DejaVuSerif-6c" x="151.025391"/>
      <use xlink:href="#DejaVuSerif-61" x="183.007812"/>
      <use xlink:href="#DejaVuSerif-74" x="242.626953"/>
      <use xlink:href="#DejaVuSerif-69" x="282.8125"/>
      <use xlink:href="#DejaVuSerif-6f" x="314.794922"/>
      <use xlink:href="#DejaVuSerif-6e" x="375"/>
      <use xlink:href="#DejaVuSerif-2d" x="439.404297"/>
      <use xlink:href="#DejaVuSerif-61" x="473.193359"/>
      <use xlink:href="#DejaVuSerif-77" x="532.8125"/>
      <use xlink:href="#DejaVuSerif-61" x="618.408203"/>
      <use xlink:href="#DejaVuSerif-72" x="678.027344"/>
      <use xlink:href="#DejaVuSerif-65" x="725.830078"/>
     </g>
    </g>
   </g>
  </g>
 </g>
 <defs>
  <clipPath id="p662c81223e">
   <rect x="78.1" y="5" width="636.9" height="274.2"/>
  </clipPath>
 </defs>
</svg>
