<?xml version="1.0" encoding="utf-8" standalone="no"?>
<!DOCTYPE svg PUBLIC "-//W3C//DTD SVG 1.1//EN"
  "http://www.w3.org/Graphics/SVG/1.1/DTD/svg11.dtd">
<svg xmlns:xlink="http://www.w3.org/1999/xlink" width="432pt" height="432pt" viewBox="0 0 432 432" xmlns="http://www.w3.org/2000/svg" version="1.1">
 <metadata>
  <rdf:RDF xmlns:dc="http://purl.org/dc/elements/1.1/" xmlns:cc="http://creativecommons.org/ns#" xmlns:rdf="http://www.w3.org/1999/02/22-rdf-syntax-ns#">
   <cc:Work>
    <dc:type rdf:resource="http://purl.org/dc/dcmitype/StillImage"/>
    <dc:date>2025-03-26T11:06:51.397113</dc:date>
    <dc:format>image/svg+xml</dc:format>
    <dc:creator>
     <cc:Agent>
      <dc:title>Matplotlib v3.8.0, https://matplotlib.org/</dc:title>
     </cc:Agent>
    </dc:creator>
   </cc:Work>
  </rdf:RDF>
 </metadata>
 <defs>
  <style type="text/css">*{stroke-linejoin: round; stroke-linecap: butt}</style>
 </defs>
 <g id="figure_1">
  <g id="patch_1">
   <path d="M 0 432 
L 432 432 
L 432 0 
L 0 0 
z
" style="fill: #ffffff"/>
  </g>
  <g id="axes_1">
   <g id="patch_2">
    <path d="M 61.09 377.12 
L 427 377.12 
L 427 5 
L 61.09 5 
z
" style="fill: #ffffff"/>
   </g>
   <g id="matplotlib.axis_1">
    <g id="xtick_1">
     <g id="line2d_1">
      <path d="M 77.722273 377.12 
L 77.722273 5 
" clip-path="url(#p150e14e1c1)" style="fill: none; stroke: #b0b0b0; stroke-width: 0.8; stroke-linecap: square"/>
     </g>
     <g id="line2d_2">
      <defs>
       <path id="m15db672ab7" d="M 0 0 
L 0 3.5 
" style="stroke: #000000; stroke-width: 0.8"/>
      </defs>
      <g>
       <use xlink:href="#m15db672ab7" x="77.722273" y="377.12" style="stroke: #000000; stroke-width: 0.8"/>
      </g>
     </g>
     <g id="text_1">
      <!-- 0 -->
      <g transform="translate(71.359773 399.316875) scale(0.2 -0.2)">
       <defs>
        <path id="DejaVuSerif-30" d="M 2034 219 
Q 2513 219 2750 744 
Q 2988 1269 2988 2328 
Q 2988 3391 2750 3916 
Q 2513 4441 2034 4441 
Q 1556 4441 1318 3916 
Q 1081 3391 1081 2328 
Q 1081 1269 1318 744 
Q 1556 219 2034 219 
z
M 2034 -91 
Q 1275 -91 848 546 
Q 422 1184 422 2328 
Q 422 3475 848 4112 
Q 1275 4750 2034 4750 
Q 2797 4750 3222 4112 
Q 3647 3475 3647 2328 
Q 3647 1184 3222 546 
Q 2797 -91 2034 -91 
z
" transform="scale(0.015625)"/>
       </defs>
       <use xlink:href="#DejaVuSerif-30"/>
      </g>
     </g>
    </g>
    <g id="text_2">
     <!-- $\it{t}$ -->
     <g transform="translate(240.045 422.673125) scale(0.2 -0.2)">
      <defs>
       <path id="DejaVuSans-Oblique-74" d="M 2706 3500 
L 2619 3053 
L 1472 3053 
L 1100 1153 
Q 1081 1047 1072 975 
Q 1063 903 1063 863 
Q 1063 663 1183 572 
Q 1303 481 1569 481 
L 2150 481 
L 2053 0 
L 1503 0 
Q 991 0 739 200 
Q 488 400 488 806 
Q 488 878 497 964 
Q 506 1050 525 1153 
L 897 3053 
L 409 3053 
L 500 3500 
L 978 3500 
L 1172 4494 
L 1747 4494 
L 1556 3500 
L 2706 3500 
z
" transform="scale(0.015625)"/>
      </defs>
      <use xlink:href="#DejaVuSans-Oblique-74" transform="translate(0 0.78125)"/>
     </g>
    </g>
   </g>
   <g id="matplotlib.axis_2">
    <g id="ytick_1">
     <g id="line2d_3">
      <path d="M 61.09 376.133991 
L 427 376.133991 
" clip-path="url(#p150e14e1c1)" style="fill: none; stroke: #b0b0b0; stroke-width: 0.8; stroke-linecap: square"/>
     </g>
     <g id="line2d_4">
      <defs>
       <path id="m43b2be8fcc" d="M 0 0 
L -3.5 0 
" style="stroke: #000000; stroke-width: 0.8"/>
      </defs>
      <g>
       <use xlink:href="#m43b2be8fcc" x="61.09" y="376.133991" style="stroke: #000000; stroke-width: 0.8"/>
      </g>
     </g>
     <g id="text_3">
      <!-- 0 -->
      <g transform="translate(41.365 383.732428) scale(0.2 -0.2)">
       <use xlink:href="#DejaVuSerif-30"/>
      </g>
     </g>
    </g>
    <g id="ytick_2">
     <g id="line2d_5">
      <path d="M 61.09 298.044704 
L 427 298.044704 
" clip-path="url(#p150e14e1c1)" style="fill: none; stroke: #b0b0b0; stroke-width: 0.8; stroke-linecap: square"/>
     </g>
     <g id="line2d_6">
      <g>
       <use xlink:href="#m43b2be8fcc" x="61.09" y="298.044704" style="stroke: #000000; stroke-width: 0.8"/>
      </g>
     </g>
     <g id="text_4">
      <!-- 5 -->
      <g transform="translate(41.365 305.643141) scale(0.2 -0.2)">
       <defs>
        <path id="DejaVuSerif-35" d="M 3219 4666 
L 3219 4153 
L 1081 4153 
L 1081 2816 
Q 1244 2928 1461 2984 
Q 1678 3041 1947 3041 
Q 2703 3041 3140 2622 
Q 3578 2203 3578 1478 
Q 3578 738 3136 323 
Q 2694 -91 1894 -91 
Q 1572 -91 1234 -12 
Q 897 66 544 225 
L 544 1131 
L 897 1131 
Q 925 688 1179 453 
Q 1434 219 1894 219 
Q 2388 219 2653 544 
Q 2919 869 2919 1478 
Q 2919 2084 2655 2407 
Q 2391 2731 1894 2731 
Q 1613 2731 1398 2631 
Q 1184 2531 1019 2322 
L 750 2322 
L 750 4666 
L 3219 4666 
z
" transform="scale(0.015625)"/>
       </defs>
       <use xlink:href="#DejaVuSerif-35"/>
      </g>
     </g>
    </g>
    <g id="ytick_3">
     <g id="line2d_7">
      <path d="M 61.09 219.955417 
L 427 219.955417 
" clip-path="url(#p150e14e1c1)" style="fill: none; stroke: #b0b0b0; stroke-width: 0.8; stroke-linecap: square"/>
     </g>
     <g id="line2d_8">
      <g>
       <use xlink:href="#m43b2be8fcc" x="61.09" y="219.955417" style="stroke: #000000; stroke-width: 0.8"/>
      </g>
     </g>
     <g id="text_5">
      <!-- 10 -->
      <g transform="translate(28.64 227.553855) scale(0.2 -0.2)">
       <defs>
        <path id="DejaVuSerif-31" d="M 909 0 
L 909 331 
L 1722 331 
L 1722 4213 
L 781 3603 
L 781 4013 
L 1919 4750 
L 2350 4750 
L 2350 331 
L 3163 331 
L 3163 0 
L 909 0 
z
" transform="scale(0.015625)"/>
       </defs>
       <use xlink:href="#DejaVuSerif-31"/>
       <use xlink:href="#DejaVuSerif-30" x="63.623047"/>
      </g>
     </g>
    </g>
    <g id="ytick_4">
     <g id="line2d_9">
      <path d="M 61.09 141.86613 
L 427 141.86613 
" clip-path="url(#p150e14e1c1)" style="fill: none; stroke: #b0b0b0; stroke-width: 0.8; stroke-linecap: square"/>
     </g>
     <g id="line2d_10">
      <g>
       <use xlink:href="#m43b2be8fcc" x="61.09" y="141.86613" style="stroke: #000000; stroke-width: 0.8"/>
      </g>
     </g>
     <g id="text_6">
      <!-- 15 -->
      <g transform="translate(28.64 149.464568) scale(0.2 -0.2)">
       <use xlink:href="#DejaVuSerif-31"/>
       <use xlink:href="#DejaVuSerif-35" x="63.623047"/>
      </g>
     </g>
    </g>
    <g id="ytick_5">
     <g id="line2d_11">
      <path d="M 61.09 63.776844 
L 427 63.776844 
" clip-path="url(#p150e14e1c1)" style="fill: none; stroke: #b0b0b0; stroke-width: 0.8; stroke-linecap: square"/>
     </g>
     <g id="line2d_12">
      <g>
       <use xlink:href="#m43b2be8fcc" x="61.09" y="63.776844" style="stroke: #000000; stroke-width: 0.8"/>
      </g>
     </g>
     <g id="text_7">
      <!-- 20 -->
      <g transform="translate(28.64 71.375281) scale(0.2 -0.2)">
       <defs>
        <path id="DejaVuSerif-32" d="M 819 3553 
L 469 3553 
L 469 4384 
Q 803 4563 1142 4656 
Q 1481 4750 1806 4750 
Q 2534 4750 2956 4397 
Q 3378 4044 3378 3438 
Q 3378 2753 2422 1800 
Q 2347 1728 2309 1691 
L 1131 513 
L 3078 513 
L 3078 1088 
L 3444 1088 
L 3444 0 
L 434 0 
L 434 341 
L 1850 1753 
Q 2319 2222 2519 2614 
Q 2719 3006 2719 3438 
Q 2719 3909 2473 4175 
Q 2228 4441 1797 4441 
Q 1350 4441 1106 4219 
Q 863 3997 819 3553 
z
" transform="scale(0.015625)"/>
       </defs>
       <use xlink:href="#DejaVuSerif-32"/>
       <use xlink:href="#DejaVuSerif-30" x="63.623047"/>
      </g>
     </g>
    </g>
    <g id="text_8">
     <!-- MIPS Resource Efficiency (%) -->
     <g transform="translate(20.19625 343.314687) rotate(-90) scale(0.2 -0.2)">
      <defs>
       <path id="DejaVuSerif-4d" d="M 353 0 
L 353 331 
L 947 331 
L 947 4331 
L 319 4331 
L 319 4666 
L 1678 4666 
L 3316 1344 
L 4953 4666 
L 6228 4666 
L 6228 4331 
L 5606 4331 
L 5606 331 
L 6203 331 
L 6203 0 
L 4378 0 
L 4378 331 
L 4972 331 
L 4972 3938 
L 3372 684 
L 2931 684 
L 1331 3938 
L 1331 331 
L 1925 331 
L 1925 0 
L 353 0 
z
" transform="scale(0.015625)"/>
       <path id="DejaVuSerif-49" d="M 1581 331 
L 2175 331 
L 2175 0 
L 353 0 
L 353 331 
L 947 331 
L 947 4331 
L 353 4331 
L 353 4666 
L 2175 4666 
L 2175 4331 
L 1581 4331 
L 1581 331 
z
" transform="scale(0.015625)"/>
       <path id="DejaVuSerif-50" d="M 1581 2375 
L 2406 2375 
Q 2872 2375 3115 2626 
Q 3359 2878 3359 3353 
Q 3359 3831 3115 4081 
Q 2872 4331 2406 4331 
L 1581 4331 
L 1581 2375 
z
M 353 0 
L 353 331 
L 947 331 
L 947 4331 
L 353 4331 
L 353 4666 
L 2559 4666 
Q 3259 4666 3668 4311 
Q 4078 3956 4078 3353 
Q 4078 2753 3668 2397 
Q 3259 2041 2559 2041 
L 1581 2041 
L 1581 331 
L 2303 331 
L 2303 0 
L 353 0 
z
" transform="scale(0.015625)"/>
       <path id="DejaVuSerif-53" d="M 594 225 
L 594 1288 
L 953 1284 
Q 969 753 1261 498 
Q 1553 244 2150 244 
Q 2706 244 2998 464 
Q 3291 684 3291 1106 
Q 3291 1444 3114 1625 
Q 2938 1806 2369 1978 
L 1753 2163 
Q 1084 2366 811 2669 
Q 538 2972 538 3500 
Q 538 4094 959 4422 
Q 1381 4750 2144 4750 
Q 2469 4750 2856 4679 
Q 3244 4609 3681 4475 
L 3681 3481 
L 3328 3481 
Q 3275 3975 2998 4195 
Q 2722 4416 2156 4416 
Q 1663 4416 1405 4214 
Q 1147 4013 1147 3628 
Q 1147 3294 1340 3103 
Q 1534 2913 2163 2725 
L 2741 2553 
Q 3375 2363 3645 2067 
Q 3916 1772 3916 1275 
Q 3916 597 3481 253 
Q 3047 -91 2188 -91 
Q 1803 -91 1404 -12 
Q 1006 66 594 225 
z
" transform="scale(0.015625)"/>
       <path id="DejaVuSerif-20" transform="scale(0.015625)"/>
       <path id="DejaVuSerif-52" d="M 3066 2316 
Q 3284 2256 3442 2114 
Q 3600 1972 3725 1716 
L 4403 331 
L 4972 331 
L 4972 0 
L 3872 0 
L 3144 1484 
Q 2934 1916 2759 2042 
Q 2584 2169 2278 2169 
L 1581 2169 
L 1581 331 
L 2241 331 
L 2241 0 
L 353 0 
L 353 331 
L 947 331 
L 947 4331 
L 353 4331 
L 353 4666 
L 2719 4666 
Q 3400 4666 3770 4341 
Q 4141 4016 4141 3419 
Q 4141 2938 3870 2661 
Q 3600 2384 3066 2316 
z
M 1581 2503 
L 2503 2503 
Q 2975 2503 3200 2726 
Q 3425 2950 3425 3419 
Q 3425 3888 3200 4109 
Q 2975 4331 2503 4331 
L 1581 4331 
L 1581 2503 
z
" transform="scale(0.015625)"/>
       <path id="DejaVuSerif-65" d="M 3469 1600 
L 991 1600 
L 991 1575 
Q 991 903 1244 561 
Q 1497 219 1991 219 
Q 2369 219 2611 417 
Q 2853 616 2950 1006 
L 3413 1006 
Q 3275 459 2904 184 
Q 2534 -91 1931 -91 
Q 1203 -91 761 389 
Q 319 869 319 1663 
Q 319 2450 753 2931 
Q 1188 3413 1894 3413 
Q 2647 3413 3050 2948 
Q 3453 2484 3469 1600 
z
M 2791 1931 
Q 2772 2513 2545 2808 
Q 2319 3103 1894 3103 
Q 1497 3103 1269 2806 
Q 1041 2509 991 1931 
L 2791 1931 
z
" transform="scale(0.015625)"/>
       <path id="DejaVuSerif-73" d="M 359 184 
L 359 959 
L 691 959 
Q 703 588 923 403 
Q 1144 219 1575 219 
Q 1963 219 2166 364 
Q 2369 509 2369 788 
Q 2369 1006 2220 1140 
Q 2072 1275 1594 1428 
L 1178 1569 
Q 750 1706 558 1912 
Q 366 2119 366 2438 
Q 366 2894 700 3153 
Q 1034 3413 1625 3413 
Q 1888 3413 2178 3344 
Q 2469 3275 2778 3144 
L 2778 2419 
L 2447 2419 
Q 2434 2741 2221 2922 
Q 2009 3103 1644 3103 
Q 1281 3103 1095 2975 
Q 909 2847 909 2591 
Q 909 2381 1050 2254 
Q 1191 2128 1613 1997 
L 2069 1856 
Q 2541 1709 2748 1489 
Q 2956 1269 2956 922 
Q 2956 450 2595 179 
Q 2234 -91 1600 -91 
Q 1278 -91 972 -22 
Q 666 47 359 184 
z
" transform="scale(0.015625)"/>
       <path id="DejaVuSerif-6f" d="M 1925 219 
Q 2388 219 2623 584 
Q 2859 950 2859 1663 
Q 2859 2375 2623 2739 
Q 2388 3103 1925 3103 
Q 1463 3103 1227 2739 
Q 991 2375 991 1663 
Q 991 950 1228 584 
Q 1466 219 1925 219 
z
M 1925 -91 
Q 1200 -91 759 389 
Q 319 869 319 1663 
Q 319 2456 758 2934 
Q 1197 3413 1925 3413 
Q 2653 3413 3092 2934 
Q 3531 2456 3531 1663 
Q 3531 869 3092 389 
Q 2653 -91 1925 -91 
z
" transform="scale(0.015625)"/>
       <path id="DejaVuSerif-75" d="M 2266 3322 
L 3341 3322 
L 3341 331 
L 3884 331 
L 3884 0 
L 2766 0 
L 2766 588 
Q 2606 256 2353 82 
Q 2100 -91 1766 -91 
Q 1213 -91 952 223 
Q 691 538 691 1209 
L 691 2988 
L 172 2988 
L 172 3322 
L 1269 3322 
L 1269 1388 
Q 1269 781 1417 556 
Q 1566 331 1947 331 
Q 2347 331 2556 625 
Q 2766 919 2766 1478 
L 2766 2988 
L 2266 2988 
L 2266 3322 
z
" transform="scale(0.015625)"/>
       <path id="DejaVuSerif-72" d="M 3059 3328 
L 3059 2497 
L 2728 2497 
Q 2713 2744 2591 2866 
Q 2469 2988 2234 2988 
Q 1809 2988 1582 2694 
Q 1356 2400 1356 1850 
L 1356 331 
L 2022 331 
L 2022 0 
L 263 0 
L 263 331 
L 781 331 
L 781 2994 
L 231 2994 
L 231 3322 
L 1356 3322 
L 1356 2731 
Q 1525 3078 1790 3245 
Q 2056 3413 2438 3413 
Q 2578 3413 2733 3391 
Q 2888 3369 3059 3328 
z
" transform="scale(0.015625)"/>
       <path id="DejaVuSerif-63" d="M 3291 997 
Q 3169 466 2822 187 
Q 2475 -91 1925 -91 
Q 1200 -91 759 389 
Q 319 869 319 1663 
Q 319 2459 759 2936 
Q 1200 3413 1925 3413 
Q 2241 3413 2553 3339 
Q 2866 3266 3181 3116 
L 3181 2266 
L 2847 2266 
Q 2781 2703 2561 2903 
Q 2341 3103 1931 3103 
Q 1466 3103 1228 2742 
Q 991 2381 991 1663 
Q 991 944 1227 581 
Q 1463 219 1931 219 
Q 2303 219 2525 412 
Q 2747 606 2828 997 
L 3291 997 
z
" transform="scale(0.015625)"/>
       <path id="DejaVuSerif-45" d="M 353 0 
L 353 331 
L 947 331 
L 947 4331 
L 353 4331 
L 353 4666 
L 4109 4666 
L 4109 3628 
L 3725 3628 
L 3725 4281 
L 1581 4281 
L 1581 2719 
L 3109 2719 
L 3109 3303 
L 3494 3303 
L 3494 1753 
L 3109 1753 
L 3109 2338 
L 1581 2338 
L 1581 384 
L 3775 384 
L 3775 1038 
L 4159 1038 
L 4159 0 
L 353 0 
z
" transform="scale(0.015625)"/>
       <path id="DejaVuSerif-66" d="M 2753 4078 
L 2450 4078 
Q 2447 4313 2317 4434 
Q 2188 4556 1941 4556 
Q 1619 4556 1487 4379 
Q 1356 4203 1356 3750 
L 1356 3322 
L 2284 3322 
L 2284 2988 
L 1356 2988 
L 1356 331 
L 2094 331 
L 2094 0 
L 231 0 
L 231 331 
L 781 331 
L 781 2988 
L 231 2988 
L 231 3322 
L 781 3322 
L 781 3738 
Q 781 4294 1070 4578 
Q 1359 4863 1919 4863 
Q 2128 4863 2337 4825 
Q 2547 4788 2753 4709 
L 2753 4078 
z
" transform="scale(0.015625)"/>
       <path id="DejaVuSerif-69" d="M 622 4353 
Q 622 4497 726 4603 
Q 831 4709 978 4709 
Q 1122 4709 1226 4603 
Q 1331 4497 1331 4353 
Q 1331 4206 1228 4103 
Q 1125 4000 978 4000 
Q 831 4000 726 4103 
Q 622 4206 622 4353 
z
M 1356 331 
L 1900 331 
L 1900 0 
L 231 0 
L 231 331 
L 781 331 
L 781 2988 
L 231 2988 
L 231 3322 
L 1356 3322 
L 1356 331 
z
" transform="scale(0.015625)"/>
       <path id="DejaVuSerif-6e" d="M 263 0 
L 263 331 
L 781 331 
L 781 2988 
L 231 2988 
L 231 3322 
L 1356 3322 
L 1356 2731 
Q 1516 3069 1770 3241 
Q 2025 3413 2363 3413 
Q 2913 3413 3172 3097 
Q 3431 2781 3431 2113 
L 3431 331 
L 3944 331 
L 3944 0 
L 2356 0 
L 2356 331 
L 2853 331 
L 2853 1931 
Q 2853 2541 2703 2767 
Q 2553 2994 2175 2994 
Q 1775 2994 1565 2701 
Q 1356 2409 1356 1850 
L 1356 331 
L 1856 331 
L 1856 0 
L 263 0 
z
" transform="scale(0.015625)"/>
       <path id="DejaVuSerif-79" d="M 1381 -609 
L 1600 -56 
L 359 2988 
L -19 2988 
L -19 3322 
L 1509 3322 
L 1509 2988 
L 978 2988 
L 1913 703 
L 2847 2988 
L 2350 2988 
L 2350 3322 
L 3597 3322 
L 3597 2988 
L 3225 2988 
L 1703 -750 
Q 1547 -1138 1356 -1280 
Q 1166 -1422 819 -1422 
Q 672 -1422 517 -1397 
Q 363 -1372 206 -1325 
L 206 -691 
L 500 -691 
Q 519 -903 608 -995 
Q 697 -1088 884 -1088 
Q 1056 -1088 1161 -992 
Q 1266 -897 1381 -609 
z
" transform="scale(0.015625)"/>
       <path id="DejaVuSerif-28" d="M 2041 -997 
Q 1281 -656 893 83 
Q 506 822 506 1931 
Q 506 3044 893 3783 
Q 1281 4522 2041 4863 
L 2041 4556 
Q 1559 4225 1350 3623 
Q 1141 3022 1141 1931 
Q 1141 844 1350 242 
Q 1559 -359 2041 -691 
L 2041 -997 
z
" transform="scale(0.015625)"/>
       <path id="DejaVuSerif-25" d="M 1434 4459 
Q 1159 4459 1004 4200 
Q 850 3941 850 3475 
Q 850 3016 1008 2753 
Q 1166 2491 1434 2491 
Q 1700 2491 1854 2752 
Q 2009 3013 2009 3475 
Q 2009 3938 1854 4198 
Q 1700 4459 1434 4459 
z
M 4653 2169 
Q 4381 2169 4226 1906 
Q 4072 1644 4072 1178 
Q 4072 719 4228 458 
Q 4384 197 4653 197 
Q 4922 197 5075 458 
Q 5228 719 5228 1178 
Q 5228 1641 5073 1905 
Q 4919 2169 4653 2169 
z
M 4653 2450 
Q 5147 2450 5437 2106 
Q 5728 1763 5728 1178 
Q 5728 594 5436 251 
Q 5144 -91 4653 -91 
Q 4153 -91 3862 251 
Q 3572 594 3572 1178 
Q 3572 1766 3864 2108 
Q 4156 2450 4653 2450 
z
M 4263 4750 
L 4738 4750 
L 1819 -91 
L 1344 -91 
L 4263 4750 
z
M 1428 4750 
Q 1922 4750 2215 4408 
Q 2509 4066 2509 3481 
Q 2509 2891 2217 2550 
Q 1925 2209 1428 2209 
Q 931 2209 642 2551 
Q 353 2894 353 3481 
Q 353 4063 643 4406 
Q 934 4750 1428 4750 
z
" transform="scale(0.015625)"/>
       <path id="DejaVuSerif-29" d="M 453 -997 
L 453 -691 
Q 934 -359 1145 242 
Q 1356 844 1356 1931 
Q 1356 3022 1145 3623 
Q 934 4225 453 4556 
L 453 4863 
Q 1216 4522 1603 3783 
Q 1991 3044 1991 1931 
Q 1991 822 1603 83 
Q 1216 -656 453 -997 
z
" transform="scale(0.015625)"/>
      </defs>
      <use xlink:href="#DejaVuSerif-4d"/>
      <use xlink:href="#DejaVuSerif-49" x="102.392578"/>
      <use xlink:href="#DejaVuSerif-50" x="141.894531"/>
      <use xlink:href="#DejaVuSerif-53" x="209.179688"/>
      <use xlink:href="#DejaVuSerif-20" x="277.685547"/>
      <use xlink:href="#DejaVuSerif-52" x="309.472656"/>
      <use xlink:href="#DejaVuSerif-65" x="384.765625"/>
      <use xlink:href="#DejaVuSerif-73" x="443.945312"/>
      <use xlink:href="#DejaVuSerif-6f" x="495.263672"/>
      <use xlink:href="#DejaVuSerif-75" x="555.46875"/>
      <use xlink:href="#DejaVuSerif-72" x="619.873047"/>
      <use xlink:href="#DejaVuSerif-63" x="667.675781"/>
      <use xlink:href="#DejaVuSerif-65" x="723.681641"/>
      <use xlink:href="#DejaVuSerif-20" x="782.861328"/>
      <use xlink:href="#DejaVuSerif-45" x="814.648438"/>
      <use xlink:href="#DejaVuSerif-66" x="887.646484"/>
      <use xlink:href="#DejaVuSerif-66" x="924.658203"/>
      <use xlink:href="#DejaVuSerif-69" x="961.669922"/>
      <use xlink:href="#DejaVuSerif-63" x="993.652344"/>
      <use xlink:href="#DejaVuSerif-69" x="1049.658203"/>
      <use xlink:href="#DejaVuSerif-65" x="1081.640625"/>
      <use xlink:href="#DejaVuSerif-6e" x="1140.820312"/>
      <use xlink:href="#DejaVuSerif-63" x="1205.224609"/>
      <use xlink:href="#DejaVuSerif-79" x="1261.230469"/>
      <use xlink:href="#DejaVuSerif-20" x="1317.724609"/>
      <use xlink:href="#DejaVuSerif-28" x="1349.511719"/>
      <use xlink:href="#DejaVuSerif-25" x="1388.525391"/>
      <use xlink:href="#DejaVuSerif-29" x="1483.544922"/>
     </g>
    </g>
   </g>
   <g id="LineCollection_1">
    <path d="M 77.722273 316.065309 
L 77.722273 316.065309 
" clip-path="url(#p150e14e1c1)" style="fill: none; stroke: #e4ac3e; stroke-width: 2"/>
    <path clip-path="url(#p150e14e1c1)" style="fill: none; stroke: #e4ac3e; stroke-width: 2"/>
    <path clip-path="url(#p150e14e1c1)" style="fill: none; stroke: #e4ac3e; stroke-width: 2"/>
    <path clip-path="url(#p150e14e1c1)" style="fill: none; stroke: #e4ac3e; stroke-width: 2"/>
    <path clip-path="url(#p150e14e1c1)" style="fill: none; stroke: #e4ac3e; stroke-width: 2"/>
   </g>
   <g id="line2d_13">
    <defs>
     <path id="m78de985517" d="M 4 0 
L -4 -0 
" style="stroke: #e4ac3e; stroke-width: 2"/>
    </defs>
    <g clip-path="url(#p150e14e1c1)">
     <use xlink:href="#m78de985517" x="77.722273" y="316.065309" style="fill: #e4ac3e; stroke: #e4ac3e; stroke-width: 2"/>
    </g>
   </g>
   <g id="line2d_14">
    <g clip-path="url(#p150e14e1c1)">
     <use xlink:href="#m78de985517" x="77.722273" y="316.065309" style="fill: #e4ac3e; stroke: #e4ac3e; stroke-width: 2"/>
    </g>
   </g>
   <g id="LineCollection_2">
    <path d="M 77.722273 316.065309 
L 77.722273 316.065309 
" clip-path="url(#p150e14e1c1)" style="fill: none; stroke: #416fbd; stroke-width: 2"/>
    <path clip-path="url(#p150e14e1c1)" style="fill: none; stroke: #416fbd; stroke-width: 2"/>
    <path clip-path="url(#p150e14e1c1)" style="fill: none; stroke: #416fbd; stroke-width: 2"/>
    <path clip-path="url(#p150e14e1c1)" style="fill: none; stroke: #416fbd; stroke-width: 2"/>
    <path clip-path="url(#p150e14e1c1)" style="fill: none; stroke: #416fbd; stroke-width: 2"/>
   </g>
   <g id="line2d_15">
    <defs>
     <path id="mb70a522798" d="M 4 0 
L -4 -0 
" style="stroke: #416fbd; stroke-width: 2"/>
    </defs>
    <g clip-path="url(#p150e14e1c1)">
     <use xlink:href="#mb70a522798" x="77.722273" y="316.065309" style="fill: #416fbd; stroke: #416fbd; stroke-width: 2"/>
    </g>
   </g>
   <g id="line2d_16">
    <g clip-path="url(#p150e14e1c1)">
     <use xlink:href="#mb70a522798" x="77.722273" y="316.065309" style="fill: #416fbd; stroke: #416fbd; stroke-width: 2"/>
    </g>
   </g>
   <g id="LineCollection_3">
    <path d="M 77.722273 316.065309 
L 77.722273 316.065309 
" clip-path="url(#p150e14e1c1)" style="fill: none; stroke: #64b749; stroke-width: 2"/>
    <path clip-path="url(#p150e14e1c1)" style="fill: none; stroke: #64b749; stroke-width: 2"/>
    <path clip-path="url(#p150e14e1c1)" style="fill: none; stroke: #64b749; stroke-width: 2"/>
    <path clip-path="url(#p150e14e1c1)" style="fill: none; stroke: #64b749; stroke-width: 2"/>
    <path clip-path="url(#p150e14e1c1)" style="fill: none; stroke: #64b749; stroke-width: 2"/>
   </g>
   <g id="line2d_17">
    <defs>
     <path id="m7757f33032" d="M 4 0 
L -4 -0 
" style="stroke: #64b749; stroke-width: 2"/>
    </defs>
    <g clip-path="url(#p150e14e1c1)">
     <use xlink:href="#m7757f33032" x="77.722273" y="316.065309" style="fill: #64b749; stroke: #64b749; stroke-width: 2"/>
    </g>
   </g>
   <g id="line2d_18">
    <g clip-path="url(#p150e14e1c1)">
     <use xlink:href="#m7757f33032" x="77.722273" y="316.065309" style="fill: #64b749; stroke: #64b749; stroke-width: 2"/>
    </g>
   </g>
   <g id="LineCollection_4">
    <path d="M 77.722273 316.065309 
L 77.722273 316.065309 
" clip-path="url(#p150e14e1c1)" style="fill: none; stroke: #742993; stroke-width: 2"/>
    <path clip-path="url(#p150e14e1c1)" style="fill: none; stroke: #742993; stroke-width: 2"/>
    <path clip-path="url(#p150e14e1c1)" style="fill: none; stroke: #742993; stroke-width: 2"/>
    <path clip-path="url(#p150e14e1c1)" style="fill: none; stroke: #742993; stroke-width: 2"/>
    <path clip-path="url(#p150e14e1c1)" style="fill: none; stroke: #742993; stroke-width: 2"/>
   </g>
   <g id="line2d_19">
    <defs>
     <path id="m0ce99a769c" d="M 4 0 
L -4 -0 
" style="stroke: #742993; stroke-width: 2"/>
    </defs>
    <g clip-path="url(#p150e14e1c1)">
     <use xlink:href="#m0ce99a769c" x="77.722273" y="316.065309" style="fill: #742993; stroke: #742993; stroke-width: 2"/>
    </g>
   </g>
   <g id="line2d_20">
    <g clip-path="url(#p150e14e1c1)">
     <use xlink:href="#m0ce99a769c" x="77.722273" y="316.065309" style="fill: #742993; stroke: #742993; stroke-width: 2"/>
    </g>
   </g>
   <g id="LineCollection_5">
    <path d="M 77.722273 316.065309 
L 77.722273 316.065309 
" clip-path="url(#p150e14e1c1)" style="fill: none; stroke: #9d2136; stroke-width: 2"/>
    <path clip-path="url(#p150e14e1c1)" style="fill: none; stroke: #9d2136; stroke-width: 2"/>
    <path clip-path="url(#p150e14e1c1)" style="fill: none; stroke: #9d2136; stroke-width: 2"/>
    <path clip-path="url(#p150e14e1c1)" style="fill: none; stroke: #9d2136; stroke-width: 2"/>
    <path clip-path="url(#p150e14e1c1)" style="fill: none; stroke: #9d2136; stroke-width: 2"/>
   </g>
   <g id="line2d_21">
    <defs>
     <path id="mc50ba8490f" d="M 4 0 
L -4 -0 
" style="stroke: #9d2136; stroke-width: 2"/>
    </defs>
    <g clip-path="url(#p150e14e1c1)">
     <use xlink:href="#mc50ba8490f" x="77.722273" y="316.065309" style="fill: #9d2136; stroke: #9d2136; stroke-width: 2"/>
    </g>
   </g>
   <g id="line2d_22">
    <g clip-path="url(#p150e14e1c1)">
     <use xlink:href="#mc50ba8490f" x="77.722273" y="316.065309" style="fill: #9d2136; stroke: #9d2136; stroke-width: 2"/>
    </g>
   </g>
   <g id="LineCollection_6">
    <path d="M 77.722273 329.30594 
L 77.722273 329.30594 
" clip-path="url(#p150e14e1c1)" style="fill: none; stroke: #d9532d; stroke-width: 2"/>
    <path clip-path="url(#p150e14e1c1)" style="fill: none; stroke: #d9532d; stroke-width: 2"/>
    <path clip-path="url(#p150e14e1c1)" style="fill: none; stroke: #d9532d; stroke-width: 2"/>
    <path clip-path="url(#p150e14e1c1)" style="fill: none; stroke: #d9532d; stroke-width: 2"/>
    <path clip-path="url(#p150e14e1c1)" style="fill: none; stroke: #d9532d; stroke-width: 2"/>
   </g>
   <g id="line2d_23">
    <defs>
     <path id="m4488a0b1d1" d="M 4 0 
L -4 -0 
" style="stroke: #d9532d; stroke-width: 2"/>
    </defs>
    <g clip-path="url(#p150e14e1c1)">
     <use xlink:href="#m4488a0b1d1" x="77.722273" y="329.30594" style="fill: #d9532d; stroke: #d9532d; stroke-width: 2"/>
    </g>
   </g>
   <g id="line2d_24">
    <g clip-path="url(#p150e14e1c1)">
     <use xlink:href="#m4488a0b1d1" x="77.722273" y="329.30594" style="fill: #d9532d; stroke: #d9532d; stroke-width: 2"/>
    </g>
   </g>
   <g id="LineCollection_7">
    <path d="M 77.722273 316.065309 
L 77.722273 316.065309 
" clip-path="url(#p150e14e1c1)" style="fill: none; stroke: #777777; stroke-width: 2"/>
    <path clip-path="url(#p150e14e1c1)" style="fill: none; stroke: #777777; stroke-width: 2"/>
    <path clip-path="url(#p150e14e1c1)" style="fill: none; stroke: #777777; stroke-width: 2"/>
    <path clip-path="url(#p150e14e1c1)" style="fill: none; stroke: #777777; stroke-width: 2"/>
    <path clip-path="url(#p150e14e1c1)" style="fill: none; stroke: #777777; stroke-width: 2"/>
   </g>
   <g id="line2d_25">
    <defs>
     <path id="m9fc23b2c8d" d="M 4 0 
L -4 -0 
" style="stroke: #777777; stroke-width: 2"/>
    </defs>
    <g clip-path="url(#p150e14e1c1)">
     <use xlink:href="#m9fc23b2c8d" x="77.722273" y="316.065309" style="fill: #777777; stroke: #777777; stroke-width: 2"/>
    </g>
   </g>
   <g id="line2d_26">
    <g clip-path="url(#p150e14e1c1)">
     <use xlink:href="#m9fc23b2c8d" x="77.722273" y="316.065309" style="fill: #777777; stroke: #777777; stroke-width: 2"/>
    </g>
   </g>
   <g id="line2d_27">
    <path d="M 77.722273 316.065309 
L 160.883636 279.648684 
L 244.045 274.370139 
L 327.206364 256.747985 
L 410.367727 239.546149 
" clip-path="url(#p150e14e1c1)" style="fill: none; stroke: #e4ac3e; stroke-width: 2; stroke-linecap: square"/>
    <defs>
     <path id="meaea34c05a" d="M -0 7.5 
L 7.5 -7.5 
L -7.5 -7.5 
z
" style="stroke: #e4ac3e; stroke-width: 2; stroke-linejoin: miter"/>
    </defs>
    <g clip-path="url(#p150e14e1c1)">
     <use xlink:href="#meaea34c05a" x="77.722273" y="316.065309" style="fill-opacity: 0; stroke: #e4ac3e; stroke-width: 2; stroke-linejoin: miter"/>
     <use xlink:href="#meaea34c05a" x="160.883636" y="279.648684" style="fill-opacity: 0; stroke: #e4ac3e; stroke-width: 2; stroke-linejoin: miter"/>
     <use xlink:href="#meaea34c05a" x="244.045" y="274.370139" style="fill-opacity: 0; stroke: #e4ac3e; stroke-width: 2; stroke-linejoin: miter"/>
     <use xlink:href="#meaea34c05a" x="327.206364" y="256.747985" style="fill-opacity: 0; stroke: #e4ac3e; stroke-width: 2; stroke-linejoin: miter"/>
     <use xlink:href="#meaea34c05a" x="410.367727" y="239.546149" style="fill-opacity: 0; stroke: #e4ac3e; stroke-width: 2; stroke-linejoin: miter"/>
    </g>
   </g>
   <g id="line2d_28">
    <path d="M 77.722273 316.065309 
L 160.883636 360.205455 
L 244.045 360.205455 
L 327.206364 357.228544 
L 410.367727 353.23677 
" clip-path="url(#p150e14e1c1)" style="fill: none; stroke: #416fbd; stroke-width: 2; stroke-linecap: square"/>
    <defs>
     <path id="m8c18543b57" d="M 0 -7.5 
L -6.495191 -3.75 
L -6.495191 3.75 
L -0 7.5 
L 6.495191 3.75 
L 6.495191 -3.75 
z
" style="stroke: #416fbd; stroke-width: 2; stroke-linejoin: miter"/>
    </defs>
    <g clip-path="url(#p150e14e1c1)">
     <use xlink:href="#m8c18543b57" x="77.722273" y="316.065309" style="fill-opacity: 0; stroke: #416fbd; stroke-width: 2; stroke-linejoin: miter"/>
     <use xlink:href="#m8c18543b57" x="160.883636" y="360.205455" style="fill-opacity: 0; stroke: #416fbd; stroke-width: 2; stroke-linejoin: miter"/>
     <use xlink:href="#m8c18543b57" x="244.045" y="360.205455" style="fill-opacity: 0; stroke: #416fbd; stroke-width: 2; stroke-linejoin: miter"/>
     <use xlink:href="#m8c18543b57" x="327.206364" y="357.228544" style="fill-opacity: 0; stroke: #416fbd; stroke-width: 2; stroke-linejoin: miter"/>
     <use xlink:href="#m8c18543b57" x="410.367727" y="353.23677" style="fill-opacity: 0; stroke: #416fbd; stroke-width: 2; stroke-linejoin: miter"/>
    </g>
   </g>
   <g id="line2d_29">
    <path d="M 77.722273 316.065309 
L 160.883636 279.648684 
L 244.045 274.370139 
L 327.206364 256.747985 
L 410.367727 239.546149 
" clip-path="url(#p150e14e1c1)" style="fill: none; stroke: #64b749; stroke-width: 2; stroke-linecap: square"/>
    <defs>
     <path id="m0302e2eefc" d="M 0 -7.5 
L -7.5 7.5 
L 7.5 7.5 
z
" style="stroke: #64b749; stroke-width: 2; stroke-linejoin: miter"/>
    </defs>
    <g clip-path="url(#p150e14e1c1)">
     <use xlink:href="#m0302e2eefc" x="77.722273" y="316.065309" style="fill-opacity: 0; stroke: #64b749; stroke-width: 2; stroke-linejoin: miter"/>
     <use xlink:href="#m0302e2eefc" x="160.883636" y="279.648684" style="fill-opacity: 0; stroke: #64b749; stroke-width: 2; stroke-linejoin: miter"/>
     <use xlink:href="#m0302e2eefc" x="244.045" y="274.370139" style="fill-opacity: 0; stroke: #64b749; stroke-width: 2; stroke-linejoin: miter"/>
     <use xlink:href="#m0302e2eefc" x="327.206364" y="256.747985" style="fill-opacity: 0; stroke: #64b749; stroke-width: 2; stroke-linejoin: miter"/>
     <use xlink:href="#m0302e2eefc" x="410.367727" y="239.546149" style="fill-opacity: 0; stroke: #64b749; stroke-width: 2; stroke-linejoin: miter"/>
    </g>
   </g>
   <g id="line2d_30">
    <path d="M 77.722273 316.065309 
L 160.883636 279.648684 
L 244.045 274.370139 
L 327.206364 256.747985 
L 410.367727 239.546149 
" clip-path="url(#p150e14e1c1)" style="fill: none; stroke: #742993; stroke-width: 2; stroke-linecap: square"/>
    <defs>
     <path id="m95f81931ad" d="M 0 10.606602 
L 10.606602 0 
L 0 -10.606602 
L -10.606602 0 
z
" style="stroke: #742993; stroke-width: 2; stroke-linejoin: miter"/>
    </defs>
    <g clip-path="url(#p150e14e1c1)">
     <use xlink:href="#m95f81931ad" x="77.722273" y="316.065309" style="fill-opacity: 0; stroke: #742993; stroke-width: 2; stroke-linejoin: miter"/>
     <use xlink:href="#m95f81931ad" x="160.883636" y="279.648684" style="fill-opacity: 0; stroke: #742993; stroke-width: 2; stroke-linejoin: miter"/>
     <use xlink:href="#m95f81931ad" x="244.045" y="274.370139" style="fill-opacity: 0; stroke: #742993; stroke-width: 2; stroke-linejoin: miter"/>
     <use xlink:href="#m95f81931ad" x="327.206364" y="256.747985" style="fill-opacity: 0; stroke: #742993; stroke-width: 2; stroke-linejoin: miter"/>
     <use xlink:href="#m95f81931ad" x="410.367727" y="239.546149" style="fill-opacity: 0; stroke: #742993; stroke-width: 2; stroke-linejoin: miter"/>
    </g>
   </g>
   <g id="line2d_31">
    <path d="M 77.722273 316.065309 
L 160.883636 176.370699 
L 244.045 101.534301 
L 327.206364 60.453895 
L 410.367727 21.914545 
" clip-path="url(#p150e14e1c1)" style="fill: none; stroke-dasharray: 7.4,3.2; stroke-dashoffset: 0; stroke: #9d2136; stroke-width: 2"/>
    <defs>
     <path id="m0e8115639e" d="M 7.5 0 
L -7.5 -7.5 
L -7.5 7.5 
z
" style="stroke: #9d2136; stroke-width: 2; stroke-linejoin: miter"/>
    </defs>
    <g clip-path="url(#p150e14e1c1)">
     <use xlink:href="#m0e8115639e" x="77.722273" y="316.065309" style="fill-opacity: 0; stroke: #9d2136; stroke-width: 2; stroke-linejoin: miter"/>
     <use xlink:href="#m0e8115639e" x="160.883636" y="176.370699" style="fill-opacity: 0; stroke: #9d2136; stroke-width: 2; stroke-linejoin: miter"/>
     <use xlink:href="#m0e8115639e" x="244.045" y="101.534301" style="fill-opacity: 0; stroke: #9d2136; stroke-width: 2; stroke-linejoin: miter"/>
     <use xlink:href="#m0e8115639e" x="327.206364" y="60.453895" style="fill-opacity: 0; stroke: #9d2136; stroke-width: 2; stroke-linejoin: miter"/>
     <use xlink:href="#m0e8115639e" x="410.367727" y="21.914545" style="fill-opacity: 0; stroke: #9d2136; stroke-width: 2; stroke-linejoin: miter"/>
    </g>
   </g>
   <g id="line2d_32">
    <path d="M 77.722273 329.30594 
L 160.883636 290.282564 
L 244.045 290.282564 
L 327.206364 290.282564 
L 410.367727 290.282564 
" clip-path="url(#p150e14e1c1)" style="fill: none; stroke-dasharray: 7.4,3.2; stroke-dashoffset: 0; stroke: #d9532d; stroke-width: 2"/>
    <defs>
     <path id="mb4da4afe50" d="M -7.5 -0 
L 7.5 7.5 
L 7.5 -7.5 
z
" style="stroke: #d9532d; stroke-width: 2; stroke-linejoin: miter"/>
    </defs>
    <g clip-path="url(#p150e14e1c1)">
     <use xlink:href="#mb4da4afe50" x="77.722273" y="329.30594" style="fill-opacity: 0; stroke: #d9532d; stroke-width: 2; stroke-linejoin: miter"/>
     <use xlink:href="#mb4da4afe50" x="160.883636" y="290.282564" style="fill-opacity: 0; stroke: #d9532d; stroke-width: 2; stroke-linejoin: miter"/>
     <use xlink:href="#mb4da4afe50" x="244.045" y="290.282564" style="fill-opacity: 0; stroke: #d9532d; stroke-width: 2; stroke-linejoin: miter"/>
     <use xlink:href="#mb4da4afe50" x="327.206364" y="290.282564" style="fill-opacity: 0; stroke: #d9532d; stroke-width: 2; stroke-linejoin: miter"/>
     <use xlink:href="#mb4da4afe50" x="410.367727" y="290.282564" style="fill-opacity: 0; stroke: #d9532d; stroke-width: 2; stroke-linejoin: miter"/>
    </g>
   </g>
   <g id="line2d_33">
    <path d="M 77.722273 316.065309 
L 160.883636 279.648684 
L 244.045 274.370139 
L 327.206364 256.747985 
L 410.367727 239.546149 
" clip-path="url(#p150e14e1c1)" style="fill: none; stroke: #777777; stroke-width: 2; stroke-linecap: square"/>
    <defs>
     <path id="m065a6555ed" d="M 0 7.5 
C 1.989023 7.5 3.896849 6.709753 5.303301 5.303301 
C 6.709753 3.896849 7.5 1.989023 7.5 0 
C 7.5 -1.989023 6.709753 -3.896849 5.303301 -5.303301 
C 3.896849 -6.709753 1.989023 -7.5 0 -7.5 
C -1.989023 -7.5 -3.896849 -6.709753 -5.303301 -5.303301 
C -6.709753 -3.896849 -7.5 -1.989023 -7.5 0 
C -7.5 1.989023 -6.709753 3.896849 -5.303301 5.303301 
C -3.896849 6.709753 -1.989023 7.5 0 7.5 
z
" style="stroke: #777777; stroke-width: 2"/>
    </defs>
    <g clip-path="url(#p150e14e1c1)">
     <use xlink:href="#m065a6555ed" x="77.722273" y="316.065309" style="fill-opacity: 0; stroke: #777777; stroke-width: 2"/>
     <use xlink:href="#m065a6555ed" x="160.883636" y="279.648684" style="fill-opacity: 0; stroke: #777777; stroke-width: 2"/>
     <use xlink:href="#m065a6555ed" x="244.045" y="274.370139" style="fill-opacity: 0; stroke: #777777; stroke-width: 2"/>
     <use xlink:href="#m065a6555ed" x="327.206364" y="256.747985" style="fill-opacity: 0; stroke: #777777; stroke-width: 2"/>
     <use xlink:href="#m065a6555ed" x="410.367727" y="239.546149" style="fill-opacity: 0; stroke: #777777; stroke-width: 2"/>
    </g>
   </g>
   <g id="patch_3">
    <path d="M 61.09 377.12 
L 61.09 5 
" style="fill: none; stroke: #000000; stroke-width: 0.8; stroke-linejoin: miter; stroke-linecap: square"/>
   </g>
   <g id="patch_4">
    <path d="M 427 377.12 
L 427 5 
" style="fill: none; stroke: #000000; stroke-width: 0.8; stroke-linejoin: miter; stroke-linecap: square"/>
   </g>
   <g id="patch_5">
    <path d="M 61.09 377.12 
L 427 377.12 
" style="fill: none; stroke: #000000; stroke-width: 0.8; stroke-linejoin: miter; stroke-linecap: square"/>
   </g>
   <g id="patch_6">
    <path d="M 61.09 5 
L 427 5 
" style="fill: none; stroke: #000000; stroke-width: 0.8; stroke-linejoin: miter; stroke-linecap: square"/>
   </g>
   <g id="legend_1">
    <g id="patch_7">
     <path d="M 71.59 96.06875 
L 251.207969 96.06875 
Q 254.207969 96.06875 254.207969 93.06875 
L 254.207969 15.5 
Q 254.207969 12.5 251.207969 12.5 
L 71.59 12.5 
Q 68.59 12.5 68.59 15.5 
L 68.59 93.06875 
Q 68.59 96.06875 71.59 96.06875 
z
" style="fill: #ffffff; stroke: #cccccc; stroke-linejoin: miter"/>
    </g>
    <g id="LineCollection_8">
     <path d="M 89.59 32.147656 
L 89.59 17.147656 
" style="fill: none; stroke: #e4ac3e; stroke-width: 2"/>
    </g>
    <g id="line2d_34">
     <g>
      <use xlink:href="#m78de985517" x="89.59" y="32.147656" style="fill: #e4ac3e; stroke: #e4ac3e; stroke-width: 2"/>
     </g>
    </g>
    <g id="line2d_35">
     <g>
      <use xlink:href="#m78de985517" x="89.59" y="17.147656" style="fill: #e4ac3e; stroke: #e4ac3e; stroke-width: 2"/>
     </g>
    </g>
    <g id="line2d_36">
     <path d="M 74.59 24.647656 
L 104.59 24.647656 
" style="fill: none; stroke: #e4ac3e; stroke-width: 2; stroke-linecap: square"/>
    </g>
    <g id="line2d_37">
     <g>
      <use xlink:href="#meaea34c05a" x="89.59" y="24.647656" style="fill-opacity: 0; stroke: #e4ac3e; stroke-width: 2; stroke-linejoin: miter"/>
     </g>
    </g>
    <g id="text_9">
     <!-- OPT -->
     <g transform="translate(110.59 29.897656) scale(0.15 -0.15)">
      <defs>
       <path id="DejaVuSerif-4f" d="M 2625 244 
Q 3391 244 3781 770 
Q 4172 1297 4172 2328 
Q 4172 3363 3781 3889 
Q 3391 4416 2625 4416 
Q 1856 4416 1465 3889 
Q 1075 3363 1075 2328 
Q 1075 1297 1465 770 
Q 1856 244 2625 244 
z
M 2625 -91 
Q 2150 -91 1751 65 
Q 1353 222 1050 525 
Q 700 875 529 1319 
Q 359 1763 359 2328 
Q 359 2894 529 3339 
Q 700 3784 1050 4134 
Q 1356 4441 1750 4595 
Q 2144 4750 2625 4750 
Q 3641 4750 4266 4084 
Q 4891 3419 4891 2328 
Q 4891 1769 4719 1320 
Q 4547 872 4197 525 
Q 3891 219 3497 64 
Q 3103 -91 2625 -91 
z
" transform="scale(0.015625)"/>
       <path id="DejaVuSerif-54" d="M 1222 0 
L 1222 331 
L 1819 331 
L 1819 4294 
L 447 4294 
L 447 3566 
L 63 3566 
L 63 4666 
L 4206 4666 
L 4206 3566 
L 3822 3566 
L 3822 4294 
L 2450 4294 
L 2450 331 
L 3047 331 
L 3047 0 
L 1222 0 
z
" transform="scale(0.015625)"/>
      </defs>
      <use xlink:href="#DejaVuSerif-4f"/>
      <use xlink:href="#DejaVuSerif-50" x="81.982422"/>
      <use xlink:href="#DejaVuSerif-54" x="149.267578"/>
     </g>
    </g>
    <g id="LineCollection_9">
     <path d="M 89.59 51.164844 
L 89.59 36.164844 
" style="fill: none; stroke: #416fbd; stroke-width: 2"/>
    </g>
    <g id="line2d_38">
     <g>
      <use xlink:href="#mb70a522798" x="89.59" y="51.164844" style="fill: #416fbd; stroke: #416fbd; stroke-width: 2"/>
     </g>
    </g>
    <g id="line2d_39">
     <g>
      <use xlink:href="#mb70a522798" x="89.59" y="36.164844" style="fill: #416fbd; stroke: #416fbd; stroke-width: 2"/>
     </g>
    </g>
    <g id="line2d_40">
     <path d="M 74.59 43.664844 
L 104.59 43.664844 
" style="fill: none; stroke: #416fbd; stroke-width: 2; stroke-linecap: square"/>
    </g>
    <g id="line2d_41">
     <g>
      <use xlink:href="#m8c18543b57" x="89.59" y="43.664844" style="fill-opacity: 0; stroke: #416fbd; stroke-width: 2; stroke-linejoin: miter"/>
     </g>
    </g>
    <g id="text_10">
     <!-- IAR -->
     <g transform="translate(110.59 48.914844) scale(0.15 -0.15)">
      <defs>
       <path id="DejaVuSerif-41" d="M 1281 1691 
L 2994 1691 
L 2138 3909 
L 1281 1691 
z
M -38 0 
L -38 331 
L 372 331 
L 2034 4666 
L 2559 4666 
L 4225 331 
L 4684 331 
L 4684 0 
L 2988 0 
L 2988 331 
L 3506 331 
L 3116 1356 
L 1153 1356 
L 763 331 
L 1275 331 
L 1275 0 
L -38 0 
z
" transform="scale(0.015625)"/>
      </defs>
      <use xlink:href="#DejaVuSerif-49"/>
      <use xlink:href="#DejaVuSerif-41" x="39.501953"/>
      <use xlink:href="#DejaVuSerif-52" x="111.71875"/>
     </g>
    </g>
    <g id="LineCollection_10">
     <path d="M 89.59 70.182031 
L 89.59 55.182031 
" style="fill: none; stroke: #64b749; stroke-width: 2"/>
    </g>
    <g id="line2d_42">
     <g>
      <use xlink:href="#m7757f33032" x="89.59" y="70.182031" style="fill: #64b749; stroke: #64b749; stroke-width: 2"/>
     </g>
    </g>
    <g id="line2d_43">
     <g>
      <use xlink:href="#m7757f33032" x="89.59" y="55.182031" style="fill: #64b749; stroke: #64b749; stroke-width: 2"/>
     </g>
    </g>
    <g id="line2d_44">
     <path d="M 74.59 62.682031 
L 104.59 62.682031 
" style="fill: none; stroke: #64b749; stroke-width: 2; stroke-linecap: square"/>
    </g>
    <g id="line2d_45">
     <g>
      <use xlink:href="#m0302e2eefc" x="89.59" y="62.682031" style="fill-opacity: 0; stroke: #64b749; stroke-width: 2; stroke-linejoin: miter"/>
     </g>
    </g>
    <g id="text_11">
     <!-- DTR -->
     <g transform="translate(110.59 67.932031) scale(0.15 -0.15)">
      <defs>
       <path id="DejaVuSerif-44" d="M 1581 331 
L 2163 331 
Q 3072 331 3558 850 
Q 4044 1369 4044 2338 
Q 4044 3306 3559 3818 
Q 3075 4331 2163 4331 
L 1581 4331 
L 1581 331 
z
M 353 0 
L 353 331 
L 947 331 
L 947 4331 
L 353 4331 
L 353 4666 
L 2209 4666 
Q 3416 4666 4089 4050 
Q 4763 3434 4763 2338 
Q 4763 1238 4088 619 
Q 3413 0 2209 0 
L 353 0 
z
" transform="scale(0.015625)"/>
      </defs>
      <use xlink:href="#DejaVuSerif-44"/>
      <use xlink:href="#DejaVuSerif-54" x="80.175781"/>
      <use xlink:href="#DejaVuSerif-52" x="146.875"/>
     </g>
    </g>
    <g id="LineCollection_11">
     <path d="M 89.59 89.199219 
L 89.59 74.199219 
" style="fill: none; stroke: #742993; stroke-width: 2"/>
    </g>
    <g id="line2d_46">
     <g>
      <use xlink:href="#m0ce99a769c" x="89.59" y="89.199219" style="fill: #742993; stroke: #742993; stroke-width: 2"/>
     </g>
    </g>
    <g id="line2d_47">
     <g>
      <use xlink:href="#m0ce99a769c" x="89.59" y="74.199219" style="fill: #742993; stroke: #742993; stroke-width: 2"/>
     </g>
    </g>
    <g id="line2d_48">
     <path d="M 74.59 81.699219 
L 104.59 81.699219 
" style="fill: none; stroke: #742993; stroke-width: 2; stroke-linecap: square"/>
    </g>
    <g id="line2d_49">
     <g>
      <use xlink:href="#m95f81931ad" x="89.59" y="81.699219" style="fill-opacity: 0; stroke: #742993; stroke-width: 2; stroke-linejoin: miter"/>
     </g>
    </g>
    <g id="text_12">
     <!-- RNR -->
     <g transform="translate(110.59 86.949219) scale(0.15 -0.15)">
      <defs>
       <path id="DejaVuSerif-4e" d="M 313 0 
L 313 331 
L 941 331 
L 941 4331 
L 313 4331 
L 313 4666 
L 1509 4666 
L 4306 984 
L 4306 4331 
L 3681 4331 
L 3681 4666 
L 5319 4666 
L 5319 4331 
L 4691 4331 
L 4691 -91 
L 4313 -91 
L 1325 3841 
L 1325 331 
L 1953 331 
L 1953 0 
L 313 0 
z
" transform="scale(0.015625)"/>
      </defs>
      <use xlink:href="#DejaVuSerif-52"/>
      <use xlink:href="#DejaVuSerif-4e" x="75.292969"/>
      <use xlink:href="#DejaVuSerif-52" x="162.792969"/>
     </g>
    </g>
    <g id="LineCollection_12">
     <path d="M 170.304062 32.147656 
L 170.304062 17.147656 
" style="fill: none; stroke: #9d2136; stroke-width: 2"/>
    </g>
    <g id="line2d_50">
     <g>
      <use xlink:href="#mc50ba8490f" x="170.304062" y="32.147656" style="fill: #9d2136; stroke: #9d2136; stroke-width: 2"/>
     </g>
    </g>
    <g id="line2d_51">
     <g>
      <use xlink:href="#mc50ba8490f" x="170.304062" y="17.147656" style="fill: #9d2136; stroke: #9d2136; stroke-width: 2"/>
     </g>
    </g>
    <g id="line2d_52">
     <path d="M 155.304062 24.647656 
L 185.304062 24.647656 
" style="fill: none; stroke-dasharray: 7.4,3.2; stroke-dashoffset: 0; stroke: #9d2136; stroke-width: 2"/>
    </g>
    <g id="line2d_53">
     <g>
      <use xlink:href="#m0e8115639e" x="170.304062" y="24.647656" style="fill-opacity: 0; stroke: #9d2136; stroke-width: 2; stroke-linejoin: miter"/>
     </g>
    </g>
    <g id="text_13">
     <!-- NIS -->
     <g transform="translate(191.304062 29.897656) scale(0.15 -0.15)">
      <use xlink:href="#DejaVuSerif-4e"/>
      <use xlink:href="#DejaVuSerif-49" x="87.5"/>
      <use xlink:href="#DejaVuSerif-53" x="127.001953"/>
     </g>
    </g>
    <g id="LineCollection_13">
     <path d="M 170.304062 51.164844 
L 170.304062 36.164844 
" style="fill: none; stroke: #d9532d; stroke-width: 2"/>
    </g>
    <g id="line2d_54">
     <g>
      <use xlink:href="#m4488a0b1d1" x="170.304062" y="51.164844" style="fill: #d9532d; stroke: #d9532d; stroke-width: 2"/>
     </g>
    </g>
    <g id="line2d_55">
     <g>
      <use xlink:href="#m4488a0b1d1" x="170.304062" y="36.164844" style="fill: #d9532d; stroke: #d9532d; stroke-width: 2"/>
     </g>
    </g>
    <g id="line2d_56">
     <path d="M 155.304062 43.664844 
L 185.304062 43.664844 
" style="fill: none; stroke-dasharray: 7.4,3.2; stroke-dashoffset: 0; stroke: #d9532d; stroke-width: 2"/>
    </g>
    <g id="line2d_57">
     <g>
      <use xlink:href="#mb4da4afe50" x="170.304062" y="43.664844" style="fill-opacity: 0; stroke: #d9532d; stroke-width: 2; stroke-linejoin: miter"/>
     </g>
    </g>
    <g id="text_14">
     <!-- CIS -->
     <g transform="translate(191.304062 48.914844) scale(0.15 -0.15)">
      <defs>
       <path id="DejaVuSerif-43" d="M 4513 1234 
Q 4306 581 3820 245 
Q 3334 -91 2591 -91 
Q 2134 -91 1743 65 
Q 1353 222 1050 525 
Q 700 875 529 1320 
Q 359 1766 359 2328 
Q 359 3416 987 4083 
Q 1616 4750 2644 4750 
Q 3025 4750 3456 4650 
Q 3888 4550 4384 4347 
L 4384 3272 
L 4031 3272 
Q 3916 3859 3567 4137 
Q 3219 4416 2591 4416 
Q 1844 4416 1459 3886 
Q 1075 3356 1075 2328 
Q 1075 1303 1459 773 
Q 1844 244 2591 244 
Q 3113 244 3450 492 
Q 3788 741 3938 1234 
L 4513 1234 
z
" transform="scale(0.015625)"/>
      </defs>
      <use xlink:href="#DejaVuSerif-43"/>
      <use xlink:href="#DejaVuSerif-49" x="76.513672"/>
      <use xlink:href="#DejaVuSerif-53" x="116.015625"/>
     </g>
    </g>
    <g id="LineCollection_14">
     <path d="M 170.304062 70.182031 
L 170.304062 55.182031 
" style="fill: none; stroke: #777777; stroke-width: 2"/>
    </g>
    <g id="line2d_58">
     <g>
      <use xlink:href="#m9fc23b2c8d" x="170.304062" y="70.182031" style="fill: #777777; stroke: #777777; stroke-width: 2"/>
     </g>
    </g>
    <g id="line2d_59">
     <g>
      <use xlink:href="#m9fc23b2c8d" x="170.304062" y="55.182031" style="fill: #777777; stroke: #777777; stroke-width: 2"/>
     </g>
    </g>
    <g id="line2d_60">
     <path d="M 155.304062 62.682031 
L 185.304062 62.682031 
" style="fill: none; stroke: #777777; stroke-width: 2; stroke-linecap: square"/>
    </g>
    <g id="line2d_61">
     <g>
      <use xlink:href="#m065a6555ed" x="170.304062" y="62.682031" style="fill-opacity: 0; stroke: #777777; stroke-width: 2"/>
     </g>
    </g>
    <g id="text_15">
     <!-- 5Guard -->
     <g transform="translate(191.304062 67.932031) scale(0.15 -0.15)">
      <defs>
       <path id="DejaVuSerif-47" d="M 4097 3272 
Q 3988 3856 3641 4136 
Q 3294 4416 2675 4416 
Q 1869 4416 1472 3897 
Q 1075 3378 1075 2328 
Q 1075 1300 1484 772 
Q 1894 244 2688 244 
Q 3041 244 3362 331 
Q 3684 419 3975 594 
L 3975 1797 
L 3097 1797 
L 3097 2131 
L 4609 2131 
L 4609 391 
Q 4194 150 3714 29 
Q 3234 -91 2688 -91 
Q 1631 -91 995 570 
Q 359 1231 359 2328 
Q 359 3434 996 4092 
Q 1634 4750 2713 4750 
Q 3113 4750 3539 4658 
Q 3966 4566 4447 4378 
L 4447 3272 
L 4097 3272 
z
" transform="scale(0.015625)"/>
       <path id="DejaVuSerif-61" d="M 2547 1044 
L 2547 1747 
L 1806 1747 
Q 1378 1747 1168 1562 
Q 959 1378 959 997 
Q 959 650 1171 447 
Q 1384 244 1747 244 
Q 2106 244 2326 466 
Q 2547 688 2547 1044 
z
M 3122 2075 
L 3122 331 
L 3634 331 
L 3634 0 
L 2547 0 
L 2547 359 
Q 2356 128 2106 18 
Q 1856 -91 1522 -91 
Q 969 -91 644 203 
Q 319 497 319 997 
Q 319 1513 691 1797 
Q 1063 2081 1741 2081 
L 2547 2081 
L 2547 2309 
Q 2547 2688 2317 2895 
Q 2088 3103 1672 3103 
Q 1328 3103 1125 2947 
Q 922 2791 872 2484 
L 575 2484 
L 575 3156 
Q 875 3284 1158 3348 
Q 1441 3413 1709 3413 
Q 2400 3413 2761 3070 
Q 3122 2728 3122 2075 
z
" transform="scale(0.015625)"/>
       <path id="DejaVuSerif-64" d="M 3359 331 
L 3909 331 
L 3909 0 
L 2784 0 
L 2784 519 
Q 2616 206 2355 57 
Q 2094 -91 1709 -91 
Q 1097 -91 708 395 
Q 319 881 319 1663 
Q 319 2444 706 2928 
Q 1094 3413 1709 3413 
Q 2094 3413 2355 3264 
Q 2616 3116 2784 2803 
L 2784 4531 
L 2241 4531 
L 2241 4863 
L 3359 4863 
L 3359 331 
z
M 2784 1497 
L 2784 1825 
Q 2784 2422 2554 2737 
Q 2325 3053 1888 3053 
Q 1444 3053 1217 2703 
Q 991 2353 991 1663 
Q 991 975 1217 622 
Q 1444 269 1888 269 
Q 2325 269 2554 583 
Q 2784 897 2784 1497 
z
" transform="scale(0.015625)"/>
      </defs>
      <use xlink:href="#DejaVuSerif-35"/>
      <use xlink:href="#DejaVuSerif-47" x="63.623047"/>
      <use xlink:href="#DejaVuSerif-75" x="143.505859"/>
      <use xlink:href="#DejaVuSerif-61" x="207.910156"/>
      <use xlink:href="#DejaVuSerif-72" x="267.529297"/>
      <use xlink:href="#DejaVuSerif-64" x="315.332031"/>
     </g>
    </g>
   </g>
  </g>
 </g>
 <defs>
  <clipPath id="p150e14e1c1">
   <rect x="61.09" y="5" width="365.91" height="372.12"/>
  </clipPath>
 </defs>
</svg>
